<svg xmlns="http://www.w3.org/2000/svg" width="512" height="512"><path d="M441.418 158.455v195.167l-12.445 2v-236.652c-66.856 2.04-130.146 12.788-173 39.466-42.856-26.678-106.144-37.426-173-39.466v236.652l-12.445-2v-195.167h-20.5v219.001h155.45c25.376 0 28.161 15.574 50.495 15.574 22.376 0 25.071-15.574 50.496-15.574h155.504v-219.001h-20.555zm-202.436 194.437c-33.402-13.253-73.892-21.78-123.029-25.474v-172.518c40.354 3.386 88.635 11.587 123.029 32.984v165.008zm157.01-25.474c-49.138 3.693-89.628 12.221-123.029 25.474v-165.007c34.394-21.397 82.675-29.599 123.029-32.984v172.517z"/></svg>