<svg xmlns="http://www.w3.org/2000/svg" width="32" height="32"><path d="M9.143 22.286v3.429q0 .714-.5 1.214t-1.214.5h-5.714q-.714 0-1.214-.5t-.5-1.214v-3.429q0-.714.5-1.214t1.214-.5h5.714q.714 0 1.214.5t.5 1.214zm0-9.143v3.429q0 .714-.5 1.214t-1.214.5h-5.714q-.714 0-1.214-.5t-.5-1.214v-3.429q0-.714.5-1.214t1.214-.5h5.714q.714 0 1.214.5t.5 1.214zm22.857 9.143v3.429q0 .714-.5 1.214t-1.214.5h-17.143q-.714 0-1.214-.5t-.5-1.214v-3.429q0-.714.5-1.214t1.214-.5h17.143q.714 0 1.214.5t.5 1.214zm-22.857-18.286v3.429q0 .714-.5 1.214t-1.214.5h-5.714q-.714 0-1.214-.5t-.5-1.214v-3.429q0-.714.5-1.214t1.214-.5h5.714q.714 0 1.214.5t.5 1.214zm22.857 9.143v3.429q0 .714-.5 1.214t-1.214.5h-17.143q-.714 0-1.214-.5t-.5-1.214v-3.429q0-.714.5-1.214t1.214-.5h17.143q.714 0 1.214.5t.5 1.214zm0-9.143v3.429q0 .714-.5 1.214t-1.214.5h-17.143q-.714 0-1.214-.5t-.5-1.214v-3.429q0-.714.5-1.214t1.214-.5h17.143q.714 0 1.214.5t.5 1.214z" fill="#fff"/></svg>