<svg xmlns="http://www.w3.org/2000/svg" width="22" height="24"><line stroke="#449FDB"/><path d="M8.571 19.286l.013.268.007.355-.04.315-.134.261-.275.087h-4.286q-1.594 0-2.725-1.132t-1.132-2.725v-9.429q0-1.594 1.132-2.725t2.725-1.132h4.286q.174 0 .301.127t.127.301l.013.268.007.355-.04.315-.134.261-.275.087h-4.286q-.884 0-1.513.629t-.629 1.513v9.429q0 .884.629 1.513t1.513.629h4.179l.154.013.154.04.107.074.094.121.027.181zm12.429-7.286q0 .348-.254.603l-7.286 7.286q-.254.254-.603.254t-.603-.254-.254-.603v-3.857h-6q-.348 0-.603-.254t-.254-.603v-5.143q0-.348.254-.603t.603-.254h6v-3.857q0-.348.254-.603t.603-.254.603.254l7.286 7.286q.254.254.254.603z" fill="#1f346b"/></svg>