<svg xmlns="http://www.w3.org/2000/svg" width="22" height="24"><path d="M15.429 11.143q0-2.478-1.761-4.239t-4.239-1.761-4.239 1.761-1.761 4.239 1.761 4.239 4.239 1.761 4.239-1.761 1.761-4.239zm6.857 11.143q0 .696-.509 1.205t-1.205.509q-.723 0-1.205-.509l-4.594-4.58q-2.397 1.661-5.344 1.661-1.915 0-3.663-.743t-3.013-2.009-2.009-3.013-.743-3.663.743-3.663 2.009-3.013 3.013-2.009 3.663-.743 3.663.743 3.013 2.009 2.009 3.013.743 3.663q0 2.946-1.661 5.344l4.594 4.594q.496.496.496 1.205z" fill="#1f346b"/></svg>