<svg xmlns="http://www.w3.org/2000/svg" width="512" height="512"><path fill="#4875B4" d="M411.945 50h-312c-27.614 0-50 22.386-50 50v312c0 27.614 22.386 50 50 50h312c27.613 0 50-22.386 50-50v-312c0-27.614-22.385-50-50-50zm-230.949 342.99h-56.537v-182.654h56.537v182.654zm-28.539-206.573c-18.465 0-33.432-15.09-33.432-33.703 0-18.614 14.967-33.704 33.432-33.704 18.463 0 33.432 15.09 33.432 33.704 0 18.613-14.969 33.703-33.432 33.703zm240.408 206.573h-56.262v-95.881c0-26.297-9.988-40.975-30.781-40.975-22.629 0-34.453 15.289-34.453 40.975v95.881h-54.223v-182.654h54.223v24.599s16.309-30.171 55.041-30.171 66.455 23.648 66.455 72.572v115.654z"/></svg>