<svg xmlns="http://www.w3.org/2000/svg" width="20" height="20"><path fill="#001E54" d="M17.246 14.479c-3.986-.409-4.221-1.465-4.221-1.465s-.433-1.601-.234-1.817c.645-.703 1.113-2.52 1.113-2.52s.509.084.703-.528c.792-2.491.06-2.344.06-2.344s.82-3.81-1.524-4.865c-2.345-1.055-3.722-1.377-6.184-.146-2.603 1.301-1.67 5.012-1.67 5.012s-.503-.464-.382.644c.323 2.93 1.001 1.718 1.144 2.285.147.586.849 2.257.849 2.257s.557 1.436-.616 2.373c-1.172.938-2.813.294-4.161 1.349-.733.573-1.412 2.808-1.881 4.729 2.284.214 5.517.349 9.112.349 4.355 0 8.188-.196 10.432-.494-.287-2.141-.959-4.656-2.54-4.819z"/></svg>