<svg xmlns="http://www.w3.org/2000/svg" width="512" height="512"><path d="M353.149 147.149c-42.435 0-79.193 24.282-97.149 59.708-17.956-35.425-54.714-59.708-97.148-59.708-60.117 0-108.852 48.733-108.852 108.852 0 60.115 48.735 108.851 108.853 108.851 42.434 0 79.192-24.283 97.148-59.708 17.956 35.425 54.714 59.708 97.149 59.708 60.116 0 108.851-48.735 108.851-108.851-.001-60.119-48.735-108.852-108.852-108.852zm0 188.675c-44.015 0-79.825-35.809-79.825-79.823 0-44.014 35.811-79.824 79.825-79.824 44.013 0 79.822 35.81 79.822 79.824.001 44.015-35.809 79.823-79.822 79.823z"/></svg>