<svg xmlns="http://www.w3.org/2000/svg" width="22" height="24"><line stroke="#449FDB"/><path d="M21.951 6.402q.536.763.241 1.728l-3.683 12.134q-.254.857-1.025 1.44t-1.641.583h-12.362q-1.031 0-1.989-.717t-1.333-1.761q-.321-.897-.027-1.701l.04-.362.054-.496q.013-.107-.04-.288t-.04-.261q.027-.147.107-.281t.221-.315.221-.315q.308-.509.603-1.225t.402-1.225q.04-.134.007-.402t-.007-.375q.04-.147.228-.375t.228-.308q.281-.482.563-1.232t.335-1.205q.013-.121-.033-.429t.007-.375q.054-.174.295-.408t.295-.301q.254-.348.569-1.132t.368-1.292q.013-.107-.04-.342t-.027-.355q.027-.107.121-.241t.241-.308.228-.281q.107-.161.221-.408t.201-.469.214-.482.261-.429.355-.315.482-.154.636.074l-.013.04q.509-.121.683-.121h10.192q.991 0 1.527.75t.241 1.741l-3.67 12.134q-.482 1.594-.958 2.056t-1.721.462h-11.638q-.362 0-.509.201-.147.214-.013.576.321.938 1.929.938h12.362q.388 0 .75-.208t.469-.556l4.018-13.219q.094-.295.067-.763.509.201.79.576zm-14.25.027q-.054.174.027.301t.268.127h8.143q.174 0 .342-.127t.221-.301l.281-.857q.054-.174-.027-.301t-.268-.127h-8.143q-.174 0-.342.127t-.221.301zm-1.112 3.428q-.054.174.027.301t.268.127h8.143q.174 0 .342-.127t.221-.301l.281-.857q.054-.174-.027-.301t-.268-.127h-8.143q-.174 0-.342.127t-.221.301z" fill="#fff"/></svg>