<svg xmlns="http://www.w3.org/2000/svg" width="24" height="24"><line stroke="#449FDB"/><path d="M19.5 3v1.535c0 1.658-1.342 3-3 3s-3-1.342-3-3v-1.535h-3v1.535c0 1.658-1.342 3-3 3s-3-1.342-3-3v-1.535h-4.5v21h24v-21h-4.5zm-12 18h-3v-3h3v3zm0-6h-3v-3h3v3zm6 6h-3v-3h3v3zm0-6h-3v-3h3v3zm3 6v-3h3l-3 3zm3-6h-3v-3h3v3zm-13.5-10.5v-3c0-.829.671-1.5 1.5-1.5s1.5.671 1.5 1.5v3c0 .829-.671 1.5-1.5 1.5s-1.5-.671-1.5-1.5zm9 0v-3c0-.829.671-1.5 1.5-1.5s1.5.671 1.5 1.5v3c0 .829-.671 1.5-1.5 1.5s-1.5-.671-1.5-1.5z" fill="#fff"/></svg>