<?xml version="1.0" encoding="utf-8"?>
<!-- Generated by IcoMoon.io -->
<!DOCTYPE svg PUBLIC "-//W3C//DTD SVG 1.1//EN" "http://www.w3.org/Graphics/SVG/1.1/DTD/svg11.dtd">
<svg version="1.1" xmlns="http://www.w3.org/2000/svg" xmlns:xlink="http://www.w3.org/1999/xlink" width="24" height="24" viewBox="0 0 24 24">
<g>
</g>
	<path d="M21 3.75h-18c-1.657 0-3 1.344-3 3v9.75c0 1.657 1.343 3 3 3h18c1.657 0 3-1.343 3-3v-9.75c0-1.656-1.343-3-3-3zM1.5 7.688l5.249 3.938-5.249 3.938v-7.875zM22.5 16.5c0 0.828-0.674 1.5-1.5 1.5h-18c-0.827 0-1.5-0.672-1.5-1.5l5.874-4.406 3.276 2.458c0.4 0.299 0.875 0.45 1.35 0.45s0.949-0.151 1.349-0.45l3.277-2.458 5.874 4.406zM22.5 15.563l-5.25-3.938 5.25-3.938v7.875zM12.899 13.951c-0.262 0.197-0.572 0.3-0.899 0.3s-0.638-0.104-0.9-0.3l-9.6-7.201c0-0.827 0.673-1.5 1.5-1.5h18c0.826 0 1.5 0.673 1.5 1.5l-9.601 7.201z" fill="#1f346b"></path>
</svg>
