<?xml version="1.0" encoding="utf-8"?>
<!-- Generated by IcoMoon.io -->
<!DOCTYPE svg PUBLIC "-//W3C//DTD SVG 1.1//EN" "http://www.w3.org/Graphics/SVG/1.1/DTD/svg11.dtd">
<svg version="1.1" xmlns="http://www.w3.org/2000/svg" xmlns:xlink="http://www.w3.org/1999/xlink" width="24" height="24" viewBox="0 0 24 24">
<g>
</g>
	<path d="M22 2.25h-3.25v-1.5c0-0.415-0.335-0.75-0.75-0.75s-0.75 0.335-0.75 0.75v1.5h-4.5v-1.5c0-0.415-0.336-0.75-0.75-0.75s-0.75 0.335-0.75 0.75v1.5h-4.5v-1.5c0-0.415-0.336-0.75-0.75-0.75s-0.75 0.335-0.75 0.75v1.5h-3.25c-1.105 0-2 0.895-2 2v17.75c0 1.105 0.895 2 2 2h20c1.105 0 1.999-0.895 1.999-2v-17.75c0-1.105-0.895-1.999-2-1.999zM22.5 22c0 0.276-0.224 0.5-0.5 0.5h-20c-0.276 0-0.5-0.224-0.5-0.5v-17.75c0-0.275 0.224-0.5 0.5-0.5h3.25v1.5c0 0.415 0.336 0.75 0.75 0.75s0.75-0.335 0.75-0.75v-1.5h4.5v1.5c0 0.415 0.336 0.75 0.75 0.75s0.75-0.335 0.75-0.75v-1.5h4.5v1.5c0 0.415 0.335 0.75 0.75 0.75s0.75-0.335 0.75-0.75v-1.5h3.25c0.275 0 0.5 0.224 0.5 0.5v17.75zM5.25 9h3v2.25h-3zM5.25 12.75h3v2.25h-3zM5.25 16.5h3v2.25h-3zM10.5 16.5h3v2.25h-3zM10.5 12.75h3v2.25h-3zM10.5 9h3v2.25h-3zM15.75 16.5h3v2.25h-3zM15.75 12.75h3v2.25h-3zM15.75 9h3v2.25h-3z" fill="#1f346b"></path>
</svg>
