<?xml version="1.0" encoding="utf-8"?>
<!-- Generated by IcoMoon.io -->
<!DOCTYPE svg PUBLIC "-//W3C//DTD SVG 1.1//EN" "http://www.w3.org/Graphics/SVG/1.1/DTD/svg11.dtd">
<svg version="1.1" xmlns="http://www.w3.org/2000/svg" xmlns:xlink="http://www.w3.org/1999/xlink" width="22" height="24" viewBox="0 0 22 24">
<g>
	<line stroke-width="1" x1="" y1="" x2="" y2="" stroke="#449FDB" opacity=""></line>
</g>
	<path d="M8.571 19.286q0 0.054 0.013 0.268t0.007 0.355-0.040 0.315-0.134 0.261-0.275 0.087h-4.286q-1.594 0-2.725-1.132t-1.132-2.725v-9.429q0-1.594 1.132-2.725t2.725-1.132h4.286q0.174 0 0.301 0.127t0.127 0.301q0 0.054 0.013 0.268t0.007 0.355-0.040 0.315-0.134 0.261-0.275 0.087h-4.286q-0.884 0-1.513 0.629t-0.629 1.513v9.429q0 0.884 0.629 1.513t1.513 0.629h4.179t0.154 0.013 0.154 0.040 0.107 0.074 0.094 0.121 0.027 0.181zM21 12q0 0.348-0.254 0.603l-7.286 7.286q-0.254 0.254-0.603 0.254t-0.603-0.254-0.254-0.603v-3.857h-6q-0.348 0-0.603-0.254t-0.254-0.603v-5.143q0-0.348 0.254-0.603t0.603-0.254h6v-3.857q0-0.348 0.254-0.603t0.603-0.254 0.603 0.254l7.286 7.286q0.254 0.254 0.254 0.603z" fill="#1f346b"></path>
</svg>
