<?xml version="1.0" encoding="utf-8"?>
<!-- Generator: Adobe Illustrator 15.0.0, SVG Export Plug-In . SVG Version: 6.00 Build 0)  -->
<!DOCTYPE svg PUBLIC "-//W3C//DTD SVG 1.1//EN" "http://www.w3.org/Graphics/SVG/1.1/DTD/svg11.dtd">
<svg version="1.1" id="Layer_1" xmlns="http://www.w3.org/2000/svg" xmlns:xlink="http://www.w3.org/1999/xlink" x="0px" y="0px"
	 width="512px" height="512px" viewBox="0 0 512 512" enable-background="new 0 0 512 512" xml:space="preserve">
<path id="youtube-new-icon" fill="#FF3333" d="M458.388,180.186c-6.477-55.046-28.296-62.633-71.718-65.586
	c-61.736-4.2-199.561-4.203-261.34,0c-43.421,2.954-65.241,10.541-71.717,65.586c-4.809,40.867-4.825,110.619,0,151.626
	c6.477,55.047,28.296,62.634,71.717,65.589c61.779,4.201,199.604,4.198,261.34,0c43.422-2.955,65.241-10.542,71.718-65.589
	C463.196,290.945,463.212,221.195,458.388,180.186z M214.974,313.524V198.602l110.208,57.462L214.974,313.524z"/>
</svg>
