<?xml version="1.0" encoding="utf-8"?>
<!-- Generated by IcoMoon.io -->
<!DOCTYPE svg PUBLIC "-//W3C//DTD SVG 1.1//EN" "http://www.w3.org/Graphics/SVG/1.1/DTD/svg11.dtd">
<svg version="1.1" xmlns="http://www.w3.org/2000/svg" xmlns:xlink="http://www.w3.org/1999/xlink" width="24" height="24" viewBox="0 0 24 24">
<g>
</g>
	<path d="M12 0c-4.557 0-8.25 3.693-8.25 8.25 0 3.023 2.766 6.227 3.773 9.041 1.502 4.196 1.336 6.709 4.477 6.709 3.188 0 2.974-2.5 4.477-6.692 1.010-2.82 3.773-6.058 3.773-9.058 0-4.557-3.695-8.25-8.25-8.25zM13.944 20.382l-3.719 0.464c-0.133-0.384-0.275-0.833-0.449-1.42-0.002-0.008-0.005-0.016-0.007-0.023l4.641-0.58c-0.066 0.221-0.136 0.454-0.198 0.662-0.098 0.337-0.186 0.629-0.269 0.896zM9.552 18.681c-0.136-0.451-0.29-0.927-0.461-1.431h5.825c-0.092 0.269-0.184 0.539-0.264 0.794l-5.099 0.637zM12 22.5c-0.76 0-1.109-0.088-1.498-0.938l3.178-0.398c-0.46 1.24-0.796 1.336-1.681 1.336zM15.504 15.75h-7c-0.373-0.81-0.822-1.62-1.264-2.413-0.979-1.751-1.99-3.563-1.99-5.087 0-3.722 3.028-6.75 6.75-6.75s6.75 3.028 6.75 6.75c0 1.514-1.013 3.335-1.992 5.096-0.438 0.79-0.884 1.598-1.254 2.404zM12 3.75c0.206 0 0.375 0.168 0.375 0.375s-0.168 0.375-0.375 0.375c-2.068 0-3.75 1.682-3.75 3.75 0 0.207-0.168 0.375-0.375 0.375s-0.375-0.168-0.375-0.375c0-2.482 2.018-4.5 4.5-4.5z" fill="#1f346b"></path>
</svg>
