<?xml version="1.0" encoding="utf-8"?>
<!-- Generated by IcoMoon.io -->
<!DOCTYPE svg PUBLIC "-//W3C//DTD SVG 1.1//EN" "http://www.w3.org/Graphics/SVG/1.1/DTD/svg11.dtd">
<svg version="1.1" xmlns="http://www.w3.org/2000/svg" xmlns:xlink="http://www.w3.org/1999/xlink" width="22" height="24" viewBox="0 0 22 24">
<g>
	<line stroke-width="1" x1="" y1="" x2="" y2="" stroke="#449FDB" opacity=""></line>
</g>
	<path d="M22.286 8.665q0 0.295-0.348 0.643l-4.862 4.741 1.152 6.696q0.013 0.094 0.013 0.268 0 0.281-0.141 0.475t-0.408 0.194q-0.254 0-0.536-0.161l-6.013-3.161-6.013 3.161q-0.295 0.161-0.536 0.161-0.281 0-0.422-0.194t-0.141-0.475q0-0.080 0.027-0.268l1.152-6.696-4.875-4.741q-0.335-0.362-0.335-0.643 0-0.496 0.75-0.616l6.723-0.978 3.013-6.094q0.254-0.549 0.656-0.549t0.656 0.549l3.013 6.094 6.723 0.978q0.75 0.121 0.75 0.616z" fill="#1f346b"></path>
</svg>
