<?xml version="1.0" encoding="utf-8"?>
<!-- Generated by IcoMoon.io -->
<!DOCTYPE svg PUBLIC "-//W3C//DTD SVG 1.1//EN" "http://www.w3.org/Graphics/SVG/1.1/DTD/svg11.dtd">
<svg version="1.1" xmlns="http://www.w3.org/2000/svg" xmlns:xlink="http://www.w3.org/1999/xlink" width="24" height="24" viewBox="0 0 24 24">
<g>
	<line stroke-width="1" x1="" y1="" x2="" y2="" stroke="#449FDB" opacity=""></line>
</g>
	<path d="M22.286 8.571q0.71 0 1.212 0.502t0.502 1.212-0.502 1.212-1.212 0.502v5.143q0 0.696-0.509 1.205t-1.205 0.509q-5.585-4.647-10.875-5.089-0.777 0.254-1.219 0.884t-0.415 1.346 0.536 1.239q-0.268 0.442-0.308 0.877t0.080 0.777 0.449 0.737 0.643 0.67 0.824 0.676q-0.388 0.777-1.493 1.112t-2.257 0.154-1.768-0.743q-0.094-0.308-0.395-1.172t-0.429-1.266-0.308-1.192-0.201-1.353 0.047-1.319 0.295-1.48h-1.634q-0.884 0-1.513-0.629t-0.629-1.513v-2.571q0-0.884 0.629-1.513t1.513-0.629h6.429q5.826 0 12-5.143 0.696 0 1.205 0.509t0.509 1.205v5.143zM20.571 16.661v-12.777q-5.277 4.045-10.286 4.594v3.616q5.049 0.563 10.286 4.567z" fill="#ffffff"></path>
</svg>
