<?xml version="1.0" encoding="utf-8"?>
<!-- Generated by IcoMoon.io -->
<!DOCTYPE svg PUBLIC "-//W3C//DTD SVG 1.1//EN" "http://www.w3.org/Graphics/SVG/1.1/DTD/svg11.dtd">
<svg version="1.1" xmlns="http://www.w3.org/2000/svg" xmlns:xlink="http://www.w3.org/1999/xlink" width="32" height="32" viewBox="0 0 32 32">
<g>
</g>
	<path d="M9.143 22.286v3.429q0 0.714-0.5 1.214t-1.214 0.5h-5.714q-0.714 0-1.214-0.5t-0.5-1.214v-3.429q0-0.714 0.5-1.214t1.214-0.5h5.714q0.714 0 1.214 0.5t0.5 1.214zM9.143 13.143v3.429q0 0.714-0.5 1.214t-1.214 0.5h-5.714q-0.714 0-1.214-0.5t-0.5-1.214v-3.429q0-0.714 0.5-1.214t1.214-0.5h5.714q0.714 0 1.214 0.5t0.5 1.214zM32 22.286v3.429q0 0.714-0.5 1.214t-1.214 0.5h-17.143q-0.714 0-1.214-0.5t-0.5-1.214v-3.429q0-0.714 0.5-1.214t1.214-0.5h17.143q0.714 0 1.214 0.5t0.5 1.214zM9.143 4v3.429q0 0.714-0.5 1.214t-1.214 0.5h-5.714q-0.714 0-1.214-0.5t-0.5-1.214v-3.429q0-0.714 0.5-1.214t1.214-0.5h5.714q0.714 0 1.214 0.5t0.5 1.214zM32 13.143v3.429q0 0.714-0.5 1.214t-1.214 0.5h-17.143q-0.714 0-1.214-0.5t-0.5-1.214v-3.429q0-0.714 0.5-1.214t1.214-0.5h17.143q0.714 0 1.214 0.5t0.5 1.214zM32 4v3.429q0 0.714-0.5 1.214t-1.214 0.5h-17.143q-0.714 0-1.214-0.5t-0.5-1.214v-3.429q0-0.714 0.5-1.214t1.214-0.5h17.143q0.714 0 1.214 0.5t0.5 1.214z" fill="#ffffff"></path>
</svg>
