<?xml version="1.0" encoding="utf-8"?>
<!-- Generated by IcoMoon.io -->
<!DOCTYPE svg PUBLIC "-//W3C//DTD SVG 1.1//EN" "http://www.w3.org/Graphics/SVG/1.1/DTD/svg11.dtd">
<svg version="1.1" xmlns="http://www.w3.org/2000/svg" xmlns:xlink="http://www.w3.org/1999/xlink" width="24" height="24" viewBox="0 0 24 24">
<g>
	<line stroke-width="1" x1="" y1="" x2="" y2="" stroke="#449FDB" opacity=""></line>
</g>
	<path d="M19.5 3v1.535c0 1.658-1.342 3-3 3s-3-1.342-3-3v-1.535h-3v1.535c0 1.658-1.342 3-3 3s-3-1.342-3-3v-1.535h-4.5v21h24v-21h-4.5zM7.5 21h-3v-3h3v3zM7.5 15h-3v-3h3v3zM13.5 21h-3v-3h3v3zM13.5 15h-3v-3h3v3zM16.5 21v-3h3l-3 3zM19.5 15h-3v-3h3v3zM6 4.5v-3c0-0.829 0.671-1.5 1.5-1.5s1.5 0.671 1.5 1.5v3c0 0.829-0.671 1.5-1.5 1.5s-1.5-0.671-1.5-1.5zM15 4.5v-3c0-0.829 0.671-1.5 1.5-1.5s1.5 0.671 1.5 1.5v3c0 0.829-0.671 1.5-1.5 1.5s-1.5-0.671-1.5-1.5z" fill="#ffffff"></path>
</svg>
