<?xml version="1.0" encoding="utf-8"?>

<!-- License Agreement at http://iconmonstr.com/license/ -->

<!DOCTYPE svg PUBLIC "-//W3C//DTD SVG 1.1//EN" "http://www.w3.org/Graphics/SVG/1.1/DTD/svg11.dtd">
<svg version="1.1" xmlns="http://www.w3.org/2000/svg" xmlns:xlink="http://www.w3.org/1999/xlink" x="0px" y="0px"
	 width="512px" height="512px" viewBox="0 0 512 512" enable-background="new 0 0 512 512" xml:space="preserve">
<path id="tags-6-icon" fill="#574b4b" d="M271.044,74.159H116.185v154.748l190.84,190.953L462,264.892L271.044,74.159z M290.114,290.245
	l-14.143,14.143l-60.981-60.98l14.142-14.143L290.114,290.245z M350.347,296.601l-14.142,14.143l-94.276-94.275l14.143-14.143
	L350.347,296.601z M216.322,170.315c-12.491,12.49-32.749,12.492-45.238,0c-12.491-12.494-12.491-32.75-0.001-45.24
	c12.49-12.494,32.748-12.494,45.24,0C228.817,137.565,228.818,157.821,216.322,170.315z M377.714,269.233l-14.142,14.143
	l-94.276-94.275l14.143-14.143L377.714,269.233z M256,411.136l-26.704,26.705L50,258.571V118.72h36.164v122.619L256,411.136z"/>
</svg>
