<?xml version="1.0" encoding="utf-8"?>
<!-- Generated by IcoMoon.io -->
<!DOCTYPE svg PUBLIC "-//W3C//DTD SVG 1.1//EN" "http://www.w3.org/Graphics/SVG/1.1/DTD/svg11.dtd">
<svg version="1.1" xmlns="http://www.w3.org/2000/svg" xmlns:xlink="http://www.w3.org/1999/xlink" width="22" height="24" viewBox="0 0 22 24">
<g>
	<line stroke-width="1" x1="" y1="" x2="" y2="" stroke="#449FDB" opacity=""></line>
</g>
	<path d="M21.951 6.402q0.536 0.763 0.241 1.728l-3.683 12.134q-0.254 0.857-1.025 1.44t-1.641 0.583h-12.362q-1.031 0-1.989-0.717t-1.333-1.761q-0.321-0.897-0.027-1.701 0-0.054 0.040-0.362t0.054-0.496q0.013-0.107-0.040-0.288t-0.040-0.261q0.027-0.147 0.107-0.281t0.221-0.315 0.221-0.315q0.308-0.509 0.603-1.225t0.402-1.225q0.040-0.134 0.007-0.402t-0.007-0.375q0.040-0.147 0.228-0.375t0.228-0.308q0.281-0.482 0.563-1.232t0.335-1.205q0.013-0.121-0.033-0.429t0.007-0.375q0.054-0.174 0.295-0.408t0.295-0.301q0.254-0.348 0.569-1.132t0.368-1.292q0.013-0.107-0.040-0.342t-0.027-0.355q0.027-0.107 0.121-0.241t0.241-0.308 0.228-0.281q0.107-0.161 0.221-0.408t0.201-0.469 0.214-0.482 0.261-0.429 0.355-0.315 0.482-0.154 0.636 0.074l-0.013 0.040q0.509-0.121 0.683-0.121h10.192q0.991 0 1.527 0.75t0.241 1.741l-3.67 12.134q-0.482 1.594-0.958 2.056t-1.721 0.462h-11.638q-0.362 0-0.509 0.201-0.147 0.214-0.013 0.576 0.321 0.938 1.929 0.938h12.362q0.388 0 0.75-0.208t0.469-0.556l4.018-13.219q0.094-0.295 0.067-0.763 0.509 0.201 0.79 0.576zM7.701 6.429q-0.054 0.174 0.027 0.301t0.268 0.127h8.143q0.174 0 0.342-0.127t0.221-0.301l0.281-0.857q0.054-0.174-0.027-0.301t-0.268-0.127h-8.143q-0.174 0-0.342 0.127t-0.221 0.301zM6.589 9.857q-0.054 0.174 0.027 0.301t0.268 0.127h8.143q0.174 0 0.342-0.127t0.221-0.301l0.281-0.857q0.054-0.174-0.027-0.301t-0.268-0.127h-8.143q-0.174 0-0.342 0.127t-0.221 0.301z" fill="#1f346b"></path>
</svg>
