<?xml version="1.0" encoding="utf-8"?>
<!-- Generator: Adobe Illustrator 15.0.0, SVG Export Plug-In . SVG Version: 6.00 Build 0)  -->
<!DOCTYPE svg PUBLIC "-//W3C//DTD SVG 1.1//EN" "http://www.w3.org/Graphics/SVG/1.1/DTD/svg11.dtd">
<svg version="1.1" id="Layer_1" xmlns="http://www.w3.org/2000/svg" xmlns:xlink="http://www.w3.org/1999/xlink" x="0px" y="0px"
	 width="20px" height="20px" viewBox="0 0 20 20" enable-background="new 0 0 20 20" xml:space="preserve">
<g>
	<path fill="#001E54" d="M17.246,14.479c-3.986-0.409-4.221-1.465-4.221-1.465s-0.433-1.601-0.234-1.817
		c0.645-0.703,1.113-2.52,1.113-2.52s0.509,0.084,0.703-0.528c0.792-2.491,0.06-2.344,0.06-2.344s0.82-3.81-1.524-4.865
		c-2.345-1.055-3.722-1.377-6.184-0.146c-2.603,1.301-1.67,5.012-1.67,5.012S4.786,5.342,4.907,6.45
		c0.323,2.93,1.001,1.718,1.144,2.285C6.198,9.321,6.9,10.992,6.9,10.992s0.557,1.436-0.616,2.373
		c-1.172,0.938-2.813,0.294-4.161,1.349c-0.733,0.573-1.412,2.808-1.881,4.729c2.284,0.214,5.517,0.349,9.112,0.349
		c4.355,0,8.188-0.196,10.432-0.494C19.499,17.157,18.827,14.642,17.246,14.479z"/>
</g>
</svg>
