<?xml version="1.0" encoding="utf-8"?>
<!-- Generator: Adobe Illustrator 18.0.0, SVG Export Plug-In . SVG Version: 6.00 Build 0)  -->
<!DOCTYPE svg PUBLIC "-//W3C//DTD SVG 1.1//EN" "http://www.w3.org/Graphics/SVG/1.1/DTD/svg11.dtd">
<svg version="1.1" id="Layer_1" xmlns="http://www.w3.org/2000/svg" xmlns:xlink="http://www.w3.org/1999/xlink" x="0px" y="0px"
	 viewBox="0 0 800 163.5" enable-background="new 0 0 800 163.5" xml:space="preserve">
<g id="Blue">
	<g>
		<path fill="#FFFFFF" d="M27.7,15.7c-1.3-4-4-7.2-8.9-7.2c-6.3,0-9.8,5.8-9.8,17c0,11.2,3.1,17,10.3,17c4,0,6.7-1.3,9.4-7.2
			l8.5,2.2c-2.7,8.5-9.4,12.5-17.9,12.5C6.7,50.1,0,41.1,0,25C0,9.4,7.2,0,19.2,0c9.4,0,14.8,4,17,12.5L27.7,15.7z"/>
		<path fill="#FFFFFF" d="M63.5,50.1L63.1,47c-3.1,2.2-6.7,3.6-10.7,3.6c-6.3,0-9.4-4.5-9.4-9.4c0-8,6.3-12.1,20.1-13.9v-3.1
			c0-2.7-2.2-4-4.9-4c-4,0-5.8,2.2-7.6,4.5l-5.4-4c2.2-3.6,8.1-6.7,13-6.3c9.4,0,13.4,3.6,13.4,13.9v16.5c0,1.8,0,3.6,0.9,4.9h-8.9
			L63.5,50.1L63.5,50.1z M62.6,33.1C57.2,34,51,35.3,51,40.3c0,2.7,1.8,4,4,4c2.7,0,5.8-2.2,7.6-3.6C62.6,40.7,62.6,33.1,62.6,33.1z
			"/>
		<rect x="80.9" y="1.8" fill="#FFFFFF" width="8.5" height="48.3"/>
		<path fill="#FFFFFF" d="M99.7,0.9h8.5v7.6h-8.5V0.9z M108.2,50.1h-8.5V15.2h8.5V50.1z"/>
		<path fill="#FFFFFF" d="M128.4,21.9v28.2h-8.5V21.9h-4.9v-6.7h4.9v-4.5c0-7.6,3.1-9.8,9.8-9.8h5.4v6.7h-2.2
			c-3.6,0-4.5,0.9-4.5,3.6v3.6h7.2v6.7h-7.2V21.9z"/>
		<path fill="#FFFFFF" d="M155.2,14.3c9.4,0,15.2,7.2,15.2,17.9c0,10.7-5.8,17.9-15.2,17.9c-9.4,0-15.2-7.2-15.2-17.9
			C140,21.5,145.8,14.3,155.2,14.3 M155.2,21c-4.5,0-6.7,3.6-6.7,11.2s2.2,11.2,6.7,11.2c4.5,0,6.7-3.6,6.7-11.2S159.7,21,155.2,21"
			/>
		<path fill="#FFFFFF" d="M177.6,50.1V15.2h7.6V21l0,0c1.8-4,4.9-6.7,9.8-6.7v8.9c-0.4,0-0.9,0-1.3,0c-4,0-7.6,4.9-7.6,5.8v21
			L177.6,50.1L177.6,50.1z"/>
		<path fill="#FFFFFF" d="M201.7,50.1V15.2h7.6v3.6c3.1-2.2,6.7-4.5,10.7-4.5c7.2,0,10.3,4.5,10.3,11.6v23.7h-8.5V26.8
			c0-4.5-1.3-6.3-4.5-6.3c-3.6,0-6.3,2.2-7.6,3.6v25h-8.1V50.1z"/>
		<path fill="#FFFFFF" d="M240.6,0.9h8.5v7.6h-8.5V0.9z M249.1,50.1h-8.5V15.2h8.5V50.1z"/>
		<path fill="#FFFFFF" d="M277.3,50.1l-0.4-3.1c-3.1,2.2-6.7,3.6-10.7,3.6c-6.3,0-9.4-4.5-9.4-9.4c0-8,6.3-12.1,20.1-13.9v-3.1
			c0-2.7-2.2-4-4.9-4c-4,0-5.8,2.2-7.6,4.5l-5.4-4c2.2-3.6,8-6.7,13-6.3c9.4,0,13.4,3.6,13.4,13.9v16.5c0,1.8,0,3.6,0.9,4.9h-8.9
			L277.3,50.1L277.3,50.1z M276.4,33.1c-5.4,0.9-11.6,2.2-11.6,7.2c0,2.7,1.8,4,4,4c2.7,0,5.8-2.2,7.6-3.6L276.4,33.1L276.4,33.1z"
			/>
		<path fill="#FFFFFF" d="M342.1,14.3c-1.3-3.6-4.5-6.3-8.5-6.3c-4,0-6.7,1.8-6.7,5.4c0,8.5,25,6.7,25,22.4c0,9.8-6.3,14.8-17,14.8
			c-8.1,0-15.2-4.5-17.9-11.6l7.6-3.1c2.2,4.5,4.9,7.6,10.7,7.6c4.5,0,8.1-1.8,8.1-6.3c0-9.4-25-7.6-25-22.4
			c0-8.5,7.2-13.4,15.7-13.4c7.6,0,14.3,4,17,10.7L342.1,14.3z"/>
		<path fill="#FFFFFF" d="M360.9,15.2V3.6h8.5v11.6h6.7v6.7h-6.7v19.7c0,1.8,0.9,2.2,3.1,2.2c1.3,0,2.7-0.4,4-0.9v6.7
			c-2.2,0.4-4.5,0.4-6.7,0.4c-6.3,0-8.5-3.1-8.5-8V21.5h-4.9v-6.7h4.5V15.2z"/>
		<path fill="#FFFFFF" d="M402.5,50.1l-0.4-3.1c-3.1,2.2-6.7,3.6-10.7,3.6c-6.3,0-9.4-4.5-9.4-9.4c0-8,6.3-12.1,20.1-13.9v-3.1
			c0-2.7-2.2-4-4.9-4c-4,0-5.8,2.2-7.6,4.5l-5.4-4c2.2-3.6,8-6.7,13-6.3c9.4,0,13.4,3.6,13.4,13.9v16.5c0,1.8,0,3.6,0.9,4.9h-8.9
			L402.5,50.1L402.5,50.1z M401.6,33.1c-5.4,0.9-11.6,2.2-11.6,7.2c0,2.7,1.8,4,4,4c2.7,0,5.8-2.2,7.6-3.6L401.6,33.1L401.6,33.1z"
			/>
		<path fill="#FFFFFF" d="M420.8,15.2V3.6h8.5v11.6h6.7v6.7h-6.7v19.7c0,1.8,0.9,2.2,3.1,2.2c1.3,0,2.7-0.4,4-0.9v6.7
			c-2.2,0.4-4.5,0.4-6.7,0.4c-6.3,0-8.5-3.1-8.5-8V21.5h-4.9v-6.7h4.5L420.8,15.2L420.8,15.2z"/>
		<path fill="#FFFFFF" d="M449,34c0,7.2,3.1,9.8,7.2,9.8s5.8-1.8,7.6-4l5.8,3.6c-3.1,4.9-8,7.2-14.8,7.2c-8.9,0-14.8-7.2-14.8-17.9
			c0-11.2,5.8-17.9,15.2-17.9c8.9,0,14.3,7.6,14.3,16.1V34L449,34L449,34z M462.4,28.2c0-4.9-2.7-7.6-6.7-7.6c-4,0-6.7,2.7-6.7,7.6
			H462.4z"/>
		<path fill="#FFFFFF" d="M531.3,1.8h9.4v30.4c0,14.3-8.5,18.8-18.3,18.8c-9.8,0-18.8-4.5-18.8-18.8V1.8h9.4v30.9
			c0,8.1,3.1,10.7,9.4,10.7c6.3,0,9.4-2.7,9.4-10.7V1.8H531.3z"/>
		<path fill="#FFFFFF" d="M551.4,50.1V15.2h7.6v3.6c3.1-2.2,6.7-4.5,10.7-4.5c7.2,0,10.3,4.5,10.3,11.6v23.7h-8.5V26.8
			c0-4.5-1.3-6.3-4.5-6.3c-3.6,0-6.3,2.2-7.6,3.6v25h-8.1L551.4,50.1L551.4,50.1z"/>
		<path fill="#FFFFFF" d="M590.3,0.9h8.5v7.6h-8.5V0.9z M598.4,50.1h-8.5V15.2h8.5V50.1z"/>
		<polygon fill="#FFFFFF" points="605.6,15.2 613.6,15.2 619.4,38.9 619.4,38.9 625.7,15.2 633.7,15.2 623.9,50.1 614.9,50.1 		"/>
		<path fill="#FFFFFF" d="M645.4,34c0,7.2,3.1,9.8,7.2,9.8s5.8-1.8,7.6-4l5.8,3.6c-3.1,4.9-8,7.2-14.8,7.2
			c-8.9,0-14.8-7.2-14.8-17.9c0-11.2,5.8-17.9,15.2-17.9c8.9,0,14.3,7.6,14.3,16.1V34L645.4,34L645.4,34z M658.8,28.2
			c0-4.9-2.7-7.6-6.7-7.6c-4,0-6.7,2.7-6.7,7.6H658.8z"/>
		<path fill="#FFFFFF" d="M674.4,50.1V15.2h7.6V21l0,0c2.2-4,4.9-6.7,9.8-6.7v8.9c-0.4,0-0.9,0-1.3,0c-4,0-7.6,4.9-7.6,5.8v21
			L674.4,50.1L674.4,50.1z"/>
		<path fill="#FFFFFF" d="M716.5,24.2c-1.8-1.8-4-3.6-6.7-3.6c-3.1,0-4.5,1.3-4.5,3.6c0,5.8,17.4,3.6,17.4,16.1
			c0,7.2-5.4,10.3-13,10.3c-5.4,0-10.3-2.7-13.4-7.2l5.4-4c1.8,2.7,4.5,4.9,8.1,4.9c3.1,0,4.9-1.8,4.9-4c0-5.8-17.4-4-17.4-16.1
			c0-6.7,5.4-10.3,11.6-10.3c4.5,0,9.4,1.8,12.1,5.4L716.5,24.2z"/>
		<path fill="#FFFFFF" d="M730.8,0.9h8.5v7.6h-8.5V0.9z M739.3,50.1h-8.5V15.2h8.5V50.1z"/>
		<path fill="#FFFFFF" d="M750.9,15.2V3.6h8.5v11.6h6.7v6.7h-6.7v19.7c0,1.8,0.9,2.2,3.1,2.2c1.3,0,2.7-0.4,4-0.9v6.7
			c-2.2,0.4-4.5,0.4-6.7,0.4c-6.3,0-8.5-3.1-8.5-8V21.5h-4.9v-6.7h4.5L750.9,15.2L750.9,15.2z"/>
		<path fill="#FFFFFF" d="M771,55.5c1.3,0.4,2.2,0.4,3.6,0.4c2.7,0,4.5-0.9,5.4-2.7c0.9-1.8,1.3-2.7,1.3-4c0-1.3-0.9-2.7-0.9-4
			l-9.4-30h8.5l5.8,21.5l0,0l5.8-21.5h8.5l-11.2,34.9c-3.6,9.8-6.7,12.5-13.4,12.5c-2.2,0-3.1,0-4-0.4L771,55.5L771,55.5z"/>
		<polygon fill="#FFFFFF" points="2.2,161.9 2.2,85 22.8,85 37.6,138.6 37.6,138.6 52.3,85 73.3,85 73.3,161.9 60.4,161.9 
			60.4,101.5 60.4,101.5 42.9,161.9 32.2,161.9 15.2,101.5 14.8,101.5 14.8,161.9 		"/>
		<path fill="#FFFFFF" d="M120.8,162.8c-21,0-32.2-14.3-32.2-39.4s11.2-39.4,32.2-39.4c21,0,32.2,14.3,32.2,39.4
			C153,148.5,141.3,162.8,120.8,162.8 M120.8,96.2c-12.1,0-17.4,8.9-17.4,27.3c0,17.9,5.4,27.3,17.4,27.3c12.1,0,17.4-8.9,17.4-27.3
			C138.2,105.5,132.8,96.2,120.8,96.2"/>
		<polygon fill="#FFFFFF" points="168.2,161.9 168.2,85 183.4,85 213.3,137.3 213.8,137.3 213.8,85 227.2,85 227.2,161.9 
			213.3,161.9 182,107.3 181.6,107.3 181.6,161.9 		"/>
		<polygon fill="#FFFFFF" points="295.2,85 295.2,97.5 275,97.5 275,161.9 260.7,161.9 260.7,97.5 240.6,97.5 240.6,85 		"/>
		<polygon fill="#FFFFFF" points="308.6,161.9 308.6,85 359.1,85 359.1,97.5 323.3,97.5 323.3,115.8 349.3,115.8 349.3,127.9 
			323.3,127.9 323.3,149.4 360.5,149.4 360.5,161.9 		"/>
		<path fill="#FFFFFF" d="M374.3,161.9V85h30.4c17.4,0,24.6,10.3,24.6,22.8c0,9.4-4.5,17-13.9,19.7l17,34h-16.1l-14.3-31.3h-12.5
			v31.3h-15.2L374.3,161.9L374.3,161.9z M389.1,118.5h10.7c11.6,0,14.8-3.6,14.8-10.7S410.1,97,402.1,97h-13.4v21.5H389.1z"/>
		<polygon fill="#FFFFFF" points="446.8,161.9 446.8,85 497.8,85 497.8,97.5 461.5,97.5 461.5,115.8 487.9,115.8 487.9,127.9 
			461.5,127.9 461.5,149.4 498.7,149.4 498.7,161.9 		"/>
		<polygon fill="#FFFFFF" points="537.1,115.4 550.1,85 565.3,85 544.3,131 544.3,161.9 529.5,161.9 529.5,131 508.5,85 523.7,85 		
			"/>
		<path fill="#FFFFFF" d="M616.7,85h28.6c15.2,0,25,4.9,25.9,18.8c0,8.1-3.1,14.3-11.6,17.4c9.8,4,13.4,8.5,13.4,20.1
			c0,12.1-8.5,20.1-27.7,20.1h-28.6L616.7,85L616.7,85z M631.5,115.8h14.8c7.2,0,10.3-4,10.3-9.4c0-5.4-3.6-9.4-10.3-9.4h-14.8
			V115.8z M631.5,149.8h14.8c8.5,0,12.1-4,12.1-11.2c0-7.2-3.6-11.2-12.1-11.2h-14.8V149.8z"/>
		<path fill="#FFFFFF" d="M704.4,85h18.3l21.9,76.9h-14.8l-4-16.5h-24.2l-4.5,16.5h-14.8L704.4,85z M704.8,133.3h17.9l-8.5-33.5l0,0
			L704.8,133.3z"/>
		<polygon fill="#FFFFFF" points="771.9,115.4 784.9,85 800.1,85 779.1,131 779.1,161.9 764.8,161.9 764.8,131 743.3,85 758.5,85 		
			"/>
	</g>
</g>
<g id="White" display="none">
	<g display="inline">
		<path fill="#FFFFFF" d="M69.2,215.6c-1.2-3.6-3.6-6.4-8-6.4c-5.6,0-8.8,5.2-8.8,15.2s2.8,15.2,9.2,15.2c3.6,0,6-1.2,8.4-6.4l7.6,2
			c-2.4,7.6-8.4,11.2-16,11.2c-11.2,0-17.2-8-17.2-22.4c0-14,6.4-22.4,17.2-22.4c8.4,0,13.2,3.6,15.2,11.2L69.2,215.6z"/>
		<path fill="#FFFFFF" d="M101.2,246.4l-0.4-2.8c-2.8,2-6,3.2-9.6,3.2c-5.6,0-8.4-4-8.4-8.4c0-7.2,5.6-10.8,18-12.4v-2.8
			c0-2.4-2-3.6-4.4-3.6c-3.6,0-5.2,2-6.8,4l-4.8-3.6c2-3.2,7.2-6,11.6-5.6c8.4,0,12,3.2,12,12.4v14.8c0,1.6,0,3.2,0.8,4.4h-8
			C101.2,246,101.2,246.4,101.2,246.4z M100.4,231.2c-4.8,0.8-10.4,2-10.4,6.4c0,2.4,1.6,3.6,3.6,3.6c2.4,0,5.2-2,6.8-3.2V231.2z"/>
		<rect x="116.8" y="203.2" fill="#FFFFFF" width="7.6" height="43.2"/>
		<path fill="#FFFFFF" d="M133.6,202.4h7.6v6.8h-7.6V202.4z M141.2,246.4h-7.6v-31.2h7.6V246.4z"/>
		<path fill="#FFFFFF" d="M159.2,221.2v25.2h-7.6v-25.2h-4.4v-6h4.4v-4c0-6.8,2.8-8.8,8.8-8.8h4.8v6h-2c-3.2,0-4,0.8-4,3.2v3.2h6.4
			v6h-6.4V221.2z"/>
		<path fill="#FFFFFF" d="M183.2,214.4c8.4,0,13.6,6.4,13.6,16s-5.2,16-13.6,16c-8.4,0-13.6-6.4-13.6-16S174.8,214.4,183.2,214.4
			 M183.2,220.4c-4,0-6,3.2-6,10s2,10,6,10s6-3.2,6-10C189.2,223.6,187.2,220.4,183.2,220.4"/>
		<path fill="#FFFFFF" d="M203.2,246.4v-31.2h6.8v5.2l0,0c1.6-3.6,4.4-6,8.8-6v8c-0.4,0-0.8,0-1.2,0c-3.6,0-6.8,4.4-6.8,5.2v18.8
			H203.2z"/>
		<path fill="#FFFFFF" d="M224.8,246.4v-31.2h6.8v3.2c2.8-2,6-4,9.6-4c6.4,0,9.2,4,9.2,10.4V246h-7.6v-20.4c0-4-1.2-5.6-4-5.6
			c-3.2,0-5.6,2-6.8,3.2v22.4h-7.2V246.4z"/>
		<path fill="#FFFFFF" d="M259.6,202.4h7.6v6.8h-7.6V202.4z M267.2,246.4h-7.6v-31.2h7.6V246.4z"/>
		<path fill="#FFFFFF" d="M292.4,246.4l-0.4-2.8c-2.8,2-6,3.2-9.6,3.2c-5.6,0-8.4-4-8.4-8.4c0-7.2,5.6-10.8,18-12.4v-2.8
			c0-2.4-2-3.6-4.4-3.6c-3.6,0-5.2,2-6.8,4L276,220c2-3.2,7.2-6,11.6-5.6c8.4,0,12,3.2,12,12.4v14.8c0,1.6,0,3.2,0.8,4.4h-8V246.4z
			 M291.6,231.2c-4.8,0.8-10.4,2-10.4,6.4c0,2.4,1.6,3.6,3.6,3.6c2.4,0,5.2-2,6.8-3.2V231.2z"/>
		<path fill="#FFFFFF" d="M350.4,214.4c-1.2-3.2-4-5.6-7.6-5.6s-6,1.6-6,4.8c0,7.6,22.4,6,22.4,20c0,8.8-5.6,13.2-15.2,13.2
			c-7.2,0-13.6-4-16-10.4l6.8-2.8c2,4,4.4,6.8,9.6,6.8c4,0,7.2-1.6,7.2-5.6c0-8.4-22.4-6.8-22.4-20c0-7.6,6.4-12,14-12
			c6.8,0,12.8,3.6,15.2,9.6L350.4,214.4z"/>
		<path fill="#FFFFFF" d="M367.2,215.2v-10.4h7.6v10.4h6v6h-6v17.6c0,1.6,0.8,2,2.8,2c1.2,0,2.4-0.4,3.6-0.8v6c-2,0.4-4,0.4-6,0.4
			c-5.6,0-7.6-2.8-7.6-7.2v-18.4h-4.4v-6h4V215.2z"/>
		<path fill="#FFFFFF" d="M404.4,246.4l-0.4-2.8c-2.8,2-6,3.2-9.6,3.2c-5.6,0-8.4-4-8.4-8.4c0-7.2,5.6-10.8,18-12.4v-2.8
			c0-2.4-2-3.6-4.4-3.6c-3.6,0-5.2,2-6.8,4L388,220c2-3.2,7.2-6,11.6-5.6c8.4,0,12,3.2,12,12.4v14.8c0,1.6,0,3.2,0.8,4.4h-8
			L404.4,246.4L404.4,246.4z M403.6,231.2c-4.8,0.8-10.4,2-10.4,6.4c0,2.4,1.6,3.6,3.6,3.6c2.4,0,5.2-2,6.8-3.2L403.6,231.2
			L403.6,231.2z"/>
		<path fill="#FFFFFF" d="M420.8,215.2v-10.4h7.6v10.4h6v6h-6v17.6c0,1.6,0.8,2,2.8,2c1.2,0,2.4-0.4,3.6-0.8v6c-2,0.4-4,0.4-6,0.4
			c-5.6,0-7.6-2.8-7.6-7.2v-18.4h-4.4v-6h4L420.8,215.2L420.8,215.2z"/>
		<path fill="#FFFFFF" d="M446,232c0,6.4,2.8,8.8,6.4,8.8s5.2-1.6,6.8-3.6l5.2,3.2c-2.8,4.4-7.2,6.4-13.2,6.4c-8,0-13.2-6.4-13.2-16
			c0-10,5.2-16,13.6-16c8,0,12.8,6.8,12.8,14.4v2.8L446,232L446,232z M458,226.8c0-4.4-2.4-6.8-6-6.8s-6,2.4-6,6.8H458z"/>
		<path fill="#FFFFFF" d="M519.6,203.2h8.4v27.2c0,12.8-7.6,16.8-16.4,16.8c-8.8,0-16.8-4-16.8-16.8v-27.2h8.4v27.6
			c0,7.2,2.8,9.6,8.4,9.6c5.6,0,8.4-2.4,8.4-9.6v-27.6H519.6z"/>
		<path fill="#FFFFFF" d="M537.6,246.4v-31.2h6.8v3.2c2.8-2,6-4,9.6-4c6.4,0,9.2,4,9.2,10.4V246h-7.6v-20.4c0-4-1.2-5.6-4-5.6
			c-3.2,0-5.6,2-6.8,3.2v22.4h-7.2V246.4z"/>
		<path fill="#FFFFFF" d="M572.4,202.4h7.6v6.8h-7.6V202.4z M579.6,246.4H572v-31.2h7.6V246.4z"/>
		<polygon fill="#FFFFFF" points="586,215.2 593.2,215.2 598.4,236.4 598.4,236.4 604,215.2 611.2,215.2 602.4,246.4 594.4,246.4 		
			"/>
		<path fill="#FFFFFF" d="M621.6,232c0,6.4,2.8,8.8,6.4,8.8s5.2-1.6,6.8-3.6l5.2,3.2c-2.8,4.4-7.2,6.4-13.2,6.4
			c-8,0-13.2-6.4-13.2-16c0-10,5.2-16,13.6-16c8,0,12.8,6.8,12.8,14.4v2.8L621.6,232L621.6,232z M633.6,226.8c0-4.4-2.4-6.8-6-6.8
			c-3.6,0-6,2.4-6,6.8H633.6z"/>
		<path fill="#FFFFFF" d="M647.6,246.4v-31.2h6.8v5.2l0,0c2-3.6,4.4-6,8.8-6v8c-0.4,0-0.8,0-1.2,0c-3.6,0-6.8,4.4-6.8,5.2v18.8
			H647.6z"/>
		<path fill="#FFFFFF" d="M685.2,223.2c-1.6-1.6-3.6-3.2-6-3.2c-2.8,0-4,1.2-4,3.2c0,5.2,15.6,3.2,15.6,14.4c0,6.4-4.8,9.2-11.6,9.2
			c-4.8,0-9.2-2.4-12-6.4l4.8-3.6c1.6,2.4,4,4.4,7.2,4.4c2.8,0,4.4-1.6,4.4-3.6c0-5.2-15.6-3.6-15.6-14.4c0-6,4.8-9.2,10.4-9.2
			c4,0,8.4,1.6,10.8,4.8L685.2,223.2z"/>
		<path fill="#FFFFFF" d="M698,202.4h7.6v6.8H698V202.4z M705.6,246.4H698v-31.2h7.6V246.4z"/>
		<path fill="#FFFFFF" d="M716,215.2v-10.4h7.6v10.4h6v6h-6v17.6c0,1.6,0.8,2,2.8,2c1.2,0,2.4-0.4,3.6-0.8v6c-2,0.4-4,0.4-6,0.4
			c-5.6,0-7.6-2.8-7.6-7.2v-18.4H712v-6h4V215.2z"/>
		<path fill="#FFFFFF" d="M734,251.2c1.2,0.4,2,0.4,3.2,0.4c2.4,0,4-0.8,4.8-2.4c0.8-1.6,1.2-2.4,1.2-3.6c0-1.2-0.8-2.4-0.8-3.6
			l-8.4-26.8h7.6l5.2,19.2l0,0l5.2-19.2h7.6l-10,31.2c-3.2,8.8-6,11.2-12,11.2c-2,0-2.8,0-3.6-0.4V251.2z"/>
		<polygon fill="#FFFFFF" points="46.4,346.4 46.4,277.6 64.8,277.6 78,325.6 78,325.6 91.2,277.6 110,277.6 110,346.4 98.4,346.4 
			98.4,292.4 98.4,292.4 82.8,346.4 73.2,346.4 58,292.4 57.6,292.4 57.6,346.4 		"/>
		<path fill="#FFFFFF" d="M152.4,347.2c-18.8,0-28.8-12.8-28.8-35.2c0-22.4,10-35.2,28.8-35.2s28.8,12.8,28.8,35.2
			C181.2,334.4,170.8,347.2,152.4,347.2 M152.4,287.6c-10.8,0-15.6,8-15.6,24.4c0,16,4.8,24.4,15.6,24.4s15.6-8,15.6-24.4
			C168,296,163.2,287.6,152.4,287.6"/>
		<polygon fill="#FFFFFF" points="194.8,346.4 194.8,277.6 208.4,277.6 235.2,324.4 235.6,324.4 235.6,277.6 247.6,277.6 
			247.6,346.4 235.2,346.4 207.2,297.6 206.8,297.6 206.8,346.4 		"/>
		<polygon fill="#FFFFFF" points="308.4,277.6 308.4,288.8 290.4,288.8 290.4,346.4 277.6,346.4 277.6,288.8 259.6,288.8 
			259.6,277.6 		"/>
		<polygon fill="#FFFFFF" points="320.4,346.4 320.4,277.6 365.6,277.6 365.6,288.8 333.6,288.8 333.6,305.2 356.8,305.2 356.8,316 
			333.6,316 333.6,335.2 366.8,335.2 366.8,346.4 		"/>
		<path fill="#FFFFFF" d="M379.2,346.4v-68.8h27.2c15.6,0,22,9.2,22,20.4c0,8.4-4,15.2-12.4,17.6l15.2,30.4h-14.4L404,318h-11.2v28
			h-13.6L379.2,346.4L379.2,346.4z M392.4,307.6h9.6c10.4,0,13.2-3.2,13.2-9.6c0-6.4-4-9.6-11.2-9.6h-12v19.2H392.4z"/>
		<polygon fill="#FFFFFF" points="444,346.4 444,277.6 489.6,277.6 489.6,288.8 457.2,288.8 457.2,305.2 480.8,305.2 480.8,316 
			457.2,316 457.2,335.2 490.4,335.2 490.4,346.4 		"/>
		<polygon fill="#FFFFFF" points="524.8,304.8 536.4,277.6 550,277.6 531.2,318.8 531.2,346.4 518,346.4 518,318.8 499.2,277.6 
			512.8,277.6 		"/>
		<path fill="#FFFFFF" d="M596,277.6h25.6c13.6,0,22.4,4.4,23.2,16.8c0,7.2-2.8,12.8-10.4,15.6c8.8,3.6,12,7.6,12,18
			c0,10.8-7.6,18-24.8,18H596V277.6z M609.2,305.2h13.2c6.4,0,9.2-3.6,9.2-8.4s-3.2-8.4-9.2-8.4h-13.2V305.2z M609.2,335.6h13.2
			c7.6,0,10.8-3.6,10.8-10c0-6.4-3.2-10-10.8-10h-13.2V335.6z"/>
		<path fill="#FFFFFF" d="M674.4,277.6h16.4l19.6,68.8h-13.2l-3.6-14.8H672l-4,14.8h-13.2L674.4,277.6z M674.8,320.8h16l-7.6-30l0,0
			L674.8,320.8z"/>
		<polygon fill="#FFFFFF" points="734.8,304.8 746.4,277.6 760,277.6 741.2,318.8 741.2,346.4 728.4,346.4 728.4,318.8 709.2,277.6 
			722.8,277.6 		"/>
		<polygon fill="#FFFFFF" points="46.8,399.6 46.8,369.2 67.2,369.2 67.2,374 52.8,374 52.8,381.2 63.2,381.2 63.2,386.4 
			52.8,386.4 52.8,394.8 67.6,394.8 67.6,399.6 		"/>
		<polygon fill="#FFFFFF" points="77.6,388.4 71.6,377.6 77.2,377.6 80.4,384 83.6,377.6 89.2,377.6 83.2,388.4 89.6,399.6 
			84,399.6 80.4,392.8 76.8,399.6 71.2,399.6 		"/>
		<path fill="#FFFFFF" d="M95.6,377.6v-7.2h5.2v7.2h4.4v4.4h-4.4v12.4c0,1.2,0.4,1.6,2,1.6c0.8,0,1.6-0.4,2.4-0.4v4.4
			c-1.6,0-2.8,0.4-4,0.4c-4,0-5.6-2-5.6-5.2V382h-3.2v-4.4H95.6z"/>
		<path fill="#FFFFFF" d="M109.6,399.6v-22h4.8v3.6l0,0c1.2-2.8,3.2-4,6.4-4.4v5.6c-0.4,0-0.4,0-0.8,0c-2.8,0-4.8,3.2-4.8,3.6v13.6
			L109.6,399.6L109.6,399.6z"/>
		<path fill="#FFFFFF" d="M136.8,399.6l-0.4-2c-2,1.6-4,2.4-6.8,2.4c-4,0-6-2.8-6-6c0-5.2,4-7.6,12.8-8.8V384c0-1.6-1.2-2.8-3.2-2.8
			c-2.4,0-4,1.2-4.8,2.8l-3.2-2.4c1.2-2.4,5.2-4,8.4-4c6,0,8.4,2.4,8.4,8.8v10.4c0,1.2,0,2.4,0.4,3.2h-5.6L136.8,399.6L136.8,399.6z
			 M136,389.2c-3.6,0.8-7.2,1.6-7.2,4.4c0,1.6,1.2,2.4,2.4,2.4c1.6,0,3.6-1.6,4.8-2.4V389.2z"/>
		<path fill="#FFFFFF" d="M155.6,377.2c6,0,9.6,4.4,9.6,11.6s-3.6,11.6-9.6,11.6s-9.6-4.4-9.6-11.6S149.6,377.2,155.6,377.2
			 M155.6,381.6c-2.8,0-4.4,2.4-4.4,7.2s1.6,7.2,4.4,7.2c2.8,0,4.4-2.4,4.4-7.2S158.8,381.6,155.6,381.6"/>
		<path fill="#FFFFFF" d="M170,399.6v-22h4.8v3.6l0,0c1.2-2.8,3.2-4,6.4-4.4v5.6c-0.4,0-0.4,0-0.8,0c-2.8,0-4.8,3.2-4.8,3.6v13.6
			L170,399.6L170,399.6z"/>
		<path fill="#FFFFFF" d="M204,399.6h-4.4l-0.4-2.4c-2,2-3.6,2.8-6,2.8c-6,0-8.8-5.2-8.8-12c0-5.6,3.2-10.8,8.8-10.8
			c1.6,0,4.4,1.2,5.2,2.4l0,0v-10.8h5.6L204,399.6L204,399.6z M198.8,383.2c-1.2-0.8-2.4-2-4-2c-3.2,0-4.8,2.4-4.8,7.2
			c0,4.8,1.6,7.2,4.8,7.2c2.4,0,2.8-1.2,4-2V383.2z"/>
		<path fill="#FFFFFF" d="M210.8,368.8h5.2v4.8h-5.2V368.8z M216,399.6h-5.2v-22h5.2V399.6z"/>
		<path fill="#FFFFFF" d="M222.4,399.6v-22h4.8v2.4c2-1.2,4.4-2.8,6.8-2.8c4.4,0,6.4,2.8,6.4,7.2v15.2h-5.2v-14.4c0-2.8-0.8-4-2.8-4
			c-2.4,0-4,1.2-4.8,2.4v16L222.4,399.6L222.4,399.6z"/>
		<path fill="#FFFFFF" d="M258.4,399.6l-0.4-2c-2,1.6-4,2.4-6.8,2.4c-4,0-6-2.8-6-6c0-5.2,4-7.6,12.8-8.8V384c0-1.6-1.2-2.8-3.2-2.8
			c-2.4,0-4,1.2-4.8,2.8l-3.2-2.4c1.2-2.4,5.2-4,8.4-4c6,0,8.4,2.4,8.4,8.8v10.4c0,1.2,0,2.4,0.4,3.2h-5.6V399.6z M258,389.2
			c-3.6,0.8-7.2,1.6-7.2,4.4c0,1.6,1.2,2.4,2.4,2.4c1.6,0,3.6-1.6,4.8-2.4V389.2z"/>
		<path fill="#FFFFFF" d="M269.2,399.6v-22h4.8v3.6l0,0c1.2-2.8,3.2-4,6-4.4v5.6c-0.4,0-0.4,0-0.8,0c-2.8,0-4.8,3.2-4.8,3.6v13.6
			L269.2,399.6L269.2,399.6z"/>
		<path fill="#FFFFFF" d="M283.2,403.2c0.8,0,1.6,0,2.4,0c2,0,2.8-0.4,3.6-1.6c0.4-1.2,0.8-1.6,0.8-2.4s-0.4-1.6-0.8-2.8l-6-18.8
			h5.2l3.6,13.6l0,0l3.6-13.6h5.2l-6.4,22.4c-2.4,6.4-4.4,8-8.4,8c-1.2,0-2,0-2.4,0v-4.8L283.2,403.2L283.2,403.2z"/>
		<path fill="#FFFFFF" d="M330.8,400.4c-8.4,0-12.8-5.6-12.8-15.6s4.4-15.6,12.8-15.6s12.8,5.6,12.8,15.6
			C344,394.4,339.2,400.4,330.8,400.4 M330.8,373.6c-4.8,0-7.2,3.6-7.2,10.8c0,7.2,2,10.8,7.2,10.8c4.8,0,7.2-3.6,7.2-10.8
			C338,377.2,335.6,373.6,330.8,373.6"/>
		<path fill="#FFFFFF" d="M349.2,377.6h5.2v2c1.6-1.6,3.2-2.4,5.6-2.4c6,0,8.8,5.2,8.8,12c0,5.6-3.2,10.8-8.8,10.8
			c-1.6,0-4.4-1.2-5.2-2.4l0,0V408h-5.2v-30.4H349.2z M354.4,394c1.2,0.8,2.4,2,4,2c3.2,0,4.8-2.4,4.8-7.2s-1.6-7.2-4.8-7.2
			c-2.4,0-2.8,1.2-4,2V394z"/>
		<path fill="#FFFFFF" d="M374,377.6h5.2v2c1.6-1.6,3.2-2.4,5.6-2.4c6,0,8.8,5.2,8.8,12c0,5.6-3.2,10.8-8.8,10.8
			c-1.6,0-4.4-1.2-5.2-2.4l0,0V408h-5.2v-30.4H374z M379.2,394c1.2,0.8,2.4,2,4,2c3.2,0,4.8-2.4,4.8-7.2s-1.6-7.2-4.8-7.2
			c-2.4,0-2.8,1.2-4,2V394z"/>
		<path fill="#FFFFFF" d="M406.8,377.2c6,0,9.6,4.4,9.6,11.6s-3.6,11.6-9.6,11.6s-9.6-4.4-9.6-11.6S400.8,377.2,406.8,377.2
			 M406.8,381.6c-2.8,0-4.4,2.4-4.4,7.2s1.6,7.2,4.4,7.2s4.4-2.4,4.4-7.2S410,381.6,406.8,381.6"/>
		<path fill="#FFFFFF" d="M421.2,399.6v-22h4.8v3.6l0,0c1.2-2.8,3.2-4,6.4-4.4v5.6c-0.4,0-0.4,0-0.8,0c-2.8,0-4.8,3.2-4.8,3.6v13.6
			L421.2,399.6L421.2,399.6z"/>
		<path fill="#FFFFFF" d="M438.8,377.6v-7.2h5.2v7.2h4.4v4.4H444v12.4c0,1.2,0.4,1.6,2,1.6c0.8,0,1.6-0.4,2.4-0.4v4.4
			c-1.6,0-2.8,0.4-4,0.4c-4,0-5.6-2-5.6-5.2V382h-3.2v-4.4H438.8z"/>
		<path fill="#FFFFFF" d="M471.2,377.6v22h-4.8v-2.4c-2,1.2-4.4,2.8-6.8,2.8c-4.4,0-6.4-2.8-6.4-7.2v-15.2h5.2V392
			c0,2.8,0.8,4,2.8,4c2.4,0,4-1.2,4.8-2.4v-16H471.2z"/>
		<path fill="#FFFFFF" d="M477.2,399.6v-22h4.8v2.4c2-1.2,4.4-2.8,6.8-2.8c4.4,0,6.4,2.8,6.4,7.2v15.2H490v-14.4c0-2.8-0.8-4-2.8-4
			c-2.4,0-4,1.2-4.8,2.4v16L477.2,399.6L477.2,399.6z"/>
		<path fill="#FFFFFF" d="M502,368.8h5.2v4.8H502V368.8z M507.2,399.6H502v-22h5.2V399.6z"/>
		<path fill="#FFFFFF" d="M514.8,377.6v-7.2h5.2v7.2h4.4v4.4H520v12.4c0,1.2,0.4,1.6,2,1.6c0.8,0,1.6-0.4,2.4-0.4v4.4
			c-1.6,0-2.8,0.4-4,0.4c-4,0-5.6-2-5.6-5.2V382H512v-4.4H514.8z"/>
		<path fill="#FFFFFF" d="M528,403.2c0.8,0,1.6,0,2.4,0c2,0,2.8-0.4,3.6-1.6c0.4-1.2,0.8-1.6,0.8-2.4s-0.4-1.6-0.8-2.8l-6-18.8h5.2
			l3.6,13.6l0,0l3.6-13.6h5.2l-6.8,22c-2.4,6.4-4.4,8-8.4,8c-1.2,0-2,0-2.4,0V403.2L528,403.2z"/>
	</g>
</g>
</svg>
