<?xml version="1.0" encoding="utf-8"?>
<!-- Generator: Adobe Illustrator 18.0.0, SVG Export Plug-In . SVG Version: 6.00 Build 0)  -->
<!DOCTYPE svg PUBLIC "-//W3C//DTD SVG 1.1//EN" "http://www.w3.org/Graphics/SVG/1.1/DTD/svg11.dtd">
<svg version="1.1" xmlns="http://www.w3.org/2000/svg" xmlns:xlink="http://www.w3.org/1999/xlink" x="0px" y="0px"
   viewBox="0 0 280 72" enable-background="new 0 0 280 72" xml:space="preserve">
<g id="Blue">
  <g>
    <path fill="#ffffff" d="M97.3,14.9c-0.3-0.9-0.9-1.6-2-1.6c-1.4,0-2.2,1.3-2.2,3.8c0,2.5,0.7,3.8,2.3,3.8c0.9,0,1.5-0.3,2.1-1.6
      l1.9,0.5c-0.6,1.9-2.1,2.8-4,2.8c-2.8,0-4.3-2-4.3-5.6c0-3.5,1.6-5.6,4.3-5.6c2.1,0,3.3,0.9,3.8,2.8L97.3,14.9z"/>
    <path fill="#ffffff" d="M105.3,22.6l-0.1-0.7c-0.7,0.5-1.5,0.8-2.4,0.8c-1.4,0-2.1-1-2.1-2.1c0-1.8,1.4-2.7,4.5-3.1v-0.7
      c0-0.6-0.5-0.9-1.1-0.9c-0.9,0-1.3,0.5-1.7,1l-1.2-0.9c0.5-0.8,1.8-1.5,2.9-1.4c2.1,0,3,0.8,3,3.1v3.7c0,0.4,0,0.8,0.2,1.1H105.3z
       M105.1,18.8c-1.2,0.2-2.6,0.5-2.6,1.6c0,0.6,0.4,0.9,0.9,0.9c0.6,0,1.3-0.5,1.7-0.8V18.8z"/>
    <rect x="109.2" y="11.8" fill="#ffffff" width="1.9" height="10.8"/>
    <path fill="#ffffff" d="M113.4,11.6h1.9v1.7h-1.9V11.6z M115.3,22.6h-1.9v-7.8h1.9V22.6z"/>
    <path fill="#ffffff" d="M119.8,16.3v6.3h-1.9v-6.3h-1.1v-1.5h1.1v-1c0-1.7,0.7-2.2,2.2-2.2h1.2v1.5h-0.5c-0.8,0-1,0.2-1,0.8v0.8
      h1.6v1.5H119.8z"/>
    <path fill="#ffffff" d="M125.8,14.6c2.1,0,3.4,1.6,3.4,4s-1.3,4-3.4,4c-2.1,0-3.4-1.6-3.4-4S123.7,14.6,125.8,14.6 M125.8,16.1
      c-1,0-1.5,0.8-1.5,2.5c0,1.7,0.5,2.5,1.5,2.5c1,0,1.5-0.8,1.5-2.5C127.3,16.9,126.8,16.1,125.8,16.1"/>
    <path fill="#ffffff" d="M130.8,22.6v-7.8h1.7v1.3h0c0.4-0.9,1.1-1.5,2.2-1.5v2c-0.1,0-0.2,0-0.3,0c-0.9,0-1.7,1.1-1.7,1.3v4.7
      H130.8z"/>
    <path fill="#ffffff" d="M136.2,22.6v-7.8h1.7v0.8c0.7-0.5,1.5-1,2.4-1c1.6,0,2.3,1,2.3,2.6v5.3h-1.9v-5.1c0-1-0.3-1.4-1-1.4
      c-0.8,0-1.4,0.5-1.7,0.8v5.6H136.2z"/>
    <path fill="#ffffff" d="M144.9,11.6h1.9v1.7h-1.9V11.6z M146.8,22.6h-1.9v-7.8h1.9V22.6z"/>
    <path fill="#ffffff" d="M153.1,22.6l-0.1-0.7c-0.7,0.5-1.5,0.8-2.4,0.8c-1.4,0-2.1-1-2.1-2.1c0-1.8,1.4-2.7,4.5-3.1v-0.7
      c0-0.6-0.5-0.9-1.1-0.9c-0.9,0-1.3,0.5-1.7,1l-1.2-0.9c0.5-0.8,1.8-1.5,2.9-1.4c2.1,0,3,0.8,3,3.1v3.7c0,0.4,0,0.8,0.2,1.1H153.1z
       M152.9,18.8c-1.2,0.2-2.6,0.5-2.6,1.6c0,0.6,0.4,0.9,0.9,0.9c0.6,0,1.3-0.5,1.7-0.8V18.8z"/>
    <path fill="#ffffff" d="M167.6,14.6c-0.3-0.8-1-1.4-1.9-1.4c-0.9,0-1.5,0.4-1.5,1.2c0,1.9,5.6,1.5,5.6,5c0,2.2-1.4,3.3-3.8,3.3
      c-1.8,0-3.4-1-4-2.6l1.7-0.7c0.5,1,1.1,1.7,2.4,1.7c1,0,1.8-0.4,1.8-1.4c0-2.1-5.6-1.7-5.6-5c0-1.9,1.6-3,3.5-3
      c1.7,0,3.2,0.9,3.8,2.4L167.6,14.6z"/>
    <path fill="#ffffff" d="M171.8,14.8v-2.6h1.9v2.6h1.5v1.5h-1.5v4.4c0,0.4,0.2,0.5,0.7,0.5c0.3,0,0.6-0.1,0.9-0.2v1.5
      c-0.5,0.1-1,0.1-1.5,0.1c-1.4,0-1.9-0.7-1.9-1.8v-4.6h-1.1v-1.5H171.8z"/>
    <path fill="#ffffff" d="M181.1,22.6l-0.1-0.7c-0.7,0.5-1.5,0.8-2.4,0.8c-1.4,0-2.1-1-2.1-2.1c0-1.8,1.4-2.7,4.5-3.1v-0.7
      c0-0.6-0.5-0.9-1.1-0.9c-0.9,0-1.3,0.5-1.7,1l-1.2-0.9c0.5-0.8,1.8-1.5,2.9-1.4c2.1,0,3,0.8,3,3.1v3.7c0,0.4,0,0.8,0.2,1.1H181.1z
       M180.9,18.8c-1.2,0.2-2.6,0.5-2.6,1.6c0,0.6,0.4,0.9,0.9,0.9c0.6,0,1.3-0.5,1.7-0.8V18.8z"/>
    <path fill="#ffffff" d="M185.2,14.8v-2.6h1.9v2.6h1.5v1.5h-1.5v4.4c0,0.4,0.2,0.5,0.7,0.5c0.3,0,0.6-0.1,0.9-0.2v1.5
      c-0.5,0.1-1,0.1-1.5,0.1c-1.4,0-1.9-0.7-1.9-1.8v-4.6h-1.1v-1.5H185.2z"/>
    <path fill="#ffffff" d="M191.5,19c0,1.6,0.7,2.2,1.6,2.2c0.9,0,1.3-0.4,1.7-0.9l1.3,0.8c-0.7,1.1-1.8,1.6-3.3,1.6
      c-2,0-3.3-1.6-3.3-4c0-2.5,1.3-4,3.4-4c2,0,3.2,1.7,3.2,3.6V19H191.5z M194.5,17.7c0-1.1-0.6-1.7-1.5-1.7s-1.5,0.6-1.5,1.7H194.5z
      "/>
    <path fill="#ffffff" d="M209.9,11.8h2.1v6.8c0,3.2-1.9,4.2-4.1,4.2c-2.2,0-4.2-1-4.2-4.2v-6.8h2.1v6.9c0,1.8,0.7,2.4,2.1,2.4
      c1.4,0,2.1-0.6,2.1-2.4V11.8z"/>
    <path fill="#ffffff" d="M214.4,22.6v-7.8h1.7v0.8c0.7-0.5,1.5-1,2.4-1c1.6,0,2.3,1,2.3,2.6v5.3h-1.9v-5.1c0-1-0.3-1.4-1-1.4
      c-0.8,0-1.4,0.5-1.7,0.8v5.6H214.4z"/>
    <path fill="#ffffff" d="M223.1,11.6h1.9v1.7h-1.9V11.6z M224.9,22.6h-1.9v-7.8h1.9V22.6z"/>
    <polygon fill="#ffffff" points="226.5,14.8 228.3,14.8 229.6,20.1 229.6,20.1 231,14.8 232.8,14.8 230.6,22.6 228.6,22.6     "/>
    <path fill="#ffffff" d="M235.4,19c0,1.6,0.7,2.2,1.6,2.2c0.9,0,1.3-0.4,1.7-0.9l1.3,0.8c-0.7,1.1-1.8,1.6-3.3,1.6
      c-2,0-3.3-1.6-3.3-4c0-2.5,1.3-4,3.4-4c2,0,3.2,1.7,3.2,3.6V19H235.4z M238.4,17.7c0-1.1-0.6-1.7-1.5-1.7s-1.5,0.6-1.5,1.7H238.4z
      "/>
    <path fill="#ffffff" d="M241.9,22.6v-7.8h1.7v1.3h0c0.5-0.9,1.1-1.5,2.2-1.5v2c-0.1,0-0.2,0-0.3,0c-0.9,0-1.7,1.1-1.7,1.3v4.7
      H241.9z"/>
    <path fill="#ffffff" d="M251.3,16.8c-0.4-0.4-0.9-0.8-1.5-0.8c-0.7,0-1,0.3-1,0.8c0,1.3,3.9,0.8,3.9,3.6c0,1.6-1.2,2.3-2.9,2.3
      c-1.2,0-2.3-0.6-3-1.6l1.2-0.9c0.4,0.6,1,1.1,1.8,1.1c0.7,0,1.1-0.4,1.1-0.9c0-1.3-3.9-0.9-3.9-3.6c0-1.5,1.2-2.3,2.6-2.3
      c1,0,2.1,0.4,2.7,1.2L251.3,16.8z"/>
    <path fill="#ffffff" d="M254.5,11.6h1.9v1.7h-1.9V11.6z M256.4,22.6h-1.9v-7.8h1.9V22.6z"/>
    <path fill="#ffffff" d="M259,14.8v-2.6h1.9v2.6h1.5v1.5h-1.5v4.4c0,0.4,0.2,0.5,0.7,0.5c0.3,0,0.6-0.1,0.9-0.2v1.5
      c-0.5,0.1-1,0.1-1.5,0.1c-1.4,0-1.9-0.7-1.9-1.8v-4.6h-1.1v-1.5H259z"/>
    <path fill="#ffffff" d="M263.5,23.8c0.3,0.1,0.5,0.1,0.8,0.1c0.6,0,1-0.2,1.2-0.6c0.2-0.4,0.3-0.6,0.3-0.9c0-0.3-0.2-0.6-0.2-0.9
      l-2.1-6.7h1.9l1.3,4.8h0l1.3-4.8h1.9l-2.5,7.8c-0.8,2.2-1.5,2.8-3,2.8c-0.5,0-0.7,0-0.9-0.1V23.8z"/>
    <polygon fill="#ffffff" points="91.6,47.6 91.6,30.4 96.2,30.4 99.5,42.4 99.5,42.4 102.8,30.4 107.5,30.4 107.5,47.6 104.6,47.6 
      104.6,34.1 104.6,34.1 100.7,47.6 98.3,47.6 94.5,34.1 94.4,34.1 94.4,47.6    "/>
    <path fill="#ffffff" d="M118.1,47.8c-4.7,0-7.2-3.2-7.2-8.8c0-5.6,2.5-8.8,7.2-8.8c4.7,0,7.2,3.2,7.2,8.8
      C125.3,44.6,122.7,47.8,118.1,47.8 M118.1,32.9c-2.7,0-3.9,2-3.9,6.1c0,4,1.2,6.1,3.9,6.1c2.7,0,3.9-2,3.9-6.1
      C122,35,120.8,32.9,118.1,32.9"/>
    <polygon fill="#ffffff" points="128.7,47.6 128.7,30.4 132.1,30.4 138.8,42.1 138.9,42.1 138.9,30.4 141.9,30.4 141.9,47.6 
      138.8,47.6 131.8,35.4 131.7,35.4 131.7,47.6     "/>
    <polygon fill="#ffffff" points="157.1,30.4 157.1,33.2 152.6,33.2 152.6,47.6 149.4,47.6 149.4,33.2 144.9,33.2 144.9,30.4     "/>
    <polygon fill="#ffffff" points="160.1,47.6 160.1,30.4 171.4,30.4 171.4,33.2 163.4,33.2 163.4,37.3 169.2,37.3 169.2,40 
      163.4,40 163.4,44.8 171.7,44.8 171.7,47.6     "/>
    <path fill="#ffffff" d="M174.8,47.6V30.4h6.8c3.9,0,5.5,2.3,5.5,5.1c0,2.1-1,3.8-3.1,4.4l3.8,7.6h-3.6l-3.2-7h-2.8v7H174.8z
       M178.1,37.9h2.4c2.6,0,3.3-0.8,3.3-2.4c0-1.6-1-2.4-2.8-2.4h-3V37.9z"/>
    <polygon fill="#ffffff" points="191,47.6 191,30.4 202.4,30.4 202.4,33.2 194.3,33.2 194.3,37.3 200.2,37.3 200.2,40 194.3,40 
      194.3,44.8 202.6,44.8 202.6,47.6    "/>
    <polygon fill="#ffffff" points="211.2,37.2 214.1,30.4 217.5,30.4 212.8,40.7 212.8,47.6 209.5,47.6 209.5,40.7 204.8,30.4 
      208.2,30.4    "/>
    <path fill="#ffffff" d="M229,30.4h6.4c3.4,0,5.6,1.1,5.8,4.2c0,1.8-0.7,3.2-2.6,3.9c2.2,0.9,3,1.9,3,4.5c0,2.7-1.9,4.5-6.2,4.5
      H229V30.4z M232.3,37.3h3.3c1.6,0,2.3-0.9,2.3-2.1c0-1.2-0.8-2.1-2.3-2.1h-3.3V37.3z M232.3,44.9h3.3c1.9,0,2.7-0.9,2.7-2.5
      c0-1.6-0.8-2.5-2.7-2.5h-3.3V44.9z"/>
    <path fill="#ffffff" d="M248.6,30.4h4.1l4.9,17.2h-3.3l-0.9-3.7h-5.4l-1,3.7h-3.3L248.6,30.4z M248.7,41.2h4l-1.9-7.5h0
      L248.7,41.2z"/>
    <polygon fill="#ffffff" points="263.7,37.2 266.6,30.4 270,30.4 265.3,40.7 265.3,47.6 262.1,47.6 262.1,40.7 257.3,30.4 
      260.7,30.4    "/>
    <path fill="#ffffff" d="M44.4,28.6c-8.3,0-15,6.7-15,15c0,8.3,6.7,15,15,15c8.3,0,15-6.7,15-15C59.3,35.3,52.6,28.6,44.4,28.6
       M44.4,55.7c-6.7,0-12.1-5.4-12.1-12.1c0-6.7,5.4-12.1,12.1-12.1c6.7,0,12.1,5.4,12.1,12.1C56.6,50.2,51.1,55.7,44.4,55.7"/>
    <path fill="#ffffff" d="M10.4,41.6c0,0,0.7,0.8,2.7,0.4c1-0.2,1.5,0,1.7,0.1c0.2,0.1,0.2,0.2,0.2,0.3c0,0.2-0.2,0.5-0.4,0.6
      c0,0,1,0.3,1.9,0.1c0.9-0.2,2-0.2,2.1-0.2c0.1,0,0.4,0,0.3,0.3c-0.1,0.3-0.4,0.6-0.4,0.6s0.8-0.1,2.2-0.4c0.6-0.1,1.5-0.2,2.4,0
      c0.9,0.2,0.9,1.4,2.1,1.8c1.2,0.4,1.2-2.6,1.2-3.4c0-0.8,0.3-1.2,0.9-1.7c1-0.8,0.8-2,0.6-2.8c-0.1-0.8,1.5-1.7,2-2.6
      c0.4-1,0.1-2-0.1-2.4c-0.2-0.4,0.1-0.7,0.4-1c0.5-0.5,1.4-2,1-2.5c-0.4-0.5-2.4,0-4.5,2c-2.1,1.9-3.6,4.2-4.2,5.2
      c-0.1,0.1-0.2-0.1,0-0.5c0.1-0.4,1.3-3.3,3.7-5.6c2.4-2.3,4.6-3.2,6.3-2.7c1.7,0.4,1.4,1.8,1.1,2.6c-0.3,0.8-1.2,1.3-1.4,2.3
      c-0.2,0.9,0.1,1.6,0.2,2.5c0.1,0.9-0.2,1.5-1,2.4c-0.4,0.4-1.1,1.2-1.1,1.6c0,0.1,0.3,0.6-0.2,2c-0.5,1.4-1.7,1.8-1.7,2.2
      c0,0.4,0,2.3-1.2,3.4c-1.2,1.1-2.6,0.7-3.2,0c-0.6-0.7-0.9-1.6-2.1-1.6c-1.2,0.1-2,0-3.3,0.3c-1.2,0.3-2.4,0.3-2.9,0.2
      c-0.5-0.1-0.6-0.3-0.6-0.3s0.6-0.1,1.2-0.3c0.5-0.2,0.6-0.4,0.6-0.4s-1.2,0.2-2.5,0.1c-1.4-0.1-2.7-0.6-3.5-0.6c0,0,0.3-0.4,1-0.5
      c0.7-0.1,0.8-0.4,0.8-0.4C11.3,43,9.8,42.1,9.8,42c-0.2-1.9,0.9-5.3,0.9-5.3s-0.1,0-0.4,0.3c-0.4,0.3-0.8,0.4-0.8,0.4
      c0.2-0.5,0.4-1.1,0.6-2c0.4-2.1,2.1-5.8,2.1-5.8s-0.3,0-0.7,0.3c-0.4,0.3-0.8,0.3-0.8,0.3s0.1-0.3,0.4-1c0.3-0.7,0.8-1.5,1.5-2.3
      c0.7-0.8,1.1-1.5,1.1-1.5s-0.2-0.1-0.7,0c-0.5,0.1-0.9,0.3-0.9,0.3s0.3-0.6,1.3-1.8c1-1.2,2.5-2.3,2.5-2.3s-0.3,0.2-0.7,0.1
      c-0.3,0-0.7,0.1-0.7,0.1s0.3-0.3,1.6-1.2c1.3-0.9,2.7-1.5,2.7-1.5s-0.3,0-0.7,0c-0.4,0-0.8,0.1-0.8,0.1s1-0.8,3.4-1.6
      c3-1,4.2-0.7,4.2-0.7s-1,0.1-2,0.6c-1,0.4-1.3,0.7-1.3,0.7s0.4,0.3,0.5,0.4c0,0.1,0.1,0.2-0.1,0.2c-0.2,0.1-1,0.2-2,0.6
      c-1,0.4-1.4,0.8-1.4,0.8s0.3,0.1,0.4,0.2c0.2,0.1,0.2,0.2,0,0.4c-0.1,0.1-0.5,0.4-1.7,1.3c-1.1,0.9-1.5,1.5-1.5,1.5s0.6,0,0.7,0
      c0.1,0,0.2,0.1,0.1,0.2c-0.1,0.2-1,1.1-1.6,1.9c-0.6,0.9-1.1,1.6-1.1,1.6s1.1-0.3,0.9,0.4c-0.1,0.4-0.5,1.3-1.6,3.5
      c-1.1,2.2-1.7,3.6-1.7,3.6s1-0.1,1.1-0.1c0.1,0,0.2,0.1,0.2,0.3c-0.1,0.1-0.9,1.4-1.7,3.9C10.5,40.5,10.4,41.6,10.4,41.6"/>
    <path fill="#ffffff" d="M73.1,47.1c0,0-0.5-0.1-0.8-0.1c-0.3,0-0.3,0.5-0.3,0.8c0.1,1.8-0.1,4-0.1,4.2c0,0.2-0.8-0.3-1-0.4
      c-0.2-0.1-0.3,0.1-0.3,0.3c-0.3,2.8-1.6,5.9-1.6,5.9s-0.2-0.4-0.3-0.6c-0.1-0.2-0.2-0.2-0.3-0.1c-0.6,0.6-1.1,1.8-1.4,3
      c-0.3,1.2-1.1,2.1-1.1,2.1c-0.1-0.1-0.2-0.8-0.2-1c-0.1-0.2-0.3-0.1-0.4,0c-0.1,0.1-0.4,1-1.3,2.8c-0.9,1.8-1.5,3.3-2.7,3.4
      c-0.9,0.1-1.3-2.4-1.3-2.4s-0.3,0.2-0.5,0.6c-0.2,0.4-0.2,0.9-0.2,0.9c-0.9-2.6-0.5-4.6-0.5-4.8c0-0.2-0.1-0.3-0.3-0.3
      c-0.1,0.1-0.5,0.4-0.5,0.4c-0.1-0.4-0.3-0.9-0.6-1.5c-0.3-0.5-1.1-0.3-1.7-0.2c-0.5,0-0.7-0.5-0.3-1.6c0.4-1.1,1.9-1.7,2.5-2.1
      c0.6-0.3,0.1-0.9,0.3-1.6c0.4-1.2,2.1-1.7,2.3-2.1c0.2-0.3-0.2-1,0.1-1.9c0.3-0.9,2-2,2-2c-0.2-1.6,0-3.3,0.7-4.3
      c0.7-1,2-0.1,2.4,2.5c0.5,3.7-1,6.2-1.7,7.7c-0.7,1.5-1,1.6-0.9,1.7c0.1,0.1,0.5,0,1.1-0.8c0.6-0.9,3.3-4.5,2.8-8.6
      c-0.6-4.1-2.7-5.1-4.4-4.2c-1.7,0.9-2,2.5-1.6,5.5c0,0-1,0.8-1.3,1.4c-0.4,0.7-0.2,1.9-0.4,2.1c-0.2,0.2-1,0.6-1.6,1.4
      c-0.6,0.8-0.5,1.9-0.9,2.1c-0.4,0.2-1.8,0.8-2.3,2.6c-0.6,1.8,0,3.2,0.9,3c0.8-0.2,2.1-0.3,2.1,1c-0.1,1.3-0.2,2.7,0,3.8
      c0,0,0.3-1,0.6-1.5c0,0,0.9,4.5,2.6,6.2c0,0,0-0.6-0.2-1.3c-0.1-0.7,0.1-1.1,0.1-1.1s0.2,0.7,1.1,0.7c1.6-0.1,3.4-3.8,3.4-3.8
      c-0.1,0.9,0.2,1.2,0.2,1.2c1.5-1.7,2.5-4.2,2.9-5.5c0.4-1.3,0.9-1.9,0.9-1.9s0.2,0.1,0.2,0.6c0,0.5,0.2,1,0.2,1
      c1.9-4.3,2.4-7.5,2.4-7.5s0.2,0.1,0.4,0.6c0.1,0.5,0.5,0.9,0.5,0.9c1.1-3.7,0.9-6,0.9-6s0.2,0.1,0.6,0.3c0.4,0.3,0.7,0.8,0.7,0.8
      c0.1-1.8-0.2-3-0.6-4.3c-0.3-1.3-0.7-2.7-0.7-2.7c0.6,0,1.1,0.5,1.1,0.5c-1.1-4.3-2.2-6-2.2-6s0.2,0,0.5,0.1
      c0.3,0,0.7,0.2,0.7,0.2c-1.1-2.6-2.7-4.1-2.7-4.1c0.3-0.2,1,0,1,0c-1.9-3.3-5.8-4.5-5.8-4.5s2.3,1.3,3.4,2.9
      c0.1,0.2-0.2,0.3-0.4,0.3c-0.3,0-0.3,0.2-0.2,0.4c0.1,0.2,1.7,1.8,2.2,3c0.1,0.2-0.8,0-0.6,0.5c0.2,0.5,1.7,2.8,2.1,4.6
      c0,0-1.3-0.3-1.1,0.1C70.9,41.1,72,43.2,73.1,47.1"/>
    <path fill="#ffffff" d="M48.4,2c0,0-1.3-0.1-3.1,0.2c-1.8,0.2-2.4,0.5-3.1,0.5c-0.7,0.1-0.9,0.1-0.9,0.1s0.4,0.5,0.9,0.5
      c0.5,0,0.9,0,1.1,0.2c0,0-0.8,0.1-2.3,0.7c-1.9,0.7-2,0.8-4,1.4c0,0,0.5,0.3,1,0.3c0.4,0,0.7,0.2,0.7,0.2s-1.4,0.3-3,0.9
      c-1.6,0.6-1.9,1-2.7,1c0,0,0.4,0.2,1,0.3c0.4,0,0.8,0.1,0.8,0.1s-0.6,0.3-2.1,1.1c-1.4,0.8-1.9,1-2.8,1.2c0,0,0.6,0.4,1.1,0.4
      c0.2,0,0.4,0,0.5,0c0,0-0.9,0.6-2.3,1.3c-1.4,0.7-1.6,0.8-2.1,1.3c0,0,0.7,0.1,1,0.2c0.1,0.1,0.3,0.1,0.4,0.1c0,0-0.9,0.5-2.2,1.3
      c-1.3,0.9-1.7,1.5-1.7,1.5s2.8-1.7,5.2-2.4c0.2-0.1,0.3-0.3,0.1-0.5c-0.1-0.1-0.7-0.5-0.7-0.5s0.2-0.1,1.7-0.9
      c1.6-0.8,2.4-1.1,2.6-1.2c0.2-0.1,0-0.3-0.1-0.4c-0.1-0.1-0.7-0.4-0.7-0.4s0.3-0.2,1-0.5c1.3-0.6,3.2-1.2,3.3-1.3
      c0.2-0.1,0.2-0.2,0-0.3c-0.1-0.1-0.6-0.5-0.6-0.5s0.5-0.3,1.5-0.5c1-0.3,1.9-0.6,2.3-0.7C40.8,6.4,41,6.3,40.9,6
      c-0.1-0.2-0.3-0.5-0.3-0.5s0.5-0.2,1.2-0.5c1-0.3,1.6-0.4,2.5-0.6c0.9-0.2,1-0.3,1-0.5c0-0.3-0.2-0.6-0.2-0.6s0.1-0.1,1.1-0.2
      c1.1-0.1,2-0.1,2.7-0.1c0.7,0,1.1,0.1,1.4,0c0.3-0.1,0.4-0.7,0.4-0.7s0.8-0.1,2,0.2c1.2,0.3,1.7,0.5,2,0.6c0.3,0.1,0.5,0,0.5-0.3
      c0.1-0.3,0.2-0.5,0.2-0.5s0.8,0,2.1,0.5c1.3,0.6,2,1.1,2.3,1.3c0.2,0.1,0.3,0,0.5-0.2c0.2-0.2,0.3-0.3,0.3-0.3s0.1,0,0.5,0.1
      c0.4,0.1,1,0.4,1.5,0.8c0.6,0.4,0.7,0.7,1.2,0.9C64,5.4,64.2,5,64.3,4.7c0.1-0.3,0.3-0.5,0.3-0.5s0.2,0,0.7,0.3
      c0.5,0.3,1.1,0.7,1.5,1.1c0,0,0.1,0,0.1,0c0,0,0-0.5-0.3-0.9c-0.5-0.7-1.5-1.5-2.4-2.1c-0.9-0.6-1.2-0.8-1.4-1
      c-0.1-0.1-0.1-0.2-0.1-0.2s-0.1,0.3,0.2,0.8c0.3,0.6,0.2,0.9,0.2,0.9S62.1,2.5,60.9,2c-1.1-0.5-1.5-0.7-2-1
      c-0.6-0.3-0.7-0.4-0.7-0.4s0,0.6,0.3,1C58.8,1.9,58.8,2,58.8,2s-1.5-0.7-3.5-1.2c-2-0.4-3.1-0.8-3.1-0.8s0.2,0.7,0.5,1
      c0.3,0.3,0.4,0.5,0.4,0.5S51.5,1.1,49.8,1c-1.6-0.1-2.3,0-2.6,0c-0.1,0-0.2,0-0.3,0c0,0,0.1,0.3,0.7,0.6C48.2,1.8,48.4,2,48.4,2"
      />
    <path fill="#ffffff" d="M74.8,8.1c0.6,1,0.4,2.7-0.2,3.5c-0.5,0.8-1.4,1.3-1.9,1.9c-0.5,0.6-1,1.6-1.2,2.3
      c-0.2,0.7-0.6,1.4-1.2,1.4c-0.6,0-1.2-0.5-1.5-1.3c-0.3-0.8-0.4-1.8-1.7-2.5c-1.3-0.7-3.7-1.5-3.7-3.1c0-1.6,1.5-2.1,2.5-3.3
      c1-1.2,2.3-2.1,3.7-2.1C71.2,5.1,73.7,6.3,74.8,8.1"/>
    <path fill="#ffffff" d="M79.8,20.1c-0.2-0.4-0.3-0.7-0.3-0.7s0.1-0.2,0.4-0.4c0.5-0.2,0.9-0.2,0.9-0.6c0.1-1.7-1.2-2.9-1.2-2.9
      c0.2-0.1,0.5,0,0.9,0c0.4,0.1,0.4-0.1,0.4-0.1c-0.6-1.8-2.5-3-2.5-3c0.3-0.2,0.7,0,1,0.1c0.3,0.1,0.6,0,0.6,0
      c-0.3-1.1-1.1-1.9-2.2-2.5c-1.1-0.6-1.9-0.6-2-0.6c-0.1,0,0,0.1,0,0.2c0.1,0.1,0.6,0.3,1,0.7c0.5,0.5,0.6,0.7,0.6,0.7
      s0.1,0.3-0.4,0.6c-0.5,0.4-1,0.7-1,0.8c-0.1,0.1,0,0.2,0.1,0.3c0.1,0.1,0.7,0.4,1.5,1c0.7,0.6,1,1,0.8,1.1
      c-0.2,0.1-0.7,0.2-0.6,0.5c0.1,0.3,0.6,0.5,0.9,0.8c0.3,0.3,0.7,0.6,0.3,1.6c-0.2,0.6-0.6,0.8-0.9,0.8c-0.3,0-0.5,0-0.5,0.1
      c0.1,0.1,0.6,1.1,0.3,1.6c-0.2,0.5-0.5,0.8-1.1,0.7c-0.3,0-0.4,0-0.3,0.1c0.1,0.1,0.6,0.8,0.4,1.8c-0.1,0.6-0.6,0.7-1,0.5
      c-0.2-0.6-0.5-1.1-0.7-1.7c-0.1-0.2-0.3-0.3-0.5-0.2c-0.2,0.1-0.3,0.3-0.2,0.5c0.1,0.1,0.1,0.3,0.2,0.4c0.2,0.4,0.3,0.7,0.5,1.1
      c0,0.4,0,0.9-0.1,1.3c-0.1,0.6-0.6,0.8-0.9,0.1c-0.3-0.7-0.6-1.6-0.6-1.8c0-0.1-0.5,0.1-0.5,0.3c0,0.2-0.2,1.4-0.7,1.5
      c-0.2,0.1-0.4-0.4-0.4-0.9c0-0.6,0.3-1.6-0.4-2.1c-0.2-0.1-0.3-0.2-0.5-0.1c-0.2,0-0.3,0.2-0.3,0.2c-0.1,1.6-0.5,2.5-0.5,2.5
      s0.7-0.7,0.7-0.3c0,0.4,0.1,1.6,0.5,2.1c0.4,0.5,0.8,0.7,1.2,0.7c0.1,0-0.1-0.4,0.5-1c0.1-0.2,0.3-0.3,0.3-0.1c0,0.2,0.3,1,1.2,1
      c0.7,0,1.1-0.5,1.3-1.1c1.7,5.1,1.5,10-0.3,13.3c2.2-3.3,2.5-8.6,0.7-14.1c0.5-0.2,1.4,0,1.8-0.8c0,0,0-0.1,0-0.1
      c2.3,4.7,2.8,9.4,1.5,12.9c1.7-3.6,1.3-8.9-1.3-14c0-0.4-0.2-0.6-0.2-0.6s0.6-0.4,1.3-0.4c0.2,0,0.3-0.1,0.4-0.2
      c3,4.4,4.2,9.2,3.4,12.9C84.5,30.4,83.2,24.9,79.8,20.1"/>
    <path fill="#ffffff" d="M57.9,7.6c0.3,0.1,0.4,0.3,0.2,0.7c-0.2,0.4-0.5,0.6-1,0.6c-1,0.1-1.8-0.6-3.7-0.5c-1.1,0-2.3,0.2-3.3,0.7
      c-1,0.5-1.2,0.7-1.3,0.7c0,0,0-0.2,0.1-0.3c0.4-0.4,2.2-1.7,5-2.2C56.1,7,57.4,7.3,57.9,7.6"/>
    <path fill="#ffffff" d="M56.3,9.3c0.1,0,0.1,0,0.2,0.1c0,0.1,0.1,0.5,0,1c-0.2,0.5-0.4,0.9-0.9,1.4c-0.6,0.4-1.6,0.3-2-0.5
      C53,10.4,53.3,9,54.2,8.8c0.4-0.1,0.5,0.2,0.5,0.4c0.1,0.4-0.2,0.6,0,0.9c0.2,0.3,0.6,0.4,1,0c0.4-0.4,0.4-0.5,0.5-0.6
      C56.2,9.4,56.2,9.3,56.3,9.3"/>
    <path fill="#ffffff" d="M69.8,19.7c-0.1-0.2-0.3-0.2-0.3,0.1c0,0.5-0.1,0.8-0.5,1.3c-0.3,0.5-0.5,0.1-0.7,0.3
      c-0.7,0.5-0.4,1.7-0.4,2.3c0,0.6-0.2,1.2-0.4,1.1c-0.4-0.2-0.7-1-0.7-1.2c-0.1-0.5-0.5-0.5-0.5-0.3c-0.2,0.7-0.8,2.2-1.1,2.9
      c-0.2,0.4-0.5,0-0.6-0.4c0.3-0.9,0.7-1.7,1.1-2.6c0.1-0.2,0.1-0.3,0.2-0.5c0.1-0.2,0-0.4-0.2-0.5c-0.2-0.1-0.4,0-0.5,0.2
      c-0.7,1.4-1.2,2.8-1.6,4.1c-0.3,0.6-0.7,1.1-1.1,1.6c-0.3,0.3-0.7-1.4-1.4-0.5c-0.2,0.3-0.9,1.2-1.2,1.6c0,0.1-0.1,0.1-0.1,0.1
      c0.6-1.6,1.4-3.2,2.4-4.8c0.1-0.1,0.2-0.3,0.3-0.4c0.1-0.2,0.1-0.4-0.1-0.5c-0.2-0.1-0.4-0.1-0.5,0.1c-0.9,1.4-1.7,2.9-2.3,4.3
      c-0.2-0.7-0.9,0-1.2,0.4c-0.3,0.4-0.7,1-0.8,0.7c0,0-0.1-0.2-0.1-0.4c0-0.3-0.3-0.4-0.6-0.4c0.5-0.9,1.2-1.9,1.9-2.8
      c0.1-0.1,0.2-0.2,0.3-0.3c0.1-0.1,0.1-0.4-0.1-0.5c-0.1-0.1-0.4-0.1-0.5,0.1c-0.9,1.2-1.7,2.4-2.3,3.6c-0.3,0.1-0.5,0.1-0.7,0.2
      c-0.6,0.2-1.3,0.4-1.3,0.4c0-0.3,0-0.6-0.3-0.8c-0.3-0.3-1.5,0-2-0.1c-0.5-0.1-0.5-0.2-0.5-0.4c0.2-0.7-0.4-1-1.1-1.1
      c-0.7-0.2-1-0.3-1-0.3c0.2-0.7-0.8-1.1-1.4-1.4c-0.6-0.3-1.3-0.7-1.3-0.7l-0.1-0.5c-0.1-0.7-0.9-0.9-1.4-1.4
      c-0.5-0.4-0.7-1.2-0.7-1.2s0,0.1,0.2,0.8c0.2,0.7,0.8,1.1,1,1.6c0.2,0.5-0.1,0.9-0.1,0.9c0.5,0.4,1,0.7,1.8,1.1
      c0.8,0.5,0.2,0.9,0.2,0.9c0.5,0.4,1.3,0.8,2.1,1c0.8,0.3,0.1,0.9,0.1,0.9c0.9,0.4,2,0.8,2.6,0.8c0.6,0,0.2,0.9,0.2,0.9
      c0.6,0.2,1.1,0.1,2.5-0.3c0.2,0,0.3-0.1,0.4-0.1c-1.6,3.8-1.9,7.5-0.8,10.3c-0.9-2.8-0.3-6.6,1.4-10.2c0.4,0.1,0.3,0.5,0.3,0.7
      c-0.1,0.3,0,0.7,0.2,0.6c1.2-0.5,2-1.6,2.3-1.6c0.1,0,0.1,0.1,0.2,0.2c-1.3,4.2-1.3,8.2,0.2,11c-1-2.6-1-6.1,0-9.7
      c0.8-0.4,1-1,1.5-1.4c0.5-0.4,0.7-0.2,0.7,0.1c0.1,0.4-0.2,1.1,0.2,0.9c0.5-0.2,0.9-0.5,1.2-0.8c-0.7,4.5-0.1,8.6,1.8,11.4
      c-1.8-3.2-2.1-7.9-0.8-12.9c0.1-0.2,0.1-0.3,0.2-0.4c0.1-0.3,0.3,0.1,0.3,0.5c0,0.4,0.1,0.7,0.3,0.5c1.3-0.6,2.1-2.7,2.2-3.1
      c0-0.2,0.1-0.1,0.3,0.1c0.6,0.5,0.4,1,0.6,1c0.4,0,0.7-0.3,1.1-0.8c0.3-0.6,0.3-1.9,0.3-2.3c0-0.4,0.7,0.3,0.7,0.3
      s0.5-0.9,0.5-2.5C70.2,20.4,70,19.9,69.8,19.7"/>
    <path fill="#ffffff" d="M58.9,29.7c0-0.1-0.1-0.2-0.2-0.2c0,0-0.1,0-0.1,0.1c0.1,0.1,0.2,0.2,0.2,0.3
      C58.9,29.8,58.9,29.8,58.9,29.7"/>
    <path fill="#ffffff" d="M51.3,27.7c-0.1,0.3,0,0.4,0.5,0.4c0.3,0,0.8,0,1.3,0c-0.6-0.3-1.2-0.6-1.8-0.9
      C51.3,27.4,51.4,27.6,51.3,27.7"/>
    <path fill="#ffffff" d="M54.4,29c-0.1-0.1-0.3-0.2-0.4-0.3c0,0.1,0.1,0.3,0,0.4C54.1,29.1,54.2,29,54.4,29"/>
    <path fill="#ffffff" d="M58.2,32.5c0.2-0.9,0.4-1.7,0.6-2.6c-0.1-0.1-0.2-0.2-0.2-0.3c-0.3,0.2-0.9,0.8-1.8,1.3
      C57.3,31.4,57.8,32,58.2,32.5"/>
    <path fill="#ffffff" d="M59.6,30.7c-0.2,0.1-0.3,0.3-0.5,0.4c-0.2,0.7-0.3,1.3-0.4,2c2.1,2.8,3.4,6.3,3.4,10.1
      c0.1-0.1,0.2-0.1,0.3-0.2c0.6-0.3,1.3-0.4,1.9-0.2c0-0.8-0.1-1.5-0.2-2.3c-0.8-1.5-1.4-3.3-1.5-5.3C61.7,33.6,60.8,32.1,59.6,30.7
      "/>
    <path fill="#ffffff" d="M47.6,26.2c0-0.2,0-0.4-0.4-0.6c-0.8-0.5-1.4-0.8-1.8-1.1c0,0,0.2-0.3,0.2-0.7c-0.4,0-0.7-0.1-1.1-0.1
      c-4.3,0-8.2,1.4-11.4,3.6c1.1,0.4,1,1.4,0.8,2.2c3-2.2,6.6-3.6,10.6-3.6C45.5,25.9,46.6,26,47.6,26.2"/>
    <path fill="#ffffff" d="M27,46.3c-0.7,0.6-1.5,0.7-2.2,0.4c1.6,9.4,9.7,16.6,19.6,16.6c3.6,0,6.9-1,9.9-2.6
      c-0.3-0.5-0.4-1.4-0.1-2.5c-2.8,1.8-6.1,2.9-9.7,2.9C35.7,61.2,28.4,54.7,27,46.3"/>
    <path fill="#ffffff" d="M23.2,43.6c-0.9-0.2-1.8-0.1-2.4,0c-1.4,0.2-2.2,0.4-2.2,0.4s0.2-0.4,0.4-0.6c0.1-0.3-0.2-0.3-0.3-0.3
      c-0.1,0-1.2,0-2.1,0.2c-0.9,0.1-1.9-0.1-1.9-0.1c0.2-0.2,0.3-0.5,0.4-0.6c0-0.1,0-0.2-0.2-0.3c-0.2-0.1-0.7-0.3-1.7-0.1
      c-2.1,0.4-2.7-0.4-2.7-0.4s0.1-1.1,0.6-2.7c0.7-2.5,1.6-3.7,1.7-3.9c0.1-0.1-0.1-0.3-0.2-0.3c-0.1,0-1.1,0.1-1.1,0.1
      s0.5-1.4,1.7-3.6c1.1-2.2,1.5-3.1,1.6-3.5c0.2-0.7-0.9-0.4-0.9-0.4s0.4-0.8,1.1-1.6c0.6-0.9,1.5-1.8,1.7-1.9
      c0.1-0.2,0-0.2-0.1-0.2c-0.1,0-0.7,0-0.7,0s0.4-0.6,1.5-1.5c1.1-0.9,1.6-1.3,1.7-1.3c0.2-0.2,0.2-0.3,0-0.4
      c-0.1,0-0.4-0.2-0.4-0.2s0.3-0.3,1.4-0.8c1-0.4,1.8-0.6,2-0.6c0.2-0.1,0.1-0.2,0.1-0.2c0-0.1-0.5-0.4-0.5-0.4s0.3-0.2,1.3-0.7
      c1-0.5,2-0.6,2-0.6s-1.2-0.3-4.2,0.7c-2.4,0.8-3.4,1.6-3.4,1.6s0.4-0.1,0.8-0.1c0.4,0,0.7,0,0.7,0s-1.4,0.7-2.7,1.5
      c-1.3,0.9-1.6,1.2-1.6,1.2s0.4-0.1,0.7-0.1c0.4,0,0.7-0.1,0.7-0.1s-1.4,1.1-2.5,2.3c-1,1.2-1.3,1.8-1.3,1.8s0.4-0.2,0.9-0.3
      c0.5-0.1,0.7,0,0.7,0s-0.4,0.7-1.1,1.5c-0.7,0.8-1.2,1.6-1.5,2.3c-0.3,0.7-0.4,1-0.4,1s0.4,0,0.8-0.3c0.4-0.3,0.7-0.3,0.7-0.3
      s-1.7,3.7-2.1,5.8c-0.2,0.8-0.3,1.5-0.6,2c0,0,0.5-0.1,0.8-0.4c0.4-0.3,0.4-0.3,0.4-0.3S9.6,40.1,9.8,42c0,0.1,1.5,1.1,2.8,0.8
      c0,0-0.1,0.2-0.8,0.4c-0.7,0.1-1,0.5-1,0.5c0.8,0,2.1,0.5,3.5,0.6c1.4,0.1,2.5-0.1,2.5-0.1s-0.1,0.2-0.6,0.4
      c-0.6,0.3-1.2,0.3-1.2,0.3s0.2,0.2,0.6,0.3c0.5,0.1,1.6,0.1,2.9-0.2c1.2-0.3,2-0.2,3.3-0.3c1.2,0,1.5,0.9,2.1,1.6
      c0.2,0.2,0.5,0.4,0.8,0.5c-0.1-0.6-0.2-1.2-0.2-1.8C24,44.5,23.9,43.7,23.2,43.6"/>
    <path fill="#ffffff" d="M64.5,41.3c-0.2-0.3-0.3-0.7-0.5-1c0,0.1,0,0.2,0.1,0.3C64.2,40.8,64.3,41.1,64.5,41.3"/>
    <path fill="#ffffff" d="M56.3,30.5c0,0,0,0.1,0,0.1c-0.1,0.3,0,0.7,0.2,0.6c0.1-0.1,0.2-0.1,0.4-0.2
      C56.6,30.8,56.4,30.6,56.3,30.5"/>
    <path fill="#ffffff" d="M59.1,40.8c-0.9-2.1-1-4.8-0.4-7.7c-0.1-0.2-0.3-0.4-0.4-0.6C57.6,35.7,57.9,38.6,59.1,40.8"/>
    <path fill="#ffffff" d="M53.7,28.3c-0.1-0.1-0.4-0.1-0.7-0.1c0.3,0.2,0.6,0.4,1,0.6C54,28.6,53.9,28.4,53.7,28.3"/>
    <path fill="#ffffff" d="M41.3,42.9c-0.2,0-0.4,0-0.6,0.1c-0.7,0.2-1.2,0.9-1.2,1.7c0,1,0.8,1.8,1.8,1.8c0.4,0,0.8-0.1,1.1-0.4
      c0.4-0.3,0.7-0.8,0.7-1.4C43.1,43.7,42.3,42.9,41.3,42.9"/>
    <path fill="#ffffff" d="M51.8,48.5l-0.3-0.3l-0.1-0.4l-0.2-0.2l0-0.1l-0.1,0l0-0.1l0-0.1l-1.4-1.4l-0.3-0.3L47.8,44l-0.9-0.8
      l-0.8-0.7l-1-0.8l-0.2-0.2l-0.3-0.3l-0.4-0.3L44,40.6v-5h-5.6l0,0.2l0,0.1l0,0.1l0.1,0.1l0,0.1l0,0.2l0.1,0.1h0l0.1,0.1l0,0.1
      l-0.1,0.2V37l0,0l0,0.1l0.1,0.2l-0.3,0.7l-0.1,0.2v0.1l0,0.1l0,0.1l0,0.1l0,0l0.2,0.2l0.1,0.1l0,0.1l0.1,0.1l0.1,0.2l0,0.1
      l0.1,0.1v0.1l0,0.1l0,0.2l0,0.1l0,0.1v0.2l0,0.1l0.1,0.2l0.1,0.2l-0.1,0.2l0,0.1l0.1,0.1l0.1,0.1l0.1,0.1l0,0l0.1,0l0.1,0.1
      l0.1,0.2l0.1,0.1l0.2,0.1l0.1,0.2h0l0.1,0.1l0,0c0.1,0,0.1-0.1,0.2-0.1c0.3-0.1,0.7-0.2,1.1-0.2c1.7,0,3.1,1.4,3.1,3.1
      c0,1-0.5,1.9-1.2,2.5l0,0.1v0.1l0,0l0.1,0.1l0,0.1l0,0.1l-0.1,0.2l0,0.1l0.2,0l0.1,0.1l0.6,0l0.1,0l0.3,0l0.1,0l0.2,0.1l0.1,0.2
      l0.1,0l0.1,0.2l0.1,0.1l0.2,0.1l0,0l0.2,0l0,0l0.3,0l0.1,0.1l0.1,0.3v0l0,0.1l0.2,0.1l0-0.1l0.1,0l0.1,0l0.2,0.2l0.1,0.1l0.1,0
      l0.2,0.2l0.1,0.1l0.2,0.2l0.3,0.5l0,0.2l0,0.1l0.1,0.1l0,0v0.1l0,0l0.1-0.1l0,0l0.1,0.1l0,0.1l-0.1-0.1h0l0,0l0.1,0.1v0.1l1.3-0.1
      l1.8-0.2l0.2,0l0.1,0l0-0.1l0.1-0.1v-0.2l-0.1-0.1l-0.2,0l-0.1,0l0-0.1l0-0.2L51,50.1l0-0.1l0-0.1l0,0l0.1-0.1l0,0l0.1,0l0.1-0.1
      l0-0.1l0-0.1l0-0.3l0.1-0.1l0,0l0-0.1L51.8,48.5L51.8,48.5L51.8,48.5z"/>
  </g>
</g>
<g id="White" display="none">
  <g display="inline">
    <path fill="#FFFFFF" d="M97.3,14.9c-0.3-0.9-0.9-1.6-2-1.6c-1.4,0-2.2,1.3-2.2,3.8c0,2.5,0.7,3.8,2.3,3.8c0.9,0,1.5-0.3,2.1-1.6
      l1.9,0.5c-0.6,1.9-2.1,2.8-4,2.8c-2.8,0-4.3-2-4.3-5.6c0-3.5,1.6-5.6,4.3-5.6c2.1,0,3.3,0.9,3.8,2.8L97.3,14.9z"/>
    <path fill="#FFFFFF" d="M105.3,22.6l-0.1-0.7c-0.7,0.5-1.5,0.8-2.4,0.8c-1.4,0-2.1-1-2.1-2.1c0-1.8,1.4-2.7,4.5-3.1v-0.7
      c0-0.6-0.5-0.9-1.1-0.9c-0.9,0-1.3,0.5-1.7,1l-1.2-0.9c0.5-0.8,1.8-1.5,2.9-1.4c2.1,0,3,0.8,3,3.1v3.7c0,0.4,0,0.8,0.2,1.1H105.3z
       M105.1,18.8c-1.2,0.2-2.6,0.5-2.6,1.6c0,0.6,0.4,0.9,0.9,0.9c0.6,0,1.3-0.5,1.7-0.8V18.8z"/>
    <rect x="109.2" y="11.8" fill="#FFFFFF" width="1.9" height="10.8"/>
    <path fill="#FFFFFF" d="M113.4,11.6h1.9v1.7h-1.9V11.6z M115.3,22.6h-1.9v-7.8h1.9V22.6z"/>
    <path fill="#FFFFFF" d="M119.8,16.3v6.3h-1.9v-6.3h-1.1v-1.5h1.1v-1c0-1.7,0.7-2.2,2.2-2.2h1.2v1.5h-0.5c-0.8,0-1,0.2-1,0.8v0.8
      h1.6v1.5H119.8z"/>
    <path fill="#FFFFFF" d="M125.8,14.6c2.1,0,3.4,1.6,3.4,4s-1.3,4-3.4,4c-2.1,0-3.4-1.6-3.4-4S123.7,14.6,125.8,14.6 M125.8,16.1
      c-1,0-1.5,0.8-1.5,2.5c0,1.7,0.5,2.5,1.5,2.5c1,0,1.5-0.8,1.5-2.5C127.3,16.9,126.8,16.1,125.8,16.1"/>
    <path fill="#FFFFFF" d="M130.8,22.6v-7.8h1.7v1.3h0c0.4-0.9,1.1-1.5,2.2-1.5v2c-0.1,0-0.2,0-0.3,0c-0.9,0-1.7,1.1-1.7,1.3v4.7
      H130.8z"/>
    <path fill="#FFFFFF" d="M136.2,22.6v-7.8h1.7v0.8c0.7-0.5,1.5-1,2.4-1c1.6,0,2.3,1,2.3,2.6v5.3h-1.9v-5.1c0-1-0.3-1.4-1-1.4
      c-0.8,0-1.4,0.5-1.7,0.8v5.6H136.2z"/>
    <path fill="#FFFFFF" d="M144.9,11.6h1.9v1.7h-1.9V11.6z M146.8,22.6h-1.9v-7.8h1.9V22.6z"/>
    <path fill="#FFFFFF" d="M153.1,22.6l-0.1-0.7c-0.7,0.5-1.5,0.8-2.4,0.8c-1.4,0-2.1-1-2.1-2.1c0-1.8,1.4-2.7,4.5-3.1v-0.7
      c0-0.6-0.5-0.9-1.1-0.9c-0.9,0-1.3,0.5-1.7,1l-1.2-0.9c0.5-0.8,1.8-1.5,2.9-1.4c2.1,0,3,0.8,3,3.1v3.7c0,0.4,0,0.8,0.2,1.1H153.1z
       M152.9,18.8c-1.2,0.2-2.6,0.5-2.6,1.6c0,0.6,0.4,0.9,0.9,0.9c0.6,0,1.3-0.5,1.7-0.8V18.8z"/>
    <path fill="#FFFFFF" d="M167.6,14.6c-0.3-0.8-1-1.4-1.9-1.4c-0.9,0-1.5,0.4-1.5,1.2c0,1.9,5.6,1.5,5.6,5c0,2.2-1.4,3.3-3.8,3.3
      c-1.8,0-3.4-1-4-2.6l1.7-0.7c0.5,1,1.1,1.7,2.4,1.7c1,0,1.8-0.4,1.8-1.4c0-2.1-5.6-1.7-5.6-5c0-1.9,1.6-3,3.5-3
      c1.7,0,3.2,0.9,3.8,2.4L167.6,14.6z"/>
    <path fill="#FFFFFF" d="M171.8,14.8v-2.6h1.9v2.6h1.5v1.5h-1.5v4.4c0,0.4,0.2,0.5,0.7,0.5c0.3,0,0.6-0.1,0.9-0.2v1.5
      c-0.5,0.1-1,0.1-1.5,0.1c-1.4,0-1.9-0.7-1.9-1.8v-4.6h-1.1v-1.5H171.8z"/>
    <path fill="#FFFFFF" d="M181.1,22.6l-0.1-0.7c-0.7,0.5-1.5,0.8-2.4,0.8c-1.4,0-2.1-1-2.1-2.1c0-1.8,1.4-2.7,4.5-3.1v-0.7
      c0-0.6-0.5-0.9-1.1-0.9c-0.9,0-1.3,0.5-1.7,1l-1.2-0.9c0.5-0.8,1.8-1.5,2.9-1.4c2.1,0,3,0.8,3,3.1v3.7c0,0.4,0,0.8,0.2,1.1H181.1z
       M180.9,18.8c-1.2,0.2-2.6,0.5-2.6,1.6c0,0.6,0.4,0.9,0.9,0.9c0.6,0,1.3-0.5,1.7-0.8V18.8z"/>
    <path fill="#FFFFFF" d="M185.2,14.8v-2.6h1.9v2.6h1.5v1.5h-1.5v4.4c0,0.4,0.2,0.5,0.7,0.5c0.3,0,0.6-0.1,0.9-0.2v1.5
      c-0.5,0.1-1,0.1-1.5,0.1c-1.4,0-1.9-0.7-1.9-1.8v-4.6h-1.1v-1.5H185.2z"/>
    <path fill="#FFFFFF" d="M191.5,19c0,1.6,0.7,2.2,1.6,2.2c0.9,0,1.3-0.4,1.7-0.9l1.3,0.8c-0.7,1.1-1.8,1.6-3.3,1.6
      c-2,0-3.3-1.6-3.3-4c0-2.5,1.3-4,3.4-4c2,0,3.2,1.7,3.2,3.6V19H191.5z M194.5,17.7c0-1.1-0.6-1.7-1.5-1.7s-1.5,0.6-1.5,1.7H194.5z
      "/>
    <path fill="#FFFFFF" d="M209.9,11.8h2.1v6.8c0,3.2-1.9,4.2-4.1,4.2c-2.2,0-4.2-1-4.2-4.2v-6.8h2.1v6.9c0,1.8,0.7,2.4,2.1,2.4
      c1.4,0,2.1-0.6,2.1-2.4V11.8z"/>
    <path fill="#FFFFFF" d="M214.4,22.6v-7.8h1.7v0.8c0.7-0.5,1.5-1,2.4-1c1.6,0,2.3,1,2.3,2.6v5.3h-1.9v-5.1c0-1-0.3-1.4-1-1.4
      c-0.8,0-1.4,0.5-1.7,0.8v5.6H214.4z"/>
    <path fill="#FFFFFF" d="M223.1,11.6h1.9v1.7h-1.9V11.6z M224.9,22.6h-1.9v-7.8h1.9V22.6z"/>
    <polygon fill="#FFFFFF" points="226.5,14.8 228.3,14.8 229.6,20.1 229.6,20.1 231,14.8 232.8,14.8 230.6,22.6 228.6,22.6     "/>
    <path fill="#FFFFFF" d="M235.4,19c0,1.6,0.7,2.2,1.6,2.2c0.9,0,1.3-0.4,1.7-0.9l1.3,0.8c-0.7,1.1-1.8,1.6-3.3,1.6
      c-2,0-3.3-1.6-3.3-4c0-2.5,1.3-4,3.4-4c2,0,3.2,1.7,3.2,3.6V19H235.4z M238.4,17.7c0-1.1-0.6-1.7-1.5-1.7s-1.5,0.6-1.5,1.7H238.4z
      "/>
    <path fill="#FFFFFF" d="M241.9,22.6v-7.8h1.7v1.3h0c0.5-0.9,1.1-1.5,2.2-1.5v2c-0.1,0-0.2,0-0.3,0c-0.9,0-1.7,1.1-1.7,1.3v4.7
      H241.9z"/>
    <path fill="#FFFFFF" d="M251.3,16.8c-0.4-0.4-0.9-0.8-1.5-0.8c-0.7,0-1,0.3-1,0.8c0,1.3,3.9,0.8,3.9,3.6c0,1.6-1.2,2.3-2.9,2.3
      c-1.2,0-2.3-0.6-3-1.6l1.2-0.9c0.4,0.6,1,1.1,1.8,1.1c0.7,0,1.1-0.4,1.1-0.9c0-1.3-3.9-0.9-3.9-3.6c0-1.5,1.2-2.3,2.6-2.3
      c1,0,2.1,0.4,2.7,1.2L251.3,16.8z"/>
    <path fill="#FFFFFF" d="M254.5,11.6h1.9v1.7h-1.9V11.6z M256.4,22.6h-1.9v-7.8h1.9V22.6z"/>
    <path fill="#FFFFFF" d="M259,14.8v-2.6h1.9v2.6h1.5v1.5h-1.5v4.4c0,0.4,0.2,0.5,0.7,0.5c0.3,0,0.6-0.1,0.9-0.2v1.5
      c-0.5,0.1-1,0.1-1.5,0.1c-1.4,0-1.9-0.7-1.9-1.8v-4.6h-1.1v-1.5H259z"/>
    <path fill="#FFFFFF" d="M263.5,23.8c0.3,0.1,0.5,0.1,0.8,0.1c0.6,0,1-0.2,1.2-0.6c0.2-0.4,0.3-0.6,0.3-0.9c0-0.3-0.2-0.6-0.2-0.9
      l-2.1-6.7h1.9l1.3,4.8h0l1.3-4.8h1.9l-2.5,7.8c-0.8,2.2-1.5,2.8-3,2.8c-0.5,0-0.7,0-0.9-0.1V23.8z"/>
    <polygon fill="#FFFFFF" points="91.6,47.6 91.6,30.4 96.2,30.4 99.5,42.4 99.5,42.4 102.8,30.4 107.5,30.4 107.5,47.6 104.6,47.6 
      104.6,34.1 104.6,34.1 100.7,47.6 98.3,47.6 94.5,34.1 94.4,34.1 94.4,47.6    "/>
    <path fill="#FFFFFF" d="M118.1,47.8c-4.7,0-7.2-3.2-7.2-8.8c0-5.6,2.5-8.8,7.2-8.8c4.7,0,7.2,3.2,7.2,8.8
      C125.3,44.6,122.7,47.8,118.1,47.8 M118.1,32.9c-2.7,0-3.9,2-3.9,6.1c0,4,1.2,6.1,3.9,6.1c2.7,0,3.9-2,3.9-6.1
      C122,35,120.8,32.9,118.1,32.9"/>
    <polygon fill="#FFFFFF" points="128.7,47.6 128.7,30.4 132.1,30.4 138.8,42.1 138.9,42.1 138.9,30.4 141.9,30.4 141.9,47.6 
      138.8,47.6 131.8,35.4 131.7,35.4 131.7,47.6     "/>
    <polygon fill="#FFFFFF" points="157.1,30.4 157.1,33.2 152.6,33.2 152.6,47.6 149.4,47.6 149.4,33.2 144.9,33.2 144.9,30.4     "/>
    <polygon fill="#FFFFFF" points="160.1,47.6 160.1,30.4 171.4,30.4 171.4,33.2 163.4,33.2 163.4,37.3 169.2,37.3 169.2,40 
      163.4,40 163.4,44.8 171.7,44.8 171.7,47.6     "/>
    <path fill="#FFFFFF" d="M174.8,47.6V30.4h6.8c3.9,0,5.5,2.3,5.5,5.1c0,2.1-1,3.8-3.1,4.4l3.8,7.6h-3.6l-3.2-7h-2.8v7H174.8z
       M178.1,37.9h2.4c2.6,0,3.3-0.8,3.3-2.4c0-1.6-1-2.4-2.8-2.4h-3V37.9z"/>
    <polygon fill="#FFFFFF" points="191,47.6 191,30.4 202.4,30.4 202.4,33.2 194.3,33.2 194.3,37.3 200.2,37.3 200.2,40 194.3,40 
      194.3,44.8 202.6,44.8 202.6,47.6    "/>
    <polygon fill="#FFFFFF" points="211.2,37.2 214.1,30.4 217.5,30.4 212.8,40.7 212.8,47.6 209.5,47.6 209.5,40.7 204.8,30.4 
      208.2,30.4    "/>
    <path fill="#FFFFFF" d="M229,30.4h6.4c3.4,0,5.6,1.1,5.8,4.2c0,1.8-0.7,3.2-2.6,3.9c2.2,0.9,3,1.9,3,4.5c0,2.7-1.9,4.5-6.2,4.5
      H229V30.4z M232.3,37.3h3.3c1.6,0,2.3-0.9,2.3-2.1c0-1.2-0.8-2.1-2.3-2.1h-3.3V37.3z M232.3,44.9h3.3c1.9,0,2.7-0.9,2.7-2.5
      c0-1.6-0.8-2.5-2.7-2.5h-3.3V44.9z"/>
    <path fill="#FFFFFF" d="M248.6,30.4h4.1l4.9,17.2h-3.3l-0.9-3.7h-5.4l-1,3.7h-3.3L248.6,30.4z M248.7,41.2h4l-1.9-7.5h0
      L248.7,41.2z"/>
    <polygon fill="#FFFFFF" points="263.7,37.2 266.6,30.4 270,30.4 265.3,40.7 265.3,47.6 262.1,47.6 262.1,40.7 257.3,30.4 
      260.7,30.4    "/>
    <polygon fill="#FFFFFF" points="91.7,60.9 91.7,53.3 96.8,53.3 96.8,54.5 93.2,54.5 93.2,56.3 95.8,56.3 95.8,57.6 93.2,57.6 
      93.2,59.7 96.9,59.7 96.9,60.9     "/>
    <polygon fill="#FFFFFF" points="99.4,58.1 97.9,55.4 99.3,55.4 100.1,57 100.9,55.4 102.3,55.4 100.8,58.1 102.4,60.9 101,60.9 
      100.1,59.2 99.2,60.9 97.8,60.9    "/>
    <path fill="#FFFFFF" d="M103.9,55.4v-1.8h1.3v1.8h1.1v1.1h-1.1v3.1c0,0.3,0.1,0.4,0.5,0.4c0.2,0,0.4-0.1,0.6-0.1V61
      c-0.4,0-0.7,0.1-1,0.1c-1,0-1.4-0.5-1.4-1.3v-3.3h-0.8v-1.1H103.9z"/>
    <path fill="#FFFFFF" d="M107.4,60.9v-5.5h1.2v0.9h0c0.3-0.7,0.8-1,1.6-1.1v1.4c-0.1,0-0.1,0-0.2,0c-0.7,0-1.2,0.8-1.2,0.9v3.4
      H107.4z"/>
    <path fill="#FFFFFF" d="M114.2,60.9l-0.1-0.5c-0.5,0.4-1,0.6-1.7,0.6c-1,0-1.5-0.7-1.5-1.5c0-1.3,1-1.9,3.2-2.2V57
      c0-0.4-0.3-0.7-0.8-0.7c-0.6,0-1,0.3-1.2,0.7l-0.8-0.6c0.3-0.6,1.3-1,2.1-1c1.5,0,2.1,0.6,2.1,2.2v2.6c0,0.3,0,0.6,0.1,0.8H114.2z
       M114,58.3c-0.9,0.2-1.8,0.4-1.8,1.1c0,0.4,0.3,0.6,0.6,0.6c0.4,0,0.9-0.4,1.2-0.6V58.3z"/>
    <path fill="#FFFFFF" d="M118.9,55.3c1.5,0,2.4,1.1,2.4,2.9c0,1.8-0.9,2.9-2.4,2.9c-1.5,0-2.4-1.1-2.4-2.9
      C116.5,56.4,117.4,55.3,118.9,55.3 M118.9,56.4c-0.7,0-1.1,0.6-1.1,1.8c0,1.2,0.4,1.8,1.1,1.8c0.7,0,1.1-0.6,1.1-1.8
      C120,57,119.7,56.4,118.9,56.4"/>
    <path fill="#FFFFFF" d="M122.5,60.9v-5.5h1.2v0.9h0c0.3-0.7,0.8-1,1.6-1.1v1.4c-0.1,0-0.1,0-0.2,0c-0.7,0-1.2,0.8-1.2,0.9v3.4
      H122.5z"/>
    <path fill="#FFFFFF" d="M131,60.9h-1.1l-0.1-0.6c-0.5,0.5-0.9,0.7-1.5,0.7c-1.5,0-2.2-1.3-2.2-3c0-1.4,0.8-2.7,2.2-2.7
      c0.4,0,1.1,0.3,1.3,0.6h0v-2.7h1.3V60.9z M129.7,56.8c-0.3-0.2-0.6-0.5-1-0.5c-0.8,0-1.2,0.6-1.2,1.8c0,1.2,0.4,1.8,1.2,1.8
      c0.6,0,0.7-0.3,1-0.5V56.8z"/>
    <path fill="#FFFFFF" d="M132.7,53.2h1.3v1.2h-1.3V53.2z M134,60.9h-1.3v-5.5h1.3V60.9z"/>
    <path fill="#FFFFFF" d="M135.6,60.9v-5.5h1.2V56c0.5-0.3,1.1-0.7,1.7-0.7c1.1,0,1.6,0.7,1.6,1.8v3.8h-1.3v-3.6c0-0.7-0.2-1-0.7-1
      c-0.6,0-1,0.3-1.2,0.6v4H135.6z"/>
    <path fill="#FFFFFF" d="M144.6,60.9l-0.1-0.5c-0.5,0.4-1,0.6-1.7,0.6c-1,0-1.5-0.7-1.5-1.5c0-1.3,1-1.9,3.2-2.2V57
      c0-0.4-0.3-0.7-0.8-0.7c-0.6,0-1,0.3-1.2,0.7l-0.8-0.6c0.3-0.6,1.3-1,2.1-1c1.5,0,2.1,0.6,2.1,2.2v2.6c0,0.3,0,0.6,0.1,0.8H144.6z
       M144.5,58.3c-0.9,0.2-1.8,0.4-1.8,1.1c0,0.4,0.3,0.6,0.6,0.6c0.4,0,0.9-0.4,1.2-0.6V58.3z"/>
    <path fill="#FFFFFF" d="M147.3,60.9v-5.5h1.2v0.9h0c0.3-0.7,0.8-1,1.5-1.1v1.4c-0.1,0-0.1,0-0.2,0c-0.7,0-1.2,0.8-1.2,0.9v3.4
      H147.3z"/>
    <path fill="#FFFFFF" d="M150.8,61.8c0.2,0,0.4,0,0.6,0c0.5,0,0.7-0.1,0.9-0.4c0.1-0.3,0.2-0.4,0.2-0.6c0-0.2-0.1-0.4-0.2-0.7
      l-1.5-4.7h1.3l0.9,3.4h0l0.9-3.4h1.3l-1.7,5.5c-0.6,1.6-1.1,2-2.1,2c-0.3,0-0.5,0-0.6,0V61.8z"/>
    <path fill="#FFFFFF" d="M162.7,61.1c-2.1,0-3.2-1.4-3.2-3.9c0-2.5,1.1-3.9,3.2-3.9c2.1,0,3.2,1.4,3.2,3.9
      C166,59.6,164.8,61.1,162.7,61.1 M162.7,54.4c-1.2,0-1.8,0.9-1.8,2.7c0,1.8,0.5,2.7,1.8,2.7c1.2,0,1.8-0.9,1.8-2.7
      C164.5,55.3,163.9,54.4,162.7,54.4"/>
    <path fill="#FFFFFF" d="M167.3,55.4h1.3v0.5c0.4-0.4,0.8-0.6,1.4-0.6c1.5,0,2.2,1.3,2.2,3c0,1.4-0.8,2.7-2.2,2.7
      c-0.4,0-1.1-0.3-1.3-0.6h0V63h-1.3V55.4z M168.6,59.5c0.3,0.2,0.6,0.5,1,0.5c0.8,0,1.2-0.6,1.2-1.8c0-1.2-0.4-1.8-1.2-1.8
      c-0.6,0-0.7,0.3-1,0.5V59.5z"/>
    <path fill="#FFFFFF" d="M173.5,55.4h1.3v0.5c0.4-0.4,0.8-0.6,1.4-0.6c1.5,0,2.2,1.3,2.2,3c0,1.4-0.8,2.7-2.2,2.7
      c-0.4,0-1.1-0.3-1.3-0.6h0V63h-1.3V55.4z M174.8,59.5c0.3,0.2,0.6,0.5,1,0.5c0.8,0,1.2-0.6,1.2-1.8c0-1.2-0.4-1.8-1.2-1.8
      c-0.6,0-0.7,0.3-1,0.5V59.5z"/>
    <path fill="#FFFFFF" d="M181.7,55.3c1.5,0,2.4,1.1,2.4,2.9c0,1.8-0.9,2.9-2.4,2.9c-1.5,0-2.4-1.1-2.4-2.9
      C179.3,56.4,180.2,55.3,181.7,55.3 M181.7,56.4c-0.7,0-1.1,0.6-1.1,1.8c0,1.2,0.4,1.8,1.1,1.8c0.7,0,1.1-0.6,1.1-1.8
      C182.8,57,182.5,56.4,181.7,56.4"/>
    <path fill="#FFFFFF" d="M185.3,60.9v-5.5h1.2v0.9h0c0.3-0.7,0.8-1,1.6-1.1v1.4c-0.1,0-0.1,0-0.2,0c-0.7,0-1.2,0.8-1.2,0.9v3.4
      H185.3z"/>
    <path fill="#FFFFFF" d="M189.7,55.4v-1.8h1.3v1.8h1.1v1.1H191v3.1c0,0.3,0.1,0.4,0.5,0.4c0.2,0,0.4-0.1,0.6-0.1V61
      c-0.4,0-0.7,0.1-1,0.1c-1,0-1.4-0.5-1.4-1.3v-3.3h-0.8v-1.1H189.7z"/>
    <path fill="#FFFFFF" d="M197.8,55.4v5.5h-1.2v-0.6c-0.5,0.3-1.1,0.7-1.7,0.7c-1.1,0-1.6-0.7-1.6-1.8v-3.8h1.3V59
      c0,0.7,0.2,1,0.7,1c0.6,0,1-0.3,1.2-0.6v-4H197.8z"/>
    <path fill="#FFFFFF" d="M199.3,60.9v-5.5h1.2V56c0.5-0.3,1.1-0.7,1.7-0.7c1.1,0,1.6,0.7,1.6,1.8v3.8h-1.3v-3.6c0-0.7-0.2-1-0.7-1
      c-0.6,0-1,0.3-1.2,0.6v4H199.3z"/>
    <path fill="#FFFFFF" d="M205.5,53.2h1.3v1.2h-1.3V53.2z M206.8,60.9h-1.3v-5.5h1.3V60.9z"/>
    <path fill="#FFFFFF" d="M208.7,55.4v-1.8h1.3v1.8h1.1v1.1h-1.1v3.1c0,0.3,0.1,0.4,0.5,0.4c0.2,0,0.4-0.1,0.6-0.1V61
      c-0.4,0-0.7,0.1-1,0.1c-1,0-1.4-0.5-1.4-1.3v-3.3H208v-1.1H208.7z"/>
    <path fill="#FFFFFF" d="M212,61.8c0.2,0,0.4,0,0.6,0c0.5,0,0.7-0.1,0.9-0.4c0.1-0.3,0.2-0.4,0.2-0.6c0-0.2-0.1-0.4-0.2-0.7
      l-1.5-4.7h1.3l0.9,3.4h0l0.9-3.4h1.3l-1.7,5.5c-0.6,1.6-1.1,2-2.1,2c-0.3,0-0.5,0-0.6,0V61.8z"/>
    <path fill="#FFFFFF" d="M44.4,28.6c-8.3,0-15,6.7-15,15c0,8.3,6.7,15,15,15c8.3,0,15-6.7,15-15C59.3,35.3,52.6,28.6,44.4,28.6
       M44.4,55.7c-6.7,0-12.1-5.4-12.1-12.1c0-6.7,5.4-12.1,12.1-12.1c6.7,0,12.1,5.4,12.1,12.1C56.6,50.2,51.1,55.7,44.4,55.7"/>
    <path fill="#FFFFFF" d="M10.4,41.6c0,0,0.7,0.8,2.7,0.4c1-0.2,1.5,0,1.7,0.1c0.2,0.1,0.2,0.2,0.2,0.3c0,0.2-0.2,0.5-0.4,0.6
      c0,0,1,0.3,1.9,0.1c0.9-0.2,2-0.2,2.1-0.2c0.1,0,0.4,0,0.3,0.3c-0.1,0.3-0.4,0.6-0.4,0.6s0.8-0.1,2.2-0.4c0.6-0.1,1.5-0.2,2.4,0
      c0.9,0.2,0.9,1.4,2.1,1.8c1.2,0.4,1.2-2.6,1.2-3.4c0-0.8,0.3-1.2,0.9-1.7c1-0.8,0.8-2,0.6-2.8c-0.1-0.8,1.5-1.7,2-2.6
      c0.4-1,0.1-2-0.1-2.4c-0.2-0.4,0.1-0.7,0.4-1c0.5-0.5,1.4-2,1-2.5c-0.4-0.5-2.4,0-4.5,2c-2.1,1.9-3.6,4.2-4.2,5.2
      c-0.1,0.1-0.2-0.1,0-0.5c0.1-0.4,1.3-3.3,3.7-5.6c2.4-2.3,4.6-3.2,6.3-2.7c1.7,0.4,1.4,1.8,1.1,2.6c-0.3,0.8-1.2,1.3-1.4,2.3
      c-0.2,0.9,0.1,1.6,0.2,2.5c0.1,0.9-0.2,1.5-1,2.4c-0.4,0.4-1.1,1.2-1.1,1.6c0,0.1,0.3,0.6-0.2,2c-0.5,1.4-1.7,1.8-1.7,2.2
      c0,0.4,0,2.3-1.2,3.4c-1.2,1.1-2.6,0.7-3.2,0c-0.6-0.7-0.9-1.6-2.1-1.6c-1.2,0.1-2,0-3.3,0.3c-1.2,0.3-2.4,0.3-2.9,0.2
      c-0.5-0.1-0.6-0.3-0.6-0.3s0.6-0.1,1.2-0.3c0.5-0.2,0.6-0.4,0.6-0.4s-1.2,0.2-2.5,0.1c-1.4-0.1-2.7-0.6-3.5-0.6c0,0,0.3-0.4,1-0.5
      c0.7-0.1,0.8-0.4,0.8-0.4C11.3,43,9.8,42.1,9.8,42c-0.2-1.9,0.9-5.3,0.9-5.3s-0.1,0-0.4,0.3c-0.4,0.3-0.8,0.4-0.8,0.4
      c0.2-0.5,0.4-1.1,0.6-2c0.4-2.1,2.1-5.8,2.1-5.8s-0.3,0-0.7,0.3c-0.4,0.3-0.8,0.3-0.8,0.3s0.1-0.3,0.4-1c0.3-0.7,0.8-1.5,1.5-2.3
      c0.7-0.8,1.1-1.5,1.1-1.5s-0.2-0.1-0.7,0c-0.5,0.1-0.9,0.3-0.9,0.3s0.3-0.6,1.3-1.8c1-1.2,2.5-2.3,2.5-2.3s-0.3,0.2-0.7,0.1
      c-0.3,0-0.7,0.1-0.7,0.1s0.3-0.3,1.6-1.2c1.3-0.9,2.7-1.5,2.7-1.5s-0.3,0-0.7,0c-0.4,0-0.8,0.1-0.8,0.1s1-0.8,3.4-1.6
      c3-1,4.2-0.7,4.2-0.7s-1,0.1-2,0.6c-1,0.4-1.3,0.7-1.3,0.7s0.4,0.3,0.5,0.4c0,0.1,0.1,0.2-0.1,0.2c-0.2,0.1-1,0.2-2,0.6
      c-1,0.4-1.4,0.8-1.4,0.8s0.3,0.1,0.4,0.2c0.2,0.1,0.2,0.2,0,0.4c-0.1,0.1-0.5,0.4-1.7,1.3c-1.1,0.9-1.5,1.5-1.5,1.5s0.6,0,0.7,0
      c0.1,0,0.2,0.1,0.1,0.2c-0.1,0.2-1,1.1-1.6,1.9c-0.6,0.9-1.1,1.6-1.1,1.6s1.1-0.3,0.9,0.4c-0.1,0.4-0.5,1.3-1.6,3.5
      c-1.1,2.2-1.7,3.6-1.7,3.6s1-0.1,1.1-0.1c0.1,0,0.2,0.1,0.2,0.3c-0.1,0.1-0.9,1.4-1.7,3.9C10.5,40.5,10.4,41.6,10.4,41.6"/>
    <path fill="#FFFFFF" d="M73.1,47.1c0,0-0.5-0.1-0.8-0.1c-0.3,0-0.3,0.5-0.3,0.8c0.1,1.8-0.1,4-0.1,4.2c0,0.2-0.8-0.3-1-0.4
      c-0.2-0.1-0.3,0.1-0.3,0.3c-0.3,2.8-1.6,5.9-1.6,5.9s-0.2-0.4-0.3-0.6c-0.1-0.2-0.2-0.2-0.3-0.1c-0.6,0.6-1.1,1.8-1.4,3
      c-0.3,1.2-1.1,2.1-1.1,2.1c-0.1-0.1-0.2-0.8-0.2-1c-0.1-0.2-0.3-0.1-0.4,0c-0.1,0.1-0.4,1-1.3,2.8c-0.9,1.8-1.5,3.3-2.7,3.4
      c-0.9,0.1-1.3-2.4-1.3-2.4s-0.3,0.2-0.5,0.6c-0.2,0.4-0.2,0.9-0.2,0.9c-0.9-2.6-0.5-4.6-0.5-4.8c0-0.2-0.1-0.3-0.3-0.3
      c-0.1,0.1-0.5,0.4-0.5,0.4c-0.1-0.4-0.3-0.9-0.6-1.5c-0.3-0.5-1.1-0.3-1.7-0.2c-0.5,0-0.7-0.5-0.3-1.6c0.4-1.1,1.9-1.7,2.5-2.1
      c0.6-0.3,0.1-0.9,0.3-1.6c0.4-1.2,2.1-1.7,2.3-2.1c0.2-0.3-0.2-1,0.1-1.9c0.3-0.9,2-2,2-2c-0.2-1.6,0-3.3,0.7-4.3
      c0.7-1,2-0.1,2.4,2.5c0.5,3.7-1,6.2-1.7,7.7c-0.7,1.5-1,1.6-0.9,1.7c0.1,0.1,0.5,0,1.1-0.8c0.6-0.9,3.3-4.5,2.8-8.6
      c-0.6-4.1-2.7-5.1-4.4-4.2c-1.7,0.9-2,2.5-1.6,5.5c0,0-1,0.8-1.3,1.4c-0.4,0.7-0.2,1.9-0.4,2.1c-0.2,0.2-1,0.6-1.6,1.4
      c-0.6,0.8-0.5,1.9-0.9,2.1c-0.4,0.2-1.8,0.8-2.3,2.6c-0.6,1.8,0,3.2,0.9,3c0.8-0.2,2.1-0.3,2.1,1c-0.1,1.3-0.2,2.7,0,3.8
      c0,0,0.3-1,0.6-1.5c0,0,0.9,4.5,2.6,6.2c0,0,0-0.6-0.2-1.3c-0.1-0.7,0.1-1.1,0.1-1.1s0.2,0.7,1.1,0.7c1.6-0.1,3.4-3.8,3.4-3.8
      c-0.1,0.9,0.2,1.2,0.2,1.2c1.5-1.7,2.5-4.2,2.9-5.5c0.4-1.3,0.9-1.9,0.9-1.9s0.2,0.1,0.2,0.6c0,0.5,0.2,1,0.2,1
      c1.9-4.3,2.4-7.5,2.4-7.5s0.2,0.1,0.4,0.6c0.1,0.5,0.5,0.9,0.5,0.9c1.1-3.7,0.9-6,0.9-6s0.2,0.1,0.6,0.3c0.4,0.3,0.7,0.8,0.7,0.8
      c0.1-1.8-0.2-3-0.6-4.3c-0.3-1.3-0.7-2.7-0.7-2.7c0.6,0,1.1,0.5,1.1,0.5c-1.1-4.3-2.2-6-2.2-6s0.2,0,0.5,0.1
      c0.3,0,0.7,0.2,0.7,0.2c-1.1-2.6-2.7-4.1-2.7-4.1c0.3-0.2,1,0,1,0c-1.9-3.3-5.8-4.5-5.8-4.5s2.3,1.3,3.4,2.9
      c0.1,0.2-0.2,0.3-0.4,0.3c-0.3,0-0.3,0.2-0.2,0.4c0.1,0.2,1.7,1.8,2.2,3c0.1,0.2-0.8,0-0.6,0.5c0.2,0.5,1.7,2.8,2.1,4.6
      c0,0-1.3-0.3-1.1,0.1C70.9,41.1,72,43.2,73.1,47.1"/>
    <path fill="#FFFFFF" d="M48.4,2c0,0-1.3-0.1-3.1,0.2c-1.8,0.2-2.4,0.5-3.1,0.5c-0.7,0.1-0.9,0.1-0.9,0.1s0.4,0.5,0.9,0.5
      c0.5,0,0.9,0,1.1,0.2c0,0-0.8,0.1-2.3,0.7c-1.9,0.7-2,0.8-4,1.4c0,0,0.5,0.3,1,0.3c0.4,0,0.7,0.2,0.7,0.2s-1.4,0.3-3,0.9
      c-1.6,0.6-1.9,1-2.7,1c0,0,0.4,0.2,1,0.3c0.4,0,0.8,0.1,0.8,0.1s-0.6,0.3-2.1,1.1c-1.4,0.8-1.9,1-2.8,1.2c0,0,0.6,0.4,1.1,0.4
      c0.2,0,0.4,0,0.5,0c0,0-0.9,0.6-2.3,1.3c-1.4,0.7-1.6,0.8-2.1,1.3c0,0,0.7,0.1,1,0.2c0.1,0.1,0.3,0.1,0.4,0.1c0,0-0.9,0.5-2.2,1.3
      c-1.3,0.9-1.7,1.5-1.7,1.5s2.8-1.7,5.2-2.4c0.2-0.1,0.3-0.3,0.1-0.5c-0.1-0.1-0.7-0.5-0.7-0.5s0.2-0.1,1.7-0.9
      c1.6-0.8,2.4-1.1,2.6-1.2c0.2-0.1,0-0.3-0.1-0.4c-0.1-0.1-0.7-0.4-0.7-0.4s0.3-0.2,1-0.5c1.3-0.6,3.2-1.2,3.3-1.3
      c0.2-0.1,0.2-0.2,0-0.3c-0.1-0.1-0.6-0.5-0.6-0.5s0.5-0.3,1.5-0.5c1-0.3,1.9-0.6,2.3-0.7C40.8,6.4,41,6.3,40.9,6
      c-0.1-0.2-0.3-0.5-0.3-0.5s0.5-0.2,1.2-0.5c1-0.3,1.6-0.4,2.5-0.6c0.9-0.2,1-0.3,1-0.5c0-0.3-0.2-0.6-0.2-0.6s0.1-0.1,1.1-0.2
      c1.1-0.1,2-0.1,2.7-0.1c0.7,0,1.1,0.1,1.4,0c0.3-0.1,0.4-0.7,0.4-0.7s0.8-0.1,2,0.2c1.2,0.3,1.7,0.5,2,0.6c0.3,0.1,0.5,0,0.5-0.3
      c0.1-0.3,0.2-0.5,0.2-0.5s0.8,0,2.1,0.5c1.3,0.6,2,1.1,2.3,1.3c0.2,0.1,0.3,0,0.5-0.2c0.2-0.2,0.3-0.3,0.3-0.3s0.1,0,0.5,0.1
      c0.4,0.1,1,0.4,1.5,0.8c0.6,0.4,0.7,0.7,1.2,0.9C64,5.4,64.2,5,64.3,4.7c0.1-0.3,0.3-0.5,0.3-0.5s0.2,0,0.7,0.3
      c0.5,0.3,1.1,0.7,1.5,1.1c0,0,0.1,0,0.1,0c0,0,0-0.5-0.3-0.9c-0.5-0.7-1.5-1.5-2.4-2.1c-0.9-0.6-1.2-0.8-1.4-1
      c-0.1-0.1-0.1-0.2-0.1-0.2s-0.1,0.3,0.2,0.8c0.3,0.6,0.2,0.9,0.2,0.9S62.1,2.5,60.9,2c-1.1-0.5-1.5-0.7-2-1
      c-0.6-0.3-0.7-0.4-0.7-0.4s0,0.6,0.3,1C58.8,1.9,58.8,2,58.8,2s-1.5-0.7-3.5-1.2c-2-0.4-3.1-0.8-3.1-0.8s0.2,0.7,0.5,1
      c0.3,0.3,0.4,0.5,0.4,0.5S51.5,1.1,49.8,1c-1.6-0.1-2.3,0-2.6,0c-0.1,0-0.2,0-0.3,0c0,0,0.1,0.3,0.7,0.6C48.2,1.8,48.4,2,48.4,2"
      />
    <path fill="#FFFFFF" d="M74.8,8.1c0.6,1,0.4,2.7-0.2,3.5c-0.5,0.8-1.4,1.3-1.9,1.9c-0.5,0.6-1,1.6-1.2,2.3
      c-0.2,0.7-0.6,1.4-1.2,1.4c-0.6,0-1.2-0.5-1.5-1.3c-0.3-0.8-0.4-1.8-1.7-2.5c-1.3-0.7-3.7-1.5-3.7-3.1c0-1.6,1.5-2.1,2.5-3.3
      c1-1.2,2.3-2.1,3.7-2.1C71.2,5.1,73.7,6.3,74.8,8.1"/>
    <path fill="#FFFFFF" d="M79.8,20.1c-0.2-0.4-0.3-0.7-0.3-0.7s0.1-0.2,0.4-0.4c0.5-0.2,0.9-0.2,0.9-0.6c0.1-1.7-1.2-2.9-1.2-2.9
      c0.2-0.1,0.5,0,0.9,0c0.4,0.1,0.4-0.1,0.4-0.1c-0.6-1.8-2.5-3-2.5-3c0.3-0.2,0.7,0,1,0.1c0.3,0.1,0.6,0,0.6,0
      c-0.3-1.1-1.1-1.9-2.2-2.5c-1.1-0.6-1.9-0.6-2-0.6c-0.1,0,0,0.1,0,0.2c0.1,0.1,0.6,0.3,1,0.7c0.5,0.5,0.6,0.7,0.6,0.7
      s0.1,0.3-0.4,0.6c-0.5,0.4-1,0.7-1,0.8c-0.1,0.1,0,0.2,0.1,0.3c0.1,0.1,0.7,0.4,1.5,1c0.7,0.6,1,1,0.8,1.1
      c-0.2,0.1-0.7,0.2-0.6,0.5c0.1,0.3,0.6,0.5,0.9,0.8c0.3,0.3,0.7,0.6,0.3,1.6c-0.2,0.6-0.6,0.8-0.9,0.8c-0.3,0-0.5,0-0.5,0.1
      c0.1,0.1,0.6,1.1,0.3,1.6c-0.2,0.5-0.5,0.8-1.1,0.7c-0.3,0-0.4,0-0.3,0.1c0.1,0.1,0.6,0.8,0.4,1.8c-0.1,0.6-0.6,0.7-1,0.5
      c-0.2-0.6-0.5-1.1-0.7-1.7c-0.1-0.2-0.3-0.3-0.5-0.2c-0.2,0.1-0.3,0.3-0.2,0.5c0.1,0.1,0.1,0.3,0.2,0.4c0.2,0.4,0.3,0.7,0.5,1.1
      c0,0.4,0,0.9-0.1,1.3c-0.1,0.6-0.6,0.8-0.9,0.1c-0.3-0.7-0.6-1.6-0.6-1.8c0-0.1-0.5,0.1-0.5,0.3c0,0.2-0.2,1.4-0.7,1.5
      c-0.2,0.1-0.4-0.4-0.4-0.9c0-0.6,0.3-1.6-0.4-2.1c-0.2-0.1-0.3-0.2-0.5-0.1c-0.2,0-0.3,0.2-0.3,0.2c-0.1,1.6-0.5,2.5-0.5,2.5
      s0.7-0.7,0.7-0.3c0,0.4,0.1,1.6,0.5,2.1c0.4,0.5,0.8,0.7,1.2,0.7c0.1,0-0.1-0.4,0.5-1c0.1-0.2,0.3-0.3,0.3-0.1c0,0.2,0.3,1,1.2,1
      c0.7,0,1.1-0.5,1.3-1.1c1.7,5.1,1.5,10-0.3,13.3c2.2-3.3,2.5-8.6,0.7-14.1c0.5-0.2,1.4,0,1.8-0.8c0,0,0-0.1,0-0.1
      c2.3,4.7,2.8,9.4,1.5,12.9c1.7-3.6,1.3-8.9-1.3-14c0-0.4-0.2-0.6-0.2-0.6s0.6-0.4,1.3-0.4c0.2,0,0.3-0.1,0.4-0.2
      c3,4.4,4.2,9.2,3.4,12.9C84.5,30.4,83.2,24.9,79.8,20.1"/>
    <path fill="#FFFFFF" d="M57.9,7.6c0.3,0.1,0.4,0.3,0.2,0.7c-0.2,0.4-0.5,0.6-1,0.6c-1,0.1-1.8-0.6-3.7-0.5c-1.1,0-2.3,0.2-3.3,0.7
      c-1,0.5-1.2,0.7-1.3,0.7c0,0,0-0.2,0.1-0.3c0.4-0.4,2.2-1.7,5-2.2C56.1,7,57.4,7.3,57.9,7.6"/>
    <path fill="#FFFFFF" d="M56.3,9.3c0.1,0,0.1,0,0.2,0.1c0,0.1,0.1,0.5,0,1c-0.2,0.5-0.4,0.9-0.9,1.4c-0.6,0.4-1.6,0.3-2-0.5
      C53,10.4,53.3,9,54.2,8.8c0.4-0.1,0.5,0.2,0.5,0.4c0.1,0.4-0.2,0.6,0,0.9c0.2,0.3,0.6,0.4,1,0c0.4-0.4,0.4-0.5,0.5-0.6
      C56.2,9.4,56.2,9.3,56.3,9.3"/>
    <path fill="#FFFFFF" d="M69.8,19.7c-0.1-0.2-0.3-0.2-0.3,0.1c0,0.5-0.1,0.8-0.5,1.3c-0.3,0.5-0.5,0.1-0.7,0.3
      c-0.7,0.5-0.4,1.7-0.4,2.3c0,0.6-0.2,1.2-0.4,1.1c-0.4-0.2-0.7-1-0.7-1.2c-0.1-0.5-0.5-0.5-0.5-0.3c-0.2,0.7-0.8,2.2-1.1,2.9
      c-0.2,0.4-0.5,0-0.6-0.4c0.3-0.9,0.7-1.7,1.1-2.6c0.1-0.2,0.1-0.3,0.2-0.5c0.1-0.2,0-0.4-0.2-0.5c-0.2-0.1-0.4,0-0.5,0.2
      c-0.7,1.4-1.2,2.8-1.6,4.1c-0.3,0.6-0.7,1.1-1.1,1.6c-0.3,0.3-0.7-1.4-1.4-0.5c-0.2,0.3-0.9,1.2-1.2,1.6c0,0.1-0.1,0.1-0.1,0.1
      c0.6-1.6,1.4-3.2,2.4-4.8c0.1-0.1,0.2-0.3,0.3-0.4c0.1-0.2,0.1-0.4-0.1-0.5c-0.2-0.1-0.4-0.1-0.5,0.1c-0.9,1.4-1.7,2.9-2.3,4.3
      c-0.2-0.7-0.9,0-1.2,0.4c-0.3,0.4-0.7,1-0.8,0.7c0,0-0.1-0.2-0.1-0.4c0-0.3-0.3-0.4-0.6-0.4c0.5-0.9,1.2-1.9,1.9-2.8
      c0.1-0.1,0.2-0.2,0.3-0.3c0.1-0.1,0.1-0.4-0.1-0.5c-0.1-0.1-0.4-0.1-0.5,0.1c-0.9,1.2-1.7,2.4-2.3,3.6c-0.3,0.1-0.5,0.1-0.7,0.2
      c-0.6,0.2-1.3,0.4-1.3,0.4c0-0.3,0-0.6-0.3-0.8c-0.3-0.3-1.5,0-2-0.1c-0.5-0.1-0.5-0.2-0.5-0.4c0.2-0.7-0.4-1-1.1-1.1
      c-0.7-0.2-1-0.3-1-0.3c0.2-0.7-0.8-1.1-1.4-1.4c-0.6-0.3-1.3-0.7-1.3-0.7l-0.1-0.5c-0.1-0.7-0.9-0.9-1.4-1.4
      c-0.5-0.4-0.7-1.2-0.7-1.2s0,0.1,0.2,0.8c0.2,0.7,0.8,1.1,1,1.6c0.2,0.5-0.1,0.9-0.1,0.9c0.5,0.4,1,0.7,1.8,1.1
      c0.8,0.5,0.2,0.9,0.2,0.9c0.5,0.4,1.3,0.8,2.1,1c0.8,0.3,0.1,0.9,0.1,0.9c0.9,0.4,2,0.8,2.6,0.8c0.6,0,0.2,0.9,0.2,0.9
      c0.6,0.2,1.1,0.1,2.5-0.3c0.2,0,0.3-0.1,0.4-0.1c-1.6,3.8-1.9,7.5-0.8,10.3c-0.9-2.8-0.3-6.6,1.4-10.2c0.4,0.1,0.3,0.5,0.3,0.7
      c-0.1,0.3,0,0.7,0.2,0.6c1.2-0.5,2-1.6,2.3-1.6c0.1,0,0.1,0.1,0.2,0.2c-1.3,4.2-1.3,8.2,0.2,11c-1-2.6-1-6.1,0-9.7
      c0.8-0.4,1-1,1.5-1.4c0.5-0.4,0.7-0.2,0.7,0.1c0.1,0.4-0.2,1.1,0.2,0.9c0.5-0.2,0.9-0.5,1.2-0.8c-0.7,4.5-0.1,8.6,1.8,11.4
      c-1.8-3.2-2.1-7.9-0.8-12.9c0.1-0.2,0.1-0.3,0.2-0.4c0.1-0.3,0.3,0.1,0.3,0.5c0,0.4,0.1,0.7,0.3,0.5c1.3-0.6,2.1-2.7,2.2-3.1
      c0-0.2,0.1-0.1,0.3,0.1c0.6,0.5,0.4,1,0.6,1c0.4,0,0.7-0.3,1.1-0.8c0.3-0.6,0.3-1.9,0.3-2.3c0-0.4,0.7,0.3,0.7,0.3
      s0.5-0.9,0.5-2.5C70.2,20.4,70,19.9,69.8,19.7"/>
    <path fill="#FFFFFF" d="M58.9,29.7c0-0.1-0.1-0.2-0.2-0.2c0,0-0.1,0-0.1,0.1c0.1,0.1,0.2,0.2,0.2,0.3
      C58.9,29.8,58.9,29.8,58.9,29.7"/>
    <path fill="#FFFFFF" d="M51.3,27.7c-0.1,0.3,0,0.4,0.5,0.4c0.3,0,0.8,0,1.3,0c-0.6-0.3-1.2-0.6-1.8-0.9
      C51.3,27.4,51.4,27.6,51.3,27.7"/>
    <path fill="#FFFFFF" d="M54.4,29c-0.1-0.1-0.3-0.2-0.4-0.3c0,0.1,0.1,0.3,0,0.4C54.1,29.1,54.2,29,54.4,29"/>
    <path fill="#FFFFFF" d="M58.2,32.5c0.2-0.9,0.4-1.7,0.6-2.6c-0.1-0.1-0.2-0.2-0.2-0.3c-0.3,0.2-0.9,0.8-1.8,1.3
      C57.3,31.4,57.8,32,58.2,32.5"/>
    <path fill="#FFFFFF" d="M59.6,30.7c-0.2,0.1-0.3,0.3-0.5,0.4c-0.2,0.7-0.3,1.3-0.4,2c2.1,2.8,3.4,6.3,3.4,10.1
      c0.1-0.1,0.2-0.1,0.3-0.2c0.6-0.3,1.3-0.4,1.9-0.2c0-0.8-0.1-1.5-0.2-2.3c-0.8-1.5-1.4-3.3-1.5-5.3C61.7,33.6,60.8,32.1,59.6,30.7
      "/>
    <path fill="#FFFFFF" d="M47.6,26.2c0-0.2,0-0.4-0.4-0.6c-0.8-0.5-1.4-0.8-1.8-1.1c0,0,0.2-0.3,0.2-0.7c-0.4,0-0.7-0.1-1.1-0.1
      c-4.3,0-8.2,1.4-11.4,3.6c1.1,0.4,1,1.4,0.8,2.2c3-2.2,6.6-3.6,10.6-3.6C45.5,25.9,46.6,26,47.6,26.2"/>
    <path fill="#FFFFFF" d="M27,46.3c-0.7,0.6-1.5,0.7-2.2,0.4c1.6,9.4,9.7,16.6,19.6,16.6c3.6,0,6.9-1,9.9-2.6
      c-0.3-0.5-0.4-1.4-0.1-2.5c-2.8,1.8-6.1,2.9-9.7,2.9C35.7,61.2,28.4,54.7,27,46.3"/>
    <path fill="#FFFFFF" d="M23.2,43.6c-0.9-0.2-1.8-0.1-2.4,0c-1.4,0.2-2.2,0.4-2.2,0.4s0.2-0.4,0.4-0.6c0.1-0.3-0.2-0.3-0.3-0.3
      c-0.1,0-1.2,0-2.1,0.2c-0.9,0.1-1.9-0.1-1.9-0.1c0.2-0.2,0.3-0.5,0.4-0.6c0-0.1,0-0.2-0.2-0.3c-0.2-0.1-0.7-0.3-1.7-0.1
      c-2.1,0.4-2.7-0.4-2.7-0.4s0.1-1.1,0.6-2.7c0.7-2.5,1.6-3.7,1.7-3.9c0.1-0.1-0.1-0.3-0.2-0.3c-0.1,0-1.1,0.1-1.1,0.1
      s0.5-1.4,1.7-3.6c1.1-2.2,1.5-3.1,1.6-3.5c0.2-0.7-0.9-0.4-0.9-0.4s0.4-0.8,1.1-1.6c0.6-0.9,1.5-1.8,1.7-1.9
      c0.1-0.2,0-0.2-0.1-0.2c-0.1,0-0.7,0-0.7,0s0.4-0.6,1.5-1.5c1.1-0.9,1.6-1.3,1.7-1.3c0.2-0.2,0.2-0.3,0-0.4
      c-0.1,0-0.4-0.2-0.4-0.2s0.3-0.3,1.4-0.8c1-0.4,1.8-0.6,2-0.6c0.2-0.1,0.1-0.2,0.1-0.2c0-0.1-0.5-0.4-0.5-0.4s0.3-0.2,1.3-0.7
      c1-0.5,2-0.6,2-0.6s-1.2-0.3-4.2,0.7c-2.4,0.8-3.4,1.6-3.4,1.6s0.4-0.1,0.8-0.1c0.4,0,0.7,0,0.7,0s-1.4,0.7-2.7,1.5
      c-1.3,0.9-1.6,1.2-1.6,1.2s0.4-0.1,0.7-0.1c0.4,0,0.7-0.1,0.7-0.1s-1.4,1.1-2.5,2.3c-1,1.2-1.3,1.8-1.3,1.8s0.4-0.2,0.9-0.3
      c0.5-0.1,0.7,0,0.7,0s-0.4,0.7-1.1,1.5c-0.7,0.8-1.2,1.6-1.5,2.3c-0.3,0.7-0.4,1-0.4,1s0.4,0,0.8-0.3c0.4-0.3,0.7-0.3,0.7-0.3
      s-1.7,3.7-2.1,5.8c-0.2,0.8-0.3,1.5-0.6,2c0,0,0.5-0.1,0.8-0.4c0.4-0.3,0.4-0.3,0.4-0.3S9.6,40.1,9.8,42c0,0.1,1.5,1.1,2.8,0.8
      c0,0-0.1,0.2-0.8,0.4c-0.7,0.1-1,0.5-1,0.5c0.8,0,2.1,0.5,3.5,0.6c1.4,0.1,2.5-0.1,2.5-0.1s-0.1,0.2-0.6,0.4
      c-0.6,0.3-1.2,0.3-1.2,0.3s0.2,0.2,0.6,0.3c0.5,0.1,1.6,0.1,2.9-0.2c1.2-0.3,2-0.2,3.3-0.3c1.2,0,1.5,0.9,2.1,1.6
      c0.2,0.2,0.5,0.4,0.8,0.5c-0.1-0.6-0.2-1.2-0.2-1.8C24,44.5,23.9,43.7,23.2,43.6"/>
    <path fill="#FFFFFF" d="M64.5,41.3c-0.2-0.3-0.3-0.7-0.5-1c0,0.1,0,0.2,0.1,0.3C64.2,40.8,64.3,41.1,64.5,41.3"/>
    <path fill="#FFFFFF" d="M56.3,30.5c0,0,0,0.1,0,0.1c-0.1,0.3,0,0.7,0.2,0.6c0.1-0.1,0.2-0.1,0.4-0.2
      C56.6,30.8,56.4,30.6,56.3,30.5"/>
    <path fill="#FFFFFF" d="M59.1,40.8c-0.9-2.1-1-4.8-0.4-7.7c-0.1-0.2-0.3-0.4-0.4-0.6C57.6,35.7,57.9,38.6,59.1,40.8"/>
    <path fill="#FFFFFF" d="M53.7,28.3c-0.1-0.1-0.4-0.1-0.7-0.1c0.3,0.2,0.6,0.4,1,0.6C54,28.6,53.9,28.4,53.7,28.3"/>
    <path fill="#FFFFFF" d="M41.3,42.9c-0.2,0-0.4,0-0.6,0.1c-0.7,0.2-1.2,0.9-1.2,1.7c0,1,0.8,1.8,1.8,1.8c0.4,0,0.8-0.1,1.1-0.4
      c0.4-0.3,0.7-0.8,0.7-1.4C43.1,43.7,42.3,42.9,41.3,42.9"/>
    <path fill="#FFFFFF" d="M51.8,48.5l-0.3-0.3l-0.1-0.4l-0.2-0.2l0-0.1l-0.1,0l0-0.1l0-0.1l-1.4-1.4l-0.3-0.3L47.8,44l-0.9-0.8
      l-0.8-0.7l-1-0.8l-0.2-0.2l-0.3-0.3l-0.4-0.3L44,40.6v-5h-5.6l0,0.2l0,0.1l0,0.1l0.1,0.1l0,0.1l0,0.2l0.1,0.1h0l0.1,0.1l0,0.1
      l-0.1,0.2V37l0,0l0,0.1l0.1,0.2l-0.3,0.7l-0.1,0.2v0.1l0,0.1l0,0.1l0,0.1l0,0l0.2,0.2l0.1,0.1l0,0.1l0.1,0.1l0.1,0.2l0,0.1
      l0.1,0.1v0.1l0,0.1l0,0.2l0,0.1l0,0.1v0.2l0,0.1l0.1,0.2l0.1,0.2l-0.1,0.2l0,0.1l0.1,0.1l0.1,0.1l0.1,0.1l0,0l0.1,0l0.1,0.1
      l0.1,0.2l0.1,0.1l0.2,0.1l0.1,0.2h0l0.1,0.1l0,0c0.1,0,0.1-0.1,0.2-0.1c0.3-0.1,0.7-0.2,1.1-0.2c1.7,0,3.1,1.4,3.1,3.1
      c0,1-0.5,1.9-1.2,2.5l0,0.1v0.1l0,0l0.1,0.1l0,0.1l0,0.1l-0.1,0.2l0,0.1l0.2,0l0.1,0.1l0.6,0l0.1,0l0.3,0l0.1,0l0.2,0.1l0.1,0.2
      l0.1,0l0.1,0.2l0.1,0.1l0.2,0.1l0,0l0.2,0l0,0l0.3,0l0.1,0.1l0.1,0.3v0l0,0.1l0.2,0.1l0-0.1l0.1,0l0.1,0l0.2,0.2l0.1,0.1l0.1,0
      l0.2,0.2l0.1,0.1l0.2,0.2l0.3,0.5l0,0.2l0,0.1l0.1,0.1l0,0v0.1l0,0l0.1-0.1l0,0l0.1,0.1l0,0.1l-0.1-0.1h0l0,0l0.1,0.1v0.1l1.3-0.1
      l1.8-0.2l0.2,0l0.1,0l0-0.1l0.1-0.1v-0.2l-0.1-0.1l-0.2,0l-0.1,0l0-0.1l0-0.2L51,50.1l0-0.1l0-0.1l0,0l0.1-0.1l0,0l0.1,0l0.1-0.1
      l0-0.1l0-0.1l0-0.3l0.1-0.1l0,0l0-0.1L51.8,48.5L51.8,48.5L51.8,48.5z"/>
  </g>
</g>
</svg>
