<?xml version="1.0" encoding="utf-8"?>
<!-- Generator: Adobe Illustrator 18.0.0, SVG Export Plug-In . SVG Version: 6.00 Build 0)  -->
<!DOCTYPE svg PUBLIC "-//W3C//DTD SVG 1.1//EN" "http://www.w3.org/Graphics/SVG/1.1/DTD/svg11.dtd">
<svg version="1.1" xmlns="http://www.w3.org/2000/svg" xmlns:xlink="http://www.w3.org/1999/xlink" x="0px" y="0px"
	 viewBox="0 0 200 72" enable-background="new 0 0 200 72" xml:space="preserve">
<g id="Blue" display="none">
	<g display="inline">
		<path fill="#1F346B" d="M17.3,14.9c-0.3-0.9-0.9-1.6-2-1.6c-1.4,0-2.2,1.3-2.2,3.8c0,2.5,0.7,3.8,2.3,3.8c0.9,0,1.5-0.3,2.1-1.6
			l1.9,0.5c-0.6,1.9-2.1,2.8-4,2.8c-2.8,0-4.3-2-4.3-5.6c0-3.5,1.6-5.6,4.3-5.6c2.1,0,3.3,0.9,3.8,2.8L17.3,14.9z"/>
		<path fill="#1F346B" d="M25.3,22.6l-0.1-0.7c-0.7,0.5-1.5,0.8-2.4,0.8c-1.4,0-2.1-1-2.1-2.1c0-1.8,1.4-2.7,4.5-3.1v-0.7
			c0-0.6-0.5-0.9-1.1-0.9c-0.9,0-1.3,0.5-1.7,1l-1.2-0.9c0.5-0.8,1.8-1.5,2.9-1.4c2.1,0,3,0.8,3,3.1v3.7c0,0.4,0,0.8,0.2,1.1H25.3z
			 M25.1,18.8c-1.2,0.2-2.6,0.5-2.6,1.6c0,0.6,0.4,0.9,0.9,0.9c0.6,0,1.3-0.5,1.7-0.8V18.8z"/>
		<rect x="29.2" y="11.8" fill="#1F346B" width="1.9" height="10.8"/>
		<path fill="#1F346B" d="M33.4,11.6h1.9v1.7h-1.9V11.6z M35.3,22.6h-1.9v-7.8h1.9V22.6z"/>
		<path fill="#1F346B" d="M39.8,16.3v6.3h-1.9v-6.3h-1.1v-1.5h1.1v-1c0-1.7,0.7-2.2,2.2-2.2h1.2v1.5h-0.5c-0.8,0-1,0.2-1,0.8v0.8
			h1.6v1.5H39.8z"/>
		<path fill="#1F346B" d="M45.8,14.6c2.1,0,3.4,1.6,3.4,4s-1.3,4-3.4,4c-2.1,0-3.4-1.6-3.4-4S43.7,14.6,45.8,14.6 M45.8,16.1
			c-1,0-1.5,0.8-1.5,2.5c0,1.7,0.5,2.5,1.5,2.5c1,0,1.5-0.8,1.5-2.5C47.3,16.9,46.8,16.1,45.8,16.1"/>
		<path fill="#1F346B" d="M50.8,22.6v-7.8h1.7v1.3h0c0.4-0.9,1.1-1.5,2.2-1.5v2c-0.1,0-0.2,0-0.3,0c-0.9,0-1.7,1.1-1.7,1.3v4.7H50.8
			z"/>
		<path fill="#1F346B" d="M56.2,22.6v-7.8h1.7v0.8c0.7-0.5,1.5-1,2.4-1c1.6,0,2.3,1,2.3,2.6v5.3h-1.9v-5.1c0-1-0.3-1.4-1-1.4
			c-0.8,0-1.4,0.5-1.7,0.8v5.6H56.2z"/>
		<path fill="#1F346B" d="M64.9,11.6h1.9v1.7h-1.9V11.6z M66.8,22.6h-1.9v-7.8h1.9V22.6z"/>
		<path fill="#1F346B" d="M73.1,22.6L73,21.9c-0.7,0.5-1.5,0.8-2.4,0.8c-1.4,0-2.1-1-2.1-2.1c0-1.8,1.4-2.7,4.5-3.1v-0.7
			c0-0.6-0.5-0.9-1.1-0.9c-0.9,0-1.3,0.5-1.7,1l-1.2-0.9c0.5-0.8,1.8-1.5,2.9-1.4c2.1,0,3,0.8,3,3.1v3.7c0,0.4,0,0.8,0.2,1.1H73.1z
			 M72.9,18.8c-1.2,0.2-2.6,0.5-2.6,1.6c0,0.6,0.4,0.9,0.9,0.9c0.6,0,1.3-0.5,1.7-0.8V18.8z"/>
		<path fill="#1F346B" d="M87.6,14.6c-0.3-0.8-1-1.4-1.9-1.4c-0.9,0-1.5,0.4-1.5,1.2c0,1.9,5.6,1.5,5.6,5c0,2.2-1.4,3.3-3.8,3.3
			c-1.8,0-3.4-1-4-2.6l1.7-0.7c0.5,1,1.1,1.7,2.4,1.7c1,0,1.8-0.4,1.8-1.4c0-2.1-5.6-1.7-5.6-5c0-1.9,1.6-3,3.5-3
			c1.7,0,3.2,0.9,3.8,2.4L87.6,14.6z"/>
		<path fill="#1F346B" d="M91.8,14.8v-2.6h1.9v2.6h1.5v1.5h-1.5v4.4c0,0.4,0.2,0.5,0.7,0.5c0.3,0,0.6-0.1,0.9-0.2v1.5
			c-0.5,0.1-1,0.1-1.5,0.1c-1.4,0-1.9-0.7-1.9-1.8v-4.6h-1.1v-1.5H91.8z"/>
		<path fill="#1F346B" d="M101.1,22.6l-0.1-0.7c-0.7,0.5-1.5,0.8-2.4,0.8c-1.4,0-2.1-1-2.1-2.1c0-1.8,1.4-2.7,4.5-3.1v-0.7
			c0-0.6-0.5-0.9-1.1-0.9c-0.9,0-1.3,0.5-1.7,1l-1.2-0.9c0.5-0.8,1.8-1.5,2.9-1.4c2.1,0,3,0.8,3,3.1v3.7c0,0.4,0,0.8,0.2,1.1H101.1z
			 M100.9,18.8c-1.2,0.2-2.6,0.5-2.6,1.6c0,0.6,0.4,0.9,0.9,0.9c0.6,0,1.3-0.5,1.7-0.8V18.8z"/>
		<path fill="#1F346B" d="M105.2,14.8v-2.6h1.9v2.6h1.5v1.5h-1.5v4.4c0,0.4,0.2,0.5,0.7,0.5c0.3,0,0.6-0.1,0.9-0.2v1.5
			c-0.5,0.1-1,0.1-1.5,0.1c-1.4,0-1.9-0.7-1.9-1.8v-4.6h-1.1v-1.5H105.2z"/>
		<path fill="#1F346B" d="M111.5,19c0,1.6,0.7,2.2,1.6,2.2c0.9,0,1.3-0.4,1.7-0.9l1.3,0.8c-0.7,1.1-1.8,1.6-3.3,1.6
			c-2,0-3.3-1.6-3.3-4c0-2.5,1.3-4,3.4-4c2,0,3.2,1.7,3.2,3.6V19H111.5z M114.5,17.7c0-1.1-0.6-1.7-1.5-1.7s-1.5,0.6-1.5,1.7H114.5z
			"/>
		<path fill="#1F346B" d="M129.9,11.8h2.1v6.8c0,3.2-1.9,4.2-4.1,4.2c-2.2,0-4.2-1-4.2-4.2v-6.8h2.1v6.9c0,1.8,0.7,2.4,2.1,2.4
			c1.4,0,2.1-0.6,2.1-2.4V11.8z"/>
		<path fill="#1F346B" d="M134.4,22.6v-7.8h1.7v0.8c0.7-0.5,1.5-1,2.4-1c1.6,0,2.3,1,2.3,2.6v5.3h-1.9v-5.1c0-1-0.3-1.4-1-1.4
			c-0.8,0-1.4,0.5-1.7,0.8v5.6H134.4z"/>
		<path fill="#1F346B" d="M143.1,11.6h1.9v1.7h-1.9V11.6z M144.9,22.6h-1.9v-7.8h1.9V22.6z"/>
		<polygon fill="#1F346B" points="146.5,14.8 148.3,14.8 149.6,20.1 149.6,20.1 151,14.8 152.8,14.8 150.6,22.6 148.6,22.6 		"/>
		<path fill="#1F346B" d="M155.4,19c0,1.6,0.7,2.2,1.6,2.2c0.9,0,1.3-0.4,1.7-0.9l1.3,0.8c-0.7,1.1-1.8,1.6-3.3,1.6
			c-2,0-3.3-1.6-3.3-4c0-2.5,1.3-4,3.4-4c2,0,3.2,1.7,3.2,3.6V19H155.4z M158.4,17.7c0-1.1-0.6-1.7-1.5-1.7s-1.5,0.6-1.5,1.7H158.4z
			"/>
		<path fill="#1F346B" d="M161.9,22.6v-7.8h1.7v1.3h0c0.5-0.9,1.1-1.5,2.2-1.5v2c-0.1,0-0.2,0-0.3,0c-0.9,0-1.7,1.1-1.7,1.3v4.7
			H161.9z"/>
		<path fill="#1F346B" d="M171.3,16.8c-0.4-0.4-0.9-0.8-1.5-0.8c-0.7,0-1,0.3-1,0.8c0,1.3,3.9,0.8,3.9,3.6c0,1.6-1.2,2.3-2.9,2.3
			c-1.2,0-2.3-0.6-3-1.6l1.2-0.9c0.4,0.6,1,1.1,1.8,1.1c0.7,0,1.1-0.4,1.1-0.9c0-1.3-3.9-0.9-3.9-3.6c0-1.5,1.2-2.3,2.6-2.3
			c1,0,2.1,0.4,2.7,1.2L171.3,16.8z"/>
		<path fill="#1F346B" d="M174.5,11.6h1.9v1.7h-1.9V11.6z M176.4,22.6h-1.9v-7.8h1.9V22.6z"/>
		<path fill="#1F346B" d="M179,14.8v-2.6h1.9v2.6h1.5v1.5h-1.5v4.4c0,0.4,0.2,0.5,0.7,0.5c0.3,0,0.6-0.1,0.9-0.2v1.5
			c-0.5,0.1-1,0.1-1.5,0.1c-1.4,0-1.9-0.7-1.9-1.8v-4.6h-1.1v-1.5H179z"/>
		<path fill="#1F346B" d="M183.5,23.8c0.3,0.1,0.5,0.1,0.8,0.1c0.6,0,1-0.2,1.2-0.6c0.2-0.4,0.3-0.6,0.3-0.9c0-0.3-0.2-0.6-0.2-0.9
			l-2.1-6.7h1.9l1.3,4.8h0l1.3-4.8h1.9l-2.5,7.8c-0.8,2.2-1.5,2.8-3,2.8c-0.5,0-0.7,0-0.9-0.1V23.8z"/>
		<polygon fill="#1F346B" points="11.6,47.6 11.6,30.4 16.2,30.4 19.5,42.4 19.5,42.4 22.8,30.4 27.5,30.4 27.5,47.6 24.6,47.6 
			24.6,34.1 24.6,34.1 20.7,47.6 18.3,47.6 14.5,34.1 14.4,34.1 14.4,47.6 		"/>
		<path fill="#1F346B" d="M38.1,47.8c-4.7,0-7.2-3.2-7.2-8.8c0-5.6,2.5-8.8,7.2-8.8c4.7,0,7.2,3.2,7.2,8.8
			C45.3,44.6,42.7,47.8,38.1,47.8 M38.1,32.9c-2.7,0-3.9,2-3.9,6.1c0,4,1.2,6.1,3.9,6.1c2.7,0,3.9-2,3.9-6.1
			C42,35,40.8,32.9,38.1,32.9"/>
		<polygon fill="#1F346B" points="48.7,47.6 48.7,30.4 52.1,30.4 58.8,42.1 58.9,42.1 58.9,30.4 61.9,30.4 61.9,47.6 58.8,47.6 
			51.8,35.4 51.7,35.4 51.7,47.6 		"/>
		<polygon fill="#1F346B" points="77.1,30.4 77.1,33.2 72.6,33.2 72.6,47.6 69.4,47.6 69.4,33.2 64.9,33.2 64.9,30.4 		"/>
		<polygon fill="#1F346B" points="80.1,47.6 80.1,30.4 91.4,30.4 91.4,33.2 83.4,33.2 83.4,37.3 89.2,37.3 89.2,40 83.4,40 
			83.4,44.8 91.7,44.8 91.7,47.6 		"/>
		<path fill="#1F346B" d="M94.8,47.6V30.4h6.8c3.9,0,5.5,2.3,5.5,5.1c0,2.1-1,3.8-3.1,4.4l3.8,7.6h-3.6l-3.2-7h-2.8v7H94.8z
			 M98.1,37.9h2.4c2.6,0,3.3-0.8,3.3-2.4c0-1.6-1-2.4-2.8-2.4h-3V37.9z"/>
		<polygon fill="#1F346B" points="111,47.6 111,30.4 122.4,30.4 122.4,33.2 114.3,33.2 114.3,37.3 120.2,37.3 120.2,40 114.3,40 
			114.3,44.8 122.6,44.8 122.6,47.6 		"/>
		<polygon fill="#1F346B" points="131.2,37.2 134.1,30.4 137.5,30.4 132.8,40.7 132.8,47.6 129.5,47.6 129.5,40.7 124.8,30.4 
			128.2,30.4 		"/>
		<path fill="#1F346B" d="M149,30.4h6.4c3.4,0,5.6,1.1,5.8,4.2c0,1.8-0.7,3.2-2.6,3.9c2.2,0.9,3,1.9,3,4.5c0,2.7-1.9,4.5-6.2,4.5
			H149V30.4z M152.3,37.3h3.3c1.6,0,2.3-0.9,2.3-2.1c0-1.2-0.8-2.1-2.3-2.1h-3.3V37.3z M152.3,44.9h3.3c1.9,0,2.7-0.9,2.7-2.5
			c0-1.6-0.8-2.5-2.7-2.5h-3.3V44.9z"/>
		<path fill="#1F346B" d="M168.6,30.4h4.1l4.9,17.2h-3.3l-0.9-3.7h-5.4l-1,3.7h-3.3L168.6,30.4z M168.7,41.2h4l-1.9-7.5h0
			L168.7,41.2z"/>
		<polygon fill="#1F346B" points="183.7,37.2 186.6,30.4 190,30.4 185.3,40.7 185.3,47.6 182.1,47.6 182.1,40.7 177.3,30.4 
			180.7,30.4 		"/>
		<polygon fill="#1F346B" points="11.7,60.9 11.7,53.3 16.8,53.3 16.8,54.5 13.2,54.5 13.2,56.3 15.8,56.3 15.8,57.6 13.2,57.6 
			13.2,59.7 16.9,59.7 16.9,60.9 		"/>
		<polygon fill="#1F346B" points="19.4,58.1 17.9,55.4 19.3,55.4 20.1,57 20.9,55.4 22.3,55.4 20.8,58.1 22.4,60.9 21,60.9 
			20.1,59.2 19.2,60.9 17.8,60.9 		"/>
		<path fill="#1F346B" d="M23.9,55.4v-1.8h1.3v1.8h1.1v1.1h-1.1v3.1c0,0.3,0.1,0.4,0.5,0.4c0.2,0,0.4-0.1,0.6-0.1V61
			c-0.4,0-0.7,0.1-1,0.1c-1,0-1.4-0.5-1.4-1.3v-3.3h-0.8v-1.1H23.9z"/>
		<path fill="#1F346B" d="M27.4,60.9v-5.5h1.2v0.9h0c0.3-0.7,0.8-1,1.6-1.1v1.4c-0.1,0-0.1,0-0.2,0c-0.7,0-1.2,0.8-1.2,0.9v3.4H27.4
			z"/>
		<path fill="#1F346B" d="M34.2,60.9l-0.1-0.5c-0.5,0.4-1,0.6-1.7,0.6c-1,0-1.5-0.7-1.5-1.5c0-1.3,1-1.9,3.2-2.2V57
			c0-0.4-0.3-0.7-0.8-0.7c-0.6,0-1,0.3-1.2,0.7l-0.8-0.6c0.3-0.6,1.3-1,2.1-1c1.5,0,2.1,0.6,2.1,2.2v2.6c0,0.3,0,0.6,0.1,0.8H34.2z
			 M34,58.3c-0.9,0.2-1.8,0.4-1.8,1.1c0,0.4,0.3,0.6,0.6,0.6c0.4,0,0.9-0.4,1.2-0.6V58.3z"/>
		<path fill="#1F346B" d="M38.9,55.3c1.5,0,2.4,1.1,2.4,2.9c0,1.8-0.9,2.9-2.4,2.9c-1.5,0-2.4-1.1-2.4-2.9
			C36.5,56.4,37.4,55.3,38.9,55.3 M38.9,56.4c-0.7,0-1.1,0.6-1.1,1.8c0,1.2,0.4,1.8,1.1,1.8c0.7,0,1.1-0.6,1.1-1.8
			C40,57,39.7,56.4,38.9,56.4"/>
		<path fill="#1F346B" d="M42.5,60.9v-5.5h1.2v0.9h0c0.3-0.7,0.8-1,1.6-1.1v1.4c-0.1,0-0.1,0-0.2,0c-0.7,0-1.2,0.8-1.2,0.9v3.4H42.5
			z"/>
		<path fill="#1F346B" d="M51,60.9h-1.1l-0.1-0.6c-0.5,0.5-0.9,0.7-1.5,0.7c-1.5,0-2.2-1.3-2.2-3c0-1.4,0.8-2.7,2.2-2.7
			c0.4,0,1.1,0.3,1.3,0.6h0v-2.7H51V60.9z M49.7,56.8c-0.3-0.2-0.6-0.5-1-0.5c-0.8,0-1.2,0.6-1.2,1.8c0,1.2,0.4,1.8,1.2,1.8
			c0.6,0,0.7-0.3,1-0.5V56.8z"/>
		<path fill="#1F346B" d="M52.7,53.2H54v1.2h-1.3V53.2z M54,60.9h-1.3v-5.5H54V60.9z"/>
		<path fill="#1F346B" d="M55.6,60.9v-5.5h1.2V56c0.5-0.3,1.1-0.7,1.7-0.7c1.1,0,1.6,0.7,1.6,1.8v3.8h-1.3v-3.6c0-0.7-0.2-1-0.7-1
			c-0.6,0-1,0.3-1.2,0.6v4H55.6z"/>
		<path fill="#1F346B" d="M64.6,60.9l-0.1-0.5c-0.5,0.4-1,0.6-1.7,0.6c-1,0-1.5-0.7-1.5-1.5c0-1.3,1-1.9,3.2-2.2V57
			c0-0.4-0.3-0.7-0.8-0.7c-0.6,0-1,0.3-1.2,0.7l-0.8-0.6c0.3-0.6,1.3-1,2.1-1c1.5,0,2.1,0.6,2.1,2.2v2.6c0,0.3,0,0.6,0.1,0.8H64.6z
			 M64.5,58.3c-0.9,0.2-1.8,0.4-1.8,1.1c0,0.4,0.3,0.6,0.6,0.6c0.4,0,0.9-0.4,1.2-0.6V58.3z"/>
		<path fill="#1F346B" d="M67.3,60.9v-5.5h1.2v0.9h0c0.3-0.7,0.8-1,1.5-1.1v1.4c-0.1,0-0.1,0-0.2,0c-0.7,0-1.2,0.8-1.2,0.9v3.4H67.3
			z"/>
		<path fill="#1F346B" d="M70.8,61.8c0.2,0,0.4,0,0.6,0c0.5,0,0.7-0.1,0.9-0.4c0.1-0.3,0.2-0.4,0.2-0.6c0-0.2-0.1-0.4-0.2-0.7
			l-1.5-4.7h1.3l0.9,3.4h0l0.9-3.4h1.3L73.6,61c-0.6,1.6-1.1,2-2.1,2c-0.3,0-0.5,0-0.6,0V61.8z"/>
		<path fill="#1F346B" d="M82.7,61.1c-2.1,0-3.2-1.4-3.2-3.9c0-2.5,1.1-3.9,3.2-3.9c2.1,0,3.2,1.4,3.2,3.9
			C86,59.6,84.8,61.1,82.7,61.1 M82.7,54.4c-1.2,0-1.8,0.9-1.8,2.7c0,1.8,0.5,2.7,1.8,2.7c1.2,0,1.8-0.9,1.8-2.7
			C84.5,55.3,83.9,54.4,82.7,54.4"/>
		<path fill="#1F346B" d="M87.3,55.4h1.3v0.5c0.4-0.4,0.8-0.6,1.4-0.6c1.5,0,2.2,1.3,2.2,3c0,1.4-0.8,2.7-2.2,2.7
			c-0.4,0-1.1-0.3-1.3-0.6h0V63h-1.3V55.4z M88.6,59.5c0.3,0.2,0.6,0.5,1,0.5c0.8,0,1.2-0.6,1.2-1.8c0-1.2-0.4-1.8-1.2-1.8
			c-0.6,0-0.7,0.3-1,0.5V59.5z"/>
		<path fill="#1F346B" d="M93.5,55.4h1.3v0.5c0.4-0.4,0.8-0.6,1.4-0.6c1.5,0,2.2,1.3,2.2,3c0,1.4-0.8,2.7-2.2,2.7
			c-0.4,0-1.1-0.3-1.3-0.6h0V63h-1.3V55.4z M94.8,59.5c0.3,0.2,0.6,0.5,1,0.5c0.8,0,1.2-0.6,1.2-1.8c0-1.2-0.4-1.8-1.2-1.8
			c-0.6,0-0.7,0.3-1,0.5V59.5z"/>
		<path fill="#1F346B" d="M101.7,55.3c1.5,0,2.4,1.1,2.4,2.9c0,1.8-0.9,2.9-2.4,2.9c-1.5,0-2.4-1.1-2.4-2.9
			C99.3,56.4,100.2,55.3,101.7,55.3 M101.7,56.4c-0.7,0-1.1,0.6-1.1,1.8c0,1.2,0.4,1.8,1.1,1.8c0.7,0,1.1-0.6,1.1-1.8
			C102.8,57,102.5,56.4,101.7,56.4"/>
		<path fill="#1F346B" d="M105.3,60.9v-5.5h1.2v0.9h0c0.3-0.7,0.8-1,1.6-1.1v1.4c-0.1,0-0.1,0-0.2,0c-0.7,0-1.2,0.8-1.2,0.9v3.4
			H105.3z"/>
		<path fill="#1F346B" d="M109.7,55.4v-1.8h1.3v1.8h1.1v1.1H111v3.1c0,0.3,0.1,0.4,0.5,0.4c0.2,0,0.4-0.1,0.6-0.1V61
			c-0.4,0-0.7,0.1-1,0.1c-1,0-1.4-0.5-1.4-1.3v-3.3h-0.8v-1.1H109.7z"/>
		<path fill="#1F346B" d="M117.8,55.4v5.5h-1.2v-0.6c-0.5,0.3-1.1,0.7-1.7,0.7c-1.1,0-1.6-0.7-1.6-1.8v-3.8h1.3V59
			c0,0.7,0.2,1,0.7,1c0.6,0,1-0.3,1.2-0.6v-4H117.8z"/>
		<path fill="#1F346B" d="M119.3,60.9v-5.5h1.2V56c0.5-0.3,1.1-0.7,1.7-0.7c1.1,0,1.6,0.7,1.6,1.8v3.8h-1.3v-3.6c0-0.7-0.2-1-0.7-1
			c-0.6,0-1,0.3-1.2,0.6v4H119.3z"/>
		<path fill="#1F346B" d="M125.5,53.2h1.3v1.2h-1.3V53.2z M126.8,60.9h-1.3v-5.5h1.3V60.9z"/>
		<path fill="#1F346B" d="M128.7,55.4v-1.8h1.3v1.8h1.1v1.1h-1.1v3.1c0,0.3,0.1,0.4,0.5,0.4c0.2,0,0.4-0.1,0.6-0.1V61
			c-0.4,0-0.7,0.1-1,0.1c-1,0-1.4-0.5-1.4-1.3v-3.3H128v-1.1H128.7z"/>
		<path fill="#1F346B" d="M132,61.8c0.2,0,0.4,0,0.6,0c0.5,0,0.7-0.1,0.9-0.4c0.1-0.3,0.2-0.4,0.2-0.6c0-0.2-0.1-0.4-0.2-0.7
			l-1.5-4.7h1.3l0.9,3.4h0l0.9-3.4h1.3l-1.7,5.5c-0.6,1.6-1.1,2-2.1,2c-0.3,0-0.5,0-0.6,0V61.8z"/>
	</g>
</g>
<g id="White">
	<g>
		<path fill="#FFFFFF" d="M17.3,14.9c-0.3-0.9-0.9-1.6-2-1.6c-1.4,0-2.2,1.3-2.2,3.8c0,2.5,0.7,3.8,2.3,3.8c0.9,0,1.5-0.3,2.1-1.6
			l1.9,0.5c-0.6,1.9-2.1,2.8-4,2.8c-2.8,0-4.3-2-4.3-5.6c0-3.5,1.6-5.6,4.3-5.6c2.1,0,3.3,0.9,3.8,2.8L17.3,14.9z"/>
		<path fill="#FFFFFF" d="M25.3,22.6l-0.1-0.7c-0.7,0.5-1.5,0.8-2.4,0.8c-1.4,0-2.1-1-2.1-2.1c0-1.8,1.4-2.7,4.5-3.1v-0.7
			c0-0.6-0.5-0.9-1.1-0.9c-0.9,0-1.3,0.5-1.7,1l-1.2-0.9c0.5-0.8,1.8-1.5,2.9-1.4c2.1,0,3,0.8,3,3.1v3.7c0,0.4,0,0.8,0.2,1.1H25.3z
			 M25.1,18.8c-1.2,0.2-2.6,0.5-2.6,1.6c0,0.6,0.4,0.9,0.9,0.9c0.6,0,1.3-0.5,1.7-0.8V18.8z"/>
		<rect x="29.2" y="11.8" fill="#FFFFFF" width="1.9" height="10.8"/>
		<path fill="#FFFFFF" d="M33.4,11.6h1.9v1.7h-1.9V11.6z M35.3,22.6h-1.9v-7.8h1.9V22.6z"/>
		<path fill="#FFFFFF" d="M39.8,16.3v6.3h-1.9v-6.3h-1.1v-1.5h1.1v-1c0-1.7,0.7-2.2,2.2-2.2h1.2v1.5h-0.5c-0.8,0-1,0.2-1,0.8v0.8
			h1.6v1.5H39.8z"/>
		<path fill="#FFFFFF" d="M45.8,14.6c2.1,0,3.4,1.6,3.4,4s-1.3,4-3.4,4c-2.1,0-3.4-1.6-3.4-4S43.7,14.6,45.8,14.6 M45.8,16.1
			c-1,0-1.5,0.8-1.5,2.5c0,1.7,0.5,2.5,1.5,2.5c1,0,1.5-0.8,1.5-2.5C47.3,16.9,46.8,16.1,45.8,16.1"/>
		<path fill="#FFFFFF" d="M50.8,22.6v-7.8h1.7v1.3h0c0.4-0.9,1.1-1.5,2.2-1.5v2c-0.1,0-0.2,0-0.3,0c-0.9,0-1.7,1.1-1.7,1.3v4.7H50.8
			z"/>
		<path fill="#FFFFFF" d="M56.2,22.6v-7.8h1.7v0.8c0.7-0.5,1.5-1,2.4-1c1.6,0,2.3,1,2.3,2.6v5.3h-1.9v-5.1c0-1-0.3-1.4-1-1.4
			c-0.8,0-1.4,0.5-1.7,0.8v5.6H56.2z"/>
		<path fill="#FFFFFF" d="M64.9,11.6h1.9v1.7h-1.9V11.6z M66.8,22.6h-1.9v-7.8h1.9V22.6z"/>
		<path fill="#FFFFFF" d="M73.1,22.6L73,21.9c-0.7,0.5-1.5,0.8-2.4,0.8c-1.4,0-2.1-1-2.1-2.1c0-1.8,1.4-2.7,4.5-3.1v-0.7
			c0-0.6-0.5-0.9-1.1-0.9c-0.9,0-1.3,0.5-1.7,1l-1.2-0.9c0.5-0.8,1.8-1.5,2.9-1.4c2.1,0,3,0.8,3,3.1v3.7c0,0.4,0,0.8,0.2,1.1H73.1z
			 M72.9,18.8c-1.2,0.2-2.6,0.5-2.6,1.6c0,0.6,0.4,0.9,0.9,0.9c0.6,0,1.3-0.5,1.7-0.8V18.8z"/>
		<path fill="#FFFFFF" d="M87.6,14.6c-0.3-0.8-1-1.4-1.9-1.4c-0.9,0-1.5,0.4-1.5,1.2c0,1.9,5.6,1.5,5.6,5c0,2.2-1.4,3.3-3.8,3.3
			c-1.8,0-3.4-1-4-2.6l1.7-0.7c0.5,1,1.1,1.7,2.4,1.7c1,0,1.8-0.4,1.8-1.4c0-2.1-5.6-1.7-5.6-5c0-1.9,1.6-3,3.5-3
			c1.7,0,3.2,0.9,3.8,2.4L87.6,14.6z"/>
		<path fill="#FFFFFF" d="M91.8,14.8v-2.6h1.9v2.6h1.5v1.5h-1.5v4.4c0,0.4,0.2,0.5,0.7,0.5c0.3,0,0.6-0.1,0.9-0.2v1.5
			c-0.5,0.1-1,0.1-1.5,0.1c-1.4,0-1.9-0.7-1.9-1.8v-4.6h-1.1v-1.5H91.8z"/>
		<path fill="#FFFFFF" d="M101.1,22.6l-0.1-0.7c-0.7,0.5-1.5,0.8-2.4,0.8c-1.4,0-2.1-1-2.1-2.1c0-1.8,1.4-2.7,4.5-3.1v-0.7
			c0-0.6-0.5-0.9-1.1-0.9c-0.9,0-1.3,0.5-1.7,1l-1.2-0.9c0.5-0.8,1.8-1.5,2.9-1.4c2.1,0,3,0.8,3,3.1v3.7c0,0.4,0,0.8,0.2,1.1H101.1z
			 M100.9,18.8c-1.2,0.2-2.6,0.5-2.6,1.6c0,0.6,0.4,0.9,0.9,0.9c0.6,0,1.3-0.5,1.7-0.8V18.8z"/>
		<path fill="#FFFFFF" d="M105.2,14.8v-2.6h1.9v2.6h1.5v1.5h-1.5v4.4c0,0.4,0.2,0.5,0.7,0.5c0.3,0,0.6-0.1,0.9-0.2v1.5
			c-0.5,0.1-1,0.1-1.5,0.1c-1.4,0-1.9-0.7-1.9-1.8v-4.6h-1.1v-1.5H105.2z"/>
		<path fill="#FFFFFF" d="M111.5,19c0,1.6,0.7,2.2,1.6,2.2c0.9,0,1.3-0.4,1.7-0.9l1.3,0.8c-0.7,1.1-1.8,1.6-3.3,1.6
			c-2,0-3.3-1.6-3.3-4c0-2.5,1.3-4,3.4-4c2,0,3.2,1.7,3.2,3.6V19H111.5z M114.5,17.7c0-1.1-0.6-1.7-1.5-1.7s-1.5,0.6-1.5,1.7H114.5z
			"/>
		<path fill="#FFFFFF" d="M129.9,11.8h2.1v6.8c0,3.2-1.9,4.2-4.1,4.2c-2.2,0-4.2-1-4.2-4.2v-6.8h2.1v6.9c0,1.8,0.7,2.4,2.1,2.4
			c1.4,0,2.1-0.6,2.1-2.4V11.8z"/>
		<path fill="#FFFFFF" d="M134.4,22.6v-7.8h1.7v0.8c0.7-0.5,1.5-1,2.4-1c1.6,0,2.3,1,2.3,2.6v5.3h-1.9v-5.1c0-1-0.3-1.4-1-1.4
			c-0.8,0-1.4,0.5-1.7,0.8v5.6H134.4z"/>
		<path fill="#FFFFFF" d="M143.1,11.6h1.9v1.7h-1.9V11.6z M144.9,22.6h-1.9v-7.8h1.9V22.6z"/>
		<polygon fill="#FFFFFF" points="146.5,14.8 148.3,14.8 149.6,20.1 149.6,20.1 151,14.8 152.8,14.8 150.6,22.6 148.6,22.6 		"/>
		<path fill="#FFFFFF" d="M155.4,19c0,1.6,0.7,2.2,1.6,2.2c0.9,0,1.3-0.4,1.7-0.9l1.3,0.8c-0.7,1.1-1.8,1.6-3.3,1.6
			c-2,0-3.3-1.6-3.3-4c0-2.5,1.3-4,3.4-4c2,0,3.2,1.7,3.2,3.6V19H155.4z M158.4,17.7c0-1.1-0.6-1.7-1.5-1.7s-1.5,0.6-1.5,1.7H158.4z
			"/>
		<path fill="#FFFFFF" d="M161.9,22.6v-7.8h1.7v1.3h0c0.5-0.9,1.1-1.5,2.2-1.5v2c-0.1,0-0.2,0-0.3,0c-0.9,0-1.7,1.1-1.7,1.3v4.7
			H161.9z"/>
		<path fill="#FFFFFF" d="M171.3,16.8c-0.4-0.4-0.9-0.8-1.5-0.8c-0.7,0-1,0.3-1,0.8c0,1.3,3.9,0.8,3.9,3.6c0,1.6-1.2,2.3-2.9,2.3
			c-1.2,0-2.3-0.6-3-1.6l1.2-0.9c0.4,0.6,1,1.1,1.8,1.1c0.7,0,1.1-0.4,1.1-0.9c0-1.3-3.9-0.9-3.9-3.6c0-1.5,1.2-2.3,2.6-2.3
			c1,0,2.1,0.4,2.7,1.2L171.3,16.8z"/>
		<path fill="#FFFFFF" d="M174.5,11.6h1.9v1.7h-1.9V11.6z M176.4,22.6h-1.9v-7.8h1.9V22.6z"/>
		<path fill="#FFFFFF" d="M179,14.8v-2.6h1.9v2.6h1.5v1.5h-1.5v4.4c0,0.4,0.2,0.5,0.7,0.5c0.3,0,0.6-0.1,0.9-0.2v1.5
			c-0.5,0.1-1,0.1-1.5,0.1c-1.4,0-1.9-0.7-1.9-1.8v-4.6h-1.1v-1.5H179z"/>
		<path fill="#FFFFFF" d="M183.5,23.8c0.3,0.1,0.5,0.1,0.8,0.1c0.6,0,1-0.2,1.2-0.6c0.2-0.4,0.3-0.6,0.3-0.9c0-0.3-0.2-0.6-0.2-0.9
			l-2.1-6.7h1.9l1.3,4.8h0l1.3-4.8h1.9l-2.5,7.8c-0.8,2.2-1.5,2.8-3,2.8c-0.5,0-0.7,0-0.9-0.1V23.8z"/>
		<polygon fill="#FFFFFF" points="11.6,47.6 11.6,30.4 16.2,30.4 19.5,42.4 19.5,42.4 22.8,30.4 27.5,30.4 27.5,47.6 24.6,47.6 
			24.6,34.1 24.6,34.1 20.7,47.6 18.3,47.6 14.5,34.1 14.4,34.1 14.4,47.6 		"/>
		<path fill="#FFFFFF" d="M38.1,47.8c-4.7,0-7.2-3.2-7.2-8.8c0-5.6,2.5-8.8,7.2-8.8c4.7,0,7.2,3.2,7.2,8.8
			C45.3,44.6,42.7,47.8,38.1,47.8 M38.1,32.9c-2.7,0-3.9,2-3.9,6.1c0,4,1.2,6.1,3.9,6.1c2.7,0,3.9-2,3.9-6.1
			C42,35,40.8,32.9,38.1,32.9"/>
		<polygon fill="#FFFFFF" points="48.7,47.6 48.7,30.4 52.1,30.4 58.8,42.1 58.9,42.1 58.9,30.4 61.9,30.4 61.9,47.6 58.8,47.6 
			51.8,35.4 51.7,35.4 51.7,47.6 		"/>
		<polygon fill="#FFFFFF" points="77.1,30.4 77.1,33.2 72.6,33.2 72.6,47.6 69.4,47.6 69.4,33.2 64.9,33.2 64.9,30.4 		"/>
		<polygon fill="#FFFFFF" points="80.1,47.6 80.1,30.4 91.4,30.4 91.4,33.2 83.4,33.2 83.4,37.3 89.2,37.3 89.2,40 83.4,40 
			83.4,44.8 91.7,44.8 91.7,47.6 		"/>
		<path fill="#FFFFFF" d="M94.8,47.6V30.4h6.8c3.9,0,5.5,2.3,5.5,5.1c0,2.1-1,3.8-3.1,4.4l3.8,7.6h-3.6l-3.2-7h-2.8v7H94.8z
			 M98.1,37.9h2.4c2.6,0,3.3-0.8,3.3-2.4c0-1.6-1-2.4-2.8-2.4h-3V37.9z"/>
		<polygon fill="#FFFFFF" points="111,47.6 111,30.4 122.4,30.4 122.4,33.2 114.3,33.2 114.3,37.3 120.2,37.3 120.2,40 114.3,40 
			114.3,44.8 122.6,44.8 122.6,47.6 		"/>
		<polygon fill="#FFFFFF" points="131.2,37.2 134.1,30.4 137.5,30.4 132.8,40.7 132.8,47.6 129.5,47.6 129.5,40.7 124.8,30.4 
			128.2,30.4 		"/>
		<path fill="#FFFFFF" d="M149,30.4h6.4c3.4,0,5.6,1.1,5.8,4.2c0,1.8-0.7,3.2-2.6,3.9c2.2,0.9,3,1.9,3,4.5c0,2.7-1.9,4.5-6.2,4.5
			H149V30.4z M152.3,37.3h3.3c1.6,0,2.3-0.9,2.3-2.1c0-1.2-0.8-2.1-2.3-2.1h-3.3V37.3z M152.3,44.9h3.3c1.9,0,2.7-0.9,2.7-2.5
			c0-1.6-0.8-2.5-2.7-2.5h-3.3V44.9z"/>
		<path fill="#FFFFFF" d="M168.6,30.4h4.1l4.9,17.2h-3.3l-0.9-3.7h-5.4l-1,3.7h-3.3L168.6,30.4z M168.7,41.2h4l-1.9-7.5h0
			L168.7,41.2z"/>
		<polygon fill="#FFFFFF" points="183.7,37.2 186.6,30.4 190,30.4 185.3,40.7 185.3,47.6 182.1,47.6 182.1,40.7 177.3,30.4 
			180.7,30.4 		"/>
		<polygon fill="#FFFFFF" points="11.7,60.9 11.7,53.3 16.8,53.3 16.8,54.5 13.2,54.5 13.2,56.3 15.8,56.3 15.8,57.6 13.2,57.6 
			13.2,59.7 16.9,59.7 16.9,60.9 		"/>
		<polygon fill="#FFFFFF" points="19.4,58.1 17.9,55.4 19.3,55.4 20.1,57 20.9,55.4 22.3,55.4 20.8,58.1 22.4,60.9 21,60.9 
			20.1,59.2 19.2,60.9 17.8,60.9 		"/>
		<path fill="#FFFFFF" d="M23.9,55.4v-1.8h1.3v1.8h1.1v1.1h-1.1v3.1c0,0.3,0.1,0.4,0.5,0.4c0.2,0,0.4-0.1,0.6-0.1V61
			c-0.4,0-0.7,0.1-1,0.1c-1,0-1.4-0.5-1.4-1.3v-3.3h-0.8v-1.1H23.9z"/>
		<path fill="#FFFFFF" d="M27.4,60.9v-5.5h1.2v0.9h0c0.3-0.7,0.8-1,1.6-1.1v1.4c-0.1,0-0.1,0-0.2,0c-0.7,0-1.2,0.8-1.2,0.9v3.4H27.4
			z"/>
		<path fill="#FFFFFF" d="M34.2,60.9l-0.1-0.5c-0.5,0.4-1,0.6-1.7,0.6c-1,0-1.5-0.7-1.5-1.5c0-1.3,1-1.9,3.2-2.2V57
			c0-0.4-0.3-0.7-0.8-0.7c-0.6,0-1,0.3-1.2,0.7l-0.8-0.6c0.3-0.6,1.3-1,2.1-1c1.5,0,2.1,0.6,2.1,2.2v2.6c0,0.3,0,0.6,0.1,0.8H34.2z
			 M34,58.3c-0.9,0.2-1.8,0.4-1.8,1.1c0,0.4,0.3,0.6,0.6,0.6c0.4,0,0.9-0.4,1.2-0.6V58.3z"/>
		<path fill="#FFFFFF" d="M38.9,55.3c1.5,0,2.4,1.1,2.4,2.9c0,1.8-0.9,2.9-2.4,2.9c-1.5,0-2.4-1.1-2.4-2.9
			C36.5,56.4,37.4,55.3,38.9,55.3 M38.9,56.4c-0.7,0-1.1,0.6-1.1,1.8c0,1.2,0.4,1.8,1.1,1.8c0.7,0,1.1-0.6,1.1-1.8
			C40,57,39.7,56.4,38.9,56.4"/>
		<path fill="#FFFFFF" d="M42.5,60.9v-5.5h1.2v0.9h0c0.3-0.7,0.8-1,1.6-1.1v1.4c-0.1,0-0.1,0-0.2,0c-0.7,0-1.2,0.8-1.2,0.9v3.4H42.5
			z"/>
		<path fill="#FFFFFF" d="M51,60.9h-1.1l-0.1-0.6c-0.5,0.5-0.9,0.7-1.5,0.7c-1.5,0-2.2-1.3-2.2-3c0-1.4,0.8-2.7,2.2-2.7
			c0.4,0,1.1,0.3,1.3,0.6h0v-2.7H51V60.9z M49.7,56.8c-0.3-0.2-0.6-0.5-1-0.5c-0.8,0-1.2,0.6-1.2,1.8c0,1.2,0.4,1.8,1.2,1.8
			c0.6,0,0.7-0.3,1-0.5V56.8z"/>
		<path fill="#FFFFFF" d="M52.7,53.2H54v1.2h-1.3V53.2z M54,60.9h-1.3v-5.5H54V60.9z"/>
		<path fill="#FFFFFF" d="M55.6,60.9v-5.5h1.2V56c0.5-0.3,1.1-0.7,1.7-0.7c1.1,0,1.6,0.7,1.6,1.8v3.8h-1.3v-3.6c0-0.7-0.2-1-0.7-1
			c-0.6,0-1,0.3-1.2,0.6v4H55.6z"/>
		<path fill="#FFFFFF" d="M64.6,60.9l-0.1-0.5c-0.5,0.4-1,0.6-1.7,0.6c-1,0-1.5-0.7-1.5-1.5c0-1.3,1-1.9,3.2-2.2V57
			c0-0.4-0.3-0.7-0.8-0.7c-0.6,0-1,0.3-1.2,0.7l-0.8-0.6c0.3-0.6,1.3-1,2.1-1c1.5,0,2.1,0.6,2.1,2.2v2.6c0,0.3,0,0.6,0.1,0.8H64.6z
			 M64.5,58.3c-0.9,0.2-1.8,0.4-1.8,1.1c0,0.4,0.3,0.6,0.6,0.6c0.4,0,0.9-0.4,1.2-0.6V58.3z"/>
		<path fill="#FFFFFF" d="M67.3,60.9v-5.5h1.2v0.9h0c0.3-0.7,0.8-1,1.5-1.1v1.4c-0.1,0-0.1,0-0.2,0c-0.7,0-1.2,0.8-1.2,0.9v3.4H67.3
			z"/>
		<path fill="#FFFFFF" d="M70.8,61.8c0.2,0,0.4,0,0.6,0c0.5,0,0.7-0.1,0.9-0.4c0.1-0.3,0.2-0.4,0.2-0.6c0-0.2-0.1-0.4-0.2-0.7
			l-1.5-4.7h1.3l0.9,3.4h0l0.9-3.4h1.3L73.6,61c-0.6,1.6-1.1,2-2.1,2c-0.3,0-0.5,0-0.6,0V61.8z"/>
		<path fill="#FFFFFF" d="M82.7,61.1c-2.1,0-3.2-1.4-3.2-3.9c0-2.5,1.1-3.9,3.2-3.9c2.1,0,3.2,1.4,3.2,3.9
			C86,59.6,84.8,61.1,82.7,61.1 M82.7,54.4c-1.2,0-1.8,0.9-1.8,2.7c0,1.8,0.5,2.7,1.8,2.7c1.2,0,1.8-0.9,1.8-2.7
			C84.5,55.3,83.9,54.4,82.7,54.4"/>
		<path fill="#FFFFFF" d="M87.3,55.4h1.3v0.5c0.4-0.4,0.8-0.6,1.4-0.6c1.5,0,2.2,1.3,2.2,3c0,1.4-0.8,2.7-2.2,2.7
			c-0.4,0-1.1-0.3-1.3-0.6h0V63h-1.3V55.4z M88.6,59.5c0.3,0.2,0.6,0.5,1,0.5c0.8,0,1.2-0.6,1.2-1.8c0-1.2-0.4-1.8-1.2-1.8
			c-0.6,0-0.7,0.3-1,0.5V59.5z"/>
		<path fill="#FFFFFF" d="M93.5,55.4h1.3v0.5c0.4-0.4,0.8-0.6,1.4-0.6c1.5,0,2.2,1.3,2.2,3c0,1.4-0.8,2.7-2.2,2.7
			c-0.4,0-1.1-0.3-1.3-0.6h0V63h-1.3V55.4z M94.8,59.5c0.3,0.2,0.6,0.5,1,0.5c0.8,0,1.2-0.6,1.2-1.8c0-1.2-0.4-1.8-1.2-1.8
			c-0.6,0-0.7,0.3-1,0.5V59.5z"/>
		<path fill="#FFFFFF" d="M101.7,55.3c1.5,0,2.4,1.1,2.4,2.9c0,1.8-0.9,2.9-2.4,2.9c-1.5,0-2.4-1.1-2.4-2.9
			C99.3,56.4,100.2,55.3,101.7,55.3 M101.7,56.4c-0.7,0-1.1,0.6-1.1,1.8c0,1.2,0.4,1.8,1.1,1.8c0.7,0,1.1-0.6,1.1-1.8
			C102.8,57,102.5,56.4,101.7,56.4"/>
		<path fill="#FFFFFF" d="M105.3,60.9v-5.5h1.2v0.9h0c0.3-0.7,0.8-1,1.6-1.1v1.4c-0.1,0-0.1,0-0.2,0c-0.7,0-1.2,0.8-1.2,0.9v3.4
			H105.3z"/>
		<path fill="#FFFFFF" d="M109.7,55.4v-1.8h1.3v1.8h1.1v1.1H111v3.1c0,0.3,0.1,0.4,0.5,0.4c0.2,0,0.4-0.1,0.6-0.1V61
			c-0.4,0-0.7,0.1-1,0.1c-1,0-1.4-0.5-1.4-1.3v-3.3h-0.8v-1.1H109.7z"/>
		<path fill="#FFFFFF" d="M117.8,55.4v5.5h-1.2v-0.6c-0.5,0.3-1.1,0.7-1.7,0.7c-1.1,0-1.6-0.7-1.6-1.8v-3.8h1.3V59
			c0,0.7,0.2,1,0.7,1c0.6,0,1-0.3,1.2-0.6v-4H117.8z"/>
		<path fill="#FFFFFF" d="M119.3,60.9v-5.5h1.2V56c0.5-0.3,1.1-0.7,1.7-0.7c1.1,0,1.6,0.7,1.6,1.8v3.8h-1.3v-3.6c0-0.7-0.2-1-0.7-1
			c-0.6,0-1,0.3-1.2,0.6v4H119.3z"/>
		<path fill="#FFFFFF" d="M125.5,53.2h1.3v1.2h-1.3V53.2z M126.8,60.9h-1.3v-5.5h1.3V60.9z"/>
		<path fill="#FFFFFF" d="M128.7,55.4v-1.8h1.3v1.8h1.1v1.1h-1.1v3.1c0,0.3,0.1,0.4,0.5,0.4c0.2,0,0.4-0.1,0.6-0.1V61
			c-0.4,0-0.7,0.1-1,0.1c-1,0-1.4-0.5-1.4-1.3v-3.3H128v-1.1H128.7z"/>
		<path fill="#FFFFFF" d="M132,61.8c0.2,0,0.4,0,0.6,0c0.5,0,0.7-0.1,0.9-0.4c0.1-0.3,0.2-0.4,0.2-0.6c0-0.2-0.1-0.4-0.2-0.7
			l-1.5-4.7h1.3l0.9,3.4h0l0.9-3.4h1.3l-1.7,5.5c-0.6,1.6-1.1,2-2.1,2c-0.3,0-0.5,0-0.6,0V61.8z"/>
	</g>
</g>
</svg>
