<?xml version="1.0" encoding="utf-8"?>
<!-- Generator: Adobe Illustrator 15.0.0, SVG Export Plug-In . SVG Version: 6.00 Build 0)  -->
<!DOCTYPE svg PUBLIC "-//W3C//DTD SVG 1.1//EN" "http://www.w3.org/Graphics/SVG/1.1/DTD/svg11.dtd">
<svg version="1.1" id="Layer_1" xmlns="http://www.w3.org/2000/svg" xmlns:xlink="http://www.w3.org/1999/xlink" x="0px" y="0px"
	 width="800px" height="163.5px" viewBox="0 0 800 163.5" enable-background="new 0 0 800 163.5" xml:space="preserve">
<g id="Blue">
	<g>
		<path fill="#1F346B" d="M27.728,15.653c-1.342-4.025-4.025-7.155-8.945-7.155c-6.261,0-9.839,5.813-9.839,16.995
			c0,11.181,3.131,16.995,10.287,16.995c4.025,0,6.708-1.342,9.392-7.155l8.498,2.236C34.437,46.065,27.728,50.09,19.23,50.09
			c-12.523,0-19.231-8.945-19.231-25.045C-0.001,9.392,7.155,0,19.23,0c9.392,0,14.758,4.025,16.995,12.522L27.728,15.653z"/>
		<path fill="#1F346B" d="M63.506,50.09l-0.447-3.13c-3.13,2.236-6.708,3.578-10.733,3.578c-6.261,0-9.392-4.473-9.392-9.392
			c0-8.05,6.261-12.075,20.125-13.864v-3.13c0-2.684-2.236-4.025-4.919-4.025c-4.025,0-5.814,2.236-7.603,4.472l-5.367-4.025
			c2.236-3.578,8.051-6.708,12.97-6.262c9.392,0,13.417,3.578,13.417,13.864v16.548c0,1.789,0,3.578,0.895,4.919h-8.945V50.09z
			 M62.612,33.096c-5.367,0.895-11.628,2.236-11.628,7.156c0,2.683,1.789,4.025,4.025,4.025c2.684,0,5.814-2.236,7.603-3.578V33.096
			z"/>
		<rect x="80.948" y="1.79" fill="#1F346B" width="8.498" height="48.301"/>
		<path fill="#1F346B" d="M99.732,0.895h8.498v7.604h-8.498V0.895z M108.23,50.09h-8.498V15.207h8.498V50.09z"/>
		<path fill="#1F346B" d="M128.355,21.915V50.09h-8.498V21.915h-4.919v-6.708h4.919v-4.472c0-7.604,3.13-9.84,9.839-9.84h5.367
			v6.708h-2.236c-3.578,0-4.472,0.895-4.472,3.578v3.578h7.155v6.708h-7.155V21.915z"/>
		<path fill="#1F346B" d="M155.189,14.312c9.392,0,15.206,7.156,15.206,17.89c0,10.733-5.814,17.889-15.206,17.889
			c-9.393,0-15.206-7.156-15.206-17.889C139.983,21.467,145.797,14.312,155.189,14.312 M155.189,21.02
			c-4.473,0-6.708,3.578-6.708,11.181s2.236,11.181,6.708,11.181c4.472,0,6.708-3.578,6.708-11.181S159.662,21.02,155.189,21.02"/>
		<path fill="#1F346B" d="M177.551,50.09V15.207h7.603v5.813l0,0c1.789-4.025,4.919-6.708,9.839-6.708v8.945
			c-0.447,0-0.894,0-1.341,0c-4.025,0-7.604,4.919-7.604,5.814v21.02H177.551z"/>
		<path fill="#1F346B" d="M201.701,50.09V15.207h7.604v3.578c3.13-2.236,6.708-4.473,10.733-4.473
			c7.156,0,10.286,4.473,10.286,11.628v23.704h-8.498V26.834c0-4.472-1.341-6.261-4.472-6.261c-3.578,0-6.261,2.236-7.603,3.578
			v25.045h-8.05V50.09z"/>
		<path fill="#1F346B" d="M240.611,0.895h8.498v7.604h-8.498V0.895z M249.108,50.09h-8.498V15.207h8.498V50.09z"/>
		<path fill="#1F346B" d="M277.284,50.09l-0.447-3.13c-3.13,2.236-6.708,3.578-10.733,3.578c-6.262,0-9.392-4.473-9.392-9.392
			c0-8.05,6.262-12.075,20.125-13.864v-3.13c0-2.684-2.236-4.025-4.919-4.025c-4.025,0-5.814,2.236-7.603,4.472l-5.367-4.025
			c2.236-3.578,8.05-6.708,12.97-6.262c9.392,0,13.417,3.578,13.417,13.864v16.548c0,1.789,0,3.578,0.895,4.919h-8.945V50.09z
			 M276.39,33.096c-5.367,0.895-11.628,2.236-11.628,7.156c0,2.683,1.789,4.025,4.025,4.025c2.684,0,5.814-2.236,7.604-3.578V33.096
			z"/>
		<path fill="#1F346B" d="M342.132,14.312c-1.341-3.577-4.472-6.261-8.498-6.261c-4.024,0-6.708,1.789-6.708,5.367
			c0,8.498,25.045,6.708,25.045,22.362c0,9.839-6.261,14.758-16.995,14.758c-8.051,0-15.206-4.473-17.89-11.628l7.603-3.13
			c2.236,4.472,4.92,7.603,10.733,7.603c4.473,0,8.051-1.789,8.051-6.261c0-9.392-25.045-7.603-25.045-22.362
			c0-8.497,7.156-13.417,15.653-13.417c7.603,0,14.312,4.025,16.995,10.734L342.132,14.312z"/>
		<path fill="#1F346B" d="M360.917,15.207V3.578h8.497v11.628h6.708v6.708h-6.708v19.678c0,1.789,0.895,2.236,3.131,2.236
			c1.341,0,2.684-0.447,4.025-0.895v6.708c-2.236,0.447-4.473,0.447-6.708,0.447c-6.262,0-8.498-3.13-8.498-8.05V21.467h-4.919
			v-6.708h4.472V15.207z"/>
		<path fill="#1F346B" d="M402.51,50.09l-0.448-3.13c-3.13,2.236-6.708,3.578-10.733,3.578c-6.261,0-9.392-4.473-9.392-9.392
			c0-8.05,6.261-12.075,20.125-13.864v-3.13c0-2.684-2.236-4.025-4.92-4.025c-4.024,0-5.813,2.236-7.603,4.472l-5.367-4.025
			c2.236-3.578,8.05-6.708,12.969-6.262c9.393,0,13.417,3.578,13.417,13.864v16.548c0,1.789,0,3.578,0.896,4.919h-8.944V50.09z
			 M401.614,33.096c-5.367,0.895-11.627,2.236-11.627,7.156c0,2.683,1.789,4.025,4.024,4.025c2.684,0,5.814-2.236,7.603-3.578
			V33.096z"/>
		<path fill="#1F346B" d="M420.846,15.207V3.578h8.498v11.628h6.708v6.708h-6.708v19.678c0,1.789,0.894,2.236,3.13,2.236
			c1.342,0,2.683-0.447,4.024-0.895v6.708c-2.235,0.447-4.472,0.447-6.708,0.447c-6.261,0-8.497-3.13-8.497-8.05V21.467h-4.92
			v-6.708h4.473V15.207z"/>
		<path fill="#1F346B" d="M449.021,33.99c0,7.155,3.132,9.839,7.156,9.839s5.813-1.789,7.604-4.025l5.813,3.578
			c-3.132,4.919-8.049,7.156-14.758,7.156c-8.945,0-14.76-7.156-14.76-17.89c0-11.181,5.814-17.889,15.205-17.889
			c8.945,0,14.312,7.604,14.312,16.101v3.131H449.021z M462.438,28.176c0-4.919-2.684-7.603-6.708-7.603
			c-4.025,0-6.709,2.683-6.709,7.603H462.438z"/>
		<path fill="#1F346B" d="M531.312,1.79h9.392v30.412c0,14.312-8.496,18.784-18.337,18.784c-9.838,0-18.782-4.473-18.782-18.784
			V1.79h9.393v30.858c0,8.051,3.129,10.734,9.39,10.734c6.264,0,9.393-2.683,9.393-10.734V1.79H531.312z"/>
		<path fill="#1F346B" d="M551.437,50.09V15.207h7.604v3.578c3.131-2.236,6.708-4.473,10.732-4.473
			c7.156,0,10.288,4.473,10.288,11.628v23.704h-8.499V26.834c0-4.472-1.341-6.261-4.473-6.261c-3.577,0-6.261,2.236-7.602,3.578
			v25.045h-8.052V50.09z"/>
		<path fill="#1F346B" d="M590.347,0.895h8.497v7.604h-8.497V0.895z M598.396,50.09h-8.497V15.207h8.497V50.09z"/>
		<polygon fill="#1F346B" points="605.553,15.207 613.604,15.207 619.417,38.91 619.417,38.91 625.678,15.207 633.729,15.207 
			623.89,50.09 614.944,50.09 		"/>
		<path fill="#1F346B" d="M645.355,33.99c0,7.155,3.132,9.839,7.156,9.839s5.815-1.789,7.604-4.025l5.813,3.578
			c-3.129,4.919-8.049,7.156-14.758,7.156c-8.944,0-14.76-7.156-14.76-17.89c0-11.181,5.815-17.889,15.208-17.889
			c8.944,0,14.31,7.604,14.31,16.101v3.131H645.355z M658.772,28.176c0-4.919-2.682-7.603-6.708-7.603
			c-4.025,0-6.709,2.683-6.709,7.603H658.772z"/>
		<path fill="#1F346B" d="M674.426,50.09V15.207h7.604v5.813l0,0c2.236-4.025,4.92-6.708,9.84-6.708v8.945c-0.447,0-0.895,0-1.343,0
			c-4.024,0-7.602,4.919-7.602,5.814v21.02H674.426z"/>
		<path fill="#1F346B" d="M716.468,24.151c-1.791-1.789-4.027-3.578-6.709-3.578c-3.132,0-4.472,1.342-4.472,3.578
			c0,5.813,17.441,3.577,17.441,16.1c0,7.156-5.368,10.286-12.97,10.286c-5.367,0-10.287-2.684-13.417-7.156l5.365-4.025
			c1.789,2.684,4.473,4.92,8.052,4.92c3.13,0,4.918-1.789,4.918-4.025c0-5.814-17.441-4.025-17.441-16.1
			c0-6.709,5.367-10.287,11.628-10.287c4.473,0,9.393,1.789,12.076,5.366L716.468,24.151z"/>
		<path fill="#1F346B" d="M730.777,0.895h8.497v7.604h-8.497V0.895z M739.274,50.09h-8.497V15.207h8.497V50.09z"/>
		<path fill="#1F346B" d="M750.903,15.207V3.578h8.497v11.628h6.708v6.708H759.4v19.678c0,1.789,0.895,2.236,3.131,2.236
			c1.341,0,2.685-0.447,4.025-0.895v6.708c-2.236,0.447-4.473,0.447-6.709,0.447c-6.261,0-8.497-3.13-8.497-8.05V21.467h-4.92
			v-6.708h4.473V15.207z"/>
		<path fill="#1F346B" d="M771.028,55.458c1.343,0.447,2.236,0.447,3.579,0.447c2.682,0,4.473-0.895,5.366-2.683
			c0.895-1.789,1.343-2.684,1.343-4.025c0-1.342-0.896-2.684-0.896-4.025l-9.393-29.964h8.497l5.815,21.467l0,0l5.813-21.467h8.497
			L788.471,50.09c-3.577,9.839-6.709,12.523-13.418,12.523c-2.235,0-3.129,0-4.024-0.447V55.458z"/>
		<polygon fill="#1F346B" points="2.235,161.899 2.235,84.975 22.808,84.975 37.567,138.642 37.567,138.642 52.326,84.975 
			73.346,84.975 73.346,161.899 60.375,161.899 60.375,101.522 60.375,101.522 42.934,161.899 32.2,161.899 15.205,101.522 
			14.758,101.522 14.758,161.899 		"/>
		<path fill="#1F346B" d="M120.752,162.793c-21.02,0-32.201-14.312-32.201-39.357c0-25.045,11.181-39.356,32.201-39.356
			c21.021,0,32.201,14.312,32.201,39.356C152.953,148.482,141.325,162.793,120.752,162.793 M120.752,96.155
			c-12.075,0-17.442,8.945-17.442,27.281c0,17.89,5.367,27.282,17.442,27.282c12.076,0,17.442-8.945,17.442-27.282
			C138.194,105.547,132.828,96.155,120.752,96.155"/>
		<polygon fill="#1F346B" points="168.159,161.899 168.159,84.975 183.365,84.975 213.33,137.301 213.777,137.301 213.777,84.975 
			227.194,84.975 227.194,161.899 213.33,161.899 182.023,107.336 181.576,107.336 181.576,161.899 		"/>
		<polygon fill="#1F346B" points="295.173,84.975 295.173,97.497 275.047,97.497 275.047,161.899 260.736,161.899 260.736,97.497 
			240.611,97.497 240.611,84.975 		"/>
		<polygon fill="#1F346B" points="308.59,161.899 308.59,84.975 359.127,84.975 359.127,97.497 323.349,97.497 323.349,115.834 
			349.288,115.834 349.288,127.909 323.349,127.909 323.349,149.376 360.469,149.376 360.469,161.899 		"/>
		<path fill="#1F346B" d="M374.333,161.899V84.975h30.413c17.441,0,24.598,10.286,24.598,22.809c0,9.392-4.473,16.995-13.865,19.678
			l16.995,33.99h-16.101l-14.312-31.307h-12.522v31.307h-15.206V161.899z M389.092,118.517h10.734
			c11.628,0,14.759-3.577,14.759-10.733s-4.473-10.734-12.523-10.734h-13.417v21.467H389.092z"/>
		<polygon fill="#1F346B" points="446.785,161.899 446.785,84.975 497.769,84.975 497.769,97.497 461.545,97.497 461.545,115.834 
			487.931,115.834 487.931,127.909 461.545,127.909 461.545,149.376 498.664,149.376 498.664,161.899 		"/>
		<polygon fill="#1F346B" points="537.127,115.386 550.096,84.975 565.302,84.975 544.283,131.04 544.283,161.899 529.522,161.899 
			529.522,131.04 508.504,84.975 523.71,84.975 		"/>
		<path fill="#1F346B" d="M616.733,84.975h28.622c15.208,0,25.046,4.919,25.941,18.784c0,8.05-3.132,14.312-11.629,17.442
			c9.84,4.024,13.417,8.497,13.417,20.125c0,12.075-8.497,20.125-27.729,20.125h-28.622V84.975z M631.493,115.834h14.758
			c7.156,0,10.285-4.026,10.285-9.393c0-5.366-3.577-9.392-10.285-9.392h-14.758V115.834z M631.493,149.823h14.758
			c8.497,0,12.076-4.024,12.076-11.181c0-7.155-3.579-11.181-12.076-11.181h-14.758V149.823z"/>
		<path fill="#1F346B" d="M704.392,84.975h18.337l21.914,76.924h-14.758l-4.027-16.548h-24.15l-4.472,16.548h-14.758L704.392,84.975
			z M704.839,133.275h17.89l-8.497-33.542l0,0L704.839,133.275z"/>
		<polygon fill="#1F346B" points="771.924,115.386 784.894,84.975 800.099,84.975 779.08,131.04 779.08,161.899 764.768,161.899 
			764.768,131.04 743.302,84.975 758.507,84.975 		"/>
	</g>
</g>
<g id="White" display="none">
	<g display="inline">
		<path fill="#FFFFFF" d="M69.2,215.6c-1.2-3.6-3.6-6.4-8-6.4c-5.6,0-8.8,5.2-8.8,15.2s2.8,15.2,9.2,15.2c3.6,0,6-1.2,8.4-6.4l7.6,2
			c-2.4,7.6-8.4,11.2-16,11.2c-11.2,0-17.2-8-17.2-22.4c0-14,6.4-22.4,17.2-22.4c8.4,0,13.2,3.6,15.2,11.2L69.2,215.6z"/>
		<path fill="#FFFFFF" d="M101.2,246.4l-0.4-2.8c-2.8,2-6,3.2-9.6,3.2c-5.6,0-8.4-4-8.4-8.4c0-7.2,5.6-10.8,18-12.4v-2.8
			c0-2.4-2-3.6-4.4-3.6c-3.6,0-5.2,2-6.8,4l-4.8-3.6c2-3.2,7.2-6,11.6-5.6c8.4,0,12,3.2,12,12.4v14.8c0,1.6,0,3.2,0.8,4.4h-8V246.4z
			 M100.4,231.2c-4.8,0.8-10.4,2-10.4,6.4c0,2.4,1.6,3.6,3.6,3.6c2.4,0,5.2-2,6.8-3.2V231.2z"/>
		<rect x="116.8" y="203.2" fill="#FFFFFF" width="7.6" height="43.2"/>
		<path fill="#FFFFFF" d="M133.6,202.4h7.6v6.8h-7.6V202.4z M141.2,246.4h-7.6v-31.2h7.6V246.4z"/>
		<path fill="#FFFFFF" d="M159.2,221.2v25.2h-7.6v-25.2h-4.4v-6h4.4v-4c0-6.8,2.8-8.8,8.8-8.8h4.8v6h-2c-3.2,0-4,0.8-4,3.2v3.2h6.4
			v6h-6.4V221.2z"/>
		<path fill="#FFFFFF" d="M183.2,214.4c8.4,0,13.6,6.4,13.6,16s-5.2,16-13.6,16c-8.4,0-13.6-6.4-13.6-16S174.8,214.4,183.2,214.4
			 M183.2,220.4c-4,0-6,3.2-6,10c0,6.8,2,10,6,10s6-3.2,6-10C189.2,223.6,187.2,220.4,183.2,220.4"/>
		<path fill="#FFFFFF" d="M203.2,246.4v-31.2h6.8v5.2l0,0c1.6-3.6,4.4-6,8.8-6v8c-0.4,0-0.8,0-1.2,0c-3.6,0-6.8,4.4-6.8,5.2v18.8
			H203.2z"/>
		<path fill="#FFFFFF" d="M224.8,246.4v-31.2h6.8v3.2c2.8-2,6-4,9.6-4c6.4,0,9.2,4,9.2,10.4V246h-7.6v-20.4c0-4-1.2-5.6-4-5.6
			c-3.2,0-5.6,2-6.8,3.2v22.4h-7.2V246.4z"/>
		<path fill="#FFFFFF" d="M259.6,202.4h7.6v6.8h-7.6V202.4z M267.2,246.4h-7.6v-31.2h7.6V246.4z"/>
		<path fill="#FFFFFF" d="M292.4,246.4l-0.4-2.8c-2.8,2-6,3.2-9.6,3.2c-5.6,0-8.4-4-8.4-8.4c0-7.2,5.6-10.8,18-12.4v-2.8
			c0-2.4-2-3.6-4.4-3.6c-3.6,0-5.2,2-6.8,4L276,220c2-3.2,7.2-6,11.6-5.6c8.4,0,12,3.2,12,12.4v14.8c0,1.6,0,3.2,0.8,4.4h-8V246.4z
			 M291.6,231.2c-4.8,0.8-10.4,2-10.4,6.4c0,2.4,1.6,3.6,3.6,3.6c2.4,0,5.2-2,6.8-3.2V231.2z"/>
		<path fill="#FFFFFF" d="M350.4,214.4c-1.2-3.2-4-5.6-7.6-5.6c-3.6,0-6,1.6-6,4.8c0,7.6,22.4,6,22.4,20c0,8.8-5.6,13.2-15.2,13.2
			c-7.2,0-13.6-4-16-10.4l6.8-2.8c2,4,4.4,6.8,9.6,6.8c4,0,7.2-1.6,7.2-5.6c0-8.4-22.4-6.8-22.4-20c0-7.6,6.4-12,14-12
			c6.8,0,12.8,3.6,15.2,9.6L350.4,214.4z"/>
		<path fill="#FFFFFF" d="M367.2,215.2v-10.4h7.6v10.4h6v6h-6v17.6c0,1.6,0.8,2,2.8,2c1.2,0,2.4-0.4,3.6-0.8v6c-2,0.4-4,0.4-6,0.4
			c-5.6,0-7.6-2.8-7.6-7.2v-18.4h-4.4v-6h4V215.2z"/>
		<path fill="#FFFFFF" d="M404.4,246.4l-0.4-2.8c-2.8,2-6,3.2-9.6,3.2c-5.6,0-8.4-4-8.4-8.4c0-7.2,5.6-10.8,18-12.4v-2.8
			c0-2.4-2-3.6-4.4-3.6c-3.6,0-5.2,2-6.8,4L388,220c2-3.2,7.2-6,11.6-5.6c8.4,0,12,3.2,12,12.4v14.8c0,1.6,0,3.2,0.801,4.4h-8V246.4
			z M403.6,231.2c-4.8,0.8-10.399,2-10.399,6.4c0,2.4,1.6,3.6,3.6,3.6c2.4,0,5.2-2,6.8-3.2V231.2z"/>
		<path fill="#FFFFFF" d="M420.8,215.2v-10.4h7.601v10.4h6v6h-6v17.6c0,1.6,0.8,2,2.8,2c1.2,0,2.399-0.4,3.6-0.8v6
			c-2,0.4-4,0.4-6,0.4c-5.6,0-7.6-2.8-7.6-7.2v-18.4h-4.4v-6h4V215.2z"/>
		<path fill="#FFFFFF" d="M446,232c0,6.4,2.8,8.8,6.4,8.8c3.6,0,5.199-1.6,6.8-3.6l5.2,3.2c-2.801,4.4-7.2,6.4-13.2,6.4
			c-8,0-13.2-6.4-13.2-16c0-10,5.2-16,13.6-16c8,0,12.801,6.8,12.801,14.4v2.8H446z M458,226.8c0-4.4-2.4-6.8-6-6.8s-6,2.4-6,6.8
			H458z"/>
		<path fill="#FFFFFF" d="M519.6,203.2h8.4v27.2c0,12.8-7.6,16.8-16.4,16.8c-8.8,0-16.8-4-16.8-16.8v-27.2h8.4v27.6
			c0,7.2,2.8,9.6,8.399,9.6c5.601,0,8.4-2.4,8.4-9.6v-27.6H519.6z"/>
		<path fill="#FFFFFF" d="M537.6,246.4v-31.2h6.801v3.2c2.8-2,6-4,9.6-4c6.4,0,9.2,4,9.2,10.4V246H555.6v-20.4c0-4-1.199-5.6-4-5.6
			c-3.199,0-5.6,2-6.8,3.2v22.4h-7.2V246.4z"/>
		<path fill="#FFFFFF" d="M572.4,202.4h7.6v6.8h-7.6V202.4z M579.6,246.4H572v-31.2h7.6V246.4z"/>
		<polygon fill="#FFFFFF" points="586,215.2 593.2,215.2 598.4,236.4 598.4,236.4 604,215.2 611.2,215.2 602.4,246.4 594.4,246.4 		
			"/>
		<path fill="#FFFFFF" d="M621.6,232c0,6.4,2.801,8.8,6.4,8.8s5.2-1.6,6.8-3.6l5.2,3.2c-2.8,4.4-7.2,6.4-13.2,6.4
			c-8,0-13.2-6.4-13.2-16c0-10,5.2-16,13.601-16c8,0,12.8,6.8,12.8,14.4v2.8H621.6z M633.6,226.8c0-4.4-2.399-6.8-6-6.8
			c-3.6,0-6,2.4-6,6.8H633.6z"/>
		<path fill="#FFFFFF" d="M647.6,246.4v-31.2h6.801v5.2l0,0c2-3.6,4.399-6,8.8-6v8c-0.4,0-0.8,0-1.2,0c-3.6,0-6.8,4.4-6.8,5.2v18.8
			H647.6z"/>
		<path fill="#FFFFFF" d="M685.2,223.2c-1.601-1.6-3.601-3.2-6-3.2c-2.8,0-4,1.2-4,3.2c0,5.2,15.6,3.2,15.6,14.4
			c0,6.4-4.8,9.2-11.6,9.2c-4.8,0-9.2-2.4-12-6.4l4.8-3.6c1.6,2.4,4,4.4,7.2,4.4c2.8,0,4.399-1.6,4.399-3.6
			c0-5.2-15.6-3.6-15.6-14.4c0-6,4.8-9.2,10.4-9.2c4,0,8.399,1.6,10.8,4.8L685.2,223.2z"/>
		<path fill="#FFFFFF" d="M698,202.4h7.6v6.8H698V202.4z M705.6,246.4H698v-31.2h7.6V246.4z"/>
		<path fill="#FFFFFF" d="M716,215.2v-10.4h7.6v10.4h6v6h-6v17.6c0,1.6,0.801,2,2.801,2c1.199,0,2.399-0.4,3.6-0.8v6
			c-2,0.4-4,0.4-6,0.4c-5.6,0-7.6-2.8-7.6-7.2v-18.4H712v-6h4V215.2z"/>
		<path fill="#FFFFFF" d="M734,251.2c1.2,0.4,2,0.4,3.2,0.4c2.399,0,4-0.8,4.8-2.4c0.8-1.6,1.2-2.4,1.2-3.6c0-1.2-0.8-2.4-0.8-3.6
			l-8.4-26.8h7.6l5.2,19.2l0,0l5.2-19.2h7.6l-10,31.2c-3.199,8.8-6,11.2-12,11.2c-2,0-2.8,0-3.6-0.4V251.2z"/>
		<polygon fill="#FFFFFF" points="46.4,346.4 46.4,277.6 64.8,277.6 78,325.6 78,325.6 91.2,277.6 110,277.6 110,346.4 98.4,346.4 
			98.4,292.4 98.4,292.4 82.8,346.4 73.2,346.4 58,292.4 57.6,292.4 57.6,346.4 		"/>
		<path fill="#FFFFFF" d="M152.4,347.2c-18.8,0-28.8-12.8-28.8-35.2c0-22.4,10-35.2,28.8-35.2c18.8,0,28.8,12.8,28.8,35.2
			C181.2,334.4,170.8,347.2,152.4,347.2 M152.4,287.6c-10.8,0-15.6,8-15.6,24.4c0,16,4.8,24.4,15.6,24.4c10.8,0,15.6-8,15.6-24.4
			C168,296,163.2,287.6,152.4,287.6"/>
		<polygon fill="#FFFFFF" points="194.8,346.4 194.8,277.6 208.4,277.6 235.2,324.4 235.6,324.4 235.6,277.6 247.6,277.6 
			247.6,346.4 235.2,346.4 207.2,297.6 206.8,297.6 206.8,346.4 		"/>
		<polygon fill="#FFFFFF" points="308.4,277.6 308.4,288.8 290.4,288.8 290.4,346.4 277.6,346.4 277.6,288.8 259.6,288.8 
			259.6,277.6 		"/>
		<polygon fill="#FFFFFF" points="320.4,346.4 320.4,277.6 365.6,277.6 365.6,288.8 333.6,288.8 333.6,305.2 356.8,305.2 356.8,316 
			333.6,316 333.6,335.2 366.8,335.2 366.8,346.4 		"/>
		<path fill="#FFFFFF" d="M379.2,346.4v-68.8h27.2c15.6,0,22,9.2,22,20.4c0,8.4-4,15.2-12.4,17.6l15.2,30.4h-14.4L404,318h-11.2v28
			h-13.6V346.4z M392.4,307.6h9.6c10.4,0,13.2-3.199,13.2-9.6c0-6.4-4-9.6-11.2-9.6h-12v19.2H392.4z"/>
		<polygon fill="#FFFFFF" points="444,346.4 444,277.6 489.6,277.6 489.6,288.8 457.2,288.8 457.2,305.2 480.8,305.2 480.8,316 
			457.2,316 457.2,335.2 490.4,335.2 490.4,346.4 		"/>
		<polygon fill="#FFFFFF" points="524.8,304.8 536.4,277.6 550,277.6 531.2,318.8 531.2,346.4 518,346.4 518,318.8 499.2,277.6 
			512.8,277.6 		"/>
		<path fill="#FFFFFF" d="M596,277.6h25.6c13.601,0,22.4,4.4,23.2,16.8c0,7.2-2.8,12.8-10.399,15.6c8.8,3.6,12,7.6,12,18
			c0,10.8-7.601,18-24.801,18H596V277.6z M609.2,305.2h13.2c6.399,0,9.199-3.601,9.199-8.4s-3.199-8.4-9.199-8.4h-13.2V305.2z
			 M609.2,335.6h13.2c7.6,0,10.8-3.6,10.8-10c0-6.399-3.2-10-10.8-10h-13.2V335.6z"/>
		<path fill="#FFFFFF" d="M674.4,277.6H690.8l19.601,68.8h-13.2L693.6,331.6H672l-4,14.801h-13.2L674.4,277.6z M674.8,320.8h16
			l-7.6-30l0,0L674.8,320.8z"/>
		<polygon fill="#FFFFFF" points="734.8,304.8 746.4,277.6 760,277.6 741.2,318.8 741.2,346.4 728.4,346.4 728.4,318.8 709.2,277.6 
			722.8,277.6 		"/>
		<polygon fill="#FFFFFF" points="46.8,399.6 46.8,369.2 67.2,369.2 67.2,374 52.8,374 52.8,381.2 63.2,381.2 63.2,386.4 
			52.8,386.4 52.8,394.8 67.6,394.8 67.6,399.6 		"/>
		<polygon fill="#FFFFFF" points="77.6,388.4 71.6,377.6 77.2,377.6 80.4,384 83.6,377.6 89.2,377.6 83.2,388.4 89.6,399.6 
			84,399.6 80.4,392.8 76.8,399.6 71.2,399.6 		"/>
		<path fill="#FFFFFF" d="M95.6,377.6V370.4h5.2v7.199h4.4v4.4h-4.4v12.4c0,1.199,0.4,1.6,2,1.6c0.8,0,1.6-0.4,2.4-0.4v4.4
			c-1.6,0-2.8,0.4-4,0.4c-4,0-5.6-2-5.6-5.2V382h-3.2v-4.4H95.6z"/>
		<path fill="#FFFFFF" d="M109.6,399.6v-22h4.8v3.601l0,0c1.2-2.8,3.2-4,6.4-4.4v5.601c-0.4,0-0.4,0-0.8,0c-2.8,0-4.8,3.199-4.8,3.6
			v13.6H109.6L109.6,399.6z"/>
		<path fill="#FFFFFF" d="M136.8,399.6l-0.4-2c-2,1.601-4,2.4-6.8,2.4c-4,0-6-2.8-6-6c0-5.2,4-7.6,12.8-8.8V384
			c0-1.6-1.2-2.8-3.2-2.8c-2.4,0-4,1.2-4.8,2.8l-3.2-2.4c1.2-2.399,5.2-4,8.4-4c6,0,8.4,2.4,8.4,8.801V396.8c0,1.2,0,2.4,0.4,3.2
			h-5.6V399.6z M136,389.2c-3.6,0.8-7.2,1.6-7.2,4.399c0,1.601,1.2,2.4,2.4,2.4c1.6,0,3.6-1.6,4.8-2.4V389.2z"/>
		<path fill="#FFFFFF" d="M155.6,377.2c6,0,9.6,4.399,9.6,11.6s-3.6,11.601-9.6,11.601S146,396,146,388.8S149.6,377.2,155.6,377.2
			 M155.6,381.6c-2.8,0-4.4,2.4-4.4,7.2s1.6,7.2,4.4,7.2c2.8,0,4.4-2.4,4.4-7.2S158.8,381.6,155.6,381.6"/>
		<path fill="#FFFFFF" d="M170,399.6v-22h4.8v3.601l0,0c1.2-2.8,3.2-4,6.4-4.4v5.601c-0.4,0-0.4,0-0.8,0c-2.8,0-4.8,3.199-4.8,3.6
			v13.6H170L170,399.6z"/>
		<path fill="#FFFFFF" d="M204,399.6h-4.4l-0.4-2.399c-2,2-3.6,2.8-6,2.8c-6,0-8.8-5.2-8.8-12c0-5.6,3.2-10.8,8.8-10.8
			c1.6,0,4.4,1.2,5.2,2.399l0,0v-10.8h5.6V399.6z M198.8,383.2c-1.2-0.8-2.4-2-4-2c-3.2,0-4.8,2.399-4.8,7.2
			c0,4.8,1.6,7.199,4.8,7.199c2.4,0,2.8-1.199,4-2V383.2z"/>
		<path fill="#FFFFFF" d="M210.8,368.8h5.2v4.8h-5.2V368.8z M216,399.6h-5.2v-22h5.2V399.6z"/>
		<path fill="#FFFFFF" d="M222.4,399.6v-22h4.8v2.4c2-1.2,4.4-2.8,6.8-2.8c4.4,0,6.4,2.8,6.4,7.2V399.6h-5.2V385.2
			c0-2.8-0.8-4-2.8-4c-2.4,0-4,1.2-4.8,2.399v16H222.4L222.4,399.6z"/>
		<path fill="#FFFFFF" d="M258.4,399.6l-0.4-2c-2,1.601-4,2.4-6.8,2.4c-4,0-6-2.8-6-6c0-5.2,4-7.6,12.8-8.8V384
			c0-1.6-1.2-2.8-3.2-2.8c-2.4,0-4,1.2-4.8,2.8l-3.2-2.4c1.2-2.399,5.2-4,8.4-4c6,0,8.4,2.4,8.4,8.801V396.8c0,1.2,0,2.4,0.4,3.2
			h-5.6V399.6z M258,389.2c-3.6,0.8-7.2,1.6-7.2,4.399c0,1.601,1.2,2.4,2.4,2.4c1.6,0,3.6-1.6,4.8-2.4V389.2z"/>
		<path fill="#FFFFFF" d="M269.2,399.6v-22h4.8v3.601l0,0c1.2-2.8,3.2-4,6-4.4v5.601c-0.4,0-0.4,0-0.8,0c-2.8,0-4.8,3.199-4.8,3.6
			v13.6H269.2L269.2,399.6z"/>
		<path fill="#FFFFFF" d="M283.2,403.2c0.8,0,1.6,0,2.4,0c2,0,2.8-0.4,3.6-1.601c0.4-1.199,0.8-1.6,0.8-2.399s-0.4-1.601-0.8-2.8
			l-6-18.801h5.2L292,391.2l0,0l3.6-13.601h5.2l-6.4,22.4c-2.4,6.4-4.4,8-8.4,8c-1.2,0-2,0-2.4,0v-4.8H283.2z"/>
		<path fill="#FFFFFF" d="M330.8,400.4c-8.4,0-12.8-5.601-12.8-15.601s4.4-15.6,12.8-15.6c8.4,0,12.8,5.6,12.8,15.6
			C344,394.4,339.2,400.4,330.8,400.4 M330.8,373.6c-4.8,0-7.2,3.601-7.2,10.801c0,7.199,2,10.8,7.2,10.8c4.8,0,7.2-3.601,7.2-10.8
			C338,377.2,335.6,373.6,330.8,373.6"/>
		<path fill="#FFFFFF" d="M349.2,377.6h5.2v2c1.6-1.6,3.2-2.399,5.6-2.399c6,0,8.8,5.2,8.8,12c0,5.6-3.2,10.8-8.8,10.8
			c-1.6,0-4.4-1.2-5.2-2.4l0,0V408h-5.2v-30.4H349.2z M354.4,394c1.2,0.8,2.4,2,4,2c3.2,0,4.8-2.4,4.8-7.2s-1.6-7.2-4.8-7.2
			c-2.4,0-2.8,1.2-4,2V394z"/>
		<path fill="#FFFFFF" d="M374,377.6h5.2v2c1.6-1.6,3.2-2.399,5.6-2.399c6,0,8.8,5.2,8.8,12c0,5.6-3.2,10.8-8.8,10.8
			c-1.6,0-4.4-1.2-5.2-2.4l0,0V408h-5.2v-30.4H374z M379.2,394c1.2,0.8,2.4,2,4,2c3.2,0,4.8-2.4,4.8-7.2s-1.6-7.2-4.8-7.2
			c-2.4,0-2.8,1.2-4,2V394z"/>
		<path fill="#FFFFFF" d="M406.8,377.2c6,0,9.601,4.399,9.601,11.6S412.8,400.4,406.8,400.4s-9.6-4.4-9.6-11.601
			S400.8,377.2,406.8,377.2 M406.8,381.6c-2.8,0-4.399,2.4-4.399,7.2s1.6,7.2,4.399,7.2s4.4-2.4,4.4-7.2S410,381.6,406.8,381.6"/>
		<path fill="#FFFFFF" d="M421.2,399.6v-22h4.8v3.601l0,0c1.2-2.8,3.2-4,6.4-4.4v5.601c-0.4,0-0.4,0-0.801,0
			c-2.8,0-4.8,3.199-4.8,3.6v13.6H421.2L421.2,399.6z"/>
		<path fill="#FFFFFF" d="M438.8,377.6V370.4h5.2v7.199h4.4v4.4H444v12.4c0,1.199,0.4,1.6,2,1.6c0.8,0,1.6-0.4,2.4-0.4v4.4
			c-1.601,0-2.801,0.4-4,0.4c-4,0-5.601-2-5.601-5.2V382h-3.2v-4.4H438.8z"/>
		<path fill="#FFFFFF" d="M471.2,377.6v22h-4.8V397.2c-2,1.2-4.4,2.8-6.801,2.8c-4.399,0-6.399-2.8-6.399-7.2v-15.2h5.2V392
			c0,2.8,0.8,4,2.8,4c2.399,0,4-1.2,4.8-2.4v-16H471.2z"/>
		<path fill="#FFFFFF" d="M477.2,399.6v-22h4.8v2.4c2-1.2,4.4-2.8,6.8-2.8c4.4,0,6.4,2.8,6.4,7.2V399.6H490V385.2c0-2.8-0.8-4-2.8-4
			c-2.4,0-4,1.2-4.8,2.399v16H477.2L477.2,399.6z"/>
		<path fill="#FFFFFF" d="M502,368.8h5.2v4.8H502V368.8z M507.2,399.6H502v-22h5.2V399.6z"/>
		<path fill="#FFFFFF" d="M514.8,377.6V370.4h5.2v7.199h4.4v4.4H520v12.4c0,1.199,0.4,1.6,2,1.6c0.8,0,1.6-0.4,2.4-0.4v4.4
			c-1.601,0-2.801,0.4-4,0.4c-4,0-5.601-2-5.601-5.2V382H512v-4.4H514.8z"/>
		<path fill="#FFFFFF" d="M528,403.2c0.8,0,1.6,0,2.4,0c2,0,2.8-0.4,3.6-1.601c0.4-1.199,0.8-1.6,0.8-2.399s-0.399-1.601-0.8-2.8
			l-6-18.801h5.2l3.6,13.601l0,0L540.4,377.6h5.199l-6.8,22c-2.399,6.4-4.399,8-8.399,8c-1.2,0-2,0-2.4,0V403.2L528,403.2z"/>
	</g>
</g>
</svg>
