<?xml version="1.0" encoding="utf-8"?>
<!-- Generator: Adobe Illustrator 15.0.0, SVG Export Plug-In . SVG Version: 6.00 Build 0)  -->
<!DOCTYPE svg PUBLIC "-//W3C//DTD SVG 1.1//EN" "http://www.w3.org/Graphics/SVG/1.1/DTD/svg11.dtd">
<svg version="1.1" id="Layer_1" xmlns="http://www.w3.org/2000/svg" xmlns:xlink="http://www.w3.org/1999/xlink" x="0px" y="0px"
	 width="425px" height="100px" viewBox="0 0 425 100" enable-background="new 0 0 425 100" xml:space="preserve">
<g>
	<path fill="#FFFFFF" d="M103.618,27.61c-0.305-0.927-0.958-1.582-1.993-1.582c-1.399,0-2.252,1.308-2.252,3.879
		c-0.03,2.571,0.731,3.879,2.312,3.879c0.944,0,1.521-0.335,2.145-1.627l1.947,0.518c-0.655,1.901-2.084,2.875-4.092,2.875
		c-2.799,0-4.411-2.053-4.411-5.644s1.612-5.645,4.411-5.645c2.099,0,3.317,0.944,3.834,2.892L103.618,27.61z"/>
	<path fill="#FFFFFF" d="M111.77,35.398l-0.121-0.685c-0.761,0.518-1.477,0.837-2.464,0.837c-1.43,0-2.146-1.019-2.146-2.099
		c0-1.795,1.46-2.739,4.534-3.103v-0.669c0-0.608-0.487-0.944-1.157-0.944c-0.881,0-1.369,0.472-1.733,0.974l-1.216-0.927
		c0.487-0.839,1.794-1.478,2.95-1.446c2.131,0.046,3.043,0.821,3.043,3.194v3.728c0,0.395,0.03,0.792,0.152,1.14H111.77z
		 M111.572,31.61c-1.264,0.242-2.647,0.502-2.647,1.612c0,0.593,0.38,0.928,0.913,0.928c0.594,0,1.338-0.502,1.734-0.837V31.61z"/>
	<rect x="115.728" y="24.415" fill="#FFFFFF" width="1.887" height="10.983"/>
	<path fill="#FFFFFF" d="M120.019,24.264h1.886v1.766h-1.886V24.264z M121.905,35.398h-1.886v-7.91h1.886V35.398z"/>
	<path fill="#FFFFFF" d="M126.487,29.009v6.389h-1.886v-6.389h-1.096v-1.521h1.081v-0.974c0-1.705,0.685-2.252,2.236-2.252h1.248
		v1.521h-0.519c-0.79,0-1.064,0.244-1.064,0.853v0.852h1.597v1.521H126.487z"/>
	<path fill="#FFFFFF" d="M132.545,27.336c2.144,0,3.438,1.597,3.438,4.107s-1.293,4.107-3.438,4.107s-3.438-1.597-3.438-4.107
		S130.401,27.336,132.545,27.336 M132.545,28.857c-1.05,0-1.552,0.821-1.552,2.586s0.501,2.586,1.552,2.586
		c1.049,0,1.552-0.821,1.552-2.586S133.594,28.857,132.545,28.857"/>
	<path fill="#FFFFFF" d="M137.672,35.398v-7.91h1.734v1.354h0.029c0.457-0.944,1.095-1.476,2.222-1.506v1.993
		c-0.091-0.015-0.198-0.015-0.335-0.015c-0.943,0-1.765,1.08-1.765,1.277v4.807H137.672z"/>
	<path fill="#FFFFFF" d="M143.167,35.398v-7.91h1.734v0.853c0.698-0.488,1.506-1.005,2.433-1.005c1.583,0,2.343,1.034,2.343,2.646
		v5.416h-1.886v-5.142c0-1.066-0.334-1.399-0.975-1.399c-0.82,0-1.444,0.472-1.764,0.837v5.704H143.167z"/>
	<path fill="#FFFFFF" d="M151.993,24.264h1.887v1.766h-1.887V24.264z M153.88,35.398h-1.887v-7.91h1.887V35.398z"/>
	<path fill="#FFFFFF" d="M160.316,35.398l-0.122-0.685c-0.76,0.518-1.477,0.837-2.465,0.837c-1.429,0-2.146-1.019-2.146-2.099
		c0-1.795,1.462-2.739,4.534-3.103v-0.669c0-0.608-0.487-0.944-1.156-0.944c-0.882,0-1.369,0.472-1.734,0.974l-1.218-0.927
		c0.487-0.839,1.796-1.478,2.952-1.446c2.129,0.046,3.042,0.821,3.042,3.194v3.728c0,0.395,0.031,0.792,0.153,1.14H160.316z
		 M160.118,31.61c-1.262,0.242-2.647,0.502-2.647,1.612c0,0.593,0.38,0.928,0.913,0.928c0.593,0,1.337-0.502,1.734-0.837V31.61z"/>
	<path fill="#FFFFFF" d="M175.034,27.336c-0.32-0.852-0.974-1.431-1.962-1.431c-0.913,0-1.567,0.365-1.567,1.218
		c0,1.886,5.658,1.491,5.658,5.049c0,2.252-1.416,3.379-3.849,3.379c-1.796,0-3.483-1.004-4.107-2.602l1.734-0.761
		c0.502,1.035,1.157,1.719,2.388,1.719c1.05,0,1.857-0.396,1.857-1.461c0-2.159-5.66-1.734-5.66-5.11
		c0-1.962,1.643-3.073,3.545-3.073c1.764,0,3.224,0.881,3.878,2.48L175.034,27.336z"/>
	<path fill="#FFFFFF" d="M179.329,27.488v-2.617h1.887v2.617h1.551v1.521h-1.551v4.474c0,0.425,0.212,0.547,0.684,0.547
		c0.29,0,0.593-0.092,0.867-0.152v1.552c-0.517,0.062-0.974,0.121-1.49,0.121c-1.399,0-1.947-0.699-1.947-1.825v-4.716h-1.096
		v-1.521H179.329z"/>
	<path fill="#FFFFFF" d="M188.718,35.398l-0.123-0.685c-0.761,0.518-1.477,0.837-2.464,0.837c-1.431,0-2.145-1.019-2.145-2.099
		c0-1.795,1.46-2.739,4.533-3.103v-0.669c0-0.608-0.487-0.944-1.155-0.944c-0.883,0-1.37,0.472-1.736,0.974l-1.216-0.927
		c0.487-0.839,1.795-1.478,2.952-1.446c2.129,0.046,3.042,0.821,3.042,3.194v3.728c0,0.395,0.03,0.792,0.152,1.14H188.718z
		 M188.52,31.61c-1.262,0.242-2.647,0.502-2.647,1.612c0,0.593,0.38,0.928,0.913,0.928c0.593,0,1.338-0.502,1.734-0.837V31.61z"/>
	<path fill="#FFFFFF" d="M192.896,27.488v-2.617h1.885v2.617h1.552v1.521h-1.552v4.474c0,0.425,0.213,0.547,0.685,0.547
		c0.289,0,0.593-0.092,0.867-0.152v1.552c-0.516,0.062-0.974,0.121-1.49,0.121c-1.4,0-1.947-0.699-1.947-1.825v-4.716H191.8v-1.521
		H192.896z"/>
	<path fill="#FFFFFF" d="M199.288,31.747c0.029,1.645,0.76,2.284,1.641,2.284c0.883,0,1.294-0.397,1.766-0.944l1.369,0.851
		c-0.73,1.126-1.794,1.613-3.316,1.613c-2.054,0-3.347-1.598-3.347-4.107c0-2.511,1.293-4.108,3.438-4.108
		c2.07-0.014,3.225,1.734,3.225,3.637v0.774H199.288z M202.33,30.47c-0.031-1.094-0.608-1.734-1.521-1.734
		c-0.913,0-1.492,0.64-1.521,1.734H202.33z"/>
	<path fill="#FFFFFF" d="M217.991,24.415h2.099v6.876c0,3.209-1.977,4.259-4.213,4.259s-4.213-1.05-4.213-4.259v-6.876h2.098v6.968
		c0,1.779,0.7,2.403,2.115,2.403s2.114-0.624,2.114-2.403V24.415z"/>
	<path fill="#FFFFFF" d="M222.509,35.398v-7.91h1.734v0.853c0.7-0.488,1.506-1.005,2.434-1.005c1.582,0,2.343,1.034,2.343,2.646
		v5.416h-1.887v-5.142c0-1.066-0.334-1.399-0.974-1.399c-0.821,0-1.444,0.472-1.764,0.837v5.704H222.509z"/>
	<path fill="#FFFFFF" d="M231.331,24.264h1.885v1.766h-1.885V24.264z M233.218,35.398h-1.886v-7.91h1.886V35.398z"/>
	<polygon fill="#FFFFFF" points="234.779,27.488 236.666,27.488 237.974,32.844 238.004,32.844 239.343,27.488 241.229,27.488 
		238.962,35.398 236.985,35.398 	"/>
	<path fill="#FFFFFF" d="M243.887,31.747c0.03,1.645,0.761,2.284,1.642,2.284c0.883,0,1.294-0.397,1.767-0.944l1.368,0.851
		c-0.73,1.126-1.795,1.613-3.315,1.613c-2.054,0-3.347-1.598-3.347-4.107c0-2.511,1.293-4.108,3.437-4.108
		c2.07-0.014,3.226,1.734,3.226,3.637v0.774H243.887z M246.93,30.47c-0.031-1.094-0.608-1.734-1.521-1.734s-1.491,0.64-1.521,1.734
		H246.93z"/>
	<path fill="#FFFFFF" d="M250.459,35.398v-7.91h1.734v1.354h0.03c0.457-0.944,1.096-1.476,2.221-1.506v1.993
		c-0.091-0.015-0.197-0.015-0.335-0.015c-0.942,0-1.764,1.08-1.764,1.277v4.807H250.459z"/>
	<path fill="#FFFFFF" d="M259.984,29.572c-0.38-0.41-0.882-0.836-1.475-0.836c-0.731,0-1.065,0.303-1.065,0.775
		c0,1.354,3.955,0.776,3.955,3.666c0,1.643-1.247,2.374-2.904,2.374c-1.264,0-2.298-0.563-2.998-1.598l1.264-0.942
		c0.44,0.607,1.034,1.14,1.841,1.14c0.669,0,1.124-0.365,1.124-0.898c0-1.353-3.955-0.866-3.955-3.62
		c0-1.475,1.248-2.297,2.617-2.297c1.05,0,2.1,0.396,2.784,1.203L259.984,29.572z"/>
	<path fill="#FFFFFF" d="M263.261,24.264h1.886v1.766h-1.886V24.264z M265.147,35.398h-1.885v-7.91h1.885V35.398z"/>
	<path fill="#FFFFFF" d="M267.82,27.488v-2.617h1.885v2.617h1.551v1.521h-1.551v4.474c0,0.425,0.213,0.547,0.684,0.547
		c0.29,0,0.595-0.092,0.867-0.152v1.552c-0.516,0.062-0.974,0.121-1.488,0.121c-1.4,0-1.947-0.699-1.947-1.825v-4.716h-1.098v-1.521
		H267.82z"/>
	<path fill="#FFFFFF" d="M272.423,36.677c0.29,0.061,0.518,0.061,0.79,0.061c0.656,0,1.021-0.184,1.249-0.624
		c0.183-0.381,0.305-0.609,0.305-0.928c0-0.288-0.154-0.623-0.243-0.943l-2.115-6.754h1.902l1.308,4.869h0.03l1.353-4.869h1.888
		l-2.495,7.925c-0.837,2.267-1.506,2.875-3.057,2.875c-0.458,0-0.687-0.03-0.914-0.061V36.677z"/>
	<polygon fill="#FFFFFF" points="97.806,60.767 97.806,43.369 102.481,43.369 105.83,55.513 105.878,55.513 109.252,43.369 
		113.976,43.369 113.976,60.767 111.084,60.767 111.084,47.08 111.036,47.08 107.131,60.767 104.601,60.767 100.746,47.08 
		100.698,47.08 100.698,60.767 	"/>
	<path fill="#FFFFFF" d="M124.725,61.008c-4.748,0-7.3-3.254-7.3-8.94c0-5.688,2.553-8.94,7.3-8.94s7.301,3.252,7.301,8.94
		C132.026,57.754,129.472,61.008,124.725,61.008 M124.725,45.923c-2.723,0-3.977,2.072-3.977,6.144
		c-0.048,4.072,1.229,6.145,3.977,6.145c2.722,0,3.975-2.072,3.975-6.145C128.7,47.996,127.447,45.923,124.725,45.923"/>
	<polygon fill="#FFFFFF" points="135.473,60.767 135.473,43.369 138.943,43.369 145.786,55.225 145.834,55.225 145.834,43.369 
		148.967,43.369 148.967,60.767 145.763,60.767 138.654,48.38 138.606,48.38 138.606,60.767 	"/>
	<polygon fill="#FFFFFF" points="164.386,43.344 164.386,46.14 159.832,46.14 159.832,60.767 156.507,60.767 156.507,46.14 
		151.953,46.14 151.953,43.344 	"/>
	<polygon fill="#FFFFFF" points="167.395,60.767 167.395,43.369 178.913,43.369 178.913,46.163 170.721,46.163 170.721,50.309 
		176.671,50.309 176.671,53.104 170.721,53.104 170.721,57.971 179.178,57.971 179.178,60.767 	"/>
	<path fill="#FFFFFF" d="M182.34,60.767V43.369h6.94c3.951,0,5.542,2.29,5.566,5.157c0.023,2.144-1.06,3.879-3.182,4.48l3.833,7.76
		h-3.688l-3.276-7.084h-2.867v7.084H182.34z M185.667,50.983h2.456c2.604,0,3.399-0.819,3.399-2.457
		c0-1.639-0.988-2.458-2.819-2.458h-3.036V50.983z"/>
	<polygon fill="#FFFFFF" points="198.791,60.767 198.791,43.369 210.31,43.369 210.31,46.163 202.117,46.163 202.117,50.309 
		208.069,50.309 208.069,53.104 202.117,53.104 202.117,57.971 210.575,57.971 210.575,60.767 	"/>
	<polygon fill="#FFFFFF" points="219.239,50.26 222.227,43.369 225.696,43.369 220.901,53.827 220.901,60.767 217.577,60.767 
		217.577,53.827 212.782,43.369 216.253,43.369 	"/>
	<path fill="#FFFFFF" d="M237.337,43.369h6.459c3.469,0,5.71,1.157,5.903,4.264c0,1.808-0.747,3.205-2.651,3.952
		c2.266,0.917,3.036,1.952,3.036,4.604c0,2.697-1.903,4.578-6.337,4.578h-6.41V43.369z M240.663,50.309h3.324
		c1.591,0,2.386-0.916,2.386-2.121c0-1.203-0.795-2.119-2.386-2.119h-3.324V50.309z M240.663,58.067h3.324
		c1.929,0,2.772-0.867,2.772-2.529c0-1.664-0.844-2.531-2.772-2.531h-3.324V58.067z"/>
	<path fill="#FFFFFF" d="M257.262,43.345h4.144l4.94,17.421h-3.302l-0.962-3.76h-5.495l-1.035,3.76h-3.301L257.262,43.345z
		 M257.311,54.261h4.048l-1.952-7.567h-0.047L257.311,54.261z"/>
	<polygon fill="#FFFFFF" points="272.579,50.26 275.566,43.369 279.037,43.369 274.241,53.827 274.241,60.767 270.917,60.767 
		270.917,53.827 266.122,43.369 269.591,43.369 	"/>
	<polygon fill="#FFFFFF" points="97.939,74.355 97.939,66.572 103.091,66.572 103.091,67.823 99.427,67.823 99.427,69.677 
		102.089,69.677 102.089,70.927 99.427,70.927 99.427,73.104 103.211,73.104 103.211,74.355 	"/>
	<polygon fill="#FFFFFF" points="105.792,71.444 104.207,68.749 105.685,68.749 106.471,70.303 107.269,68.749 108.714,68.749 
		107.14,71.444 108.843,74.355 107.42,74.355 106.482,72.609 105.577,74.355 104.144,74.355 	"/>
	<path fill="#FFFFFF" d="M110.304,68.749v-1.854h1.337v1.854h1.099v1.079h-1.099v3.169c0,0.302,0.15,0.389,0.485,0.389
		c0.205,0,0.42-0.065,0.614-0.107v1.099c-0.367,0.043-0.69,0.086-1.057,0.086c-0.992,0-1.38-0.495-1.38-1.293v-3.342h-0.776v-1.079
		H110.304z"/>
	<path fill="#FFFFFF" d="M113.899,74.355v-5.606h1.229v0.96h0.021c0.324-0.669,0.776-1.045,1.574-1.067v1.412
		c-0.065-0.01-0.141-0.01-0.237-0.01c-0.668,0-1.25,0.766-1.25,0.905v3.406H113.899z"/>
	<path fill="#FFFFFF" d="M120.771,74.355l-0.087-0.485c-0.538,0.366-1.045,0.593-1.746,0.593c-1.013,0-1.521-0.722-1.521-1.487
		c0-1.272,1.036-1.94,3.213-2.198v-0.475c0-0.431-0.345-0.669-0.819-0.669c-0.625,0-0.971,0.334-1.229,0.691l-0.861-0.659
		c0.345-0.594,1.271-1.046,2.09-1.024c1.509,0.032,2.156,0.582,2.156,2.265v2.641c0,0.281,0.021,0.561,0.108,0.809H120.771z
		 M120.63,71.671c-0.895,0.173-1.876,0.356-1.876,1.143c0,0.421,0.27,0.657,0.646,0.657c0.421,0,0.949-0.355,1.229-0.592V71.671z"/>
	<path fill="#FFFFFF" d="M125.607,68.642c1.519,0,2.435,1.132,2.435,2.911c0,1.778-0.916,2.91-2.435,2.91
		c-1.521,0-2.437-1.132-2.437-2.91C123.171,69.773,124.086,68.642,125.607,68.642 M125.607,69.721c-0.743,0-1.1,0.582-1.1,1.832
		c0,1.251,0.357,1.833,1.1,1.833s1.1-0.582,1.1-1.833C126.707,70.303,126.351,69.721,125.607,69.721"/>
	<path fill="#FFFFFF" d="M129.263,74.355v-5.606h1.229v0.96h0.021c0.323-0.669,0.777-1.045,1.574-1.067v1.412
		c-0.064-0.01-0.141-0.01-0.238-0.01c-0.667,0-1.25,0.766-1.25,0.905v3.406H129.263z"/>
	<path fill="#FFFFFF" d="M137.863,74.355h-1.132l-0.064-0.604c-0.476,0.464-0.917,0.711-1.521,0.711
		c-1.488,0-2.242-1.315-2.242-3.062c0-1.38,0.798-2.76,2.242-2.76c0.453,0,1.09,0.271,1.357,0.626h0.022v-2.695h1.338V74.355z
		 M136.525,70.195c-0.269-0.249-0.604-0.475-1.033-0.475c-0.8,0-1.252,0.646-1.252,1.832c0,1.187,0.452,1.833,1.252,1.833
		c0.57,0,0.753-0.281,1.033-0.497V70.195z"/>
	<path fill="#FFFFFF" d="M139.54,66.464h1.338v1.251h-1.338V66.464z M140.877,74.355h-1.338v-5.606h1.338V74.355z"/>
	<path fill="#FFFFFF" d="M142.547,74.355v-5.606h1.229v0.604c0.496-0.346,1.068-0.712,1.724-0.712c1.123,0,1.661,0.733,1.661,1.877
		v3.837h-1.339v-3.645c0-0.754-0.235-0.99-0.688-0.99c-0.583,0-1.024,0.333-1.25,0.591v4.044H142.547z"/>
	<path fill="#FFFFFF" d="M151.656,74.355l-0.088-0.485c-0.538,0.366-1.045,0.593-1.745,0.593c-1.013,0-1.521-0.722-1.521-1.487
		c0-1.272,1.035-1.94,3.213-2.198v-0.475c0-0.431-0.346-0.669-0.82-0.669c-0.625,0-0.97,0.334-1.229,0.691l-0.861-0.659
		c0.344-0.594,1.271-1.046,2.09-1.024c1.51,0.032,2.156,0.582,2.156,2.265v2.641c0,0.281,0.022,0.561,0.108,0.809H151.656z
		 M151.515,71.671c-0.894,0.173-1.876,0.356-1.876,1.143c0,0.421,0.271,0.657,0.648,0.657c0.421,0,0.949-0.355,1.229-0.592V71.671z"
		/>
	<path fill="#FFFFFF" d="M154.373,74.355v-5.606h1.229v0.96h0.022c0.323-0.669,0.775-1.045,1.573-1.067v1.412
		c-0.064-0.01-0.14-0.01-0.236-0.01c-0.669,0-1.251,0.766-1.251,0.905v3.406H154.373z"/>
	<path fill="#FFFFFF" d="M157.993,75.261c0.205,0.044,0.367,0.044,0.562,0.044c0.463,0,0.722-0.131,0.883-0.442
		c0.13-0.271,0.216-0.432,0.216-0.658c0-0.204-0.108-0.441-0.172-0.667l-1.499-4.788h1.348l0.928,3.45h0.021l0.96-3.45h1.336
		l-1.768,5.617c-0.593,1.605-1.068,2.038-2.167,2.038c-0.324,0-0.484-0.022-0.647-0.043V75.261z"/>
	<path fill="#FFFFFF" d="M170.089,74.463c-2.123,0-3.266-1.455-3.266-3.999s1.143-4,3.266-4c2.125,0,3.267,1.456,3.267,4
		S172.213,74.463,170.089,74.463 M170.089,67.715c-1.218,0-1.779,0.927-1.779,2.749c-0.021,1.823,0.55,2.748,1.779,2.748
		c1.219,0,1.779-0.925,1.779-2.748C171.868,68.642,171.308,67.715,170.089,67.715"/>
	<path fill="#FFFFFF" d="M174.736,68.749h1.283v0.519c0.388-0.377,0.83-0.626,1.433-0.626c1.488,0,2.241,1.315,2.241,3.062
		c0,1.38-0.796,2.76-2.241,2.76c-0.453,0-1.09-0.27-1.357-0.626h-0.022v2.567h-1.336V68.749z M176.073,72.911
		c0.27,0.248,0.604,0.475,1.036,0.475c0.798,0,1.25-0.646,1.25-1.833c0-1.186-0.452-1.832-1.25-1.832
		c-0.572,0-0.755,0.279-1.036,0.495V72.911z"/>
	<path fill="#FFFFFF" d="M181.006,68.749h1.283v0.519c0.388-0.377,0.83-0.626,1.433-0.626c1.488,0,2.242,1.315,2.242,3.062
		c0,1.38-0.798,2.76-2.242,2.76c-0.452,0-1.09-0.27-1.357-0.626h-0.022v2.567h-1.336V68.749z M182.343,72.911
		c0.27,0.248,0.604,0.475,1.036,0.475c0.798,0,1.25-0.646,1.25-1.833c0-1.186-0.452-1.832-1.25-1.832
		c-0.572,0-0.755,0.279-1.036,0.495V72.911z"/>
	<path fill="#FFFFFF" d="M189.375,68.642c1.52,0,2.437,1.132,2.437,2.911c0,1.778-0.917,2.91-2.437,2.91
		c-1.52,0-2.437-1.132-2.437-2.91C186.938,69.773,187.855,68.642,189.375,68.642 M189.375,69.721c-0.745,0-1.1,0.582-1.1,1.832
		c0,1.251,0.355,1.833,1.1,1.833c0.743,0,1.099-0.582,1.099-1.833C190.474,70.303,190.118,69.721,189.375,69.721"/>
	<path fill="#FFFFFF" d="M193.03,74.355v-5.606h1.23v0.96h0.021c0.323-0.669,0.776-1.045,1.574-1.067v1.412
		c-0.065-0.01-0.141-0.01-0.238-0.01c-0.667,0-1.25,0.766-1.25,0.905v3.406H193.03z"/>
	<path fill="#FFFFFF" d="M197.434,68.749v-1.854h1.336v1.854h1.1v1.079h-1.1v3.169c0,0.302,0.151,0.389,0.487,0.389
		c0.203,0,0.419-0.065,0.613-0.107v1.099c-0.367,0.043-0.69,0.086-1.057,0.086c-0.992,0-1.38-0.495-1.38-1.293v-3.342h-0.777v-1.079
		H197.434z"/>
	<path fill="#FFFFFF" d="M205.628,68.749v5.606H204.4v-0.604c-0.497,0.345-1.068,0.711-1.726,0.711c-1.121,0-1.66-0.732-1.66-1.875
		v-3.839h1.336v3.645c0,0.754,0.238,0.992,0.69,0.992c0.582,0,1.024-0.335,1.251-0.592v-4.045H205.628z"/>
	<path fill="#FFFFFF" d="M207.238,74.355v-5.606h1.229v0.604c0.496-0.346,1.068-0.712,1.726-0.712c1.121,0,1.66,0.733,1.66,1.877
		v3.837h-1.336v-3.645c0-0.754-0.238-0.99-0.69-0.99c-0.582,0-1.024,0.333-1.251,0.591v4.044H207.238z"/>
	<path fill="#FFFFFF" d="M213.526,66.464h1.337v1.251h-1.337V66.464z M214.863,74.355h-1.337v-5.606h1.337V74.355z"/>
	<path fill="#FFFFFF" d="M216.791,68.749v-1.854h1.337v1.854h1.1v1.079h-1.1v3.169c0,0.302,0.151,0.389,0.485,0.389
		c0.204,0,0.42-0.065,0.614-0.107v1.099c-0.366,0.043-0.689,0.086-1.057,0.086c-0.992,0-1.38-0.495-1.38-1.293v-3.342h-0.776v-1.079
		H216.791z"/>
	<path fill="#FFFFFF" d="M220.07,75.261c0.204,0.044,0.366,0.044,0.561,0.044c0.464,0,0.723-0.131,0.884-0.442
		c0.13-0.271,0.215-0.432,0.215-0.658c0-0.204-0.107-0.441-0.172-0.667l-1.499-4.788h1.348l0.928,3.45h0.021l0.96-3.45h1.337
		l-1.768,5.617c-0.594,1.605-1.068,2.038-2.168,2.038c-0.323,0-0.484-0.022-0.646-0.043V75.261z"/>
	<path fill="#FFFFFF" d="M49.896,41.554c-8.395,0-15.203,6.805-15.203,15.202c0,8.4,6.808,15.208,15.203,15.208
		c8.399,0,15.206-6.808,15.206-15.208C65.101,48.358,58.295,41.554,49.896,41.554 M49.965,69.014c-6.812,0-12.33-5.518-12.33-12.33
		c0-6.804,5.518-12.325,12.33-12.325c6.808,0,12.327,5.521,12.327,12.325C62.292,63.496,56.773,69.014,49.965,69.014"/>
	<path fill="#FFFFFF" d="M15.412,54.709c0,0,0.679,0.845,2.791,0.409c1.007-0.206,1.523,0.037,1.707,0.141
		c0.184,0.11,0.225,0.198,0.207,0.283c-0.027,0.158-0.157,0.462-0.368,0.639c0,0,1.032,0.3,1.952,0.148
		c0.925-0.156,1.997-0.166,2.145-0.195c0.15-0.023,0.418,0.039,0.307,0.317c-0.116,0.267-0.359,0.653-0.359,0.653
		s0.782-0.144,2.225-0.394c0.613-0.109,1.532-0.166,2.406,0.007c0.868,0.185,0.868,1.433,2.13,1.799
		c1.258,0.382,1.218-2.665,1.241-3.498c0.025-0.822,0.291-1.226,0.949-1.733c1.008-0.786,0.764-1.997,0.66-2.847
		c-0.106-0.854,1.556-1.693,2.008-2.689c0.443-1.011,0.077-2.05-0.116-2.458c-0.195-0.409,0.125-0.736,0.358-0.973
		c0.544-0.541,1.393-2.034,1.023-2.568c-0.364-0.536-2.414,0.046-4.551,1.992c-2.145,1.946-3.686,4.22-4.268,5.267
		c-0.071,0.119-0.158-0.14-0.02-0.49c0.138-0.359,1.331-3.325,3.718-5.671c2.39-2.348,4.673-3.205,6.433-2.791
		c1.762,0.407,1.388,1.863,1.089,2.671c-0.296,0.795-1.205,1.365-1.396,2.296c-0.19,0.932,0.082,1.632,0.164,2.513
		c0.081,0.884-0.168,1.479-1.043,2.408c-0.357,0.383-1.123,1.228-1.078,1.648c0.012,0.102,0.277,0.597-0.249,2.066
		c-0.528,1.466-1.719,1.823-1.77,2.234c-0.048,0.424-0.043,2.331-1.221,3.494c-1.176,1.162-2.598,0.754-3.209,0.031
		c-0.618-0.72-0.884-1.647-2.15-1.604c-1.268,0.053-2.049,0.03-3.3,0.293c-1.26,0.265-2.46,0.319-2.928,0.21
		c-0.474-0.111-0.646-0.272-0.646-0.272s0.583-0.079,1.221-0.337c0.488-0.193,0.587-0.371,0.587-0.371s-1.193,0.173-2.585,0.089
		c-1.392-0.089-2.741-0.59-3.559-0.597c0,0,0.321-0.357,1.027-0.501c0.714-0.141,0.769-0.392,0.769-0.392
		c-1.377,0.238-2.871-0.738-2.883-0.84c-0.21-1.92,0.874-5.416,0.874-5.416s-0.069,0.02-0.454,0.3
		c-0.388,0.283-0.863,0.39-0.863,0.39c0.215-0.477,0.391-1.123,0.561-1.98c0.439-2.165,2.131-5.878,2.131-5.878
		s-0.294,0.007-0.667,0.268c-0.375,0.254-0.78,0.281-0.78,0.281s0.058-0.349,0.375-1.054c0.321-0.708,0.824-1.553,1.508-2.382
		c0.691-0.831,1.089-1.546,1.089-1.546s-0.171-0.122-0.662,0c-0.481,0.113-0.911,0.33-0.911,0.33s0.296-0.568,1.357-1.801
		c1.064-1.234,2.533-2.368,2.533-2.368s-0.34,0.162-0.76,0.133c-0.315-0.02-0.68,0.057-0.68,0.057s0.295-0.336,1.582-1.208
		c1.287-0.864,2.694-1.558,2.694-1.558s-0.287-0.046-0.692,0.002c-0.398,0.049-0.81,0.151-0.81,0.151s1.029-0.803,3.416-1.6
		c3.081-1.016,4.253-0.74,4.253-0.74s-0.965,0.108-1.987,0.566c-1.026,0.453-1.342,0.698-1.342,0.698s0.438,0.308,0.466,0.364
		c0.037,0.058,0.106,0.179-0.076,0.233c-0.192,0.055-0.99,0.165-2.017,0.615c-1.031,0.455-1.385,0.795-1.385,0.795
		s0.354,0.132,0.426,0.171c0.167,0.086,0.157,0.201-0.009,0.366c-0.075,0.075-0.529,0.452-1.678,1.367
		c-1.143,0.931-1.546,1.55-1.546,1.55s0.561,0.021,0.684,0.024c0.111,0.014,0.209,0.061,0.074,0.236
		c-0.13,0.169-1.036,1.076-1.675,1.953c-0.652,0.866-1.1,1.659-1.1,1.659s1.125-0.291,0.929,0.438
		c-0.117,0.433-0.458,1.297-1.62,3.551c-1.158,2.26-1.699,3.704-1.699,3.704s1.053-0.092,1.143-0.069
		c0.086,0.021,0.236,0.146,0.171,0.297c-0.064,0.151-0.963,1.442-1.681,3.94C15.521,53.597,15.412,54.709,15.412,54.709"/>
	<path fill="#FFFFFF" d="M79.053,60.28c0,0-0.491-0.091-0.77-0.111c-0.281-0.018-0.302,0.516-0.281,0.796
		c0.14,1.796-0.076,4.062-0.116,4.233c-0.046,0.168-0.824-0.303-0.992-0.361c-0.175-0.07-0.299,0.089-0.326,0.274
		c-0.306,2.854-1.667,6.005-1.667,6.005s-0.233-0.45-0.301-0.627c-0.067-0.168-0.24-0.168-0.348-0.064
		c-0.575,0.583-1.131,1.854-1.472,3.055c-0.346,1.207-1.092,2.171-1.092,2.171c-0.131-0.08-0.156-0.791-0.243-0.984
		c-0.083-0.194-0.321-0.108-0.384,0.045c-0.067,0.148-0.448,0.991-1.329,2.795c-0.88,1.811-1.525,3.358-2.786,3.487
		c-0.869,0.09-1.297-2.47-1.297-2.47s-0.323,0.216-0.488,0.627c-0.18,0.406-0.195,0.899-0.195,0.899
		c-0.953-2.661-0.548-4.66-0.502-4.897c0.045-0.233-0.106-0.35-0.261-0.259c-0.15,0.083-0.515,0.393-0.515,0.393
		c-0.089-0.393-0.275-0.946-0.579-1.486c-0.305-0.535-1.121-0.283-1.699-0.233c-0.476,0.035-0.733-0.47-0.348-1.588
		c0.387-1.125,1.88-1.727,2.508-2.091c0.605-0.35,0.106-0.904,0.321-1.596c0.369-1.177,2.108-1.701,2.347-2.107
		c0.185-0.325-0.201-1.006,0.058-1.915c0.256-0.902,2.019-2.027,2.019-2.027c-0.175-1.649,0.012-3.363,0.723-4.337
		c0.705-0.969,2.038-0.112,2.433,2.536c0.553,3.748-1.021,6.272-1.775,7.845c-0.751,1.572-1.052,1.639-0.958,1.723
		c0.088,0.085,0.471,0.04,1.115-0.859c0.642-0.909,3.386-4.61,2.825-8.757c-0.569-4.147-2.785-5.176-4.504-4.273
		c-1.716,0.91-1.991,2.541-1.584,5.571c0,0-0.984,0.78-1.354,1.444c-0.359,0.666-0.184,1.932-0.421,2.105
		c-0.233,0.174-1.05,0.604-1.65,1.446c-0.6,0.838-0.496,1.91-0.922,2.124c-0.43,0.223-1.786,0.802-2.361,2.628
		c-0.577,1.826,0.004,3.292,0.865,3.094c0.856-0.19,2.148-0.282,2.085,1.031c-0.062,1.308-0.165,2.774,0.03,3.872
		c0,0,0.337-1.016,0.622-1.509c0,0,0.908,4.551,2.629,6.272c0,0-0.025-0.629-0.174-1.36c-0.149-0.723,0.062-1.07,0.062-1.07
		s0.194,0.751,1.079,0.701c1.653-0.074,3.471-3.869,3.471-3.869c-0.079,0.901,0.178,1.269,0.178,1.269
		c1.567-1.722,2.571-4.264,2.977-5.572c0.408-1.307,0.88-1.935,0.88-1.935s0.193,0.132,0.174,0.622
		c-0.025,0.493,0.153,0.988,0.153,0.988c1.945-4.325,2.42-7.657,2.42-7.657s0.228,0.111,0.358,0.602
		c0.13,0.498,0.496,0.925,0.496,0.925c1.137-3.788,0.872-6.06,0.872-6.06s0.194,0.057,0.561,0.339
		c0.363,0.28,0.688,0.798,0.688,0.798c0.105-1.789-0.245-3.074-0.563-4.388c-0.328-1.311-0.735-2.792-0.735-2.792
		c0.636,0.016,1.096,0.493,1.096,0.493c-1.109-4.407-2.267-6.099-2.267-6.099s0.199,0.024,0.472,0.06
		c0.277,0.044,0.666,0.245,0.666,0.245c-1.141-2.591-2.781-4.173-2.781-4.173c0.264-0.153,0.97,0,0.97,0
		c-1.896-3.372-5.926-4.534-5.926-4.534s2.342,1.363,3.495,2.96c0.109,0.154-0.195,0.346-0.449,0.346
		c-0.256,0-0.325,0.213-0.215,0.392c0.109,0.168,1.729,1.863,2.283,3.09c0.111,0.237-0.836,0.024-0.64,0.495
		c0.189,0.471,1.704,2.885,2.131,4.624c0,0-1.309-0.295-1.158,0.129C76.834,54.201,77.978,56.3,79.053,60.28"/>
	<path fill="#FFFFFF" d="M54.004,14.508c0,0-1.315-0.069-3.111,0.164c-1.793,0.243-2.485,0.473-3.186,0.548
		c-0.696,0.077-0.919,0.063-0.919,0.063s0.421,0.467,0.956,0.489c0.471,0.016,0.865,0.048,1.165,0.162c0,0-0.791,0.127-2.376,0.663
		c-1.979,0.683-2.059,0.806-4.086,1.445c0,0,0.55,0.296,1.034,0.313c0.447,0.006,0.742,0.198,0.742,0.198s-1.419,0.298-3.009,0.908
		c-1.595,0.625-1.94,1.01-2.757,1.041c0,0,0.408,0.236,0.98,0.288c0.379,0.033,0.791,0.115,0.791,0.115s-0.637,0.304-2.097,1.108
		c-1.471,0.813-1.9,1.014-2.804,1.268c0,0,0.58,0.356,1.131,0.404c0.188,0.018,0.357,0.026,0.544,0.046c0,0-0.905,0.587-2.361,1.295
		c-1.458,0.697-1.663,0.854-2.166,1.282c0,0,0.664,0.055,1.061,0.184c0.131,0.053,0.258,0.094,0.388,0.144
		c0,0-0.946,0.458-2.221,1.332c-1.349,0.934-1.738,1.534-1.738,1.534s2.864-1.76,5.319-2.433c0.216-0.06,0.354-0.279,0.114-0.53
		c-0.122-0.125-0.668-0.542-0.668-0.542s0.159-0.104,1.772-0.875c1.613-0.773,2.415-1.129,2.628-1.219
		c0.206-0.099,0.035-0.333-0.111-0.413c-0.147-0.085-0.738-0.391-0.738-0.391s0.328-0.179,1.065-0.515
		c1.29-0.584,3.218-1.237,3.38-1.307c0.157-0.068,0.166-0.231,0.032-0.353c-0.141-0.117-0.624-0.483-0.624-0.483
		s0.494-0.295,1.51-0.557c1.012-0.264,1.919-0.568,2.313-0.734c0.333-0.133,0.472-0.328,0.386-0.585
		c-0.057-0.189-0.303-0.535-0.303-0.535s0.551-0.25,1.263-0.478c0.969-0.303,1.668-0.398,2.547-0.62
		c0.884-0.231,1.022-0.334,1.035-0.512c0.005-0.308-0.195-0.593-0.195-0.593s0.069-0.054,1.151-0.152
		c1.084-0.095,1.995-0.118,2.712-0.095c0.713,0.021,1.117,0.086,1.417,0.007c0.295-0.095,0.413-0.745,0.413-0.745
		s0.829-0.113,2.043,0.191c1.207,0.313,1.75,0.494,2.025,0.581c0.282,0.085,0.474-0.002,0.54-0.268
		c0.069-0.255,0.167-0.538,0.167-0.538s0.824-0.007,2.104,0.553c1.364,0.617,2.042,1.141,2.298,1.317
		c0.194,0.128,0.345-0.046,0.511-0.202c0.163-0.158,0.307-0.355,0.307-0.355s0.102-0.037,0.476,0.052
		c0.364,0.098,0.979,0.425,1.567,0.812c0.579,0.398,0.699,0.697,1.169,0.869c0.201,0.067,0.395-0.299,0.535-0.628
		c0.137-0.338,0.302-0.458,0.302-0.458s0.183,0.025,0.726,0.332c0.551,0.295,1.103,0.687,1.476,1.074
		c0.04,0.043,0.109,0.01,0.127-0.035c0.011-0.048,0.039-0.518-0.285-0.923c-0.549-0.669-1.565-1.553-2.452-2.146
		c-0.884-0.584-1.257-0.799-1.419-0.983c-0.075-0.093-0.118-0.179-0.118-0.179s-0.053,0.354,0.174,0.861
		c0.269,0.577,0.234,0.954,0.234,0.954s-0.957-0.731-2.175-1.25c-1.146-0.487-1.473-0.749-1.981-1.031
		c-0.564-0.306-0.698-0.43-0.698-0.43s0.037,0.596,0.272,0.97c0.241,0.378,0.241,0.563,0.241,0.563s-1.504-0.742-3.503-1.216
		c-2.003-0.453-3.155-0.852-3.155-0.852s0.226,0.678,0.501,0.965c0.272,0.289,0.392,0.467,0.392,0.467s-1.677-0.296-3.347-0.391
		c-1.667-0.09-2.344-0.028-2.615-0.051c-0.088-0.003-0.173-0.011-0.263-0.025c0,0,0.069,0.329,0.669,0.615
		C53.822,14.347,54.004,14.508,54.004,14.508"/>
	<path fill="#FFFFFF" d="M80.769,20.685c0.581,0.967,0.358,2.764-0.174,3.554c-0.534,0.794-1.389,1.297-1.922,1.906
		c-0.53,0.616-1.002,1.618-1.226,2.377c-0.231,0.758-0.601,1.463-1.247,1.463c-0.616,0-1.179-0.526-1.535-1.286
		c-0.354-0.768-0.436-1.82-1.763-2.521c-1.323-0.69-3.728-1.521-3.728-3.101c0-1.582,1.535-2.083,2.504-3.344
		c0.969-1.262,2.376-2.11,3.717-2.11C77.155,17.624,79.689,18.894,80.769,20.685"/>
	<path fill="#FFFFFF" d="M85.845,32.837c-0.163-0.417-0.354-0.76-0.354-0.76s0.113-0.244,0.452-0.391
		c0.528-0.226,0.9-0.177,0.919-0.559c0.074-1.749-1.228-2.912-1.228-2.912c0.174-0.101,0.471-0.044,0.876,0.032
		c0.396,0.081,0.433-0.094,0.433-0.094c-0.632-1.874-2.52-3.072-2.52-3.072c0.277-0.161,0.678-0.013,0.999,0.082
		c0.326,0.097,0.601,0,0.601,0c-0.33-1.131-1.161-1.97-2.281-2.539c-1.116-0.564-1.905-0.597-2.005-0.597
		c-0.094,0-0.044,0.127,0.021,0.159c0.105,0.07,0.613,0.332,1.03,0.715c0.555,0.503,0.585,0.696,0.585,0.696
		s0.083,0.273-0.422,0.657c-0.498,0.395-0.97,0.684-1.029,0.78c-0.071,0.094-0.032,0.194,0.075,0.258
		c0.113,0.062,0.745,0.42,1.486,1.031c0.747,0.618,0.973,1.05,0.795,1.133c-0.178,0.08-0.714,0.206-0.597,0.476
		c0.11,0.283,0.563,0.525,0.885,0.816c0.326,0.294,0.731,0.595,0.34,1.632c-0.241,0.646-0.598,0.808-0.917,0.808
		c-0.329,0-0.507-0.031-0.458,0.083c0.054,0.114,0.569,1.098,0.34,1.647c-0.228,0.545-0.465,0.808-1.163,0.725
		c-0.293-0.034-0.388-0.017-0.326,0.097c0.07,0.12,0.633,0.795,0.454,1.809c-0.109,0.621-0.64,0.688-1.041,0.464
		c-0.237-0.581-0.485-1.162-0.76-1.742c-0.094-0.188-0.317-0.271-0.507-0.179c-0.183,0.093-0.27,0.317-0.174,0.504
		c0.072,0.138,0.137,0.284,0.207,0.421c0.177,0.361,0.338,0.725,0.491,1.076c0,0.386-0.019,0.912-0.105,1.271
		c-0.146,0.625-0.568,0.836-0.9,0.124c-0.34-0.712-0.57-1.645-0.584-1.78c-0.016-0.126-0.468,0.086-0.499,0.33
		c-0.035,0.243-0.236,1.393-0.678,1.561c-0.21,0.086-0.418-0.384-0.418-0.95c0-0.567,0.289-1.645-0.421-2.182
		c-0.158-0.125-0.327-0.162-0.541-0.141c-0.207,0.009-0.311,0.161-0.311,0.161c-0.057,1.609-0.471,2.493-0.471,2.493
		s0.709-0.67,0.709-0.283c0,0.387,0.11,1.661,0.512,2.163c0.408,0.503,0.807,0.677,1.17,0.677c0.131,0-0.071-0.42,0.466-0.98
		c0.144-0.162,0.258-0.28,0.304-0.118c0.048,0.165,0.324,1.049,1.24,1.022c0.738-0.028,1.153-0.532,1.368-1.141
		c1.692,5.134,1.538,10.131-0.294,13.473c2.26-3.338,2.579-8.756,0.732-14.315c0.482-0.22,1.394-0.036,1.801-0.846
		c0.013-0.028,0.021-0.057,0.031-0.087c2.291,4.744,2.821,9.593,1.519,13.086c1.754-3.611,1.292-9.007-1.329-14.239
		c-0.044-0.366-0.189-0.587-0.189-0.587s0.565-0.404,1.327-0.453c0.203-0.014,0.332-0.085,0.426-0.193
		c3.041,4.49,4.268,9.353,3.416,13.077C90.643,43.302,89.363,37.805,85.845,32.837"/>
	<path fill="#FFFFFF" d="M63.623,20.22c0.257,0.147,0.381,0.341,0.172,0.721c-0.221,0.383-0.488,0.606-1.025,0.647
		c-0.972,0.074-1.855-0.605-3.73-0.529c-1.076,0.035-2.321,0.238-3.366,0.744c-1.042,0.514-1.262,0.662-1.281,0.69
		c-0.021,0.037-0.029-0.18,0.126-0.333c0.4-0.411,2.252-1.774,5.089-2.251C61.84,19.533,63.122,19.929,63.623,20.22"/>
	<path fill="#FFFFFF" d="M61.956,21.906c0.053-0.05,0.142-0.037,0.167,0.057c0.025,0.088,0.117,0.523-0.037,1.047
		c-0.154,0.515-0.365,0.932-0.95,1.394c-0.563,0.448-1.668,0.315-2.057-0.512c-0.394-0.824-0.122-2.241,0.804-2.488
		c0.364-0.099,0.47,0.197,0.502,0.42c0.058,0.413-0.167,0.642-0.013,0.961c0.159,0.321,0.622,0.407,1.033,0.025
		c0.404-0.384,0.404-0.505,0.464-0.657C61.93,22.006,61.933,21.93,61.956,21.906"/>
	<path fill="#FFFFFF" d="M75.762,32.454c-0.148-0.172-0.337-0.17-0.35,0.125c-0.038,0.483-0.149,0.846-0.501,1.367
		c-0.351,0.502-0.467,0.128-0.737,0.339c-0.736,0.555-0.42,1.723-0.42,2.333c0,0.604-0.155,1.188-0.364,1.097
		c-0.448-0.187-0.706-0.977-0.759-1.23c-0.114-0.557-0.467-0.485-0.501-0.347c-0.169,0.67-0.767,2.242-1.166,2.975
		c-0.221,0.417-0.497-0.042-0.633-0.41c0.319-0.876,0.689-1.757,1.116-2.629c0.073-0.156,0.146-0.308,0.226-0.462
		c0.099-0.207,0.014-0.455-0.197-0.558c-0.199-0.096-0.448-0.002-0.549,0.201c-0.676,1.396-1.221,2.811-1.644,4.21
		c-0.307,0.608-0.7,1.154-1.103,1.625c-0.271,0.307-0.741-1.409-1.466-0.499c-0.225,0.291-0.953,1.261-1.207,1.606
		c-0.038,0.054-0.074,0.076-0.09,0.076c0.613-1.623,1.428-3.258,2.453-4.843c0.09-0.134,0.171-0.272,0.265-0.402
		c0.111-0.177,0.052-0.402-0.113-0.521c-0.184-0.113-0.411-0.057-0.524,0.119c-0.933,1.439-1.697,2.929-2.287,4.404
		c-0.194-0.757-0.879-0.01-1.179,0.383c-0.332,0.439-0.733,0.969-0.845,0.739c-0.015-0.038-0.056-0.223-0.081-0.374
		c-0.048-0.308-0.313-0.434-0.649-0.454c0.546-0.949,1.174-1.888,1.883-2.801c0.083-0.113,0.175-0.23,0.264-0.34
		c0.121-0.145,0.085-0.361-0.062-0.479c-0.146-0.117-0.36-0.09-0.476,0.057c-0.914,1.175-1.684,2.395-2.32,3.62
		c-0.281,0.057-0.544,0.135-0.74,0.195c-0.625,0.213-1.284,0.441-1.284,0.441c0.021-0.257-0.046-0.598-0.34-0.852
		c-0.292-0.265-1.528-0.024-1.983-0.076c-0.465-0.06-0.535-0.189-0.465-0.444c0.196-0.692-0.41-1.014-1.113-1.167
		c-0.702-0.156-1.017-0.334-1.017-0.334c0.242-0.674-0.8-1.144-1.409-1.429c-0.605-0.281-1.328-0.699-1.328-0.699l-0.056-0.546
		c-0.061-0.718-0.913-0.957-1.426-1.374c-0.508-0.411-0.724-1.215-0.724-1.215s0,0.105,0.171,0.852
		c0.164,0.75,0.84,1.087,1.037,1.609c0.195,0.517-0.144,0.93-0.144,0.93c0.46,0.363,1.066,0.676,1.84,1.165
		c0.777,0.491,0.194,0.934,0.194,0.934c0.461,0.388,1.335,0.778,2.158,1.037c0.824,0.261,0.146,0.935,0.146,0.935
		c0.873,0.445,1.985,0.775,2.638,0.83c0.655,0.044,0.169,0.954,0.169,0.954c0.609,0.208,1.069,0.106,2.548-0.256
		c0.17-0.039,0.318-0.065,0.448-0.081c-1.655,3.818-1.964,7.626-0.828,10.418c-0.864-2.886-0.353-6.661,1.432-10.39
		c0.396,0.137,0.351,0.499,0.258,0.705c-0.143,0.31-0.025,0.696,0.22,0.592c1.264-0.542,1.985-1.637,2.302-1.637
		c0.081,0,0.136,0.081,0.173,0.176c-1.36,4.246-1.302,8.336,0.176,11.215c-1.064-2.668-1.061-6.172,0.012-9.832
		c0.787-0.424,1.064-1.033,1.55-1.454c0.483-0.411,0.677-0.208,0.752,0.106c0.092,0.411-0.244,1.115,0.167,0.946
		c0.508-0.218,0.906-0.51,1.219-0.818c-0.743,4.574-0.105,8.767,1.811,11.584c-1.807-3.295-2.118-8.057-0.808-13.079
		c0.072-0.174,0.117-0.305,0.153-0.364c0.138-0.258,0.313,0.067,0.335,0.462c0.028,0.405,0.072,0.663,0.33,0.523
		c1.275-0.656,2.132-2.714,2.208-3.145c0.033-0.175,0.149-0.062,0.318,0.092c0.591,0.54,0.438,1.008,0.569,0.994
		c0.359-0.048,0.736-0.278,1.089-0.856c0.346-0.579,0.278-1.947,0.278-2.363c0-0.417,0.707,0.314,0.707,0.314s0.458-0.9,0.538-2.561
		C76.092,33.184,75.937,32.65,75.762,32.454"/>
	<path fill="#FFFFFF" d="M64.625,42.653c-0.037-0.094-0.092-0.177-0.174-0.177c-0.03,0-0.082,0.05-0.121,0.073
		c0.086,0.086,0.166,0.179,0.25,0.265C64.597,42.76,64.607,42.708,64.625,42.653"/>
	<path fill="#FFFFFF" d="M56.935,40.645c-0.07,0.255,0,0.385,0.466,0.444c0.279,0.029,0.842-0.039,1.31-0.043
		c-0.58-0.326-1.174-0.632-1.794-0.89C56.971,40.296,56.989,40.452,56.935,40.645"/>
	<path fill="#FFFFFF" d="M60.078,41.896c-0.132-0.091-0.265-0.182-0.4-0.27c0.042,0.137,0.057,0.275,0.047,0.392
		C59.724,42.018,59.87,41.966,60.078,41.896"/>
	<path fill="#FFFFFF" d="M63.933,45.485c0.152-0.874,0.365-1.767,0.648-2.67c-0.086-0.087-0.166-0.179-0.252-0.265
		c-0.315,0.156-0.898,0.842-1.806,1.35C63.026,44.396,63.489,44.932,63.933,45.485"/>
	<path fill="#FFFFFF" d="M65.353,43.657c-0.153,0.138-0.325,0.265-0.54,0.381c-0.199,0.681-0.324,1.347-0.45,2.009
		c2.128,2.888,3.427,6.43,3.5,10.275c0.103-0.069,0.195-0.145,0.31-0.203c0.61-0.322,1.282-0.382,1.926-0.164
		c-0.028-0.772-0.111-1.538-0.223-2.291c-0.846-1.504-1.374-3.33-1.57-5.35C67.535,46.622,66.535,45.057,65.353,43.657"/>
	<path fill="#FFFFFF" d="M53.161,39.052c0.033-0.167-0.03-0.385-0.395-0.614c-0.773-0.489-1.379-0.802-1.839-1.164
		c0,0,0.227-0.31,0.179-0.717c-0.379-0.023-0.754-0.058-1.14-0.058c-4.323,0-8.318,1.373-11.603,3.69
		c1.12,0.445,1.052,1.446,0.831,2.189c3.001-2.267,6.725-3.626,10.772-3.626C51.058,38.753,52.124,38.865,53.161,39.052"/>
	<path fill="#FFFFFF" d="M32.308,59.532c-0.75,0.63-1.567,0.682-2.211,0.438c1.582,9.562,9.863,16.858,19.869,16.858
		c3.646,0,7.054-0.981,10.005-2.671c-0.334-0.503-0.441-1.454-0.132-2.551c-2.831,1.872-6.222,2.968-9.874,2.968
		C41.057,74.575,33.681,68.055,32.308,59.532"/>
	<path fill="#FFFFFF" d="M28.425,56.718c-0.874-0.173-1.794-0.116-2.406-0.007c-1.445,0.25-2.225,0.394-2.225,0.394
		s0.243-0.387,0.357-0.653c0.113-0.278-0.156-0.343-0.306-0.317c-0.148,0.029-1.22,0.039-2.145,0.195
		c-0.92,0.151-1.952-0.148-1.952-0.148c0.21-0.179,0.341-0.48,0.368-0.639c0.016-0.085-0.023-0.174-0.207-0.283
		c-0.184-0.104-0.701-0.347-1.708-0.141c-2.113,0.436-2.79-0.409-2.79-0.409s0.109-1.112,0.584-2.77
		c0.718-2.498,1.617-3.789,1.68-3.94c0.065-0.151-0.086-0.275-0.171-0.297c-0.09-0.023-1.143,0.068-1.143,0.068
		s0.541-1.443,1.699-3.704c1.162-2.253,1.503-3.118,1.62-3.551c0.197-0.729-0.928-0.438-0.928-0.438s0.448-0.793,1.1-1.659
		c0.639-0.876,1.545-1.783,1.675-1.953c0.133-0.174,0.037-0.223-0.076-0.236c-0.123-0.003-0.684-0.024-0.684-0.024
		s0.405-0.619,1.548-1.55c1.147-0.916,1.604-1.292,1.678-1.367c0.167-0.165,0.175-0.28,0.009-0.367
		c-0.073-0.039-0.426-0.171-0.426-0.171s0.354-0.34,1.385-0.795c1.028-0.45,1.825-0.561,2.016-0.615
		c0.183-0.055,0.114-0.175,0.077-0.233c-0.028-0.057-0.466-0.364-0.466-0.364s0.316-0.246,1.343-0.699
		c1.022-0.458,1.988-0.565,1.988-0.565s-1.174-0.276-4.253,0.74c-2.389,0.796-3.417,1.6-3.417,1.6s0.413-0.102,0.811-0.15
		c0.403-0.049,0.691-0.003,0.691-0.003s-1.407,0.693-2.695,1.558c-1.286,0.871-1.582,1.207-1.582,1.207s0.367-0.076,0.682-0.056
		c0.421,0.028,0.761-0.133,0.761-0.133s-1.471,1.134-2.535,2.37c-1.06,1.231-1.355,1.8-1.355,1.8s0.43-0.217,0.909-0.33
		c0.492-0.122,0.663,0,0.663,0s-0.398,0.715-1.088,1.546c-0.687,0.828-1.188,1.673-1.508,2.382
		c-0.317,0.706-0.375,1.054-0.375,1.054s0.405-0.027,0.779-0.282c0.374-0.26,0.669-0.268,0.669-0.268s-1.692,3.714-2.131,5.879
		c-0.169,0.857-0.345,1.503-0.561,1.98c0,0,0.475-0.106,0.861-0.392c0.387-0.278,0.456-0.298,0.456-0.298s-1.084,3.496-0.875,5.416
		c0.013,0.102,1.504,1.078,2.884,0.84c0,0-0.055,0.251-0.77,0.392c-0.706,0.144-1.027,0.501-1.027,0.501
		c0.818,0.007,2.168,0.508,3.558,0.597c1.394,0.084,2.586-0.089,2.586-0.089s-0.101,0.178-0.586,0.371
		c-0.638,0.258-1.222,0.337-1.222,0.337s0.171,0.161,0.646,0.272c0.468,0.109,1.668,0.055,2.929-0.21
		c1.25-0.263,2.032-0.24,3.301-0.293c1.266-0.044,1.532,0.882,2.149,1.604c0.2,0.229,0.49,0.426,0.821,0.551
		c-0.099-0.596-0.172-1.198-0.217-1.814C29.254,57.643,29.097,56.862,28.425,56.718"/>
	<path fill="#FFFFFF" d="M70.311,54.402c-0.184-0.332-0.341-0.691-0.494-1.056c0.018,0.106,0.042,0.213,0.058,0.317
		C70.016,53.916,70.152,54.172,70.311,54.402"/>
	<path fill="#FFFFFF" d="M61.967,43.401c-0.011,0.042-0.024,0.086-0.038,0.122c-0.143,0.309-0.025,0.696,0.22,0.591
		c0.138-0.061,0.246-0.143,0.373-0.214C62.344,43.726,62.152,43.567,61.967,43.401"/>
	<path fill="#FFFFFF" d="M64.801,53.869c-0.866-2.17-0.985-4.906-0.439-7.822c-0.14-0.188-0.281-0.379-0.429-0.562
		C63.374,48.681,63.657,51.64,64.801,53.869"/>
	<path fill="#FFFFFF" d="M59.383,41.165c-0.111-0.102-0.379-0.12-0.673-0.12c0.329,0.187,0.651,0.377,0.966,0.58
		C59.629,41.464,59.543,41.303,59.383,41.165"/>
	<path fill="#FFFFFF" d="M46.789,56.044c-0.217,0-0.423,0.045-0.612,0.114c-0.704,0.25-1.214,0.916-1.214,1.715
		c0,1.008,0.824,1.825,1.826,1.825c0.412,0,0.782-0.144,1.086-0.369c0.449-0.329,0.737-0.854,0.737-1.456
		C48.611,56.859,47.793,56.044,46.789,56.044"/>
	<path fill="#FFFFFF" d="M57.472,61.686l-0.317-0.28l-0.11-0.411l-0.166-0.163l0.039-0.09l-0.084-0.047l-0.042-0.139l0.004-0.094
		l-1.397-1.383l-0.313-0.292l-1.737-1.662l-0.909-0.82l-0.769-0.696l-0.982-0.857l-0.25-0.232l-0.334-0.29l-0.396-0.338
		l-0.189-0.157v-5.11h-5.662l-0.048,0.179l-0.029,0.086l0.029,0.072l0.093,0.086l0.03,0.072l0.037,0.158l0.081,0.134h-0.048
		l0.065,0.146l-0.04,0.092l-0.051,0.21v0.145l-0.044-0.018l-0.03,0.076l0.074,0.21l-0.313,0.701l-0.076,0.183v0.102l0.05,0.069
		l0.026,0.072l-0.026,0.097l0.017,0.04l0.239,0.225l0.109,0.068l0.035,0.12l0.076,0.069l0.109,0.159l0.042,0.075l0.118,0.107v0.095
		l0.032,0.089l0.029,0.236l-0.04,0.101l-0.034,0.111v0.153l0.034,0.114l0.074,0.186l0.073,0.161L44.5,53.79l0.028,0.06l0.073,0.074
		l0.097,0.102l0.122,0.119l0.021,0.044l0.074,0.027l0.062,0.096l0.12,0.188l0.085,0.054l0.167,0.111l0.074,0.193h0.047l0.076,0.06
		l0.022,0.047c0.054-0.024,0.099-0.062,0.154-0.081c0.333-0.122,0.692-0.198,1.069-0.198c1.753,0,3.182,1.422,3.182,3.188
		c0,1.038-0.489,1.941-1.253,2.518l-0.021,0.101v0.082l-0.013,0.039l0.064,0.119l-0.025,0.083l0.025,0.125l-0.052,0.201l0.011,0.089
		l0.16,0.034l0.087,0.134l0.651,0.016l0.085,0.047l0.303,0.034l0.107-0.034l0.198,0.055l0.143,0.153l0.122,0.045l0.097,0.232
		l0.087,0.074l0.217,0.058l0.026,0.02l0.155,0.027l0.051,0.034l0.329-0.034l0.098,0.057l0.12,0.26v0.05l-0.039,0.087l0.172,0.087
		l0.047-0.077l0.083-0.029l0.112,0.029l0.203,0.183l0.074,0.062l0.077,0.027l0.202,0.213l0.132,0.082l0.194,0.208l0.259,0.488
		l0.033,0.181l-0.033,0.11l0.062,0.147l-0.038,0.037v0.069l0.02,0.022l0.052-0.058l0.019-0.006l0.103,0.075l0.011,0.087
		l-0.098-0.087h-0.023l0.023,0.043l0.052,0.066v0.139l1.37-0.148l1.852-0.175l0.199-0.004l0.051-0.051l0.033-0.125l0.066-0.069
		v-0.21l-0.078-0.082l-0.173-0.013l-0.056-0.047l-0.015-0.084l0.023-0.233l-0.065-0.069l0.03-0.089l-0.008-0.082l0.048-0.042
		l0.115-0.119l-0.027-0.044l0.079-0.022l0.056-0.151l-0.024-0.114l0.037-0.052l-0.034-0.332l0.119-0.114l-0.006-0.039l0.048-0.109
		l0.321-0.274l0.08-0.032L57.472,61.686z"/>
</g>
</svg>
