<svg xmlns="http://www.w3.org/2000/svg" viewBox="0 0 280 72" enable-background="new 0 0 280 72"><g fill="#fff"><path d="M97.3 14.9c-.3-.9-.9-1.6-2-1.6-1.4 0-2.2 1.3-2.2 3.8s.7 3.8 2.3 3.8c.9 0 1.5-.3 2.1-1.6l1.9.5c-.6 1.9-2.1 2.8-4 2.8-2.8 0-4.3-2-4.3-5.6 0-3.5 1.6-5.6 4.3-5.6 2.1 0 3.3.9 3.8 2.8l-1.9.7z"/><path d="M105.3 22.6l-.1-.7c-.7.5-1.5.8-2.4.8-1.4 0-2.1-1-2.1-2.1 0-1.8 1.4-2.7 4.5-3.1v-.7c0-.6-.5-.9-1.1-.9-.9 0-1.3.5-1.7 1l-1.2-.9c.5-.8 1.8-1.5 2.9-1.4 2.1 0 3 .8 3 3.1v3.7c0 .4 0 .8.2 1.1h-2zm-.2-3.8c-1.2.2-2.6.5-2.6 1.6 0 .6.4.9.9.9.6 0 1.3-.5 1.7-.8v-1.7z"/><rect x="109.2" y="11.8" width="1.9" height="10.8"/><path d="M113.4 11.6h1.9v1.7h-1.9v-1.7zm1.9 11h-1.9v-7.8h1.9v7.8z"/><path d="M119.8 16.3v6.3h-1.9v-6.3h-1.1v-1.5h1.1v-1c0-1.7.7-2.2 2.2-2.2h1.2v1.5h-.5c-.8 0-1 .2-1 .8v.8h1.6v1.5h-1.6z"/><path d="M125.8 14.6c2.1 0 3.4 1.6 3.4 4s-1.3 4-3.4 4c-2.1 0-3.4-1.6-3.4-4s1.3-4 3.4-4m0 1.5c-1 0-1.5.8-1.5 2.5s.5 2.5 1.5 2.5 1.5-.8 1.5-2.5-.5-2.5-1.5-2.5"/><path d="M130.8 22.6v-7.8h1.7v1.3c.4-.9 1.1-1.5 2.2-1.5v2h-.3c-.9 0-1.7 1.1-1.7 1.3v4.7h-1.9z"/><path d="M136.2 22.6v-7.8h1.7v.8c.7-.5 1.5-1 2.4-1 1.6 0 2.3 1 2.3 2.6v5.3h-1.9v-5.1c0-1-.3-1.4-1-1.4-.8 0-1.4.5-1.7.8v5.6h-1.8z"/><path d="M144.9 11.6h1.9v1.7h-1.9v-1.7zm1.9 11h-1.9v-7.8h1.9v7.8z"/><path d="M153.1 22.6l-.1-.7c-.7.5-1.5.8-2.4.8-1.4 0-2.1-1-2.1-2.1 0-1.8 1.4-2.7 4.5-3.1v-.7c0-.6-.5-.9-1.1-.9-.9 0-1.3.5-1.7 1l-1.2-.9c.5-.8 1.8-1.5 2.9-1.4 2.1 0 3 .8 3 3.1v3.7c0 .4 0 .8.2 1.1h-2zm-.2-3.8c-1.2.2-2.6.5-2.6 1.6 0 .6.4.9.9.9.6 0 1.3-.5 1.7-.8v-1.7z"/><path d="M167.6 14.6c-.3-.8-1-1.4-1.9-1.4-.9 0-1.5.4-1.5 1.2 0 1.9 5.6 1.5 5.6 5 0 2.2-1.4 3.3-3.8 3.3-1.8 0-3.4-1-4-2.6l1.7-.7c.5 1 1.1 1.7 2.4 1.7 1 0 1.8-.4 1.8-1.4 0-2.1-5.6-1.7-5.6-5 0-1.9 1.6-3 3.5-3 1.7 0 3.2.9 3.8 2.4l-2 .5z"/><path d="M171.8 14.8v-2.6h1.9v2.6h1.5v1.5h-1.5v4.4c0 .4.2.5.7.5.3 0 .6-.1.9-.2v1.5c-.5.1-1 .1-1.5.1-1.4 0-1.9-.7-1.9-1.8v-4.6h-1.1v-1.5h1z"/><path d="M181.1 22.6l-.1-.7c-.7.5-1.5.8-2.4.8-1.4 0-2.1-1-2.1-2.1 0-1.8 1.4-2.7 4.5-3.1v-.7c0-.6-.5-.9-1.1-.9-.9 0-1.3.5-1.7 1l-1.2-.9c.5-.8 1.8-1.5 2.9-1.4 2.1 0 3 .8 3 3.1v3.7c0 .4 0 .8.2 1.1h-2zm-.2-3.8c-1.2.2-2.6.5-2.6 1.6 0 .6.4.9.9.9.6 0 1.3-.5 1.7-.8v-1.7z"/><path d="M185.2 14.8v-2.6h1.9v2.6h1.5v1.5h-1.5v4.4c0 .4.2.5.7.5.3 0 .6-.1.9-.2v1.5c-.5.1-1 .1-1.5.1-1.4 0-1.9-.7-1.9-1.8v-4.6h-1.1v-1.5h1z"/><path d="M191.5 19c0 1.6.7 2.2 1.6 2.2.9 0 1.3-.4 1.7-.9l1.3.8c-.7 1.1-1.8 1.6-3.3 1.6-2 0-3.3-1.6-3.3-4 0-2.5 1.3-4 3.4-4 2 0 3.2 1.7 3.2 3.6v.7h-4.6zm3-1.3c0-1.1-.6-1.7-1.5-1.7s-1.5.6-1.5 1.7h3z"/><path d="M209.9 11.8h2.1v6.8c0 3.2-1.9 4.2-4.1 4.2-2.2 0-4.2-1-4.2-4.2v-6.8h2.1v6.9c0 1.8.7 2.4 2.1 2.4 1.4 0 2.1-.6 2.1-2.4v-6.9z"/><path d="M214.4 22.6v-7.8h1.7v.8c.7-.5 1.5-1 2.4-1 1.6 0 2.3 1 2.3 2.6v5.3h-1.9v-5.1c0-1-.3-1.4-1-1.4-.8 0-1.4.5-1.7.8v5.6h-1.8z"/><path d="M223.1 11.6h1.9v1.7h-1.9v-1.7zm1.8 11h-1.9v-7.8h1.9v7.8z"/><polygon points="226.5,14.8 228.3,14.8 229.6,20.1 229.6,20.1 231,14.8 232.8,14.8 230.6,22.6 228.6,22.6"/><path d="M235.4 19c0 1.6.7 2.2 1.6 2.2.9 0 1.3-.4 1.7-.9l1.3.8c-.7 1.1-1.8 1.6-3.3 1.6-2 0-3.3-1.6-3.3-4 0-2.5 1.3-4 3.4-4 2 0 3.2 1.7 3.2 3.6v.7h-4.6zm3-1.3c0-1.1-.6-1.7-1.5-1.7s-1.5.6-1.5 1.7h3z"/><path d="M241.9 22.6v-7.8h1.7v1.3c.5-.9 1.1-1.5 2.2-1.5v2h-.3c-.9 0-1.7 1.1-1.7 1.3v4.7h-1.9z"/><path d="M251.3 16.8c-.4-.4-.9-.8-1.5-.8-.7 0-1 .3-1 .8 0 1.3 3.9.8 3.9 3.6 0 1.6-1.2 2.3-2.9 2.3-1.2 0-2.3-.6-3-1.6l1.2-.9c.4.6 1 1.1 1.8 1.1.7 0 1.1-.4 1.1-.9 0-1.3-3.9-.9-3.9-3.6 0-1.5 1.2-2.3 2.6-2.3 1 0 2.1.4 2.7 1.2l-1 1.1z"/><path d="M254.5 11.6h1.9v1.7h-1.9v-1.7zm1.9 11h-1.9v-7.8h1.9v7.8z"/><path d="M259 14.8v-2.6h1.9v2.6h1.5v1.5h-1.5v4.4c0 .4.2.5.7.5.3 0 .6-.1.9-.2v1.5c-.5.1-1 .1-1.5.1-1.4 0-1.9-.7-1.9-1.8v-4.6h-1.1v-1.5h1z"/><path d="M263.5 23.8c.3.1.5.1.8.1.6 0 1-.2 1.2-.6.2-.4.3-.6.3-.9l-.2-.9-2.1-6.7h1.9l1.3 4.8 1.3-4.8h1.9l-2.5 7.8c-.8 2.2-1.5 2.8-3 2.8-.5 0-.7 0-.9-.1v-1.5z"/><polygon points="91.6,47.6 91.6,30.4 96.2,30.4 99.5,42.4 99.5,42.4 102.8,30.4 107.5,30.4 107.5,47.6 104.6,47.6 104.6,34.1 104.6,34.1 100.7,47.6 98.3,47.6 94.5,34.1 94.4,34.1 94.4,47.6"/><path d="M118.1 47.8c-4.7 0-7.2-3.2-7.2-8.8 0-5.6 2.5-8.8 7.2-8.8s7.2 3.2 7.2 8.8c0 5.6-2.6 8.8-7.2 8.8m0-14.9c-2.7 0-3.9 2-3.9 6.1 0 4 1.2 6.1 3.9 6.1s3.9-2 3.9-6.1c0-4-1.2-6.1-3.9-6.1"/><polygon points="128.7,47.6 128.7,30.4 132.1,30.4 138.8,42.1 138.9,42.1 138.9,30.4 141.9,30.4 141.9,47.6 138.8,47.6 131.8,35.4 131.7,35.4 131.7,47.6"/><polygon points="157.1,30.4 157.1,33.2 152.6,33.2 152.6,47.6 149.4,47.6 149.4,33.2 144.9,33.2 144.9,30.4"/><polygon points="160.1,47.6 160.1,30.4 171.4,30.4 171.4,33.2 163.4,33.2 163.4,37.3 169.2,37.3 169.2,40 163.4,40 163.4,44.8 171.7,44.8 171.7,47.6"/><path d="M174.8 47.6v-17.2h6.8c3.9 0 5.5 2.3 5.5 5.1 0 2.1-1 3.8-3.1 4.4l3.8 7.6h-3.6l-3.2-7h-2.8v7h-3.4zm3.3-9.7h2.4c2.6 0 3.3-.8 3.3-2.4 0-1.6-1-2.4-2.8-2.4h-3v4.8z"/><polygon points="191,47.6 191,30.4 202.4,30.4 202.4,33.2 194.3,33.2 194.3,37.3 200.2,37.3 200.2,40 194.3,40 194.3,44.8 202.6,44.8 202.6,47.6"/><polygon points="211.2,37.2 214.1,30.4 217.5,30.4 212.8,40.7 212.8,47.6 209.5,47.6 209.5,40.7 204.8,30.4 208.2,30.4"/><path d="M229 30.4h6.4c3.4 0 5.6 1.1 5.8 4.2 0 1.8-.7 3.2-2.6 3.9 2.2.9 3 1.9 3 4.5 0 2.7-1.9 4.5-6.2 4.5h-6.4v-17.1zm3.3 6.9h3.3c1.6 0 2.3-.9 2.3-2.1 0-1.2-.8-2.1-2.3-2.1h-3.3v4.2zm0 7.6h3.3c1.9 0 2.7-.9 2.7-2.5s-.8-2.5-2.7-2.5h-3.3v5z"/><path d="M248.6 30.4h4.1l4.9 17.2h-3.3l-.9-3.7h-5.4l-1 3.7h-3.3l4.9-17.2zm.1 10.8h4l-1.9-7.5-2.1 7.5z"/><polygon points="263.7,37.2 266.6,30.4 270,30.4 265.3,40.7 265.3,47.6 262.1,47.6 262.1,40.7 257.3,30.4 260.7,30.4"/><path d="M44.4 28.6c-8.3 0-15 6.7-15 15s6.7 15 15 15 15-6.7 15-15c-.1-8.3-6.8-15-15-15m0 27.1c-6.7 0-12.1-5.4-12.1-12.1 0-6.7 5.4-12.1 12.1-12.1 6.7 0 12.1 5.4 12.1 12.1.1 6.6-5.4 12.1-12.1 12.1"/><path d="M10.4 41.6s.7.8 2.7.4c1-.2 1.5 0 1.7.1.2.1.2.2.2.3 0 .2-.2.5-.4.6 0 0 1 .3 1.9.1.9-.2 2-.2 2.1-.2.1 0 .4 0 .3.3-.1.3-.4.6-.4.6s.8-.1 2.2-.4c.6-.1 1.5-.2 2.4 0 .9.2.9 1.4 2.1 1.8 1.2.4 1.2-2.6 1.2-3.4 0-.8.3-1.2.9-1.7 1-.8.8-2 .6-2.8-.1-.8 1.5-1.7 2-2.6.4-1 .1-2-.1-2.4-.2-.4.1-.7.4-1 .5-.5 1.4-2 1-2.5-.4-.5-2.4 0-4.5 2-2.1 1.9-3.6 4.2-4.2 5.2-.1.1-.2-.1 0-.5.1-.4 1.3-3.3 3.7-5.6 2.4-2.3 4.6-3.2 6.3-2.7 1.7.4 1.4 1.8 1.1 2.6-.3.8-1.2 1.3-1.4 2.3-.2.9.1 1.6.2 2.5.1.9-.2 1.5-1 2.4-.4.4-1.1 1.2-1.1 1.6 0 .1.3.6-.2 2s-1.7 1.8-1.7 2.2c0 .4 0 2.3-1.2 3.4s-2.6.7-3.2 0c-.6-.7-.9-1.6-2.1-1.6-1.2.1-2 0-3.3.3-1.2.3-2.4.3-2.9.2-.5-.1-.6-.3-.6-.3s.6-.1 1.2-.3c.5-.2.6-.4.6-.4s-1.2.2-2.5.1c-1.4-.1-2.7-.6-3.5-.6 0 0 .3-.4 1-.5.7-.1.8-.4.8-.4-1.4.3-2.9-.6-2.9-.7-.2-1.9.9-5.3.9-5.3s-.1 0-.4.3c-.4.3-.8.4-.8.4.2-.5.4-1.1.6-2 .4-2.1 2.1-5.8 2.1-5.8s-.3 0-.7.3c-.4.3-.8.3-.8.3s.1-.3.4-1c.3-.7.8-1.5 1.5-2.3.7-.8 1.1-1.5 1.1-1.5s-.2-.1-.7 0c-.5.1-.9.3-.9.3s.3-.6 1.3-1.8c1-1.2 2.5-2.3 2.5-2.3s-.3.2-.7.1c-.3 0-.7.1-.7.1s.3-.3 1.6-1.2c1.3-.9 2.7-1.5 2.7-1.5h-.7c-.4 0-.8.1-.8.1s1-.8 3.4-1.6c3-1 4.2-.7 4.2-.7s-1 .1-2 .6c-1 .4-1.3.7-1.3.7s.4.3.5.4c0 .1.1.2-.1.2-.2.1-1 .2-2 .6-1 .4-1.4.8-1.4.8s.3.1.4.2c.2.1.2.2 0 .4-.1.1-.5.4-1.7 1.3-1.1.9-1.5 1.5-1.5 1.5h.7c.1 0 .2.1.1.2-.1.2-1 1.1-1.6 1.9-.6.9-1.1 1.6-1.1 1.6s1.1-.3.9.4c-.1.4-.5 1.3-1.6 3.5s-1.7 3.6-1.7 3.6 1-.1 1.1-.1c.1 0 .2.1.2.3-.1.1-.9 1.4-1.7 3.9-.6 1.6-.7 2.7-.7 2.7"/><path d="M73.1 47.1s-.5-.1-.8-.1c-.3 0-.3.5-.3.8.1 1.8-.1 4-.1 4.2 0 .2-.8-.3-1-.4-.2-.1-.3.1-.3.3-.3 2.8-1.6 5.9-1.6 5.9l-.3-.6c-.1-.2-.2-.2-.3-.1-.6.6-1.1 1.8-1.4 3-.3 1.2-1.1 2.1-1.1 2.1-.1-.1-.2-.8-.2-1-.1-.2-.3-.1-.4 0-.1.1-.4 1-1.3 2.8-.9 1.8-1.5 3.3-2.7 3.4-.9.1-1.3-2.4-1.3-2.4s-.3.2-.5.6c-.2.4-.2.9-.2.9-.9-2.6-.5-4.6-.5-4.8 0-.2-.1-.3-.3-.3-.1.1-.5.4-.5.4-.1-.4-.3-.9-.6-1.5-.3-.5-1.1-.3-1.7-.2-.5 0-.7-.5-.3-1.6.4-1.1 1.9-1.7 2.5-2.1.6-.3.1-.9.3-1.6.4-1.2 2.1-1.7 2.3-2.1.2-.3-.2-1 .1-1.9.3-.9 2-2 2-2-.2-1.6 0-3.3.7-4.3s2-.1 2.4 2.5c.5 3.7-1 6.2-1.7 7.7s-1 1.6-.9 1.7c.1.1.5 0 1.1-.8.6-.9 3.3-4.5 2.8-8.6-.6-4.1-2.7-5.1-4.4-4.2-1.7.9-2 2.5-1.6 5.5 0 0-1 .8-1.3 1.4-.4.7-.2 1.9-.4 2.1-.2.2-1 .6-1.6 1.4-.6.8-.5 1.9-.9 2.1-.4.2-1.8.8-2.3 2.6-.6 1.8 0 3.2.9 3 .8-.2 2.1-.3 2.1 1-.1 1.3-.2 2.7 0 3.8 0 0 .3-1 .6-1.5 0 0 .9 4.5 2.6 6.2 0 0 0-.6-.2-1.3-.1-.7.1-1.1.1-1.1s.2.7 1.1.7c1.6-.1 3.4-3.8 3.4-3.8-.1.9.2 1.2.2 1.2 1.5-1.7 2.5-4.2 2.9-5.5.4-1.3.9-1.9.9-1.9s.2.1.2.6.2 1 .2 1c1.9-4.3 2.4-7.5 2.4-7.5s.2.1.4.6c.1.5.5.9.5.9 1.1-3.7.9-6 .9-6l.6.3c.4.3.7.8.7.8.1-1.8-.2-3-.6-4.3-.3-1.3-.7-2.7-.7-2.7.6 0 1.1.5 1.1.5-1.1-4.3-2.2-6-2.2-6s.2 0 .5.1c.3 0 .7.2.7.2-1.1-2.6-2.7-4.1-2.7-4.1.3-.2 1 0 1 0-1.9-3.3-5.8-4.5-5.8-4.5s2.3 1.3 3.4 2.9c.1.2-.2.3-.4.3-.3 0-.3.2-.2.4.1.2 1.7 1.8 2.2 3 .1.2-.8 0-.6.5.2.5 1.7 2.8 2.1 4.6 0 0-1.3-.3-1.1.1-.8.7.3 2.8 1.4 6.7"/><path d="M48.4 2s-1.3-.1-3.1.2c-1.8.2-2.4.5-3.1.5-.7.1-.9.1-.9.1s.4.5.9.5.9 0 1.1.2c0 0-.8.1-2.3.7-1.9.7-2 .8-4 1.4 0 0 .5.3 1 .3.4 0 .7.2.7.2s-1.4.3-3 .9c-1.6.6-1.9 1-2.7 1 0 0 .4.2 1 .3.4 0 .8.1.8.1s-.6.3-2.1 1.1c-1.4.8-1.9 1-2.8 1.2 0 0 .6.4 1.1.4h.5s-.9.6-2.3 1.3c-1.4.7-1.6.8-2.1 1.3 0 0 .7.1 1 .2.1.1.3.1.4.1 0 0-.9.5-2.2 1.3-1.3.9-1.7 1.5-1.7 1.5s2.8-1.7 5.2-2.4c.2-.1.3-.3.1-.5-.1-.1-.7-.5-.7-.5s.2-.1 1.7-.9c1.6-.8 2.4-1.1 2.6-1.2.2-.1 0-.3-.1-.4-.1-.1-.7-.4-.7-.4s.3-.2 1-.5c1.3-.6 3.2-1.2 3.3-1.3.2-.1.2-.2 0-.3-.1-.1-.6-.5-.6-.5s.5-.3 1.5-.5c1-.3 1.9-.6 2.3-.7.6-.3.8-.4.7-.7-.1-.2-.3-.5-.3-.5s.5-.2 1.2-.5c1-.3 1.6-.4 2.5-.6.9-.2 1-.3 1-.5 0-.3-.2-.6-.2-.6s.1-.1 1.1-.2c1.1-.1 2-.1 2.7-.1.7 0 1.1.1 1.4 0 .3-.1.4-.7.4-.7s.8-.1 2 .2c1.2.3 1.7.5 2 .6.3.1.5 0 .5-.3.1-.3.2-.5.2-.5s.8 0 2.1.5c1.3.6 2 1.1 2.3 1.3.2.1.3 0 .5-.2l.3-.3s.1 0 .5.1 1 .4 1.5.8c.6.4.7.7 1.2.9.2 0 .4-.4.5-.7.1-.3.3-.5.3-.5s.2 0 .7.3c.5.3 1.1.7 1.5 1.1h.1s0-.5-.3-.9c-.5-.7-1.5-1.5-2.4-2.1-.9-.6-1.2-.8-1.4-1-.1-.1-.1-.2-.1-.2s-.1.3.2.8c.3.6.2.9.2.9s-1-.6-2.2-1.1c-1.1-.5-1.5-.7-2-1-.6-.3-.7-.4-.7-.4s0 .6.3 1c.3.3.3.4.3.4s-1.5-.7-3.5-1.2c-2-.4-3.1-.8-3.1-.8s.2.7.5 1c.3.3.4.5.4.5s-1.6-.4-3.3-.5c-1.6-.1-2.3 0-2.6 0h-.3s.1.3.7.6c.6.2.8.4.8.4"/><path d="M74.8 8.1c.6 1 .4 2.7-.2 3.5-.5.8-1.4 1.3-1.9 1.9-.5.6-1 1.6-1.2 2.3-.2.7-.6 1.4-1.2 1.4s-1.2-.5-1.5-1.3c-.3-.8-.4-1.8-1.7-2.5-1.3-.7-3.7-1.5-3.7-3.1s1.5-2.1 2.5-3.3c1-1.2 2.3-2.1 3.7-2.1 1.6.2 4.1 1.4 5.2 3.2"/><path d="M79.8 20.1c-.2-.4-.3-.7-.3-.7s.1-.2.4-.4c.5-.2.9-.2.9-.6.1-1.7-1.2-2.9-1.2-2.9.2-.1.5 0 .9 0 .4.1.4-.1.4-.1-.6-1.8-2.5-3-2.5-3 .3-.2.7 0 1 .1.3.1.6 0 .6 0-.3-1.1-1.1-1.9-2.2-2.5-1.1-.6-1.9-.6-2-.6-.1 0 0 .1 0 .2.1.1.6.3 1 .7.5.5.6.7.6.7s.1.3-.4.6c-.5.4-1 .7-1 .8-.1.1 0 .2.1.3.1.1.7.4 1.5 1 .7.6 1 1 .8 1.1-.2.1-.7.2-.6.5.1.3.6.5.9.8.3.3.7.6.3 1.6-.2.6-.6.8-.9.8-.3 0-.5 0-.5.1.1.1.6 1.1.3 1.6-.2.5-.5.8-1.1.7-.3 0-.4 0-.3.1.1.1.6.8.4 1.8-.1.6-.6.7-1 .5l-.7-1.7c-.1-.2-.3-.3-.5-.2-.2.1-.3.3-.2.5l.2.4.5 1.1c0 .4 0 .9-.1 1.3-.1.6-.6.8-.9.1-.3-.7-.6-1.6-.6-1.8 0-.1-.5.1-.5.3 0 .2-.2 1.4-.7 1.5-.2.1-.4-.4-.4-.9 0-.6.3-1.6-.4-2.1-.2-.1-.3-.2-.5-.1-.2 0-.3.2-.3.2-.1 1.6-.5 2.5-.5 2.5s.7-.7.7-.3c0 .4.1 1.6.5 2.1s.8.7 1.2.7c.1 0-.1-.4.5-1 .1-.2.3-.3.3-.1 0 .2.3 1 1.2 1 .7 0 1.1-.5 1.3-1.1 1.7 5.1 1.5 10-.3 13.3 2.2-3.3 2.5-8.6.7-14.1.5-.2 1.4 0 1.8-.8v-.1c2.3 4.7 2.8 9.4 1.5 12.9 1.7-3.6 1.3-8.9-1.3-14 0-.4-.2-.6-.2-.6s.6-.4 1.3-.4c.2 0 .3-.1.4-.2 3 4.4 4.2 9.2 3.4 12.9 1.2-4.2-.1-9.7-3.5-14.5"/><path d="M57.9 7.6c.3.1.4.3.2.7-.2.4-.5.6-1 .6-1 .1-1.8-.6-3.7-.5-1.1 0-2.3.2-3.3.7-1 .5-1.2.7-1.3.7 0 0 0-.2.1-.3.4-.4 2.2-1.7 5-2.2 2.2-.3 3.5 0 4 .3"/><path d="M56.3 9.3c.1 0 .1 0 .2.1 0 .1.1.5 0 1-.2.5-.4.9-.9 1.4-.6.4-1.6.3-2-.5-.6-.9-.3-2.3.6-2.5.4-.1.5.2.5.4.1.4-.2.6 0 .9.2.3.6.4 1 0s.4-.5.5-.6c0-.1 0-.2.1-.2"/><path d="M69.8 19.7c-.1-.2-.3-.2-.3.1 0 .5-.1.8-.5 1.3-.3.5-.5.1-.7.3-.7.5-.4 1.7-.4 2.3 0 .6-.2 1.2-.4 1.1-.4-.2-.7-1-.7-1.2-.1-.5-.5-.5-.5-.3-.2.7-.8 2.2-1.1 2.9-.2.4-.5 0-.6-.4.3-.9.7-1.7 1.1-2.6l.2-.5c.1-.2 0-.4-.2-.5-.2-.1-.4 0-.5.2-.7 1.4-1.2 2.8-1.6 4.1-.3.6-.7 1.1-1.1 1.6-.3.3-.7-1.4-1.4-.5-.2.3-.9 1.2-1.2 1.6 0 .1-.1.1-.1.1.6-1.6 1.4-3.2 2.4-4.8l.3-.4c.1-.2.1-.4-.1-.5-.2-.1-.4-.1-.5.1-.9 1.4-1.7 2.9-2.3 4.3-.2-.7-.9 0-1.2.4-.3.4-.7 1-.8.7 0 0-.1-.2-.1-.4 0-.3-.3-.4-.6-.4.5-.9 1.2-1.9 1.9-2.8l.3-.3c.1-.1.1-.4-.1-.5-.1-.1-.4-.1-.5.1-.9 1.2-1.7 2.4-2.3 3.6-.3.1-.5.1-.7.2-.6.2-1.3.4-1.3.4 0-.3 0-.6-.3-.8-.3-.3-1.5 0-2-.1s-.5-.2-.5-.4c.2-.7-.4-1-1.1-1.1-.7-.2-1-.3-1-.3.2-.7-.8-1.1-1.4-1.4-.6-.3-1.3-.7-1.3-.7l-.1-.5c-.1-.7-.9-.9-1.4-1.4-.5-.4-.7-1.2-.7-1.2s0 .1.2.8c.2.7.8 1.1 1 1.6.2.5-.1.9-.1.9.5.4 1 .7 1.8 1.1.8.5.2.9.2.9.5.4 1.3.8 2.1 1 .8.3.1.9.1.9.9.4 2 .8 2.6.8.6 0 .2.9.2.9.6.2 1.1.1 2.5-.3.2 0 .3-.1.4-.1-1.6 3.8-1.9 7.5-.8 10.3-.9-2.8-.3-6.6 1.4-10.2.4.1.3.5.3.7-.1.3 0 .7.2.6 1.2-.5 2-1.6 2.3-1.6.1 0 .1.1.2.2-1.3 4.2-1.3 8.2.2 11-1-2.6-1-6.1 0-9.7.8-.4 1-1 1.5-1.4.5-.4.7-.2.7.1.1.4-.2 1.1.2.9.5-.2.9-.5 1.2-.8-.7 4.5-.1 8.6 1.8 11.4-1.8-3.2-2.1-7.9-.8-12.9.1-.2.1-.3.2-.4.1-.3.3.1.3.5s.1.7.3.5c1.3-.6 2.1-2.7 2.2-3.1 0-.2.1-.1.3.1.6.5.4 1 .6 1 .4 0 .7-.3 1.1-.8.3-.6.3-1.9.3-2.3 0-.4.7.3.7.3s.5-.9.5-2.5c-.1-1.1-.3-1.6-.5-1.8"/><path d="M58.9 29.7c0-.1-.1-.2-.2-.2 0 0-.1 0-.1.1.1.1.2.2.2.3.1-.1.1-.1.1-.2"/><path d="M51.3 27.7c-.1.3 0 .4.5.4h1.3l-1.8-.9c0 .2.1.4 0 .5"/><path d="M54.4 29l-.4-.3c0 .1.1.3 0 .4.1 0 .2-.1.4-.1"/><path d="M58.2 32.5l.6-2.6c-.1-.1-.2-.2-.2-.3-.3.2-.9.8-1.8 1.3.5.5 1 1.1 1.4 1.6"/><path d="M59.6 30.7l-.5.4c-.2.7-.3 1.3-.4 2 2.1 2.8 3.4 6.3 3.4 10.1l.3-.2c.6-.3 1.3-.4 1.9-.2 0-.8-.1-1.5-.2-2.3-.8-1.5-1.4-3.3-1.5-5.3-.9-1.6-1.8-3.1-3-4.5"/><path d="M47.6 26.2c0-.2 0-.4-.4-.6-.8-.5-1.4-.8-1.8-1.1 0 0 .2-.3.2-.7l-1.1-.1c-4.3 0-8.2 1.4-11.4 3.6 1.1.4 1 1.4.8 2.2 3-2.2 6.6-3.6 10.6-3.6 1 0 2.1.1 3.1.3"/><path d="M27 46.3c-.7.6-1.5.7-2.2.4 1.6 9.4 9.7 16.6 19.6 16.6 3.6 0 6.9-1 9.9-2.6-.3-.5-.4-1.4-.1-2.5-2.8 1.8-6.1 2.9-9.7 2.9-8.8.1-16.1-6.4-17.5-14.8"/><path d="M23.2 43.6c-.9-.2-1.8-.1-2.4 0-1.4.2-2.2.4-2.2.4s.2-.4.4-.6c.1-.3-.2-.3-.3-.3-.1 0-1.2 0-2.1.2-.9.1-1.9-.1-1.9-.1.2-.2.3-.5.4-.6 0-.1 0-.2-.2-.3-.2-.1-.7-.3-1.7-.1-2.1.4-2.7-.4-2.7-.4s.1-1.1.6-2.7c.7-2.5 1.6-3.7 1.7-3.9.1-.1-.1-.3-.2-.3s-1.1.1-1.1.1.5-1.4 1.7-3.6c1.1-2.2 1.5-3.1 1.6-3.5.2-.7-.9-.4-.9-.4s.4-.8 1.1-1.6c.6-.9 1.5-1.8 1.7-1.9.1-.2 0-.2-.1-.2h-.7s.4-.6 1.5-1.5 1.6-1.3 1.7-1.3c.2-.2.2-.3 0-.4-.1 0-.4-.2-.4-.2s.3-.3 1.4-.8c1-.4 1.8-.6 2-.6.2-.1.1-.2.1-.2 0-.1-.5-.4-.5-.4s.3-.2 1.3-.7c1-.5 2-.6 2-.6s-1.2-.3-4.2.7c-2.4.8-3.4 1.6-3.4 1.6s.4-.1.8-.1h.7s-1.4.7-2.7 1.5c-1.3.9-1.6 1.2-1.6 1.2s.4-.1.7-.1c.4 0 .7-.1.7-.1s-1.4 1.1-2.5 2.3c-1 1.2-1.3 1.8-1.3 1.8s.4-.2.9-.3c.5-.1.7 0 .7 0s-.4.7-1.1 1.5c-.7.8-1.2 1.6-1.5 2.3-.3.7-.4 1-.4 1s.4 0 .8-.3.7-.3.7-.3-1.7 3.7-2.1 5.8c-.2.8-.3 1.5-.6 2 0 0 .5-.1.8-.4l.4-.3s-1.2 3.2-1 5.1c0 .1 1.5 1.1 2.8.8 0 0-.1.2-.8.4-.7.1-1 .5-1 .5.8 0 2.1.5 3.5.6 1.4.1 2.5-.1 2.5-.1s-.1.2-.6.4c-.6.3-1.2.3-1.2.3s.2.2.6.3c.5.1 1.6.1 2.9-.2 1.2-.3 2-.2 3.3-.3 1.2 0 1.5.9 2.1 1.6.2.2.5.4.8.5-.1-.6-.2-1.2-.2-1.8-.5-.5-.6-1.3-1.3-1.4"/><path d="M64.5 41.3l-.5-1c0 .1 0 .2.1.3.1.2.2.5.4.7"/><path d="M56.3 30.5v.1c-.1.3 0 .7.2.6.1-.1.2-.1.4-.2-.3-.2-.5-.4-.6-.5"/><path d="M59.1 40.8c-.9-2.1-1-4.8-.4-7.7l-.4-.6c-.7 3.2-.4 6.1.8 8.3"/><path d="M53.7 28.3c-.1-.1-.4-.1-.7-.1.3.2.6.4 1 .6 0-.2-.1-.4-.3-.5"/><path d="M41.3 42.9c-.2 0-.4 0-.6.1-.7.2-1.2.9-1.2 1.7 0 1 .8 1.8 1.8 1.8.4 0 .8-.1 1.1-.4.4-.3.7-.8.7-1.4 0-1-.8-1.8-1.8-1.8"/><path d="M51.8 48.5l-.3-.3-.1-.4-.2-.2v-.1h-.1v-.2l-1.4-1.4-.3-.3-1.6-1.6-.9-.8-.8-.7-1-.8-.2-.2-.3-.3-.4-.3-.2-.3v-5h-5.6v.4l.1.1v.30000000000000004l.1.1.1.1v.1l-.1.2v.2l.1.2-.3.7-.1.2v.4l.2.2.1.1v.1l.1.1.1.2v.1l.1.1v.9l.1.2.1.2-.1.2v.1l.1.1.1.1.1.1h.1l.1.1.1.2.1.1.2.1.1.2.1.1.2-.1c.3-.1.7-.2 1.1-.2 1.7 0 3.1 1.4 3.1 3.1 0 1-.5 1.9-1.2 2.5v.2l.1.1v.2l-.1.2v.1h.2l.1.1h1.1l.2.1.1.2h.1l.1.2.1.1.2.1h.5l.1.1.1.3v.1l.2.1v-.1h.2l.2.2.1.1h.1l.2.2.1.1.2.2.3.5v.30000000000000004l.1.1v.1l.1-.1.1.1v.1l-.1-.1.1.1v.1l1.3-.1 1.8-.2h.30000000000000004v-.1l.1-.1v-.2l-.1-.1h-.30000000000000004v-.30000000000000004l-.2-.4v-.2l.1-.1h.1l.1-.1v-.5l.1-.1v-.1l.4-.5z"/></g></svg>