<svg xmlns="http://www.w3.org/2000/svg" viewBox="0 0 800 163.5" enable-background="new 0 0 800 163.5"><g fill="#fff"><path d="M27.7 15.7c-1.3-4-4-7.2-8.9-7.2-6.3 0-9.8 5.8-9.8 17s3.1 17 10.3 17c4 0 6.7-1.3 9.4-7.2l8.5 2.2c-2.7 8.5-9.4 12.5-17.9 12.5-12.6.1-19.3-8.9-19.3-25 0-15.6 7.2-25 19.2-25 9.4 0 14.8 4 17 12.5l-8.5 3.2z"/><path d="M63.5 50.1l-.4-3.1c-3.1 2.2-6.7 3.6-10.7 3.6-6.3 0-9.4-4.5-9.4-9.4 0-8 6.3-12.1 20.1-13.9v-3.1c0-2.7-2.2-4-4.9-4-4 0-5.8 2.2-7.6 4.5l-5.4-4c2.2-3.6 8.1-6.7 13-6.3 9.4 0 13.4 3.6 13.4 13.9v16.5c0 1.8 0 3.6.9 4.9h-8.9l-.1.4zm-.9-17c-5.4.9-11.6 2.2-11.6 7.2 0 2.7 1.8 4 4 4 2.7 0 5.8-2.2 7.6-3.6v-7.6z"/><rect x="80.9" y="1.8" width="8.5" height="48.3"/><path d="M99.7.9h8.5v7.6h-8.5v-7.6zm8.5 49.2h-8.5v-34.9h8.5v34.9z"/><path d="M128.4 21.9v28.2h-8.5v-28.2h-4.9v-6.7h4.9v-4.5c0-7.6 3.1-9.8 9.8-9.8h5.4v6.7h-2.2c-3.6 0-4.5.9-4.5 3.6v3.6h7.2v6.7h-7.2v.4z"/><path d="M155.2 14.3c9.4 0 15.2 7.2 15.2 17.9s-5.8 17.9-15.2 17.9c-9.4 0-15.2-7.2-15.2-17.9s5.8-17.9 15.2-17.9m0 6.7c-4.5 0-6.7 3.6-6.7 11.2s2.2 11.2 6.7 11.2 6.7-3.6 6.7-11.2-2.2-11.2-6.7-11.2"/><path d="M177.6 50.1v-34.9h7.6v5.8c1.8-4 4.9-6.7 9.8-6.7v8.9h-1.3c-4 0-7.6 4.9-7.6 5.8v21l-8.5.1z"/><path d="M201.7 50.1v-34.9h7.6v3.6c3.1-2.2 6.7-4.5 10.7-4.5 7.2 0 10.3 4.5 10.3 11.6v23.7h-8.5v-22.8c0-4.5-1.3-6.3-4.5-6.3-3.6 0-6.3 2.2-7.6 3.6v25h-8.1v1z"/><path d="M240.6.9h8.5v7.6h-8.5v-7.6zm8.5 49.2h-8.5v-34.9h8.5v34.9z"/><path d="M277.3 50.1l-.4-3.1c-3.1 2.2-6.7 3.6-10.7 3.6-6.3 0-9.4-4.5-9.4-9.4 0-8 6.3-12.1 20.1-13.9v-3.1c0-2.7-2.2-4-4.9-4-4 0-5.8 2.2-7.6 4.5l-5.4-4c2.2-3.6 8-6.7 13-6.3 9.4 0 13.4 3.6 13.4 13.9v16.5c0 1.8 0 3.6.9 4.9h-8.9l-.1.4zm-.9-17c-5.4.9-11.6 2.2-11.6 7.2 0 2.7 1.8 4 4 4 2.7 0 5.8-2.2 7.6-3.6v-7.6z"/><path d="M342.1 14.3c-1.3-3.6-4.5-6.3-8.5-6.3s-6.7 1.8-6.7 5.4c0 8.5 25 6.7 25 22.4 0 9.8-6.3 14.8-17 14.8-8.1 0-15.2-4.5-17.9-11.6l7.6-3.1c2.2 4.5 4.9 7.6 10.7 7.6 4.5 0 8.1-1.8 8.1-6.3 0-9.4-25-7.6-25-22.4 0-8.5 7.2-13.4 15.7-13.4 7.6 0 14.3 4 17 10.7l-9 2.2z"/><path d="M360.9 15.2v-11.6h8.5v11.6h6.7v6.7h-6.7v19.7c0 1.8.9 2.2 3.1 2.2 1.3 0 2.7-.4 4-.9v6.7c-2.2.4-4.5.4-6.7.4-6.3 0-8.5-3.1-8.5-8v-20.5h-4.9v-6.7h4.5v.4z"/><path d="M402.5 50.1l-.4-3.1c-3.1 2.2-6.7 3.6-10.7 3.6-6.3 0-9.4-4.5-9.4-9.4 0-8 6.3-12.1 20.1-13.9v-3.1c0-2.7-2.2-4-4.9-4-4 0-5.8 2.2-7.6 4.5l-5.4-4c2.2-3.6 8-6.7 13-6.3 9.4 0 13.4 3.6 13.4 13.9v16.5c0 1.8 0 3.6.9 4.9h-8.9l-.1.4zm-.9-17c-5.4.9-11.6 2.2-11.6 7.2 0 2.7 1.8 4 4 4 2.7 0 5.8-2.2 7.6-3.6v-7.6z"/><path d="M420.8 15.2v-11.6h8.5v11.6h6.7v6.7h-6.7v19.7c0 1.8.9 2.2 3.1 2.2 1.3 0 2.7-.4 4-.9v6.7c-2.2.4-4.5.4-6.7.4-6.3 0-8.5-3.1-8.5-8v-20.5h-4.9v-6.7h4.5v.4z"/><path d="M449 34c0 7.2 3.1 9.8 7.2 9.8s5.8-1.8 7.6-4l5.8 3.6c-3.1 4.9-8 7.2-14.8 7.2-8.9 0-14.8-7.2-14.8-17.9 0-11.2 5.8-17.9 15.2-17.9 8.9 0 14.3 7.6 14.3 16.1v3.1h-20.5zm13.4-5.8c0-4.9-2.7-7.6-6.7-7.6s-6.7 2.7-6.7 7.6h13.4z"/><path d="M531.3 1.8h9.4v30.4c0 14.3-8.5 18.8-18.3 18.8s-18.8-4.5-18.8-18.8v-30.4h9.4v30.9c0 8.1 3.1 10.7 9.4 10.7 6.3 0 9.4-2.7 9.4-10.7v-30.9h-.5z"/><path d="M551.4 50.1v-34.9h7.6v3.6c3.1-2.2 6.7-4.5 10.7-4.5 7.2 0 10.3 4.5 10.3 11.6v23.7h-8.5v-22.8c0-4.5-1.3-6.3-4.5-6.3-3.6 0-6.3 2.2-7.6 3.6v25h-8.1l.1 1z"/><path d="M590.3.9h8.5v7.6h-8.5v-7.6zm8.1 49.2h-8.5v-34.9h8.5v34.9z"/><polygon points="605.6,15.2 613.6,15.2 619.4,38.9 619.4,38.9 625.7,15.2 633.7,15.2 623.9,50.1 614.9,50.1"/><path d="M645.4 34c0 7.2 3.1 9.8 7.2 9.8s5.8-1.8 7.6-4l5.8 3.6c-3.1 4.9-8 7.2-14.8 7.2-8.9 0-14.8-7.2-14.8-17.9 0-11.2 5.8-17.9 15.2-17.9 8.9 0 14.3 7.6 14.3 16.1v3.1h-20.5zm13.4-5.8c0-4.9-2.7-7.6-6.7-7.6s-6.7 2.7-6.7 7.6h13.4z"/><path d="M674.4 50.1v-34.9h7.6v5.8c2.2-4 4.9-6.7 9.8-6.7v8.9h-1.3c-4 0-7.6 4.9-7.6 5.8v21l-8.5.1z"/><path d="M716.5 24.2c-1.8-1.8-4-3.6-6.7-3.6-3.1 0-4.5 1.3-4.5 3.6 0 5.8 17.4 3.6 17.4 16.1 0 7.2-5.4 10.3-13 10.3-5.4 0-10.3-2.7-13.4-7.2l5.4-4c1.8 2.7 4.5 4.9 8.1 4.9 3.1 0 4.9-1.8 4.9-4 0-5.8-17.4-4-17.4-16.1 0-6.7 5.4-10.3 11.6-10.3 4.5 0 9.4 1.8 12.1 5.4l-4.5 4.9z"/><path d="M730.8.9h8.5v7.6h-8.5v-7.6zm8.5 49.2h-8.5v-34.9h8.5v34.9z"/><path d="M750.9 15.2v-11.6h8.5v11.6h6.7v6.7h-6.7v19.7c0 1.8.9 2.2 3.1 2.2 1.3 0 2.7-.4 4-.9v6.7c-2.2.4-4.5.4-6.7.4-6.3 0-8.5-3.1-8.5-8v-20.5h-4.9v-6.7h4.5v.4z"/><path d="M771 55.5c1.3.4 2.2.4 3.6.4 2.7 0 4.5-.9 5.4-2.7.9-1.8 1.3-2.7 1.3-4l-.9-4-9.4-30h8.5l5.8 21.5 5.8-21.5h8.5l-11.2 34.9c-3.6 9.8-6.7 12.5-13.4 12.5-2.2 0-3.1 0-4-.4v-6.7z"/><polygon points="2.2,161.9 2.2,85 22.8,85 37.6,138.6 37.6,138.6 52.3,85 73.3,85 73.3,161.9 60.4,161.9 60.4,101.5 60.4,101.5 42.9,161.9 32.2,161.9 15.2,101.5 14.8,101.5 14.8,161.9"/><path d="M120.8 162.8c-21 0-32.2-14.3-32.2-39.4s11.2-39.4 32.2-39.4c21 0 32.2 14.3 32.2 39.4 0 25.1-11.7 39.4-32.2 39.4m0-66.6c-12.1 0-17.4 8.9-17.4 27.3 0 17.9 5.4 27.3 17.4 27.3 12.1 0 17.4-8.9 17.4-27.3 0-18-5.4-27.3-17.4-27.3"/><polygon points="168.2,161.9 168.2,85 183.4,85 213.3,137.3 213.8,137.3 213.8,85 227.2,85 227.2,161.9 213.3,161.9 182,107.3 181.6,107.3 181.6,161.9"/><polygon points="295.2,85 295.2,97.5 275,97.5 275,161.9 260.7,161.9 260.7,97.5 240.6,97.5 240.6,85"/><polygon points="308.6,161.9 308.6,85 359.1,85 359.1,97.5 323.3,97.5 323.3,115.8 349.3,115.8 349.3,127.9 323.3,127.9 323.3,149.4 360.5,149.4 360.5,161.9"/><path d="M374.3 161.9v-76.9h30.4c17.4 0 24.6 10.3 24.6 22.8 0 9.4-4.5 17-13.9 19.7l17 34h-16.1l-14.3-31.3h-12.5v31.3h-15.2v.4zm14.8-43.4h10.7c11.6 0 14.8-3.6 14.8-10.7s-4.5-10.8-12.5-10.8h-13.4v21.5h.4z"/><polygon points="446.8,161.9 446.8,85 497.8,85 497.8,97.5 461.5,97.5 461.5,115.8 487.9,115.8 487.9,127.9 461.5,127.9 461.5,149.4 498.7,149.4 498.7,161.9"/><polygon points="537.1,115.4 550.1,85 565.3,85 544.3,131 544.3,161.9 529.5,161.9 529.5,131 508.5,85 523.7,85"/><path d="M616.7 85h28.6c15.2 0 25 4.9 25.9 18.8 0 8.1-3.1 14.3-11.6 17.4 9.8 4 13.4 8.5 13.4 20.1 0 12.1-8.5 20.1-27.7 20.1h-28.6v-76.4zm14.8 30.8h14.8c7.2 0 10.3-4 10.3-9.4s-3.6-9.4-10.3-9.4h-14.8v18.8zm0 34h14.8c8.5 0 12.1-4 12.1-11.2 0-7.2-3.6-11.2-12.1-11.2h-14.8v22.4z"/><path d="M704.4 85h18.3l21.9 76.9h-14.8l-4-16.5h-24.2l-4.5 16.5h-14.8l22.1-76.9zm.4 48.3h17.9l-8.5-33.5-9.4 33.5z"/><polygon points="771.9,115.4 784.9,85 800.1,85 779.1,131 779.1,161.9 764.8,161.9 764.8,131 743.3,85 758.5,85"/></g></svg>