<svg xmlns="http://www.w3.org/2000/svg" width="800" height="163.5"><g fill="#1F346B"><path d="M27.728 15.653c-1.342-4.025-4.025-7.155-8.945-7.155-6.261 0-9.839 5.813-9.839 16.995 0 11.181 3.131 16.995 10.287 16.995 4.025 0 6.708-1.342 9.392-7.155l8.498 2.236c-2.684 8.496-9.393 12.521-17.891 12.521-12.523 0-19.231-8.945-19.231-25.045 0-15.653 7.156-25.045 19.231-25.045 9.392 0 14.758 4.025 16.995 12.522l-8.497 3.131z"/><path d="M63.506 50.09l-.447-3.13c-3.13 2.236-6.708 3.578-10.733 3.578-6.261 0-9.392-4.473-9.392-9.392 0-8.05 6.261-12.075 20.125-13.864v-3.13c0-2.684-2.236-4.025-4.919-4.025-4.025 0-5.814 2.236-7.603 4.472l-5.367-4.025c2.236-3.578 8.051-6.708 12.97-6.262 9.392 0 13.417 3.578 13.417 13.864v16.548c0 1.789 0 3.578.895 4.919h-8.945v.447zm-.894-16.994c-5.367.895-11.628 2.236-11.628 7.156 0 2.683 1.789 4.025 4.025 4.025 2.684 0 5.814-2.236 7.603-3.578v-7.603z"/><rect x="80.948" y="1.79" width="8.498" height="48.301"/><path d="M99.732.895h8.498v7.604h-8.498v-7.604zm8.498 49.195h-8.498v-34.883h8.498v34.883z"/><path d="M128.355 21.915v28.175h-8.498v-28.175h-4.919v-6.708h4.919v-4.472c0-7.604 3.13-9.84 9.839-9.84h5.367v6.708h-2.236c-3.578 0-4.472.895-4.472 3.578v3.578h7.155v6.708h-7.155v.448z"/><path d="M155.189 14.312c9.392 0 15.206 7.156 15.206 17.89 0 10.733-5.814 17.889-15.206 17.889-9.393 0-15.206-7.156-15.206-17.889 0-10.735 5.814-17.89 15.206-17.89m0 6.708c-4.473 0-6.708 3.578-6.708 11.181s2.236 11.181 6.708 11.181c4.472 0 6.708-3.578 6.708-11.181s-2.235-11.181-6.708-11.181"/><path d="M177.551 50.09v-34.883h7.603v5.813c1.789-4.025 4.919-6.708 9.839-6.708v8.945h-1.341c-4.025 0-7.604 4.919-7.604 5.814v21.02h-8.497z"/><path d="M201.701 50.09v-34.883h7.604v3.578c3.13-2.236 6.708-4.473 10.733-4.473 7.156 0 10.286 4.473 10.286 11.628v23.704h-8.498v-22.81c0-4.472-1.341-6.261-4.472-6.261-3.578 0-6.261 2.236-7.603 3.578v25.045h-8.05v.894z"/><path d="M240.611.895h8.498v7.604h-8.498v-7.604zm8.497 49.195h-8.498v-34.883h8.498v34.883z"/><path d="M277.284 50.09l-.447-3.13c-3.13 2.236-6.708 3.578-10.733 3.578-6.262 0-9.392-4.473-9.392-9.392 0-8.05 6.262-12.075 20.125-13.864v-3.13c0-2.684-2.236-4.025-4.919-4.025-4.025 0-5.814 2.236-7.603 4.472l-5.367-4.025c2.236-3.578 8.05-6.708 12.97-6.262 9.392 0 13.417 3.578 13.417 13.864v16.548c0 1.789 0 3.578.895 4.919h-8.945v.447zm-.894-16.994c-5.367.895-11.628 2.236-11.628 7.156 0 2.683 1.789 4.025 4.025 4.025 2.684 0 5.814-2.236 7.604-3.578v-7.603z"/><path d="M342.132 14.312c-1.341-3.577-4.472-6.261-8.498-6.261-4.024 0-6.708 1.789-6.708 5.367 0 8.498 25.045 6.708 25.045 22.362 0 9.839-6.261 14.758-16.995 14.758-8.051 0-15.206-4.473-17.89-11.628l7.603-3.13c2.236 4.472 4.92 7.603 10.733 7.603 4.473 0 8.051-1.789 8.051-6.261 0-9.392-25.045-7.603-25.045-22.362 0-8.497 7.156-13.417 15.653-13.417 7.603 0 14.312 4.025 16.995 10.734l-8.944 2.235z"/><path d="M360.917 15.207v-11.629h8.497v11.628h6.708v6.708h-6.708v19.678c0 1.789.895 2.236 3.131 2.236 1.341 0 2.684-.447 4.025-.895v6.708c-2.236.447-4.473.447-6.708.447-6.262 0-8.498-3.13-8.498-8.05v-20.571h-4.919v-6.708h4.472v.448z"/><path d="M402.51 50.09l-.448-3.13c-3.13 2.236-6.708 3.578-10.733 3.578-6.261 0-9.392-4.473-9.392-9.392 0-8.05 6.261-12.075 20.125-13.864v-3.13c0-2.684-2.236-4.025-4.92-4.025-4.024 0-5.813 2.236-7.603 4.472l-5.367-4.025c2.236-3.578 8.05-6.708 12.969-6.262 9.393 0 13.417 3.578 13.417 13.864v16.548c0 1.789 0 3.578.896 4.919h-8.944v.447zm-.896-16.994c-5.367.895-11.627 2.236-11.627 7.156 0 2.683 1.789 4.025 4.024 4.025 2.684 0 5.814-2.236 7.603-3.578v-7.603z"/><path d="M420.846 15.207v-11.629h8.498v11.628h6.708v6.708h-6.708v19.678c0 1.789.894 2.236 3.13 2.236 1.342 0 2.683-.447 4.024-.895v6.708c-2.235.447-4.472.447-6.708.447-6.261 0-8.497-3.13-8.497-8.05v-20.571h-4.92v-6.708h4.473v.448z"/><path d="M449.021 33.99c0 7.155 3.132 9.839 7.156 9.839s5.813-1.789 7.604-4.025l5.813 3.578c-3.132 4.919-8.049 7.156-14.758 7.156-8.945 0-14.76-7.156-14.76-17.89 0-11.181 5.814-17.889 15.205-17.889 8.945 0 14.312 7.604 14.312 16.101v3.131h-20.572zm13.417-5.814c0-4.919-2.684-7.603-6.708-7.603-4.025 0-6.709 2.683-6.709 7.603h13.417z"/><path d="M531.312 1.79h9.392v30.412c0 14.312-8.496 18.784-18.337 18.784-9.838 0-18.782-4.473-18.782-18.784v-30.412h9.393v30.858c0 8.051 3.129 10.734 9.39 10.734 6.264 0 9.393-2.683 9.393-10.734v-30.858h-.449z"/><path d="M551.437 50.09v-34.883h7.604v3.578c3.131-2.236 6.708-4.473 10.732-4.473 7.156 0 10.288 4.473 10.288 11.628v23.704h-8.499v-22.81c0-4.472-1.341-6.261-4.473-6.261-3.577 0-6.261 2.236-7.602 3.578v25.045h-8.052v.894z"/><path d="M590.347.895h8.497v7.604h-8.497v-7.604zm8.049 49.195h-8.497v-34.883h8.497v34.883z"/><polygon points="605.553,15.207 613.604,15.207 619.417,38.91 619.417,38.91 625.678,15.207 633.729,15.207 623.89,50.09 614.944,50.09"/><path d="M645.355 33.99c0 7.155 3.132 9.839 7.156 9.839s5.815-1.789 7.604-4.025l5.813 3.578c-3.129 4.919-8.049 7.156-14.758 7.156-8.944 0-14.76-7.156-14.76-17.89 0-11.181 5.815-17.889 15.208-17.889 8.944 0 14.31 7.604 14.31 16.101v3.131h-20.573zm13.417-5.814c0-4.919-2.682-7.603-6.708-7.603-4.025 0-6.709 2.683-6.709 7.603h13.417z"/><path d="M674.426 50.09v-34.883h7.604v5.813c2.236-4.025 4.92-6.708 9.84-6.708v8.945h-1.343c-4.024 0-7.602 4.919-7.602 5.814v21.02h-8.499z"/><path d="M716.468 24.151c-1.791-1.789-4.027-3.578-6.709-3.578-3.132 0-4.472 1.342-4.472 3.578 0 5.813 17.441 3.577 17.441 16.1 0 7.156-5.368 10.286-12.97 10.286-5.367 0-10.287-2.684-13.417-7.156l5.365-4.025c1.789 2.684 4.473 4.92 8.052 4.92 3.13 0 4.918-1.789 4.918-4.025 0-5.814-17.441-4.025-17.441-16.1 0-6.709 5.367-10.287 11.628-10.287 4.473 0 9.393 1.789 12.076 5.366l-4.471 4.921z"/><path d="M730.777.895h8.497v7.604h-8.497v-7.604zm8.497 49.195h-8.497v-34.883h8.497v34.883z"/><path d="M750.903 15.207v-11.629h8.497v11.628h6.708v6.708h-6.708v19.678c0 1.789.895 2.236 3.131 2.236 1.341 0 2.685-.447 4.025-.895v6.708c-2.236.447-4.473.447-6.709.447-6.261 0-8.497-3.13-8.497-8.05v-20.571h-4.92v-6.708h4.473v.448z"/><path d="M771.028 55.458c1.343.447 2.236.447 3.579.447 2.682 0 4.473-.895 5.366-2.683.895-1.789 1.343-2.684 1.343-4.025l-.896-4.025-9.393-29.964h8.497l5.815 21.467 5.813-21.467h8.497l-11.178 34.882c-3.577 9.839-6.709 12.523-13.418 12.523-2.235 0-3.129 0-4.024-.447v-6.708z"/><polygon points="2.235,161.899 2.235,84.975 22.808,84.975 37.567,138.642 37.567,138.642 52.326,84.975 73.346,84.975 73.346,161.899 60.375,161.899 60.375,101.522 60.375,101.522 42.934,161.899 32.2,161.899 15.205,101.522 14.758,101.522 14.758,161.899"/><path d="M120.752 162.793c-21.02 0-32.201-14.312-32.201-39.357s11.181-39.356 32.201-39.356c21.021 0 32.201 14.312 32.201 39.356 0 25.046-11.628 39.357-32.201 39.357m0-66.638c-12.075 0-17.442 8.945-17.442 27.281 0 17.89 5.367 27.282 17.442 27.282 12.076 0 17.442-8.945 17.442-27.282 0-17.889-5.366-27.281-17.442-27.281"/><polygon points="168.159,161.899 168.159,84.975 183.365,84.975 213.33,137.301 213.777,137.301 213.777,84.975 227.194,84.975 227.194,161.899 213.33,161.899 182.023,107.336 181.576,107.336 181.576,161.899"/><polygon points="295.173,84.975 295.173,97.497 275.047,97.497 275.047,161.899 260.736,161.899 260.736,97.497 240.611,97.497 240.611,84.975"/><polygon points="308.59,161.899 308.59,84.975 359.127,84.975 359.127,97.497 323.349,97.497 323.349,115.834 349.288,115.834 349.288,127.909 323.349,127.909 323.349,149.376 360.469,149.376 360.469,161.899"/><path d="M374.333 161.899v-76.924h30.413c17.441 0 24.598 10.286 24.598 22.809 0 9.392-4.473 16.995-13.865 19.678l16.995 33.99h-16.101l-14.312-31.307h-12.522v31.307h-15.206v.447zm14.759-43.382h10.734c11.628 0 14.759-3.577 14.759-10.733s-4.473-10.734-12.523-10.734h-13.417v21.467h.447z"/><polygon points="446.785,161.899 446.785,84.975 497.769,84.975 497.769,97.497 461.545,97.497 461.545,115.834 487.931,115.834 487.931,127.909 461.545,127.909 461.545,149.376 498.664,149.376 498.664,161.899"/><polygon points="537.127,115.386 550.096,84.975 565.302,84.975 544.283,131.04 544.283,161.899 529.522,161.899 529.522,131.04 508.504,84.975 523.71,84.975"/><path d="M616.733 84.975h28.622c15.208 0 25.046 4.919 25.941 18.784 0 8.05-3.132 14.312-11.629 17.442 9.84 4.024 13.417 8.497 13.417 20.125 0 12.075-8.497 20.125-27.729 20.125h-28.622v-76.476zm14.76 30.859h14.758c7.156 0 10.285-4.026 10.285-9.393 0-5.366-3.577-9.392-10.285-9.392h-14.758v18.785zm0 33.989h14.758c8.497 0 12.076-4.024 12.076-11.181 0-7.155-3.579-11.181-12.076-11.181h-14.758v22.362z"/><path d="M704.392 84.975h18.337l21.914 76.924h-14.758l-4.027-16.548h-24.15l-4.472 16.548h-14.758l21.914-76.924zm.447 48.3h17.89l-8.497-33.542-9.393 33.542z"/><polygon points="771.924,115.386 784.894,84.975 800.099,84.975 779.08,131.04 779.08,161.899 764.768,161.899 764.768,131.04 743.302,84.975 758.507,84.975"/></g></svg>