<svg xmlns="http://www.w3.org/2000/svg" width="425" height="100"><g fill="#fff"><path d="M103.618 27.61c-.305-.927-.958-1.582-1.993-1.582-1.399 0-2.252 1.308-2.252 3.879-.03 2.571.731 3.879 2.312 3.879.944 0 1.521-.335 2.145-1.627l1.947.518c-.655 1.901-2.084 2.875-4.092 2.875-2.799 0-4.411-2.053-4.411-5.644s1.612-5.645 4.411-5.645c2.099 0 3.317.944 3.834 2.892l-1.901.455z"/><path d="M111.77 35.398l-.121-.685c-.761.518-1.477.837-2.464.837-1.43 0-2.146-1.019-2.146-2.099 0-1.795 1.46-2.739 4.534-3.103v-.669c0-.608-.487-.944-1.157-.944-.881 0-1.369.472-1.733.974l-1.216-.927c.487-.839 1.794-1.478 2.95-1.446 2.131.046 3.043.821 3.043 3.194v3.728c0 .395.03.792.152 1.14h-1.842zm-.198-3.788c-1.264.242-2.647.502-2.647 1.612 0 .593.38.928.913.928.594 0 1.338-.502 1.734-.837v-1.703z"/><rect x="115.728" y="24.415" width="1.887" height="10.983"/><path d="M120.019 24.264h1.886v1.766h-1.886v-1.766zm1.886 11.134h-1.886v-7.91h1.886v7.91z"/><path d="M126.487 29.009v6.389h-1.886v-6.389h-1.096v-1.521h1.081v-.974c0-1.705.685-2.252 2.236-2.252h1.248v1.521h-.519c-.79 0-1.064.244-1.064.853v.852h1.597v1.521h-1.597z"/><path d="M132.545 27.336c2.144 0 3.438 1.597 3.438 4.107s-1.293 4.107-3.438 4.107-3.438-1.597-3.438-4.107 1.294-4.107 3.438-4.107m0 1.521c-1.05 0-1.552.821-1.552 2.586s.501 2.586 1.552 2.586c1.049 0 1.552-.821 1.552-2.586s-.503-2.586-1.552-2.586"/><path d="M137.672 35.398v-7.91h1.734v1.354h.029c.457-.944 1.095-1.476 2.222-1.506v1.993l-.335-.015c-.943 0-1.765 1.08-1.765 1.277v4.807h-1.885z"/><path d="M143.167 35.398v-7.91h1.734v.853c.698-.488 1.506-1.005 2.433-1.005 1.583 0 2.343 1.034 2.343 2.646v5.416h-1.886v-5.142c0-1.066-.334-1.399-.975-1.399-.82 0-1.444.472-1.764.837v5.704h-1.885z"/><path d="M151.993 24.264h1.887v1.766h-1.887v-1.766zm1.887 11.134h-1.887v-7.91h1.887v7.91z"/><path d="M160.316 35.398l-.122-.685c-.76.518-1.477.837-2.465.837-1.429 0-2.146-1.019-2.146-2.099 0-1.795 1.462-2.739 4.534-3.103v-.669c0-.608-.487-.944-1.156-.944-.882 0-1.369.472-1.734.974l-1.218-.927c.487-.839 1.796-1.478 2.952-1.446 2.129.046 3.042.821 3.042 3.194v3.728c0 .395.031.792.153 1.14h-1.84zm-.198-3.788c-1.262.242-2.647.502-2.647 1.612 0 .593.38.928.913.928.593 0 1.337-.502 1.734-.837v-1.703z"/><path d="M175.034 27.336c-.32-.852-.974-1.431-1.962-1.431-.913 0-1.567.365-1.567 1.218 0 1.886 5.658 1.491 5.658 5.049 0 2.252-1.416 3.379-3.849 3.379-1.796 0-3.483-1.004-4.107-2.602l1.734-.761c.502 1.035 1.157 1.719 2.388 1.719 1.05 0 1.857-.396 1.857-1.461 0-2.159-5.66-1.734-5.66-5.11 0-1.962 1.643-3.073 3.545-3.073 1.764 0 3.224.881 3.878 2.48l-1.915.593z"/><path d="M179.329 27.488v-2.617h1.887v2.617h1.551v1.521h-1.551v4.474c0 .425.212.547.684.547.29 0 .593-.092.867-.152v1.552c-.517.062-.974.121-1.49.121-1.399 0-1.947-.699-1.947-1.825v-4.716h-1.096v-1.521h1.095z"/><path d="M188.718 35.398l-.123-.685c-.761.518-1.477.837-2.464.837-1.431 0-2.145-1.019-2.145-2.099 0-1.795 1.46-2.739 4.533-3.103v-.669c0-.608-.487-.944-1.155-.944-.883 0-1.37.472-1.736.974l-1.216-.927c.487-.839 1.795-1.478 2.952-1.446 2.129.046 3.042.821 3.042 3.194v3.728c0 .395.03.792.152 1.14h-1.84zm-.198-3.788c-1.262.242-2.647.502-2.647 1.612 0 .593.38.928.913.928.593 0 1.338-.502 1.734-.837v-1.703z"/><path d="M192.896 27.488v-2.617h1.885v2.617h1.552v1.521h-1.552v4.474c0 .425.213.547.685.547.289 0 .593-.092.867-.152v1.552c-.516.062-.974.121-1.49.121-1.4 0-1.947-.699-1.947-1.825v-4.716h-1.096v-1.521h1.096z"/><path d="M199.288 31.747c.029 1.645.76 2.284 1.641 2.284.883 0 1.294-.397 1.766-.944l1.369.851c-.73 1.126-1.794 1.613-3.316 1.613-2.054 0-3.347-1.598-3.347-4.107 0-2.511 1.293-4.108 3.438-4.108 2.07-.014 3.225 1.734 3.225 3.637v.774h-4.776zm3.042-1.277c-.031-1.094-.608-1.734-1.521-1.734-.913 0-1.492.64-1.521 1.734h3.042z"/><path d="M217.991 24.415h2.099v6.876c0 3.209-1.977 4.259-4.213 4.259s-4.213-1.05-4.213-4.259v-6.876h2.098v6.968c0 1.779.7 2.403 2.115 2.403s2.114-.624 2.114-2.403v-6.968z"/><path d="M222.509 35.398v-7.91h1.734v.853c.7-.488 1.506-1.005 2.434-1.005 1.582 0 2.343 1.034 2.343 2.646v5.416h-1.887v-5.142c0-1.066-.334-1.399-.974-1.399-.821 0-1.444.472-1.764.837v5.704h-1.886z"/><path d="M231.331 24.264h1.885v1.766h-1.885v-1.766zm1.887 11.134h-1.886v-7.91h1.886v7.91z"/><polygon points="234.779,27.488 236.666,27.488 237.974,32.844 238.004,32.844 239.343,27.488 241.229,27.488 238.962,35.398 236.985,35.398"/><path d="M243.887 31.747c.03 1.645.761 2.284 1.642 2.284.883 0 1.294-.397 1.767-.944l1.368.851c-.73 1.126-1.795 1.613-3.315 1.613-2.054 0-3.347-1.598-3.347-4.107 0-2.511 1.293-4.108 3.437-4.108 2.07-.014 3.226 1.734 3.226 3.637v.774h-4.778zm3.043-1.277c-.031-1.094-.608-1.734-1.521-1.734s-1.491.64-1.521 1.734h3.042z"/><path d="M250.459 35.398v-7.91h1.734v1.354h.03c.457-.944 1.096-1.476 2.221-1.506v1.993l-.335-.015c-.942 0-1.764 1.08-1.764 1.277v4.807h-1.886z"/><path d="M259.984 29.572c-.38-.41-.882-.836-1.475-.836-.731 0-1.065.303-1.065.775 0 1.354 3.955.776 3.955 3.666 0 1.643-1.247 2.374-2.904 2.374-1.264 0-2.298-.563-2.998-1.598l1.264-.942c.44.607 1.034 1.14 1.841 1.14.669 0 1.124-.365 1.124-.898 0-1.353-3.955-.866-3.955-3.62 0-1.475 1.248-2.297 2.617-2.297 1.05 0 2.1.396 2.784 1.203l-1.188 1.033z"/><path d="M263.261 24.264h1.886v1.766h-1.886v-1.766zm1.886 11.134h-1.885v-7.91h1.885v7.91z"/><path d="M267.82 27.488v-2.617h1.885v2.617h1.551v1.521h-1.551v4.474c0 .425.213.547.684.547.29 0 .595-.092.867-.152v1.552c-.516.062-.974.121-1.488.121-1.4 0-1.947-.699-1.947-1.825v-4.716h-1.098v-1.521h1.097z"/><path d="M272.423 36.677c.29.061.518.061.79.061.656 0 1.021-.184 1.249-.624.183-.381.305-.609.305-.928 0-.288-.154-.623-.243-.943l-2.115-6.754h1.902l1.308 4.869h.03l1.353-4.869h1.888l-2.495 7.925c-.837 2.267-1.506 2.875-3.057 2.875-.458 0-.687-.03-.914-.061v-1.551z"/><polygon points="97.806,60.767 97.806,43.369 102.481,43.369 105.83,55.513 105.878,55.513 109.252,43.369 113.976,43.369 113.976,60.767 111.084,60.767 111.084,47.08 111.036,47.08 107.131,60.767 104.601,60.767 100.746,47.08 100.698,47.08 100.698,60.767"/><path d="M124.725 61.008c-4.748 0-7.3-3.254-7.3-8.94 0-5.688 2.553-8.94 7.3-8.94s7.301 3.252 7.301 8.94c0 5.686-2.554 8.94-7.301 8.94m0-15.085c-2.723 0-3.977 2.072-3.977 6.144-.048 4.072 1.229 6.145 3.977 6.145 2.722 0 3.975-2.072 3.975-6.145 0-4.071-1.253-6.144-3.975-6.144"/><polygon points="135.473,60.767 135.473,43.369 138.943,43.369 145.786,55.225 145.834,55.225 145.834,43.369 148.967,43.369 148.967,60.767 145.763,60.767 138.654,48.38 138.606,48.38 138.606,60.767"/><polygon points="164.386,43.344 164.386,46.14 159.832,46.14 159.832,60.767 156.507,60.767 156.507,46.14 151.953,46.14 151.953,43.344"/><polygon points="167.395,60.767 167.395,43.369 178.913,43.369 178.913,46.163 170.721,46.163 170.721,50.309 176.671,50.309 176.671,53.104 170.721,53.104 170.721,57.971 179.178,57.971 179.178,60.767"/><path d="M182.34 60.767v-17.398h6.94c3.951 0 5.542 2.29 5.566 5.157.023 2.144-1.06 3.879-3.182 4.48l3.833 7.76h-3.688l-3.276-7.084h-2.867v7.084h-3.326zm3.327-9.784h2.456c2.604 0 3.399-.819 3.399-2.457 0-1.639-.988-2.458-2.819-2.458h-3.036v4.915z"/><polygon points="198.791,60.767 198.791,43.369 210.31,43.369 210.31,46.163 202.117,46.163 202.117,50.309 208.069,50.309 208.069,53.104 202.117,53.104 202.117,57.971 210.575,57.971 210.575,60.767"/><polygon points="219.239,50.26 222.227,43.369 225.696,43.369 220.901,53.827 220.901,60.767 217.577,60.767 217.577,53.827 212.782,43.369 216.253,43.369"/><path d="M237.337 43.369h6.459c3.469 0 5.71 1.157 5.903 4.264 0 1.808-.747 3.205-2.651 3.952 2.266.917 3.036 1.952 3.036 4.604 0 2.697-1.903 4.578-6.337 4.578h-6.41v-17.398zm3.326 6.94h3.324c1.591 0 2.386-.916 2.386-2.121 0-1.203-.795-2.119-2.386-2.119h-3.324v4.24zm0 7.758h3.324c1.929 0 2.772-.867 2.772-2.529 0-1.664-.844-2.531-2.772-2.531h-3.324v5.06z"/><path d="M257.262 43.345h4.144l4.94 17.421h-3.302l-.962-3.76h-5.495l-1.035 3.76h-3.301l5.011-17.421zm.049 10.916h4.048l-1.952-7.567h-.047l-2.049 7.567z"/><polygon points="272.579,50.26 275.566,43.369 279.037,43.369 274.241,53.827 274.241,60.767 270.917,60.767 270.917,53.827 266.122,43.369 269.591,43.369"/><polygon points="97.939,74.355 97.939,66.572 103.091,66.572 103.091,67.823 99.427,67.823 99.427,69.677 102.089,69.677 102.089,70.927 99.427,70.927 99.427,73.104 103.211,73.104 103.211,74.355"/><polygon points="105.792,71.444 104.207,68.749 105.685,68.749 106.471,70.303 107.269,68.749 108.714,68.749 107.14,71.444 108.843,74.355 107.42,74.355 106.482,72.609 105.577,74.355 104.144,74.355"/><path d="M110.304 68.749v-1.854h1.337v1.854h1.099v1.079h-1.099v3.169c0 .302.15.389.485.389.205 0 .42-.065.614-.107v1.099c-.367.043-.69.086-1.057.086-.992 0-1.38-.495-1.38-1.293v-3.342h-.776v-1.079h.777z"/><path d="M113.899 74.355v-5.606h1.229v.96h.021c.324-.669.776-1.045 1.574-1.067v1.412l-.237-.01c-.668 0-1.25.766-1.25.905v3.406h-1.337z"/><path d="M120.771 74.355l-.087-.485c-.538.366-1.045.593-1.746.593-1.013 0-1.521-.722-1.521-1.487 0-1.272 1.036-1.94 3.213-2.198v-.475c0-.431-.345-.669-.819-.669-.625 0-.971.334-1.229.691l-.861-.659c.345-.594 1.271-1.046 2.09-1.024 1.509.032 2.156.582 2.156 2.265v2.641c0 .281.021.561.108.809h-1.304zm-.141-2.684c-.895.173-1.876.356-1.876 1.143 0 .421.27.657.646.657.421 0 .949-.355 1.229-.592v-1.208z"/><path d="M125.607 68.642c1.519 0 2.435 1.132 2.435 2.911 0 1.778-.916 2.91-2.435 2.91-1.521 0-2.437-1.132-2.437-2.91.001-1.78.916-2.911 2.437-2.911m0 1.079c-.743 0-1.1.582-1.1 1.832 0 1.251.357 1.833 1.1 1.833s1.1-.582 1.1-1.833c0-1.25-.356-1.832-1.1-1.832"/><path d="M129.263 74.355v-5.606h1.229v.96h.021c.323-.669.777-1.045 1.574-1.067v1.412l-.238-.01c-.667 0-1.25.766-1.25.905v3.406h-1.336z"/><path d="M137.863 74.355h-1.132l-.064-.604c-.476.464-.917.711-1.521.711-1.488 0-2.242-1.315-2.242-3.062 0-1.38.798-2.76 2.242-2.76.453 0 1.09.271 1.357.626h.022v-2.695h1.338v7.784zm-1.338-4.16c-.269-.249-.604-.475-1.033-.475-.8 0-1.252.646-1.252 1.832 0 1.187.452 1.833 1.252 1.833.57 0 .753-.281 1.033-.497v-2.693z"/><path d="M139.54 66.464h1.338v1.251h-1.338v-1.251zm1.337 7.891h-1.338v-5.606h1.338v5.606z"/><path d="M142.547 74.355v-5.606h1.229v.604c.496-.346 1.068-.712 1.724-.712 1.123 0 1.661.733 1.661 1.877v3.837h-1.339v-3.645c0-.754-.235-.99-.688-.99-.583 0-1.024.333-1.25.591v4.044h-1.337z"/><path d="M151.656 74.355l-.088-.485c-.538.366-1.045.593-1.745.593-1.013 0-1.521-.722-1.521-1.487 0-1.272 1.035-1.94 3.213-2.198v-.475c0-.431-.346-.669-.82-.669-.625 0-.97.334-1.229.691l-.861-.659c.344-.594 1.271-1.046 2.09-1.024 1.51.032 2.156.582 2.156 2.265v2.641c0 .281.022.561.108.809h-1.303zm-.141-2.684c-.894.173-1.876.356-1.876 1.143 0 .421.271.657.648.657.421 0 .949-.355 1.229-.592v-1.208z"/><path d="M154.373 74.355v-5.606h1.229v.96h.022c.323-.669.775-1.045 1.573-1.067v1.412l-.236-.01c-.669 0-1.251.766-1.251.905v3.406h-1.337z"/><path d="M157.993 75.261c.205.044.367.044.562.044.463 0 .722-.131.883-.442.13-.271.216-.432.216-.658 0-.204-.108-.441-.172-.667l-1.499-4.788h1.348l.928 3.45h.021l.96-3.45h1.336l-1.768 5.617c-.593 1.605-1.068 2.038-2.167 2.038-.324 0-.484-.022-.647-.043v-1.101z"/><path d="M170.089 74.463c-2.123 0-3.266-1.455-3.266-3.999s1.143-4 3.266-4c2.125 0 3.267 1.456 3.267 4s-1.143 3.999-3.267 3.999m0-6.748c-1.218 0-1.779.927-1.779 2.749-.021 1.823.55 2.748 1.779 2.748 1.219 0 1.779-.925 1.779-2.748 0-1.822-.56-2.749-1.779-2.749"/><path d="M174.736 68.749h1.283v.519c.388-.377.83-.626 1.433-.626 1.488 0 2.241 1.315 2.241 3.062 0 1.38-.796 2.76-2.241 2.76-.453 0-1.09-.27-1.357-.626h-.022v2.567h-1.336v-7.656zm1.337 4.162c.27.248.604.475 1.036.475.798 0 1.25-.646 1.25-1.833 0-1.186-.452-1.832-1.25-1.832-.572 0-.755.279-1.036.495v2.695z"/><path d="M181.006 68.749h1.283v.519c.388-.377.83-.626 1.433-.626 1.488 0 2.242 1.315 2.242 3.062 0 1.38-.798 2.76-2.242 2.76-.452 0-1.09-.27-1.357-.626h-.022v2.567h-1.336v-7.656zm1.337 4.162c.27.248.604.475 1.036.475.798 0 1.25-.646 1.25-1.833 0-1.186-.452-1.832-1.25-1.832-.572 0-.755.279-1.036.495v2.695z"/><path d="M189.375 68.642c1.52 0 2.437 1.132 2.437 2.911 0 1.778-.917 2.91-2.437 2.91-1.52 0-2.437-1.132-2.437-2.91 0-1.78.917-2.911 2.437-2.911m0 1.079c-.745 0-1.1.582-1.1 1.832 0 1.251.355 1.833 1.1 1.833.743 0 1.099-.582 1.099-1.833 0-1.25-.356-1.832-1.099-1.832"/><path d="M193.03 74.355v-5.606h1.23v.96h.021c.323-.669.776-1.045 1.574-1.067v1.412l-.238-.01c-.667 0-1.25.766-1.25.905v3.406h-1.337z"/><path d="M197.434 68.749v-1.854h1.336v1.854h1.1v1.079h-1.1v3.169c0 .302.151.389.487.389.203 0 .419-.065.613-.107v1.099c-.367.043-.69.086-1.057.086-.992 0-1.38-.495-1.38-1.293v-3.342h-.777v-1.079h.778z"/><path d="M205.628 68.749v5.606h-1.228v-.604c-.497.345-1.068.711-1.726.711-1.121 0-1.66-.732-1.66-1.875v-3.839h1.336v3.645c0 .754.238.992.69.992.582 0 1.024-.335 1.251-.592v-4.045h1.337z"/><path d="M207.238 74.355v-5.606h1.229v.604c.496-.346 1.068-.712 1.726-.712 1.121 0 1.66.733 1.66 1.877v3.837h-1.336v-3.645c0-.754-.238-.99-.69-.99-.582 0-1.024.333-1.251.591v4.044h-1.338z"/><path d="M213.526 66.464h1.337v1.251h-1.337v-1.251zm1.337 7.891h-1.337v-5.606h1.337v5.606z"/><path d="M216.791 68.749v-1.854h1.337v1.854h1.1v1.079h-1.1v3.169c0 .302.151.389.485.389.204 0 .42-.065.614-.107v1.099c-.366.043-.689.086-1.057.086-.992 0-1.38-.495-1.38-1.293v-3.342h-.776v-1.079h.777z"/><path d="M220.07 75.261c.204.044.366.044.561.044.464 0 .723-.131.884-.442.13-.271.215-.432.215-.658 0-.204-.107-.441-.172-.667l-1.499-4.788h1.348l.928 3.45h.021l.96-3.45h1.337l-1.768 5.617c-.594 1.605-1.068 2.038-2.168 2.038-.323 0-.484-.022-.646-.043v-1.101z"/><path d="M49.896 41.554c-8.395 0-15.203 6.805-15.203 15.202 0 8.4 6.808 15.208 15.203 15.208 8.399 0 15.206-6.808 15.206-15.208-.001-8.398-6.807-15.202-15.206-15.202m.069 27.46c-6.812 0-12.33-5.518-12.33-12.33 0-6.804 5.518-12.325 12.33-12.325 6.808 0 12.327 5.521 12.327 12.325 0 6.812-5.519 12.33-12.327 12.33"/><path d="M15.412 54.709s.679.845 2.791.409c1.007-.206 1.523.037 1.707.141.184.11.225.198.207.283-.027.158-.157.462-.368.639 0 0 1.032.3 1.952.148.925-.156 1.997-.166 2.145-.195.15-.023.418.039.307.317-.116.267-.359.653-.359.653s.782-.144 2.225-.394c.613-.109 1.532-.166 2.406.007.868.185.868 1.433 2.13 1.799 1.258.382 1.218-2.665 1.241-3.498.025-.822.291-1.226.949-1.733 1.008-.786.764-1.997.66-2.847-.106-.854 1.556-1.693 2.008-2.689.443-1.011.077-2.05-.116-2.458-.195-.409.125-.736.358-.973.544-.541 1.393-2.034 1.023-2.568-.364-.536-2.414.046-4.551 1.992-2.145 1.946-3.686 4.22-4.268 5.267-.071.119-.158-.14-.02-.49.138-.359 1.331-3.325 3.718-5.671 2.39-2.348 4.673-3.205 6.433-2.791 1.762.407 1.388 1.863 1.089 2.671-.296.795-1.205 1.365-1.396 2.296-.19.932.082 1.632.164 2.513.081.884-.168 1.479-1.043 2.408-.357.383-1.123 1.228-1.078 1.648.012.102.277.597-.249 2.066-.528 1.466-1.719 1.823-1.77 2.234-.048.424-.043 2.331-1.221 3.494-1.176 1.162-2.598.754-3.209.031-.618-.72-.884-1.647-2.15-1.604-1.268.053-2.049.03-3.3.293-1.26.265-2.46.319-2.928.21-.474-.111-.646-.272-.646-.272s.583-.079 1.221-.337c.488-.193.587-.371.587-.371s-1.193.173-2.585.089c-1.392-.089-2.741-.59-3.559-.597 0 0 .321-.357 1.027-.501.714-.141.769-.392.769-.392-1.377.238-2.871-.738-2.883-.84-.21-1.92.874-5.416.874-5.416s-.069.02-.454.3c-.388.283-.863.39-.863.39.215-.477.391-1.123.561-1.98.439-2.165 2.131-5.878 2.131-5.878s-.294.007-.667.268c-.375.254-.78.281-.78.281s.058-.349.375-1.054c.321-.708.824-1.553 1.508-2.382.691-.831 1.089-1.546 1.089-1.546s-.171-.122-.662 0c-.481.113-.911.33-.911.33s.296-.568 1.357-1.801c1.064-1.234 2.533-2.368 2.533-2.368s-.34.162-.76.133c-.315-.02-.68.057-.68.057s.295-.336 1.582-1.208c1.287-.864 2.694-1.558 2.694-1.558s-.287-.046-.692.002c-.398.049-.81.151-.81.151s1.029-.803 3.416-1.6c3.081-1.016 4.253-.74 4.253-.74s-.965.108-1.987.566c-1.026.453-1.342.698-1.342.698s.438.308.466.364c.037.058.106.179-.076.233-.192.055-.99.165-2.017.615-1.031.455-1.385.795-1.385.795l.426.171c.167.086.157.201-.009.366-.075.075-.529.452-1.678 1.367-1.143.931-1.546 1.55-1.546 1.55l.684.024c.111.014.209.061.074.236-.13.169-1.036 1.076-1.675 1.953-.652.866-1.1 1.659-1.1 1.659s1.125-.291.929.438c-.117.433-.458 1.297-1.62 3.551-1.158 2.26-1.699 3.704-1.699 3.704s1.053-.092 1.143-.069c.086.021.236.146.171.297-.064.151-.963 1.442-1.681 3.94-.481 1.662-.59 2.774-.59 2.774"/><path d="M79.053 60.28s-.491-.091-.77-.111c-.281-.018-.302.516-.281.796.14 1.796-.076 4.062-.116 4.233-.046.168-.824-.303-.992-.361-.175-.07-.299.089-.326.274-.306 2.854-1.667 6.005-1.667 6.005s-.233-.45-.301-.627c-.067-.168-.24-.168-.348-.064-.575.583-1.131 1.854-1.472 3.055-.346 1.207-1.092 2.171-1.092 2.171-.131-.08-.156-.791-.243-.984-.083-.194-.321-.108-.384.045-.067.148-.448.991-1.329 2.795-.88 1.811-1.525 3.358-2.786 3.487-.869.09-1.297-2.47-1.297-2.47s-.323.216-.488.627c-.18.406-.195.899-.195.899-.953-2.661-.548-4.66-.502-4.897.045-.233-.106-.35-.261-.259-.15.083-.515.393-.515.393-.089-.393-.275-.946-.579-1.486-.305-.535-1.121-.283-1.699-.233-.476.035-.733-.47-.348-1.588.387-1.125 1.88-1.727 2.508-2.091.605-.35.106-.904.321-1.596.369-1.177 2.108-1.701 2.347-2.107.185-.325-.201-1.006.058-1.915.256-.902 2.019-2.027 2.019-2.027-.175-1.649.012-3.363.723-4.337.705-.969 2.038-.112 2.433 2.536.553 3.748-1.021 6.272-1.775 7.845-.751 1.572-1.052 1.639-.958 1.723.088.085.471.04 1.115-.859.642-.909 3.386-4.61 2.825-8.757-.569-4.147-2.785-5.176-4.504-4.273-1.716.91-1.991 2.541-1.584 5.571 0 0-.984.78-1.354 1.444-.359.666-.184 1.932-.421 2.105-.233.174-1.05.604-1.65 1.446-.6.838-.496 1.91-.922 2.124-.43.223-1.786.802-2.361 2.628-.577 1.826.004 3.292.865 3.094.856-.19 2.148-.282 2.085 1.031-.062 1.308-.165 2.774.03 3.872 0 0 .337-1.016.622-1.509 0 0 .908 4.551 2.629 6.272 0 0-.025-.629-.174-1.36-.149-.723.062-1.07.062-1.07s.194.751 1.079.701c1.653-.074 3.471-3.869 3.471-3.869-.079.901.178 1.269.178 1.269 1.567-1.722 2.571-4.264 2.977-5.572.408-1.307.88-1.935.88-1.935s.193.132.174.622c-.025.493.153.988.153.988 1.945-4.325 2.42-7.657 2.42-7.657s.228.111.358.602c.13.498.496.925.496.925 1.137-3.788.872-6.06.872-6.06s.194.057.561.339c.363.28.688.798.688.798.105-1.789-.245-3.074-.563-4.388-.328-1.311-.735-2.792-.735-2.792.636.016 1.096.493 1.096.493-1.109-4.407-2.267-6.099-2.267-6.099l.472.06c.277.044.666.245.666.245-1.141-2.591-2.781-4.173-2.781-4.173.264-.153.97 0 .97 0-1.896-3.372-5.926-4.534-5.926-4.534s2.342 1.363 3.495 2.96c.109.154-.195.346-.449.346-.256 0-.325.213-.215.392.109.168 1.729 1.863 2.283 3.09.111.237-.836.024-.64.495.189.471 1.704 2.885 2.131 4.624 0 0-1.309-.295-1.158.129.147.432 1.291 2.531 2.366 6.511"/><path d="M54.004 14.508s-1.315-.069-3.111.164c-1.793.243-2.485.473-3.186.548-.696.077-.919.063-.919.063s.421.467.956.489c.471.016.865.048 1.165.162 0 0-.791.127-2.376.663-1.979.683-2.059.806-4.086 1.445 0 0 .55.296 1.034.313.447.006.742.198.742.198s-1.419.298-3.009.908c-1.595.625-1.94 1.01-2.757 1.041 0 0 .408.236.98.288.379.033.791.115.791.115s-.637.304-2.097 1.108c-1.471.813-1.9 1.014-2.804 1.268 0 0 .58.356 1.131.404l.544.046s-.905.587-2.361 1.295c-1.458.697-1.663.854-2.166 1.282 0 0 .664.055 1.061.184l.388.144s-.946.458-2.221 1.332c-1.349.934-1.738 1.534-1.738 1.534s2.864-1.76 5.319-2.433c.216-.06.354-.279.114-.53-.122-.125-.668-.542-.668-.542s.159-.104 1.772-.875c1.613-.773 2.415-1.129 2.628-1.219.206-.099.035-.333-.111-.413-.147-.085-.738-.391-.738-.391s.328-.179 1.065-.515c1.29-.584 3.218-1.237 3.38-1.307.157-.068.166-.231.032-.353l-.624-.483s.494-.295 1.51-.557c1.012-.264 1.919-.568 2.313-.734.333-.133.472-.328.386-.585-.057-.189-.303-.535-.303-.535s.551-.25 1.263-.478c.969-.303 1.668-.398 2.547-.62.884-.231 1.022-.334 1.035-.512.005-.308-.195-.593-.195-.593s.069-.054 1.151-.152c1.084-.095 1.995-.118 2.712-.095.713.021 1.117.086 1.417.007.295-.095.413-.745.413-.745s.829-.113 2.043.191c1.207.313 1.75.494 2.025.581.282.085.474-.002.54-.268.069-.255.167-.538.167-.538s.824-.007 2.104.553c1.364.617 2.042 1.141 2.298 1.317.194.128.345-.046.511-.202.163-.158.307-.355.307-.355s.102-.037.476.052c.364.098.979.425 1.567.812.579.398.699.697 1.169.869.201.067.395-.299.535-.628.137-.338.302-.458.302-.458s.183.025.726.332c.551.295 1.103.687 1.476 1.074.04.043.109.01.127-.035.011-.048.039-.518-.285-.923-.549-.669-1.565-1.553-2.452-2.146-.884-.584-1.257-.799-1.419-.983l-.118-.179s-.053.354.174.861c.269.577.234.954.234.954s-.957-.731-2.175-1.25c-1.146-.487-1.473-.749-1.981-1.031-.564-.306-.698-.43-.698-.43s.037.596.272.97c.241.378.241.563.241.563s-1.504-.742-3.503-1.216c-2.003-.453-3.155-.852-3.155-.852s.226.678.501.965c.272.289.392.467.392.467s-1.677-.296-3.347-.391c-1.667-.09-2.344-.028-2.615-.051l-.263-.025s.069.329.669.615c.594.29.776.451.776.451"/><path d="M80.769 20.685c.581.967.358 2.764-.174 3.554-.534.794-1.389 1.297-1.922 1.906-.53.616-1.002 1.618-1.226 2.377-.231.758-.601 1.463-1.247 1.463-.616 0-1.179-.526-1.535-1.286-.354-.768-.436-1.82-1.763-2.521-1.323-.69-3.728-1.521-3.728-3.101 0-1.582 1.535-2.083 2.504-3.344.969-1.262 2.376-2.11 3.717-2.11 1.76.001 4.294 1.271 5.374 3.062"/><path d="M85.845 32.837c-.163-.417-.354-.76-.354-.76s.113-.244.452-.391c.528-.226.9-.177.919-.559.074-1.749-1.228-2.912-1.228-2.912.174-.101.471-.044.876.032.396.081.433-.094.433-.094-.632-1.874-2.52-3.072-2.52-3.072.277-.161.678-.013.999.082.326.097.601 0 .601 0-.33-1.131-1.161-1.97-2.281-2.539-1.116-.564-1.905-.597-2.005-.597-.094 0-.044.127.021.159.105.07.613.332 1.03.715.555.503.585.696.585.696s.083.273-.422.657c-.498.395-.97.684-1.029.78-.071.094-.032.194.075.258.113.062.745.42 1.486 1.031.747.618.973 1.05.795 1.133-.178.08-.714.206-.597.476.11.283.563.525.885.816.326.294.731.595.34 1.632-.241.646-.598.808-.917.808-.329 0-.507-.031-.458.083.054.114.569 1.098.34 1.647-.228.545-.465.808-1.163.725-.293-.034-.388-.017-.326.097.07.12.633.795.454 1.809-.109.621-.64.688-1.041.464-.237-.581-.485-1.162-.76-1.742-.094-.188-.317-.271-.507-.179-.183.093-.27.317-.174.504l.207.421c.177.361.338.725.491 1.076 0 .386-.019.912-.105 1.271-.146.625-.568.836-.9.124-.34-.712-.57-1.645-.584-1.78-.016-.126-.468.086-.499.33-.035.243-.236 1.393-.678 1.561-.21.086-.418-.384-.418-.95 0-.567.289-1.645-.421-2.182-.158-.125-.327-.162-.541-.141-.207.009-.311.161-.311.161-.057 1.609-.471 2.493-.471 2.493s.709-.67.709-.283c0 .387.11 1.661.512 2.163.408.503.807.677 1.17.677.131 0-.071-.42.466-.98.144-.162.258-.28.304-.118.048.165.324 1.049 1.24 1.022.738-.028 1.153-.532 1.368-1.141 1.692 5.134 1.538 10.131-.294 13.473 2.26-3.338 2.579-8.756.732-14.315.482-.22 1.394-.036 1.801-.846l.031-.087c2.291 4.744 2.821 9.593 1.519 13.086 1.754-3.611 1.292-9.007-1.329-14.239-.044-.366-.189-.587-.189-.587s.565-.404 1.327-.453c.203-.014.332-.085.426-.193 3.041 4.49 4.268 9.353 3.416 13.077 1.31-3.934.03-9.431-3.488-14.399"/><path d="M63.623 20.22c.257.147.381.341.172.721-.221.383-.488.606-1.025.647-.972.074-1.855-.605-3.73-.529-1.076.035-2.321.238-3.366.744-1.042.514-1.262.662-1.281.69-.021.037-.029-.18.126-.333.4-.411 2.252-1.774 5.089-2.251 2.232-.376 3.514.02 4.015.311"/><path d="M61.956 21.906c.053-.05.142-.037.167.057.025.088.117.523-.037 1.047-.154.515-.365.932-.95 1.394-.563.448-1.668.315-2.057-.512-.394-.824-.122-2.241.804-2.488.364-.099.47.197.502.42.058.413-.167.642-.013.961.159.321.622.407 1.033.025.404-.384.404-.505.464-.657l.087-.247"/><path d="M75.762 32.454c-.148-.172-.337-.17-.35.125-.038.483-.149.846-.501 1.367-.351.502-.467.128-.737.339-.736.555-.42 1.723-.42 2.333 0 .604-.155 1.188-.364 1.097-.448-.187-.706-.977-.759-1.23-.114-.557-.467-.485-.501-.347-.169.67-.767 2.242-1.166 2.975-.221.417-.497-.042-.633-.41.319-.876.689-1.757 1.116-2.629l.226-.462c.099-.207.014-.455-.197-.558-.199-.096-.448-.002-.549.201-.676 1.396-1.221 2.811-1.644 4.21-.307.608-.7 1.154-1.103 1.625-.271.307-.741-1.409-1.466-.499-.225.291-.953 1.261-1.207 1.606l-.09.076c.613-1.623 1.428-3.258 2.453-4.843l.265-.402c.111-.177.052-.402-.113-.521-.184-.113-.411-.057-.524.119-.933 1.439-1.697 2.929-2.287 4.404-.194-.757-.879-.01-1.179.383-.332.439-.733.969-.845.739l-.081-.374c-.048-.308-.313-.434-.649-.454.546-.949 1.174-1.888 1.883-2.801l.264-.34c.121-.145.085-.361-.062-.479-.146-.117-.36-.09-.476.057-.914 1.175-1.684 2.395-2.32 3.62-.281.057-.544.135-.74.195l-1.284.441c.021-.257-.046-.598-.34-.852-.292-.265-1.528-.024-1.983-.076-.465-.06-.535-.189-.465-.444.196-.692-.41-1.014-1.113-1.167-.702-.156-1.017-.334-1.017-.334.242-.674-.8-1.144-1.409-1.429-.605-.281-1.328-.699-1.328-.699l-.056-.546c-.061-.718-.913-.957-1.426-1.374-.508-.411-.724-1.215-.724-1.215s0 .105.171.852c.164.75.84 1.087 1.037 1.609.195.517-.144.93-.144.93.46.363 1.066.676 1.84 1.165.777.491.194.934.194.934.461.388 1.335.778 2.158 1.037.824.261.146.935.146.935.873.445 1.985.775 2.638.83.655.044.169.954.169.954.609.208 1.069.106 2.548-.256l.448-.081c-1.655 3.818-1.964 7.626-.828 10.418-.864-2.886-.353-6.661 1.432-10.39.396.137.351.499.258.705-.143.31-.025.696.22.592 1.264-.542 1.985-1.637 2.302-1.637.081 0 .136.081.173.176-1.36 4.246-1.302 8.336.176 11.215-1.064-2.668-1.061-6.172.012-9.832.787-.424 1.064-1.033 1.55-1.454.483-.411.677-.208.752.106.092.411-.244 1.115.167.946.508-.218.906-.51 1.219-.818-.743 4.574-.105 8.767 1.811 11.584-1.807-3.295-2.118-8.057-.808-13.079l.153-.364c.138-.258.313.067.335.462.028.405.072.663.33.523 1.275-.656 2.132-2.714 2.208-3.145.033-.175.149-.062.318.092.591.54.438 1.008.569.994.359-.048.736-.278 1.089-.856.346-.579.278-1.947.278-2.363 0-.417.707.314.707.314s.458-.9.538-2.561c.065-1.234-.09-1.768-.265-1.964"/><path d="M64.625 42.653c-.037-.094-.092-.177-.174-.177l-.121.073.25.265.045-.161"/><path d="M56.935 40.645c-.07.255 0 .385.466.444.279.029.842-.039 1.31-.043-.58-.326-1.174-.632-1.794-.89.054.14.072.296.018.489"/><path d="M60.078 41.896l-.4-.27c.042.137.057.275.047.392l.353-.122"/><path d="M63.933 45.485c.152-.874.365-1.767.648-2.67l-.252-.265c-.315.156-.898.842-1.806 1.35.503.496.966 1.032 1.41 1.585"/><path d="M65.353 43.657c-.153.138-.325.265-.54.381-.199.681-.324 1.347-.45 2.009 2.128 2.888 3.427 6.43 3.5 10.275l.31-.203c.61-.322 1.282-.382 1.926-.164-.028-.772-.111-1.538-.223-2.291-.846-1.504-1.374-3.33-1.57-5.35-.771-1.692-1.771-3.257-2.953-4.657"/><path d="M53.161 39.052c.033-.167-.03-.385-.395-.614-.773-.489-1.379-.802-1.839-1.164 0 0 .227-.31.179-.717-.379-.023-.754-.058-1.14-.058-4.323 0-8.318 1.373-11.603 3.69 1.12.445 1.052 1.446.831 2.189 3.001-2.267 6.725-3.626 10.772-3.626 1.092.001 2.158.113 3.195.3"/><path d="M32.308 59.532c-.75.63-1.567.682-2.211.438 1.582 9.562 9.863 16.858 19.869 16.858 3.646 0 7.054-.981 10.005-2.671-.334-.503-.441-1.454-.132-2.551-2.831 1.872-6.222 2.968-9.874 2.968-8.908.001-16.284-6.519-17.657-15.042"/><path d="M28.425 56.718c-.874-.173-1.794-.116-2.406-.007-1.445.25-2.225.394-2.225.394s.243-.387.357-.653c.113-.278-.156-.343-.306-.317-.148.029-1.22.039-2.145.195-.92.151-1.952-.148-1.952-.148.21-.179.341-.48.368-.639.016-.085-.023-.174-.207-.283-.184-.104-.701-.347-1.708-.141-2.113.436-2.79-.409-2.79-.409s.109-1.112.584-2.77c.718-2.498 1.617-3.789 1.68-3.94.065-.151-.086-.275-.171-.297-.09-.023-1.143.068-1.143.068s.541-1.443 1.699-3.704c1.162-2.253 1.503-3.118 1.62-3.551.197-.729-.928-.438-.928-.438s.448-.793 1.1-1.659c.639-.876 1.545-1.783 1.675-1.953.133-.174.037-.223-.076-.236l-.684-.024s.405-.619 1.548-1.55c1.147-.916 1.604-1.292 1.678-1.367.167-.165.175-.28.009-.367l-.426-.171s.354-.34 1.385-.795c1.028-.45 1.825-.561 2.016-.615.183-.055.114-.175.077-.233-.028-.057-.466-.364-.466-.364s.316-.246 1.343-.699c1.022-.458 1.988-.565 1.988-.565s-1.174-.276-4.253.74c-2.389.796-3.417 1.6-3.417 1.6s.413-.102.811-.15c.403-.049.691-.003.691-.003s-1.407.693-2.695 1.558c-1.286.871-1.582 1.207-1.582 1.207s.367-.076.682-.056c.421.028.761-.133.761-.133s-1.471 1.134-2.535 2.37c-1.06 1.231-1.355 1.8-1.355 1.8s.43-.217.909-.33c.492-.122.663 0 .663 0s-.398.715-1.088 1.546c-.687.828-1.188 1.673-1.508 2.382-.317.706-.375 1.054-.375 1.054s.405-.027.779-.282c.374-.26.669-.268.669-.268s-1.692 3.714-2.131 5.879c-.169.857-.345 1.503-.561 1.98 0 0 .475-.106.861-.392.387-.278.456-.298.456-.298s-1.084 3.496-.875 5.416c.013.102 1.504 1.078 2.884.84 0 0-.055.251-.77.392-.706.144-1.027.501-1.027.501.818.007 2.168.508 3.558.597 1.394.084 2.586-.089 2.586-.089s-.101.178-.586.371c-.638.258-1.222.337-1.222.337s.171.161.646.272c.468.109 1.668.055 2.929-.21 1.25-.263 2.032-.24 3.301-.293 1.266-.044 1.532.882 2.149 1.604.2.229.49.426.821.551-.099-.596-.172-1.198-.217-1.814-.624-.516-.781-1.297-1.453-1.441"/><path d="M70.311 54.402c-.184-.332-.341-.691-.494-1.056l.058.317c.141.253.277.509.436.739"/><path d="M61.967 43.401l-.038.122c-.143.309-.025.696.22.591l.373-.214c-.178-.174-.37-.333-.555-.499"/><path d="M64.801 53.869c-.866-2.17-.985-4.906-.439-7.822l-.429-.562c-.559 3.196-.276 6.155.868 8.384"/><path d="M59.383 41.165c-.111-.102-.379-.12-.673-.12.329.187.651.377.966.58-.047-.161-.133-.322-.293-.46"/><path d="M46.789 56.044c-.217 0-.423.045-.612.114-.704.25-1.214.916-1.214 1.715 0 1.008.824 1.825 1.826 1.825.412 0 .782-.144 1.086-.369.449-.329.737-.854.737-1.456-.001-1.014-.819-1.829-1.823-1.829"/><path d="M57.472 61.686l-.317-.28-.11-.411-.166-.163.039-.09-.084-.047-.042-.139.004-.094-1.397-1.383-.313-.292-1.737-1.662-.909-.82-.769-.696-.982-.857-.25-.232-.334-.29-.396-.338-.189-.157v-5.11h-5.662l-.048.179-.029.086.029.072.093.086.03.072.037.158.081.134h-.048l.065.146-.04.092-.051.21v.145l-.044-.018-.03.076.074.21-.313.701-.076.183v.102l.05.069.026.072-.026.097.017.04.239.225.109.068.035.12.076.069.109.159.042.075.118.107v.095l.032.089.029.236-.04.101-.034.111v.153l.034.114.074.186.073.161-.051.184.028.06.073.074.097.102.122.119.021.044.074.027.062.096.12.188.085.054.167.111.074.193h.047l.076.06.022.047.154-.081c.333-.122.692-.198 1.069-.198 1.753 0 3.182 1.422 3.182 3.188 0 1.038-.489 1.941-1.253 2.518l-.021.101v.082l-.013.039.064.119-.025.083.025.125-.052.201.011.089.16.034.087.134.651.016.085.047.303.034.107-.034.198.055.143.153.122.045.097.232.087.074.217.058.026.02.155.027.051.034.329-.034.098.057.12.26v.05l-.039.087.172.087.047-.077.083-.029.112.029.203.183.074.062.077.027.202.213.132.082.194.208.259.488.033.181-.033.11.062.147-.038.037v.069l.02.022.052-.058.019-.006.103.075.011.087-.098-.087h-.023l.023.043.052.066v.139l1.37-.148 1.852-.175.199-.004.051-.051.033-.125.066-.069v-.21l-.078-.082-.173-.013-.056-.047-.015-.084.023-.233-.065-.069.03-.089-.008-.082.048-.042.115-.119-.027-.044.079-.022.056-.151-.024-.114.037-.052-.034-.332.119-.114-.006-.039.048-.109.321-.274.08-.032-.013-.067z"/></g></svg>